<svg viewBox="0 0 150 150" xmlns="http://www.w3.org/2000/svg"><g fill="#1ca8dd"><path d="M41.45 58.6l-2.9 3c-.2.2-.3.4-.3.7 0 .3.1.5.3.7l7.3 7.3c.2.2.5.3.7.3.2 0 .5-.1.7-.3l7.5-7.5 32.5 32.5-7.5 7.5c-.2.2-.3.4-.3.7 0 .3.1.5.3.7l7.3 7.3c.2.2.5.3.7.3.2 0 .5-.1.7-.3l2.9-2.9 5.1 5.1c.2.2.4.3.7.3.3 0 .5-.1.7-.3l15.8-15.8c.2-.2.3-.4.3-.7 0-.3-.1-.5-.3-.7l-5.1-5.1 2.9-2.9c.4-.4.4-1 0-1.4l-7.3-7.3c-.4-.4-1-.4-1.4 0l-7.5 7.5-32.4-32.6 7.5-7.5c.2-.2.3-.4.3-.7 0-.3-.1-.5-.3-.7l-7.3-7.3c-.4-.4-1-.4-1.4 0l-2.9 2.9-5.1-5.1c-.2-.2-.4-.3-.7-.3-.3 0-.5.1-.7.3l-15.9 15.9c-.1.1-.3.4-.3.7 0 .3.1.5.3.7l5.1 5zm62.1 23.2l5.9 5.9-21.7 21.7-5.9-5.9 21.7-21.7zm-41.2-41.2l5.9 5.9-21.7 21.7-5.9-5.9 21.7-21.7z" fill-opacity=".1"/><path d="M41.45 58.6l-2.9 3c-.2.2-.3.4-.3.7 0 .3.1.5.3.7l7.3 7.3c.2.2.5.3.7.3.2 0 .5-.1.7-.3l7.5-7.5 32.5 32.5-7.5 7.5c-.2.2-.3.4-.3.7 0 .3.1.5.3.7l7.3 7.3c.2.2.5.3.7.3.2 0 .5-.1.7-.3l2.9-2.9 5.1 5.1c.2.2.4.3.7.3.3 0 .5-.1.7-.3l15.8-15.8c.2-.2.3-.4.3-.7 0-.3-.1-.5-.3-.7l-5.1-5.1 2.9-2.9c.4-.4.4-1 0-1.4l-7.3-7.3c-.4-.4-1-.4-1.4 0l-7.5 7.5-32.4-32.6 7.5-7.5c.2-.2.3-.4.3-.7 0-.3-.1-.5-.3-.7l-7.3-7.3c-.4-.4-1-.4-1.4 0l-2.9 2.9-5.1-5.1c-.2-.2-.4-.3-.7-.3-.3 0-.5.1-.7.3l-15.9 15.9c-.1.1-.3.4-.3.7 0 .3.1.5.3.7l5.1 5zm70.1 38.5l-14.4 14.4-4.4-4.4 14.4-14.4 4.4 4.4zm-8-15.3l5.9 5.9-21.7 21.7-5.9-5.9 21.7-21.7zm-9.6 6.8l-5.2 5.2-32.6-32.4 5.2-5.2 32.6 32.4zm-31.6-48l5.9 5.9-21.7 21.7-5.9-5.9 21.7-21.7zm-9.4-2.1l4.4 4.4-14.5 14.3-4.4-4.4 14.5-14.3z"/></g></svg>