<svg xmlns="http://www.w3.org/2000/svg" viewBox="0 0 100 125"><path d="M50 89.6c17.9 0 32.4-14.5 32.4-32.4 0-8.4-3.3-16.1-8.6-21.9l2.8-3.3c.6-.7.9-1.6.8-2.5-.1-.9-.5-1.7-1.2-2.3l-1.6-1.3c-.7-.6-1.6-.9-2.5-.8-.9.1-1.7.5-2.3 1.2L67 29.7c-4.7-2.9-10.2-4.7-16-4.8v-3h3.2c2 0 3.6-1.6 3.6-3.6v-2.6c0-2-1.6-3.6-3.6-3.6h-8.4c-2 0-3.6 1.6-3.6 3.6v2.6c0 2 1.6 3.6 3.6 3.6H49v3c-5.9.2-11.4 1.9-16 4.8l-2.8-3.4c-.6-.7-1.4-1.1-2.3-1.2-.9-.1-1.8.2-2.5.8l-1.6 1.3c-.7.6-1.1 1.4-1.2 2.3-.1.9.2 1.8.8 2.5l2.8 3.3c-5.3 5.8-8.6 13.5-8.6 21.9 0 17.9 14.5 32.4 32.4 32.4zm21.4-62c.2-.3.6-.5.9-.5.4 0 .7.1 1 .3l1.6 1.3c.3.2.5.6.5.9 0 .4-.1.7-.3 1l-2.7 3.2c-1.2-1.1-2.4-2.1-3.7-3.1l2.7-3.1zm-25.6-7.8c-.9 0-1.6-.7-1.6-1.6v-2.6c0-.9.7-1.6 1.6-1.6h8.4c.9 0 1.6.7 1.6 1.6v2.6c0 .9-.7 1.6-1.6 1.6h-8.4zM24.9 30.7c-.2-.3-.3-.6-.3-1s.2-.7.5-.9l1.6-1.3c.3-.2.6-.4 1-.3.4 0 .7.2.9.5l2.7 3.2c-1.3.9-2.6 2-3.7 3.1l-2.7-3.3zM50 26.8c16.8 0 30.4 13.6 30.4 30.4C80.4 74 66.8 87.6 50 87.6S19.6 74 19.6 57.2c0-16.7 13.6-30.4 30.4-30.4z"/><path d="M50 84.2c14.9 0 27-12.1 27-27s-12.1-27-27-27-27 12.1-27 27 12.1 27 27 27zm0-51.9c13.8 0 25 11.2 25 25s-11.2 25-25 25S25 71 25 57.2s11.2-24.9 25-24.9z"/><path d="M50 61.9c2.6 0 4.6-2.1 4.6-4.6 0-2.2-1.6-4.1-3.6-4.5v-16c0-.6-.4-1-1-1s-1 .4-1 1v16c-2.1.5-3.6 2.3-3.6 4.5 0 2.5 2 4.6 4.6 4.6zm0-7.3c1.5 0 2.6 1.2 2.6 2.6s-1.2 2.6-2.6 2.6-2.6-1.2-2.6-2.6 1.2-2.6 2.6-2.6z"/></svg>