<svg viewBox="0 0 150 150" xmlns="http://www.w3.org/2000/svg"><g fill="#1ca8dd"><path d="M62.6 115.2h24.8c2.4 0 4.3-1.9 4.3-4.3v-50c0-1.9-1.2-3.5-3-4.1.2-.4.3-.9.3-1.4v-3.5c0-1.5-1.1-2.8-2.6-3.1 0-3.3-2.7-6-6-6v-6h.6c.6 0 1-.4 1-1s-.4-1-1-1H69c-.6 0-1 .4-1 1s.4 1 1 1h.6v6c-3.3 0-6 2.7-6 6-1.5.3-2.6 1.5-2.6 3.1v3.5c0 .5.1 1 .3 1.4-1.7.6-3 2.2-3 4.1v49.9c0 2.4 1.9 4.4 4.3 4.4zm9-78.2h6.9v6h-6.9v-6zm-2.1 7.9h11c2.2 0 3.9 1.7 4 3.9h-19c.1-2.1 1.9-3.9 4-3.9zM62.9 52c0-.6.5-1.1 1.1-1.1h21.9c.6 0 1.1.5 1.1 1.1v3.4c0 .6-.5 1.1-1.1 1.1H64.1c-.2 0-.4 0-.5-.1-.4-.2-.6-.6-.6-1V52zm-2.6 8.9c0-1.3 1-2.3 2.3-2.3h24.8c1.3 0 2.3 1 2.3 2.3v5H60.3v-5zm0 7h29.4v43c0 1.3-1 2.3-2.3 2.3H62.6c-1.3 0-2.3-1-2.3-2.3v-43z"/><path d="M62.6 115.2h24.8c2.4 0 4.3-1.9 4.3-4.3v-50c0-1.9-1.2-3.5-3-4.1.2-.4.3-.9.3-1.4v-3.5c0-1.5-1.1-2.8-2.6-3.1 0-3.3-2.7-6-6-6v-6h.6c.6 0 1-.4 1-1s-.4-1-1-1H69c-.6 0-1 .4-1 1s.4 1 1 1h.6v6c-3.3 0-6 2.7-6 6-1.5.3-2.6 1.5-2.6 3.1v3.5c0 .5.1 1 .3 1.4-1.7.6-3 2.2-3 4.1v49.9c0 2.4 1.9 4.4 4.3 4.4zm6.9-70.3h11c2.2 0 3.9 1.7 4 3.9h-19c.1-2.1 1.9-3.9 4-3.9zM62.9 52c0-.6.5-1.1 1.1-1.1h21.9c.6 0 1.1.5 1.1 1.1v3.4c0 .6-.5 1.1-1.1 1.1H64.1c-.2 0-.4 0-.5-.1-.4-.2-.6-.6-.6-1V52h-.1z" fill-opacity=".1"/></g></svg>