<svg viewBox="0 0 150 150" xmlns="http://www.w3.org/2000/svg"><path d="M49.9 39.45c-4.6 0-8.4 3.7-8.4 8.4v54.4c0 4.6 3.7 8.3 8.4 8.3h50.3c4.6 0 8.3-3.7 8.3-8.3v-54.4c0-4.6-3.7-8.4-8.3-8.4H49.9z" stroke-width="0" fill-opacity=".1" fill="#1ca8dd"/><path d="M49.9 39.45c-4.6 0-8.4 3.7-8.4 8.4v54.4c0 4.6 3.7 8.3 8.4 8.3h50.3c4.6 0 8.3-3.7 8.3-8.3v-54.4c0-4.6-3.7-8.4-8.3-8.4H49.9zm56.7 8.4v54.4c0 3.5-2.8 6.3-6.3 6.3H49.9c-3.5 0-6.4-2.8-6.4-6.3v-54.4c0-3.5 2.8-6.4 6.4-6.4h50.3c3.5 0 6.4 2.9 6.4 6.4z" fill="#1ca8dd"/><path d="M75.1 49.45c-.4 0-9.6-.1-14.6 4.9-.3.3-.4.9-.1 1.3l5.7 7.8c.2.3.5.4.8.4h16.4c.3 0 .6-.2.8-.4l5.7-7.8c.3-.4.2-.9-.1-1.3-5-5-14.2-4.9-14.6-4.9z" fill="#fff"/><path d="M75.1 49.45c-.4 0-9.6-.1-14.6 4.9-.3.3-.4.9-.1 1.3l5.7 7.8c.2.3.5.4.8.4h16.4c.3 0 .6-.2.8-.4l5.7-7.8c.3-.4.2-.9-.1-1.3-5-5-14.2-4.9-14.6-4.9zm-1.2 12.4c.1-.5.5-.8 1-.8s.9.4 1 .8h-2zm8.9 0h-4.9c-.1-1.2-.9-2.3-2-2.7v-5.4c0-.6-.4-1-1-1s-1 .4-1 1v5.4c-1.1.4-1.9 1.4-2 2.7h-4.5l-4.9-6.7c4.5-3.8 12.5-3.8 12.6-3.8.1 0 8 0 12.5 3.8l-4.8 6.7z" fill="#1ca8dd"/></svg>