<svg class="icons-sprite" xmlns="http://www.w3.org/2000/svg" xmlns:xlink="http://www.w3.org/1999/xlink">
  <defs>
    <path id="a" d="M41.023 20.781l-14.523 14-7.36-7.547-2.152 2.094 9.446 9.688 16.671-16.078z"/>
  </defs>
  <symbol class="icon" id="bem" viewBox="0 0 44 33">
    <path fill-rule="evenodd" d="M26 33v-2h18v2H26zm-6-2H0V0h10v10h10c4 0 6 2.093 6 6l-.009 8.95C25.991 28.9 24 31 20 31zm4-15a3.819 3.819 0 0 0-4-4H8V2H2v27h18a4.324 4.324 0 0 0 4-4v-9z"/>
  </symbol>
  <symbol class="icon" id="close" viewBox="0 0 16 16">
    <path d="M16 14.546L14.545 16 8 9.455 1.455 16 0 14.546 6.545 8 0 1.455 1.455 0 8 6.546 14.545 0 16 1.455 9.454 8 16 14.546z" class="cls-1"/>
  </symbol>
  <symbol class="icon" id="github-octocat" viewBox="0 0 16 16">
    <path fill-rule="evenodd" d="M8 0C3.58 0 0 3.58 0 8c0 3.54 2.29 6.53 5.47 7.59.4.07.55-.17.55-.38 0-.19-.01-.82-.01-1.49-2.01.37-2.53-.49-2.69-.94-.09-.23-.48-.94-.82-1.13-.28-.15-.68-.52-.01-.53.63-.01 1.08.58 1.23.82.72 1.21 1.87.87 2.33.66.07-.52.28-.87.51-1.07-1.78-.2-3.64-.89-3.64-3.95 0-.87.31-1.59.82-2.15-.08-.2-.36-1.02.08-2.12 0 0 .67-.21 2.2.82.64-.18 1.32-.27 2-.27.68 0 1.36.09 2 .27 1.53-1.04 2.2-.82 2.2-.82.44 1.1.16 1.92.08 2.12.51.56.82 1.27.82 2.15 0 3.07-1.87 3.75-3.65 3.95.29.25.54.73.54 1.48 0 1.07-.01 1.93-.01 2.2 0 .21.15.46.55.38A8.013 8.013 0 0 0 16 8c0-4.42-3.58-8-8-8z"/>
  </symbol>
  <symbol class="icon" id="hamburger" viewBox="0 0 100 100">
    <path d="M0 14v-2h20v2H0zm0-8h20v2H0V6zm0-6h20v2H0V0z"/>
  </symbol>
  <symbol class="icon" id="heart" viewBox="0 0 100 100">
    <path d="M62 113l-8.68-8.6C21.08 76.152 0 57.114 0 33.777 0 14.739 14.88 0 34.1 0A37.405 37.405 0 0 1 62 12.9 37.405 37.405 0 0 1 89.9 0C109.12 0 124 14.739 124 33.777c0 23.337-21.08 42.375-53.32 70.625z"/>
  </symbol>
  <symbol class="icon" id="icons8-great_britain" viewBox="0 0 100 100">
    <g fill="none"><path fill="#3F51B5" d="M0 0h20v12.727H0z"/><g fill="#FFF"><path d="M0 1.916l9.46 5.782 1.42-2.328L2.095 0H0z"/><path d="M20 0h-1.64L9.573 5.37l1.422 2.328L20 2.194z"/><path d="M10.995 4.669L9.573 6.996l9.377 5.731H20v-2.555z"/><path d="M0 10.45v2.277h1.505l9.376-5.73L9.46 4.668z"/><path d="M0 4.545h20v3.636H0z"/><path d="M8.182 0h3.636v12.727H8.182z"/></g><g fill="#E53935"><path d="M6.917 4.545L0 .318v1.065l5.174 3.162zM19.231 0l-7.437 4.545h1.743L20 .595V0zm-5.103 8.182L20 11.77v-1.065l-4.129-2.523zm-7.802 0L0 12.048v.68h.633L8.07 8.181zM0 5.455h20v1.818H0z"/><path d="M9.091 0h1.818v12.727H9.091z"/></g></g>
  </symbol>
  <symbol class="icon" id="logo" viewBox="0 0 134 45">
    <path fill="#FFF" fill-rule="evenodd" d="M127.318 7.038a22.137 22.137 0 0 1 6.517 15.721c0 12.282-9.957 22.23-22.23 22.23H22.717a22.146 22.146 0 0 1-15.72-6.508A22.173 22.173 0 0 1 .478 22.76C.478 10.48 10.437.53 22.718.53h5.715v12.718c1.117-.95 3.04-1.684 5.463-1.684 6.153 0 11.133 4.978 11.133 11.13 0 6.145-4.98 11.132-11.133 11.132-6.144 0-11.13-4.987-11.13-11.131V6.197h-.049c-9.14 0-16.57 7.43-16.57 16.562 0 9.133 7.43 16.564 16.57 16.564h88.888c9.133 0 16.564-7.43 16.564-16.564 0-9.131-7.431-16.562-16.564-16.562H86.59V33.68h-5.667V.53h30.682a22.13 22.13 0 0 1 15.713 6.508zM33.896 17.23a5.463 5.463 0 0 1 5.465 5.465 5.467 5.467 0 0 1-5.465 5.464 5.472 5.472 0 0 1-5.463-5.464 5.468 5.468 0 0 1 5.463-5.465zm13.765 16.455v-21.63h5.667v21.63H47.66zm30.558-10.99c0 6.145-4.978 11.131-11.13 11.131-6.145 0-11.132-4.986-11.132-11.13 0-6.153 4.987-11.131 11.131-11.131a11.124 11.124 0 0 1 11.131 11.13zm-5.666 0a5.462 5.462 0 0 0-5.465-5.464 5.467 5.467 0 0 0-5.464 5.465 5.473 5.473 0 0 0 5.464 5.464 5.467 5.467 0 0 0 5.465-5.464zm38.996 10.99h-5.667v-1.943c-1.264 1.33-3.116 2.085-5.464 2.085-6.145 0-11.131-4.987-11.131-11.131 0-6.152 4.986-11.133 11.13-11.133 6.143 0 11.13 4.979 11.132 11.13v10.992zm-11.131-5.526a5.472 5.472 0 0 0 5.464-5.463 5.467 5.467 0 0 0-5.464-5.465 5.467 5.467 0 0 0-5.465 5.465 5.472 5.472 0 0 0 5.465 5.463z"/>
  </symbol>
  <symbol class="icon" id="maginifer" viewBox="0 0 100 100">
    <path d="M17 15.803L15.803 17l-3.655-3.656C10.866 14.365 9.265 15 7.5 15A7.5 7.5 0 1 1 15 7.5c0 1.765-.635 3.366-1.655 4.647L17 15.803zM7.5 2a5.5 5.5 0 1 0 0 11 5.5 5.5 0 1 0 0-11z"/>
  </symbol>
  <symbol class="icon" id="pattern" viewBox="0 0 100 100">
    
  </symbol>
  <symbol class="icon" id="icons8-arrows_long_right_1em" viewBox="0 0 16 16">
    <path d="M11.734 4.031l-.718.688 2.195 2.289H2v1h11.191l-2.175 2.273.718.688L15.066 7.5z"/>
  </symbol>
  <symbol class="icon" id="icons8-book_1em" viewBox="0 0 16 16">
    <path d="M4.5 2C3.676 2 3 2.676 3 3.5V13h.21c.22.555.661 1 1.29 1H13v-1H4.5a.494.494 0 0 1-.5-.5c0-.281.219-.5.5-.5H13V2zm0 1H12v8H4.5c-.176 0-.344.04-.5.094V3.5c0-.281.219-.5.5-.5zM5 5v1h6V5z"/>
  </symbol>
  <symbol class="icon" id="icons8-bottom_navigation_toolbar_1em" viewBox="0 0 16 16">
    <path d="M2.5 2C1.676 2 1 2.676 1 3.5v8c0 .824.676 1.5 1.5 1.5h11c.824 0 1.5-.676 1.5-1.5v-8c0-.824-.676-1.5-1.5-1.5zm0 1h11c.281 0 .5.219.5.5V9H2V3.5c0-.281.219-.5.5-.5zM2 10h2v2H2.5a.494.494 0 0 1-.5-.5zm3 0h9v1.5c0 .281-.219.5-.5.5H5z"/>
  </symbol>
  <symbol class="icon" id="icons8-checkmark_1em" viewBox="0 0 16 16">
    <path d="M14.5 2.793l-9 9-3.648-3.645-.352-.355-.707.707.355.352L5.5 13.207 15.207 3.5z"/>
  </symbol>
  <symbol class="icon" id="icons8-cursor_1em" viewBox="0 0 16 16">
    <path d="M5.656 2.094a.563.563 0 0 0-.312.023.584.584 0 0 0-.344.516v10.789l2.79-1.809 1.312 2.559 2.445-1.25-1.207-2.344 3.133-.812-.618-.618-6.91-6.906a.53.53 0 0 0-.289-.148zM6 3.707l5.527 5.527-2.648.688 1.32 2.562-.66.344-1.367-2.656L6 11.578z"/>
  </symbol>
  <symbol class="icon" id="icons8-device_manager_1em" viewBox="0 0 16 16">
    <path style="line-height:normal;text-indent:0;text-align:start;text-decoration-line:none;text-decoration-style:solid;text-decoration-color:#000;text-transform:none;block-progression:tb;isolation:auto;mix-blend-mode:normal" d="M7 1v3h1V2h5v11h-1v1h2V1H7zm2 2v1h3V3H9zM4.996 5c-.546 0-1 .453-1 1v1h-1.5c-.778 0-1.5.631-1.5 1.488V12.5c0 .858.716 1.502 1.502 1.502h6.998c.786 0 1.5-.645 1.5-1.502V8.363c0-.428-.186-.827-.486-1.058C10.21 7.074 9.85 7 9.498 7H7.996V6c0-.547-.453-1-1-1h-2zM9 5v1h3V5H9zM4.996 6h2v1h-2V6zm-2.5 2h7.002c.202 0 .342.051.402.098.06.046.096.078.096.265V9h-8v-.512c0-.37.173-.488.5-.488zm-.5 2h1v1h1.129v-1H8v1h.996v-1h1v2.5c0 .375-.176.502-.5.502H2.498c-.322 0-.502-.13-.502-.502V10z" font-family="sans-serif" font-weight="400" overflow="visible" white-space="normal"/>
  </symbol>
  <symbol class="icon" id="icons8-down_arrow_1em" viewBox="0 0 16 16">
    <path d="M7 1v11.191L3.723 9.016l-.696.718 4.473 4.34 4.473-4.34-.696-.718L8 12.19V1z"/>
  </symbol>
  <symbol class="icon" id="icons8-exe_1em" viewBox="0 0 100 100">
    <path d="M2.75 0A2.764 2.764 0 0 0 0 2.75V11h1.833V2.75c0-.516.401-.917.917-.917H11v5.5h5.5V11h1.833V6.037L12.296 0H2.75zm10.083 3.13l2.37 2.37h-2.37V3.13zM0 12.833V22h5.5v-1.833H1.833v-1.834h1.834V16.5H1.833v-1.833H5.5v-1.834H0zm7.333 0l1.834 4.584L7.333 22h1.834l.916-2.292L11 22h1.833L11 17.417l1.833-4.584H11l-.917 2.292-.916-2.292H7.333zm7.334 0V22h5.5v-1.833H16.5v-1.834h1.833V16.5H16.5v-1.833h3.667v-1.834h-5.5z"/>
  </symbol>
  <symbol class="icon" id="icons8-home_page_1em" viewBox="0 0 16 16">
    <path d="M8 1.32L.66 8.133l.68.734.66-.613V14h12V8.254l.66.613.68-.734L12 5.03V2h-1v2.102zm0 1.36l5 4.648V13h-3V8H6v5H3V7.328zM7 9h2v4H7z"/>
  </symbol>
  <symbol class="icon" id="icons8-menu_1em" viewBox="0 0 24 24">
    <path style="line-height:normal;text-indent:0;text-align:start;text-decoration-line:none;text-decoration-style:solid;text-decoration-color:#000;text-transform:none;block-progression:tb;isolation:auto;mix-blend-mode:normal" d="M2 5v2h20V5H2zm0 6v2h20v-2H2zm0 6v2h20v-2H2z" font-family="sans-serif" font-weight="400" overflow="visible" white-space="normal"/>
  </symbol>
  <symbol class="icon" id="icons8-pdf_2_1em" viewBox="0 0 100 100">
    <path d="M2.75 0A2.764 2.764 0 0 0 0 2.75V11h1.833V2.75c0-.516.401-.917.917-.917H11v5.5h5.5V11h1.833V6.037L12.296 0H2.75zm10.083 3.13l2.37 2.37h-2.37V3.13zM0 12.833V22h1.833v-3.667h.917a2.764 2.764 0 0 0 2.75-2.75 2.764 2.764 0 0 0-2.75-2.75H0zm7.333 0V22h2.75a2.764 2.764 0 0 0 2.75-2.75v-3.667a2.764 2.764 0 0 0-2.75-2.75h-2.75zm7.334 0V22H16.5v-3.667h1.833V16.5H16.5v-1.833h3.667v-1.834h-5.5zM1.833 14.667h.917c.516 0 .917.4.917.916s-.401.917-.917.917h-.917v-1.833zm7.334 0h.916c.516 0 .917.4.917.916v3.667c0 .516-.4.917-.917.917h-.916v-5.5z"/>
  </symbol>
  <symbol class="icon" id="icons8-play_round_1em" viewBox="0 0 16 16">
    <path d="M7.5 1A6.51 6.51 0 0 0 1 7.5 6.51 6.51 0 0 0 7.5 14 6.51 6.51 0 0 0 14 7.5 6.51 6.51 0 0 0 7.5 1zm0 1C10.543 2 13 4.457 13 7.5S10.543 13 7.5 13A5.493 5.493 0 0 1 2 7.5C2 4.457 4.457 2 7.5 2zM5 3.992v7.02L11.086 7.5zM6 5.72L9.086 7.5 6 9.281z"/>
  </symbol>
  <symbol class="icon" id="icons8-test_passed_1em" viewBox="0 0 16 16">
    <path style="line-height:normal;text-indent:0;text-align:start;text-decoration-line:none;text-decoration-style:solid;text-decoration-color:#000;text-transform:none;block-progression:tb;isolation:auto;mix-blend-mode:normal" d="M8 1c-.504 0-.969.13-1.338.377-.205.136-.246.405-.367.623H4.502A1.51 1.51 0 0 0 3 3.502v8.992C3 13.32 3.68 14 4.506 14h6.99C12.32 14 13 13.32 13 12.496V3.498C13 2.677 12.323 2 11.502 2H9.705c-.12-.218-.162-.487-.367-.623C8.968 1.131 8.504 1 8 1zm0 1c.324 0 .61.093.783.209.174.116.217.218.217.291V3h1v1H6V3h1v-.5c0-.073.043-.175.217-.291C7.39 2.093 7.677 2 8 2zM4.502 3H5v2h6V3h.502c.28 0 .498.217.498.498v8.998c0 .284-.22.504-.504.504h-6.99A.497.497 0 0 1 4 12.494V3.502C4 3.219 4.219 3 4.502 3zm4.113 2.992l-.687.725 1.556 1.476 1.52-1.48-.697-.717-.832.81-.86-.814zM5 7v1h2V7H5zm3.615 2.137l-.687.726 1.556 1.477 1.52-1.483-.697-.714-.832.81-.86-.816zM5 10v1h2v-1H5z"/>
  </symbol>
  <symbol class="icon" id="down_chevron" viewBox="0 0 10 5">
    <path d="M5 5L0 1.072.683 0 5 3.391 9.317 0 10 1.072 5 5z"/>
  </symbol>
  <symbol class="icon" id="left_chevron" viewBox="0 0 7.13 14">
    <path d="M0 7l5.598-7 1.528.956L2.293 7l4.833 6.043L5.598 14 0 7z"/>
  </symbol>
  <symbol class="icon" id="right_chevron" viewBox="0 0 7.12 14">
    <path d="M7.12 7l-5.598 7-1.528-.957L4.827 7-.006.956 1.522 0 7.12 7z"/>
  </symbol>
  <symbol class="icon" id="up_chevron" viewBox="0 0 10 5">
    <path d="M5 0l5 3.928L9.317 5 5 1.609.683 5 0 3.928 5 0z" class="cls-1"/>
  </symbol>
  <symbol class="icon" id="icons8-collaborator_dots" viewBox="0 0 80 80">
    <path d="M38.727 9c-4.84 0-9.192 2.648-12.348 5.223-3.156 2.578-5.168 5.164-5.168 5.164l-.902 1.156 1.41.414s.547.152 1.203.824c.652.668 1.351 1.809 1.351 3.969 0 2.801.43 5.063.645 6.02A2.738 2.738 0 0 0 24 33.801c0 .648.195 1.203.355 1.746.079.273.157.527.208.719.05.191.062.379.062.234 0 1.359 1.141 2.422 2.484 2.469A12.948 12.948 0 0 0 32 48.52v2.023l-3.043 2.629c-2.262.988-5.828 2.578-8.926 4.535-1.578.996-3.031 2.078-4.133 3.266C14.797 62.16 14 63.5 14 65v6h52v-6c0-1.5-.797-2.84-1.898-4.027-1.102-1.188-2.555-2.27-4.133-3.266-3.098-1.957-6.664-3.547-8.926-4.535L48 50.543v-2.02a12.946 12.946 0 0 0 4.891-9.554c1.343-.047 2.484-1.11 2.484-2.469 0 .145.012-.043.063-.234.05-.192.128-.446.207-.719.16-.543.355-1.098.355-1.746 0-.821-.371-1.543-.941-2.055.183-1.055.941-5.57.941-8.746 0-3.594-1.344-6.168-3.156-7.766-1.629-1.429-3.543-2.004-5.239-2.125-.273-.433-.757-1.113-1.761-1.898C44.402 10.09 42.09 9 38.727 9zm0 2c2.937 0 4.761.91 5.882 1.789 1.125.879 1.496 1.652 1.496 1.652l.274.559H47c1.332 0 3.125.508 4.52 1.738C52.918 17.969 54 19.891 54 23c0 2.789-.664 6.859-.859 8h-.016c-.086 0-.07.02-.125.027V28c0-3.422-1.398-5.723-2.805-7.086-1.406-1.363-2.879-1.863-2.879-1.863l-.57-.192-.437.418s-.629.618-2.149 1.313C42.641 21.285 40.289 22 37 22c-1.801 0-4.172.637-6.23 2.074-2.051 1.434-3.758 3.778-3.766 6.957-.055-.008-.043-.031-.129-.031-.023 0-.047.008-.07.008a25.783 25.783 0 0 1-.532-5.258c0-2.617-.937-4.355-1.918-5.363-.417-.43-.511-.356-.875-.571.692-.812 1.977-2.253 4.165-4.039C30.617 13.352 34.633 11 38.727 11zM47 21.156c.242.094.875.293 1.805 1.192C49.898 23.41 51 25.105 51 28v6.305l1.504-.883c.258-.149.496-.281.664-.367.02-.012.027-.012.047-.024.457.047.785.367.785.77 0 .074-.117.66-.27 1.183-.078.258-.156.52-.222.758-.067.238-.133.406-.133.758 0 .266-.219.5-.562.5H51v1.367c0 5.422-3.91 9.903-9.059 10.821l-.285.046-.215.2A2.11 2.11 0 0 1 40 50a2.11 2.11 0 0 1-1.441-.566l-.215-.2-.285-.046C32.91 48.27 29 43.789 29 38.367V37h-1.812c-.344 0-.563-.234-.563-.5 0-.352-.066-.52-.133-.758-.066-.238-.144-.5-.222-.758-.153-.523-.27-1.109-.27-1.183 0-.403.328-.723.785-.77.02.012.028.012.047.024.168.086.406.218.664.367l1.504.883v-3.254c0-2.492 1.242-4.168 2.914-5.336C33.586 24.547 35.711 24 37 24c3.582 0 6.23-.785 7.992-1.59 1.309-.597 1.653-.965 2.008-1.254zM34.5 33a1.5 1.5 0 1 0 .001 3.001A1.5 1.5 0 0 0 34.5 33zm11 0a1.5 1.5 0 1 0 .001 3.001A1.5 1.5 0 0 0 45.5 33zM34 49.824c1.066.559 2.219.989 3.441 1.235.707.562 1.582.941 2.559.941.973 0 1.844-.379 2.547-.937A12.734 12.734 0 0 0 46 49.828V52c0 .359-.258.914-.824 1.52-.567.609-1.383 1.226-2.219 1.761-1.496.965-2.719 1.489-3.012 1.617-.285-.085-1.488-.433-2.949-1.269-.812-.461-1.601-1.035-2.152-1.66C34.297 53.34 34 52.707 34 52v-2.176zm13.813 3.199l1.597 1.383-1.148 6.11-5.528-2.766c.418-.234.86-.496 1.309-.781.914-.59 1.848-1.285 2.594-2.082.508-.547.941-1.168 1.176-1.864zm-15.672.04c.214.847.656 1.597 1.203 2.218.761.875 1.722 1.551 2.66 2.09.426.242.848.449 1.246.633l-5.012 2.512-1.218-6.481 1.121-.972zm-2.926 2.187l1.547 8.234 7.363-3.675.617 1.546L38.156 69H16v-4c0-.762.453-1.684 1.367-2.668.914-.984 2.242-1.996 3.727-2.934 2.707-1.707 5.871-3.16 8.121-4.148zm22.035.203c2.211.985 5.129 2.352 7.656 3.945 1.485.938 2.813 1.95 3.727 2.934C63.547 63.316 64 64.238 64 65v4H41.844l-.422-5.516-.164-2.129.703-1.757 7.777 3.886 1.512-8.031zM20 65c-.551 0-1 .449-1 1 0 .551.449 1 1 1 .551 0 1-.449 1-1 0-.551-.449-1-1-1zm4 0c-.551 0-1 .449-1 1 0 .551.449 1 1 1 .551 0 1-.449 1-1 0-.551-.449-1-1-1zm4 0c-.551 0-1 .449-1 1 0 .551.449 1 1 1 .551 0 1-.449 1-1 0-.551-.449-1-1-1zm4 0c-.551 0-1 .449-1 1 0 .551.449 1 1 1 .551 0 1-.449 1-1 0-.551-.449-1-1-1zm16 0c-.551 0-1 .449-1 1 0 .551.449 1 1 1 .551 0 1-.449 1-1 0-.551-.449-1-1-1zm4 0c-.551 0-1 .449-1 1 0 .551.449 1 1 1 .551 0 1-.449 1-1 0-.551-.449-1-1-1zm4 0c-.551 0-1 .449-1 1 0 .551.449 1 1 1 .551 0 1-.449 1-1 0-.551-.449-1-1-1zm4 0c-.551 0-1 .449-1 1 0 .551.449 1 1 1 .551 0 1-.449 1-1 0-.551-.449-1-1-1z"/><path d="M29.215 55.25l1.547 8.234 7.363-3.675.617 1.546L38.156 69H16v-4c0-.762.453-1.684 1.367-2.668.914-.984 2.242-1.996 3.727-2.934 2.707-1.707 5.871-3.16 8.121-4.148zm22.035.203c2.211.985 5.129 2.352 7.656 3.945 1.485.938 2.813 1.95 3.727 2.934C63.547 63.316 64 64.238 64 65v4H41.844l-.422-5.516-.164-2.129.703-1.757 7.777 3.886 1.512-8.031zM20 65c-.551 0-1 .449-1 1 0 .551.449 1 1 1 .551 0 1-.449 1-1 0-.551-.449-1-1-1zm4 0c-.551 0-1 .449-1 1 0 .551.449 1 1 1 .551 0 1-.449 1-1 0-.551-.449-1-1-1zm4 0c-.551 0-1 .449-1 1 0 .551.449 1 1 1 .551 0 1-.449 1-1 0-.551-.449-1-1-1zm4 0c-.551 0-1 .449-1 1 0 .551.449 1 1 1 .551 0 1-.449 1-1 0-.551-.449-1-1-1zm16 0c-.551 0-1 .449-1 1 0 .551.449 1 1 1 .551 0 1-.449 1-1 0-.551-.449-1-1-1zm4 0c-.551 0-1 .449-1 1 0 .551.449 1 1 1 .551 0 1-.449 1-1 0-.551-.449-1-1-1zm4 0c-.551 0-1 .449-1 1 0 .551.449 1 1 1 .551 0 1-.449 1-1 0-.551-.449-1-1-1zm4 0c-.551 0-1 .449-1 1 0 .551.449 1 1 1 .551 0 1-.449 1-1 0-.551-.449-1-1-1z"/>
  </symbol>
  <symbol class="icon" id="icons8-document_dots" viewBox="0 0 50 62">
    <g fill="none" fill-rule="evenodd"><path fill="#000" fill-rule="nonzero" d="M0 0v62h50V14.586L35.414 0H0zm2 2h32v14h14v44H2V2zm5 2c-.55 0-1 .45-1 1s.45 1 1 1 1-.45 1-1-.45-1-1-1zm0 4c-.55 0-1 .45-1 1s.45 1 1 1 1-.45 1-1-.45-1-1-1zm0 4c-.55 0-1 .45-1 1s.45 1 1 1 1-.45 1-1-.45-1-1-1zm0 4c-.55 0-1 .45-1 1s.45 1 1 1 1-.45 1-1-.45-1-1-1zm0 4c-.55 0-1 .45-1 1s.45 1 1 1 1-.45 1-1-.45-1-1-1zm0 4c-.55 0-1 .45-1 1s.45 1 1 1 1-.45 1-1-.45-1-1-1zm6 1v2h27v-2H13zm-6 3c-.55 0-1 .45-1 1s.45 1 1 1 1-.45 1-1-.45-1-1-1zm6 3v2h23v-2H13zm-6 1c-.55 0-1 .45-1 1s.45 1 1 1 1-.45 1-1-.45-1-1-1zm0 4c-.55 0-1 .45-1 1s.45 1 1 1 1-.45 1-1-.45-1-1-1zm6 1v2h27v-2H13zm-6 3c-.55 0-1 .45-1 1s.45 1 1 1 1-.45 1-1-.45-1-1-1zm6 3v2h23v-2H13zm-6 1c-.55 0-1 .45-1 1s.45 1 1 1 1-.45 1-1-.45-1-1-1zm0 4c-.55 0-1 .45-1 1s.45 1 1 1 1-.45 1-1-.45-1-1-1zm0 4c-.55 0-1 .45-1 1s.45 1 1 1 1-.45 1-1-.45-1-1-1zm0 4c-.55 0-1 .45-1 1s.45 1 1 1 1-.45 1-1-.45-1-1-1z"/><path fill="#00C86E" d="M36 3.414L46.586 14H36z"/></g>
  </symbol>
  <symbol class="icon" id="icons8-downloads_dots" viewBox="0 0 60 60">
    <g fill="none" fill-rule="evenodd"><path fill="#000" fill-rule="nonzero" d="M8.52 0L.297 10.277a1.108 1.108 0 0 0-.168.211l-.129.16v.184a.904.904 0 0 0 0 .324V60h60V11.168a.904.904 0 0 0 0-.324v-.196l-.125-.16a1.348 1.348 0 0 0-.176-.218L51.48 0H8.52zM2 12h22.203c.496 2.809 2.848 5 5.797 5 2.95 0 5.3-2.191 5.797-5H58v46H2V12zm27 11v19.484l-7.242-7.242-1.414 1.414L30 46.313l9.656-9.657-1.414-1.414L31 42.484V23h-2zM8 53c-.55 0-1 .45-1 1s.45 1 1 1 1-.45 1-1-.45-1-1-1zm4 0c-.55 0-1 .45-1 1s.45 1 1 1 1-.45 1-1-.45-1-1-1zm4 0c-.55 0-1 .45-1 1s.45 1 1 1 1-.45 1-1-.45-1-1-1zm4 0c-.55 0-1 .45-1 1s.45 1 1 1 1-.45 1-1-.45-1-1-1zm4 0c-.55 0-1 .45-1 1s.45 1 1 1 1-.45 1-1-.45-1-1-1zm4 0c-.55 0-1 .45-1 1s.45 1 1 1 1-.45 1-1-.45-1-1-1zm4 0c-.55 0-1 .45-1 1s.45 1 1 1 1-.45 1-1-.45-1-1-1zm4 0c-.55 0-1 .45-1 1s.45 1 1 1 1-.45 1-1-.45-1-1-1zm4 0c-.55 0-1 .45-1 1s.45 1 1 1 1-.45 1-1-.45-1-1-1zm4 0c-.55 0-1 .45-1 1s.45 1 1 1 1-.45 1-1-.45-1-1-1zm4 0c-.55 0-1 .45-1 1s.45 1 1 1 1-.45 1-1-.45-1-1-1zm4 0c-.55 0-1 .45-1 1s.45 1 1 1 1-.45 1-1-.45-1-1-1z"/><path fill="#00C86E" d="M9.48 2h41.04l6.398 8H34v1c0 2.219-1.781 4-4 4-2.219 0-4-1.781-4-4v-1H3.082L9.48 2z"/></g>
  </symbol>
  <symbol class="icon" id="icons8-goal_dots" viewBox="0 0 66 66">
    <g fill="none"><path fill="#000" d="M58 2l-7 7v4.586l-7.371 7.367c-.008.008-.016.016-.024.027-.003.004-.011.008-.015.016l-10.074 10.07A1.999 1.999 0 0 0 31 33a1.999 1.999 0 1 0 3.93-.516L52.414 15H57l7-7h-6V2zM33 0C14.805 0 0 14.805 0 33s14.805 33 33 33 33-14.805 33-33a32.84 32.84 0 0 0-5.61-18.39l-1.449 1.449A30.788 30.788 0 0 1 64 33c0 17.094-13.906 31-31 31S2 50.094 2 33 15.906 2 33 2a30.814 30.814 0 0 1 16.328 4.672l1.445-1.445A32.754 32.754 0 0 0 33 0zm0 8c-.55 0-1 .45-1 1s.45 1 1 1 1-.45 1-1-.45-1-1-1zm-4.875.48a.998.998 0 0 0-.785 1.176.998.998 0 0 0 1.957-.39.997.997 0 0 0-1.172-.786zm9.355 0a.993.993 0 0 0-.777.786.998.998 0 1 0 1.957.39 1 1 0 0 0-1.18-1.176zM23.824 9.828a1.002 1.002 0 0 0-.934 1.383.998.998 0 0 0 1.31.539.997.997 0 0 0 .538-1.309.995.995 0 0 0-.914-.613zm18.352 0a.995.995 0 0 0-.914.613.997.997 0 0 0 .539 1.309.998.998 0 0 0 1.308-.54 1.002 1.002 0 0 0-.933-1.382zM19.48 12.063a.995.995 0 0 0-.645 1.535 1 1 0 1 0 .645-1.535zm27.04 0a1 1 0 1 0 .371.152.985.985 0 0 0-.371-.152zM16.03 15.03a.993.993 0 0 0-.707.293.988.988 0 0 0 0 1.41.988.988 0 0 0 1.41 0 .988.988 0 0 0 0-1.41.985.985 0 0 0-.703-.293zM33 16c-.55 0-1 .45-1 1s.45 1 1 1 1-.45 1-1-.45-1-1-1zm-4.133.547c-.023-.004-.047 0-.07 0a1.005 1.005 0 0 0-.906 1.258 1 1 0 0 0 1.226.707 1 1 0 0 0-.25-1.965zm8.262 0a1 1 0 0 0-.246 1.965 1 1 0 0 0 1.226-.707 1.005 1.005 0 0 0-.707-1.227c-.09-.02-.18-.031-.273-.031zM24.977 18.14a1.02 1.02 0 0 0-.477.136.998.998 0 0 0 .242 1.832.99.99 0 0 0 1.223-.707.982.982 0 0 0-.102-.761.993.993 0 0 0-.886-.5zm15.976.004a1.02 1.02 0 0 0-.82.5c-.278.476-.11 1.09.367 1.367a1 1 0 0 0 1.363-.367.996.996 0 0 0-.363-1.364 1.001 1.001 0 0 0-.547-.136zm-27.719.539a1 1 0 1 0 .363.152.951.951 0 0 0-.363-.152zm39.532 0a.951.951 0 0 0-.364.152 1 1 0 1 0 1.383.273.996.996 0 0 0-1.02-.425zm-31.067 2.003a.988.988 0 0 0-.719.293.995.995 0 0 0 0 1.41.995.995 0 0 0 1.41 0 .995.995 0 0 0 0-1.41.963.963 0 0 0-.69-.293zm33.48 2.125a.996.996 0 0 0-.39.079.997.997 0 0 0-.539 1.308 1 1 0 1 0 1.848-.766 1.007 1.007 0 0 0-.918-.62zm-44.359.004a.999.999 0 0 0-.379 1.922.997.997 0 0 0 1.309-.539.998.998 0 0 0-.93-1.383zM46.832 24a1.008 1.008 0 0 0-.945.742 1.01 1.01 0 0 0 .101.758c.133.23.352.398.61.465.254.07.527.035.757-.102a.996.996 0 0 0 .364-1.363.993.993 0 0 0-.887-.5zm-27.738 0a1.02 1.02 0 0 0-.817.5 1.01 1.01 0 0 0-.101.758c.07.258.238.476.465.61.23.132.504.167.761.1a.999.999 0 0 0 .238-1.832.993.993 0 0 0-.546-.136zm-9.836 3.34a.993.993 0 0 0-.778.785.994.994 0 0 0 .786 1.172.998.998 0 1 0-.008-1.957zm47.086 0a.998.998 0 1 0 .387 1.959.998.998 0 0 0-.387-1.96zm-7.88.52h-.073a1.14 1.14 0 0 0-.196.035 1 1 0 0 0-.707 1.226c.145.531.692.848 1.227.707a1.002 1.002 0 1 0-.25-1.969zm-30.929 0a1.002 1.002 0 0 0-.25 1.968 1.005 1.005 0 0 0 1.227-.707 1.005 1.005 0 0 0-.977-1.262zM9 32c-.55 0-1 .45-1 1s.45 1 1 1 1-.45 1-1-.45-1-1-1zm8 0c-.55 0-1 .45-1 1s.45 1 1 1 1-.45 1-1-.45-1-1-1zm32 0c-.55 0-1 .45-1 1s.45 1 1 1 1-.45 1-1-.45-1-1-1zm8 0c-.55 0-1 .45-1 1s.45 1 1 1 1-.45 1-1-.45-1-1-1zm-39.45 4.14h-.066c-.07.008-.132.016-.199.036a1 1 0 0 0-.707 1.226c.145.532.692.848 1.223.707.535-.144.851-.691.71-1.226a1.003 1.003 0 0 0-.96-.742zm30.895 0c-.449.008-.84.31-.957.747a.997.997 0 0 0 .707 1.222 1 1 0 0 0 1.227-.707 1.005 1.005 0 0 0-.977-1.261zm-39.18.563a.998.998 0 1 0 .39 1.957.998.998 0 1 0-.39-1.957zm47.07 0a.994.994 0 0 0-.776.781.996.996 0 0 0 .785 1.176.998.998 0 1 0 .39-1.957.978.978 0 0 0-.398 0zM19.122 40a1.002 1.002 0 0 0-.844 1.5c.133.227.352.395.61.465.254.07.527.035.758-.102a.97.97 0 0 0 .464-.605.986.986 0 0 0-.097-.758.992.992 0 0 0-.89-.5zm27.688.004c-.34.016-.649.203-.82.496-.278.48-.11 1.09.366 1.367a.994.994 0 0 0 1.364-.367.997.997 0 0 0-.91-1.496zm-35.977 1.18a.999.999 0 0 0-.93 1.383c.211.511.797.753 1.309.542a.998.998 0 0 0 .539-1.308 1 1 0 0 0-.918-.617zm44.336 0a1 1 0 0 0-.918.617.998.998 0 0 0 .54 1.308 1.002 1.002 0 1 0 .378-1.925zm-33.465 2.129a.979.979 0 0 0-.723.296.995.995 0 0 0 0 1.41.995.995 0 0 0 1.41 0 .995.995 0 0 0 0-1.41.998.998 0 0 0-.687-.297zm22.625 0a.991.991 0 0 0-.723.296 1 1 0 1 0 .723-.297zm-31.473 2.039zm40.29 0a.996.996 0 0 0-1.02.425.997.997 0 0 0 .277 1.387 1 1 0 1 0 .742-1.813zm-12.172.503a1.008 1.008 0 0 0-.941.742 1 1 0 0 0 1.469 1.121.996.996 0 0 0 .362-1.363.999.999 0 0 0-.89-.5zm-16.02.004a.99.99 0 0 0-.82.5.995.995 0 0 0 .367 1.364.997.997 0 0 0 1.363-.363.982.982 0 0 0 .102-.762 1.016 1.016 0 0 0-.465-.61 1.002 1.002 0 0 0-.547-.129zm3.895 1.598a1 1 0 0 0-.957.742 1.003 1.003 0 0 0 .707 1.223 1 1 0 0 0 1.226-.707 1 1 0 0 0-.707-1.227 1.212 1.212 0 0 0-.27-.031zm8.328 0c-.098-.004-.2.008-.297.031a1.005 1.005 0 0 0-.707 1.227 1 1 0 0 0 1.226.707.997.997 0 0 0 .707-1.223.997.997 0 0 0-.93-.742zM33 48c-.55 0-1 .45-1 1s.45 1 1 1 1-.45 1-1-.45-1-1-1zm-16.969.969a.998.998 0 0 0-.707.297.988.988 0 0 0 0 1.41.988.988 0 0 0 1.41 0 .988.988 0 0 0 0-1.41.989.989 0 0 0-.703-.297zm33.938 0a.995.995 0 0 0-.703.297.988.988 0 0 0 0 1.41.988.988 0 0 0 1.41 0 .988.988 0 0 0 0-1.41.99.99 0 0 0-.707-.297zm-30.114 3.004a.995.995 0 0 0-1.02.43 1 1 0 1 0 1.02-.43zm26.29 0a.943.943 0 0 0-.368.152 1 1 0 1 0 1.387.277.995.995 0 0 0-1.02-.43zm-22.336 2.199a1.002 1.002 0 1 0 .93 1.387 1.003 1.003 0 0 0-.93-1.387zm18.382 0a1.003 1.003 0 0 0-.93 1.387 1 1 0 1 0 .93-1.387zm-14.078 1.387a.994.994 0 0 0-.773.785.998.998 0 1 0 1.957.39.998.998 0 0 0-1.184-1.175zm9.371 0a.998.998 0 0 0-.78 1.175.997.997 0 0 0 1.171.786.996.996 0 0 0 .785-1.176.996.996 0 0 0-1.176-.785zM33 56c-.55 0-1 .45-1 1s.45 1 1 1 1-.45 1-1-.45-1-1-1z"/><path fill="#00C86E" d="M37.19 27.393a7 7 0 1 0 1.415 1.415l-3.675 3.676A1.999 1.999 0 0 1 33 35a1.999 1.999 0 1 1 .516-3.934l3.675-3.673z"/></g>
  </symbol>
  <symbol class="icon" id="icons8-horizontal_settings_mixer_dots" viewBox="0 0 60 56">
    <g fill="none" fill-rule="evenodd"><path fill="#000" fill-rule="nonzero" d="M23 0c-1.645 0-3 1.355-3 3v2H0v2h20v2c0 1.645 1.355 3 3 3h2c1.645 0 3-1.355 3-3V3c0-1.645-1.355-3-3-3h-2zm8 5c-.55 0-1 .45-1 1s.45 1 1 1 1-.45 1-1-.45-1-1-1zm4 0c-.55 0-1 .45-1 1s.45 1 1 1 1-.45 1-1-.45-1-1-1zm4 0c-.55 0-1 .45-1 1s.45 1 1 1 1-.45 1-1-.45-1-1-1zm4 0c-.55 0-1 .45-1 1s.45 1 1 1 1-.45 1-1-.45-1-1-1zm4 0c-.55 0-1 .45-1 1s.45 1 1 1 1-.45 1-1-.45-1-1-1zm4 0c-.55 0-1 .45-1 1s.45 1 1 1 1-.45 1-1-.45-1-1-1zm4 0c-.55 0-1 .45-1 1s.45 1 1 1 1-.45 1-1-.45-1-1-1zm4 0c-.55 0-1 .45-1 1s.45 1 1 1 1-.45 1-1-.45-1-1-1zM43 22c-1.645 0-3 1.355-3 3v2H0v2h40v2c0 1.645 1.355 3 3 3h2c1.645 0 3-1.355 3-3v-6c0-1.645-1.355-3-3-3h-2zm8 5c-.55 0-1 .45-1 1s.45 1 1 1 1-.45 1-1-.45-1-1-1zm4 0c-.55 0-1 .45-1 1s.45 1 1 1 1-.45 1-1-.45-1-1-1zm4 0c-.55 0-1 .45-1 1s.45 1 1 1 1-.45 1-1-.45-1-1-1zM15 44c-1.645 0-3 1.355-3 3v2H0v2h12v2c0 1.645 1.355 3 3 3h2c1.645 0 3-1.355 3-3v-6c0-1.645-1.355-3-3-3h-2zm8 5c-.55 0-1 .45-1 1s.45 1 1 1 1-.45 1-1-.45-1-1-1zm4 0c-.55 0-1 .45-1 1s.45 1 1 1 1-.45 1-1-.45-1-1-1zm4 0c-.55 0-1 .45-1 1s.45 1 1 1 1-.45 1-1-.45-1-1-1zm4 0c-.55 0-1 .45-1 1s.45 1 1 1 1-.45 1-1-.45-1-1-1zm4 0c-.55 0-1 .45-1 1s.45 1 1 1 1-.45 1-1-.45-1-1-1zm4 0c-.55 0-1 .45-1 1s.45 1 1 1 1-.45 1-1-.45-1-1-1zm4 0c-.55 0-1 .45-1 1s.45 1 1 1 1-.45 1-1-.45-1-1-1zm4 0c-.55 0-1 .45-1 1s.45 1 1 1 1-.45 1-1-.45-1-1-1zm4 0c-.55 0-1 .45-1 1s.45 1 1 1 1-.45 1-1-.45-1-1-1zm4 0c-.55 0-1 .45-1 1s.45 1 1 1 1-.45 1-1-.45-1-1-1z"/><path fill="#00C86E" d="M23 2h2c.566 0 1 .434 1 1v6c0 .566-.434 1-1 1h-2c-.566 0-1-.434-1-1V3c0-.566.434-1 1-1zm20 22h2c.566 0 1 .434 1 1v6c0 .566-.434 1-1 1h-2c-.566 0-1-.434-1-1v-6c0-.566.434-1 1-1zM15 46h2c.566 0 1 .434 1 1v6c0 .566-.434 1-1 1h-2c-.566 0-1-.434-1-1v-6c0-.566.434-1 1-1z"/></g>
  </symbol>
  <symbol class="icon" id="icons8-inspection_dots" viewBox="0 0 50 67">
    <g fill="none" fill-rule="evenodd"><path fill="#000" fill-rule="nonzero" d="M25 0c-2.95 0-5.3 2.191-5.797 5H3C1.355 5 0 6.355 0 8v56c0 1.645 1.355 3 3 3h44c1.645 0 3-1.355 3-3V8c0-1.645-1.355-3-3-3H30.797C30.3 2.191 27.949 0 25 0zm0 5c-.55 0-1 .45-1 1s.45 1 1 1 1-.45 1-1-.45-1-1-1zM3 7h10v3c0 1.645 1.355 3 3 3h18c1.645 0 3-1.355 3-3V7h10c.566 0 1 .434 1 1v56c0 .566-.434 1-1 1H3c-.566 0-1-.434-1-1V8c0-.566.434-1 1-1zm4 2c-.55 0-1 .45-1 1s.45 1 1 1 1-.45 1-1-.45-1-1-1zm0 4c-.55 0-1 .45-1 1s.45 1 1 1 1-.45 1-1-.45-1-1-1zm0 4c-.55 0-1 .45-1 1s.45 1 1 1 1-.45 1-1-.45-1-1-1zm0 4c-.55 0-1 .45-1 1s.45 1 1 1 1-.45 1-1-.45-1-1-1zm0 4c-.55 0-1 .45-1 1s.45 1 1 1 1-.45 1-1-.45-1-1-1zm30.145 3.375L22.453 42.543 15 34.898l-2.148 2.094 9.535 9.778 16.84-16.235-2.082-2.16zM7 29c-.55 0-1 .45-1 1s.45 1 1 1 1-.45 1-1-.45-1-1-1zm0 4c-.55 0-1 .45-1 1s.45 1 1 1 1-.45 1-1-.45-1-1-1zm0 4c-.55 0-1 .45-1 1s.45 1 1 1 1-.45 1-1-.45-1-1-1zm0 4c-.55 0-1 .45-1 1s.45 1 1 1 1-.45 1-1-.45-1-1-1zm0 4c-.55 0-1 .45-1 1s.45 1 1 1 1-.45 1-1-.45-1-1-1zm0 4c-.55 0-1 .45-1 1s.45 1 1 1 1-.45 1-1-.45-1-1-1zm0 4c-.55 0-1 .45-1 1s.45 1 1 1 1-.45 1-1-.45-1-1-1zm0 4c-.55 0-1 .45-1 1s.45 1 1 1 1-.45 1-1-.45-1-1-1zm0 4c-.55 0-1 .45-1 1s.45 1 1 1 1-.45 1-1-.45-1-1-1z"/><path fill="#00C86E" d="M25 2c2.219 0 4 1.781 4 4v1h6v3c0 .566-.434 1-1 1H16c-.566 0-1-.434-1-1V7h6V6c0-2.219 1.781-4 4-4z"/></g>
  </symbol>
  <symbol class="icon" id="icons8-news_dots" viewBox="0 0 80 80">
    <path d="M9 9v55c0 3.855 3.145 7 7 7h48c3.855 0 7-3.145 7-7V19H59V9zm2 2h46v53c0 1.96.824 3.727 2.137 5H16c-2.773 0-5-2.227-5-5zm6 9v2h34v-2zm42 1h10v43c0 2.773-2.227 5-5 5s-5-2.227-5-5v-2c.55 0 1-.45 1-1s-.45-1-1-1v-3c.55 0 1-.45 1-1s-.45-1-1-1v-3c.55 0 1-.45 1-1s-.45-1-1-1v-3c.55 0 1-.45 1-1s-.45-1-1-1v-3c.55 0 1-.45 1-1s-.45-1-1-1v-3c.55 0 1-.45 1-1s-.45-1-1-1v-3c.55 0 1-.45 1-1s-.45-1-1-1zm-42 4v2h34v-2zm46 5c-.55 0-1 .45-1 1s.45 1 1 1 1-.45 1-1-.45-1-1-1zm-45 2c-.55 0-1 .45-1 1s.45 1 1 1 1-.45 1-1-.45-1-1-1zm4 0c-.55 0-1 .45-1 1s.45 1 1 1 1-.45 1-1-.45-1-1-1zm4 0c-.55 0-1 .45-1 1s.45 1 1 1 1-.45 1-1-.45-1-1-1zm4 0c-.55 0-1 .45-1 1s.45 1 1 1 1-.45 1-1-.45-1-1-1zm8 0c-.55 0-1 .45-1 1s.45 1 1 1 1-.45 1-1-.45-1-1-1zm4 0c-.55 0-1 .45-1 1s.45 1 1 1 1-.45 1-1-.45-1-1-1zm4 0c-.55 0-1 .45-1 1s.45 1 1 1 1-.45 1-1-.45-1-1-1zm4 0c-.55 0-1 .45-1 1s.45 1 1 1 1-.45 1-1-.45-1-1-1zm13 3c-.55 0-1 .45-1 1s.45 1 1 1 1-.45 1-1-.45-1-1-1zm-45 2c-.55 0-1 .45-1 1s.45 1 1 1 1-.45 1-1-.45-1-1-1zm4 0c-.55 0-1 .45-1 1s.45 1 1 1 1-.45 1-1-.45-1-1-1zm4 0c-.55 0-1 .45-1 1s.45 1 1 1 1-.45 1-1-.45-1-1-1zm4 0c-.55 0-1 .45-1 1s.45 1 1 1 1-.45 1-1-.45-1-1-1zm8 0c-.55 0-1 .45-1 1s.45 1 1 1 1-.45 1-1-.45-1-1-1zm4 0c-.55 0-1 .45-1 1s.45 1 1 1 1-.45 1-1-.45-1-1-1zm4 0c-.55 0-1 .45-1 1s.45 1 1 1 1-.45 1-1-.45-1-1-1zm4 0c-.55 0-1 .45-1 1s.45 1 1 1 1-.45 1-1-.45-1-1-1zm13 3c-.55 0-1 .45-1 1s.45 1 1 1 1-.45 1-1-.45-1-1-1zm-45 2c-.55 0-1 .45-1 1s.45 1 1 1 1-.45 1-1-.45-1-1-1zm4 0c-.55 0-1 .45-1 1s.45 1 1 1 1-.45 1-1-.45-1-1-1zm4 0c-.55 0-1 .45-1 1s.45 1 1 1 1-.45 1-1-.45-1-1-1zm4 0c-.55 0-1 .45-1 1s.45 1 1 1 1-.45 1-1-.45-1-1-1zm8 0c-.55 0-1 .45-1 1s.45 1 1 1 1-.45 1-1-.45-1-1-1zm4 0c-.55 0-1 .45-1 1s.45 1 1 1 1-.45 1-1-.45-1-1-1zm4 0c-.55 0-1 .45-1 1s.45 1 1 1 1-.45 1-1-.45-1-1-1zm4 0c-.55 0-1 .45-1 1s.45 1 1 1 1-.45 1-1-.45-1-1-1zm13 3c-.55 0-1 .45-1 1s.45 1 1 1 1-.45 1-1-.45-1-1-1zm-45 2c-.55 0-1 .45-1 1s.45 1 1 1 1-.45 1-1-.45-1-1-1zm4 0c-.55 0-1 .45-1 1s.45 1 1 1 1-.45 1-1-.45-1-1-1zm4 0c-.55 0-1 .45-1 1s.45 1 1 1 1-.45 1-1-.45-1-1-1zm4 0c-.55 0-1 .45-1 1s.45 1 1 1 1-.45 1-1-.45-1-1-1zm8 0c-.55 0-1 .45-1 1s.45 1 1 1 1-.45 1-1-.45-1-1-1zm4 0c-.55 0-1 .45-1 1s.45 1 1 1 1-.45 1-1-.45-1-1-1zm4 0c-.55 0-1 .45-1 1s.45 1 1 1 1-.45 1-1-.45-1-1-1zm4 0c-.55 0-1 .45-1 1s.45 1 1 1 1-.45 1-1-.45-1-1-1zm13 3c-.55 0-1 .45-1 1s.45 1 1 1 1-.45 1-1-.45-1-1-1zm-45 2c-.55 0-1 .45-1 1s.45 1 1 1 1-.45 1-1-.45-1-1-1zm4 0c-.55 0-1 .45-1 1s.45 1 1 1 1-.45 1-1-.45-1-1-1zm4 0c-.55 0-1 .45-1 1s.45 1 1 1 1-.45 1-1-.45-1-1-1zm4 0c-.55 0-1 .45-1 1s.45 1 1 1 1-.45 1-1-.45-1-1-1zm8 0c-.55 0-1 .45-1 1s.45 1 1 1 1-.45 1-1-.45-1-1-1zm4 0c-.55 0-1 .45-1 1s.45 1 1 1 1-.45 1-1-.45-1-1-1zm4 0c-.55 0-1 .45-1 1s.45 1 1 1 1-.45 1-1-.45-1-1-1zm4 0c-.55 0-1 .45-1 1s.45 1 1 1 1-.45 1-1-.45-1-1-1zm13 3c-.55 0-1 .45-1 1s.45 1 1 1 1-.45 1-1-.45-1-1-1zm-45 2c-.55 0-1 .45-1 1s.45 1 1 1 1-.45 1-1-.45-1-1-1zm4 0c-.55 0-1 .45-1 1s.45 1 1 1 1-.45 1-1-.45-1-1-1zm4 0c-.55 0-1 .45-1 1s.45 1 1 1 1-.45 1-1-.45-1-1-1zm4 0c-.55 0-1 .45-1 1s.45 1 1 1 1-.45 1-1-.45-1-1-1zm8 0c-.55 0-1 .45-1 1s.45 1 1 1 1-.45 1-1-.45-1-1-1zm4 0c-.55 0-1 .45-1 1s.45 1 1 1 1-.45 1-1-.45-1-1-1zm4 0c-.55 0-1 .45-1 1s.45 1 1 1 1-.45 1-1-.45-1-1-1zm4 0c-.55 0-1 .45-1 1s.45 1 1 1 1-.45 1-1-.45-1-1-1zm13 3c-.55 0-1 .45-1 1s.45 1 1 1 1-.45 1-1-.45-1-1-1zm-45 2c-.55 0-1 .45-1 1s.45 1 1 1 1-.45 1-1-.45-1-1-1zm4 0c-.55 0-1 .45-1 1s.45 1 1 1 1-.45 1-1-.45-1-1-1zm4 0c-.55 0-1 .45-1 1s.45 1 1 1 1-.45 1-1-.45-1-1-1zm4 0c-.55 0-1 .45-1 1s.45 1 1 1 1-.45 1-1-.45-1-1-1zm8 0c-.55 0-1 .45-1 1s.45 1 1 1 1-.45 1-1-.45-1-1-1zm4 0c-.55 0-1 .45-1 1s.45 1 1 1 1-.45 1-1-.45-1-1-1zm4 0c-.55 0-1 .45-1 1s.45 1 1 1 1-.45 1-1-.45-1-1-1zm4 0c-.55 0-1 .45-1 1s.45 1 1 1 1-.45 1-1-.45-1-1-1z"/>
  </symbol>
  <symbol class="icon" id="icons8-nui2_dots" viewBox="0 0 45 68">
    <g fill="none" fill-rule="evenodd"><path fill="#000" fill-rule="nonzero" d="M12.5.063C6.16.063 1 5.223 1 11.563c0 4.347 2.426 8.144 6 10.093V37.16l-4.023 3.293a8.103 8.103 0 0 0-1.926 10.23L7.75 62.587l-.05-.102A9.01 9.01 0 0 0 16 68h20c4.957 0 9-4.043 9-9V33.5c0-3.027-2.473-5.5-5.5-5.5-1.434 0-2.723.586-3.703 1.496C35.305 26.961 33.168 25 30.5 25c-1.68 0-3.129.805-4.14 2h-.036c-.922-1.758-2.71-3-4.824-3-1.348 0-2.543.547-3.5 1.355v-3.699c3.574-1.949 6-5.746 6-10.093 0-6.34-5.16-11.5-11.5-11.5zM12.5 8c1.945 0 3.5 1.555 3.5 3.5V31h2v-1.5c0-1.945 1.555-3.5 3.5-3.5s3.5 1.555 3.5 3.5V33h2v-2.5c0-1.945 1.555-3.5 3.5-3.5s3.5 1.555 3.5 3.5v3h2c0-1.945 1.555-3.5 3.5-3.5s3.5 1.555 3.5 3.5V59c0 3.879-3.121 7-7 7H16a6.988 6.988 0 0 1-6.453-4.293l-.027-.05-6.727-11.954A6.083 6.083 0 0 1 4.246 42L9 38.11V11.5C9 9.555 10.555 8 12.5 8zM17 40c-.55 0-1 .45-1 1s.45 1 1 1 1-.45 1-1-.45-1-1-1zm9 0c-.55 0-1 .45-1 1s.45 1 1 1 1-.45 1-1-.45-1-1-1zm9 0c-.55 0-1 .45-1 1s.45 1 1 1 1-.45 1-1-.45-1-1-1zm-18 4c-.55 0-1 .45-1 1s.45 1 1 1 1-.45 1-1-.45-1-1-1zm9 0c-.55 0-1 .45-1 1s.45 1 1 1 1-.45 1-1-.45-1-1-1zm9 0c-.55 0-1 .45-1 1s.45 1 1 1 1-.45 1-1-.45-1-1-1zm-18 4c-.55 0-1 .45-1 1s.45 1 1 1 1-.45 1-1-.45-1-1-1zm9 0c-.55 0-1 .45-1 1s.45 1 1 1 1-.45 1-1-.45-1-1-1zm9 0c-.55 0-1 .45-1 1s.45 1 1 1 1-.45 1-1-.45-1-1-1zm-18 4c-.55 0-1 .45-1 1s.45 1 1 1 1-.45 1-1-.45-1-1-1zm9 0c-.55 0-1 .45-1 1s.45 1 1 1 1-.45 1-1-.45-1-1-1zm9 0c-.55 0-1 .45-1 1s.45 1 1 1 1-.45 1-1-.45-1-1-1zm-18 4c-.55 0-1 .45-1 1s.45 1 1 1 1-.45 1-1-.45-1-1-1zm9 0c-.55 0-1 .45-1 1s.45 1 1 1 1-.45 1-1-.45-1-1-1zm9 0c-.55 0-1 .45-1 1s.45 1 1 1 1-.45 1-1-.45-1-1-1z"/><path fill="#00C86E" d="M12.5 2.063c5.258 0 9.5 4.238 9.5 9.5a9.465 9.465 0 0 1-4 7.734V11.5C18 8.473 15.527 6 12.5 6A5.513 5.513 0 0 0 7 11.5v7.797a9.465 9.465 0 0 1-4-7.735c0-5.261 4.242-9.5 9.5-9.5z"/></g>
  </symbol>
  <symbol class="icon" id="icons8-phone_office_dots" viewBox="0 0 80 80">
    <path d="M65 4c-1.645 0-3 1.355-3 3v5h-7c-1.645 0-3 1.355-3 3H13c-1.645 0-3 1.355-3 3v44c0 1.645 1.355 3 3 3h39c0 1.645 1.355 3 3 3h12c1.645 0 3-1.355 3-3V15c0-1.258-.895-2.141-2-2.582V7c0-1.645-1.355-3-3-3zm0 2c.566 0 1 .434 1 1v7h1c.566 0 1 .434 1 1v50c0 .566-.434 1-1 1H55c-.566 0-1-.434-1-1V15c0-.566.434-1 1-1h9V7c0-.566.434-1 1-1zM13 17h39v46H13c-.566 0-1-.434-1-1V18c0-.566.434-1 1-1zm45 2c-.551 0-1 .449-1 1 0 .551.449 1 1 1 .551 0 1-.449 1-1 0-.551-.449-1-1-1zm-39 2c-1.094 0-2 .906-2 2v5c0 1.094.906 2 2 2h26c1.094 0 2-.906 2-2v-5c0-1.094-.906-2-2-2zm0 2h26v5H19zm39 0c-.551 0-1 .449-1 1 0 .551.449 1 1 1 .551 0 1-.449 1-1 0-.551-.449-1-1-1zm0 4c-.551 0-1 .449-1 1 0 .551.449 1 1 1 .551 0 1-.449 1-1 0-.551-.449-1-1-1zm0 4c-.551 0-1 .449-1 1 0 .551.449 1 1 1 .551 0 1-.449 1-1 0-.551-.449-1-1-1zm0 4c-.551 0-1 .449-1 1 0 .551.449 1 1 1 .551 0 1-.449 1-1 0-.551-.449-1-1-1zm-38 1c-1.645 0-3 1.355-3 3v1h.418c.441 1.105 1.324 2 2.582 2 1.258 0 2.141-.895 2.582-2H23v-1c0-1.645-1.355-3-3-3zm8 0c-1.645 0-3 1.355-3 3v1h.418c.441 1.105 1.324 2 2.582 2 1.258 0 2.141-.895 2.582-2H31v-1c0-1.645-1.355-3-3-3zm8 0c-1.645 0-3 1.355-3 3v1h.418c.441 1.105 1.324 2 2.582 2 1.258 0 2.141-.895 2.582-2H39v-1c0-1.645-1.355-3-3-3zm8 0c-1.645 0-3 1.355-3 3v1h.418c.441 1.105 1.324 2 2.582 2 1.258 0 2.141-.895 2.582-2H47v-1c0-1.645-1.355-3-3-3zm-24 2c.566 0 1 .434 1 1 0 .566-.434 1-1 1-.566 0-1-.434-1-1 0-.566.434-1 1-1zm8 0c.566 0 1 .434 1 1 0 .566-.434 1-1 1-.566 0-1-.434-1-1 0-.566.434-1 1-1zm8 0c.566 0 1 .434 1 1 0 .566-.434 1-1 1-.566 0-1-.434-1-1 0-.566.434-1 1-1zm8 0c.566 0 1 .434 1 1 0 .566-.434 1-1 1-.566 0-1-.434-1-1 0-.566.434-1 1-1zm14 1c-.551 0-1 .449-1 1 0 .551.449 1 1 1 .551 0 1-.449 1-1 0-.551-.449-1-1-1zm0 4c-.551 0-1 .449-1 1 0 .551.449 1 1 1 .551 0 1-.449 1-1 0-.551-.449-1-1-1zm-38 1c-1.645 0-3 1.355-3 3v1h.418c.441 1.105 1.324 2 2.582 2 1.258 0 2.141-.895 2.582-2H23v-1c0-1.645-1.355-3-3-3zm8 0c-1.645 0-3 1.355-3 3v1h.418c.441 1.105 1.324 2 2.582 2 1.258 0 2.141-.895 2.582-2H31v-1c0-1.645-1.355-3-3-3zm8 0c-1.645 0-3 1.355-3 3v1h.418c.441 1.105 1.324 2 2.582 2 1.258 0 2.141-.895 2.582-2H39v-1c0-1.645-1.355-3-3-3zm8 0c-1.645 0-3 1.355-3 3v1h.418c.441 1.105 1.324 2 2.582 2 1.258 0 2.141-.895 2.582-2H47v-1c0-1.645-1.355-3-3-3zm-24 2c.566 0 1 .434 1 1 0 .566-.434 1-1 1-.566 0-1-.434-1-1 0-.566.434-1 1-1zm8 0c.566 0 1 .434 1 1 0 .566-.434 1-1 1-.566 0-1-.434-1-1 0-.566.434-1 1-1zm8 0c.566 0 1 .434 1 1 0 .566-.434 1-1 1-.566 0-1-.434-1-1 0-.566.434-1 1-1zm8 0c.566 0 1 .434 1 1 0 .566-.434 1-1 1-.566 0-1-.434-1-1 0-.566.434-1 1-1zm14 1c-.551 0-1 .449-1 1 0 .551.449 1 1 1 .551 0 1-.449 1-1 0-.551-.449-1-1-1zm0 4c-.551 0-1 .449-1 1 0 .551.449 1 1 1 .551 0 1-.449 1-1 0-.551-.449-1-1-1zm-38 1c-1.645 0-3 1.355-3 3v1h.418c.441 1.105 1.324 2 2.582 2 1.258 0 2.141-.895 2.582-2H23v-1c0-1.645-1.355-3-3-3zm8 0c-1.645 0-3 1.355-3 3v1h.418c.441 1.105 1.324 2 2.582 2 1.258 0 2.141-.895 2.582-2H31v-1c0-1.645-1.355-3-3-3zm8 0c-1.645 0-3 1.355-3 3v1h.418c.441 1.105 1.324 2 2.582 2 1.258 0 2.141-.895 2.582-2H39v-1c0-1.645-1.355-3-3-3zm8 0c-1.645 0-3 1.355-3 3v1h.418c.441 1.105 1.324 2 2.582 2 1.258 0 2.141-.895 2.582-2H47v-1c0-1.645-1.355-3-3-3zm-24 2c.566 0 1 .434 1 1 0 .566-.434 1-1 1-.566 0-1-.434-1-1 0-.566.434-1 1-1zm8 0c.566 0 1 .434 1 1 0 .566-.434 1-1 1-.566 0-1-.434-1-1 0-.566.434-1 1-1zm8 0c.566 0 1 .434 1 1 0 .566-.434 1-1 1-.566 0-1-.434-1-1 0-.566.434-1 1-1zm8 0c.566 0 1 .434 1 1 0 .566-.434 1-1 1-.566 0-1-.434-1-1 0-.566.434-1 1-1zm14 1c-.551 0-1 .449-1 1 0 .551.449 1 1 1 .551 0 1-.449 1-1 0-.551-.449-1-1-1zm0 4c-.551 0-1 .449-1 1 0 .551.449 1 1 1 .551 0 1-.449 1-1 0-.551-.449-1-1-1z"/><path fill="#00c86e" d="M19 23h26v5H19v-5z"/>
  </symbol>
  <symbol class="icon" id="icons8-play_round_dots" viewBox="0 0 66 66">
    <g fill="none" fill-rule="evenodd"><path fill="#000" fill-rule="nonzero" d="M33 0C14.785 0 0 14.785 0 33s14.785 33 33 33 33-14.785 33-33S51.215 0 33 0zm0 2c17.133 0 31 13.867 31 31S50.133 64 33 64 2 50.133 2 33 15.867 2 33 2zm0 3c-.55 0-1 .45-1 1s.45 1 1 1 1-.45 1-1-.45-1-1-1zm5.293.516a1.003 1.003 0 0 0-1.008.808c-.105.54.246 1.067.79 1.176a1.005 1.005 0 0 0 1.175-.785 1.007 1.007 0 0 0-.785-1.18 3.355 3.355 0 0 0-.172-.02zm-10.555.004c-.066 0-.133.003-.199.015a1.001 1.001 0 0 0 .39 1.965.998.998 0 0 0 .786-1.176c-.094-.465-.5-.8-.977-.804zm-5.062 1.535a.998.998 0 0 0-.93 1.383.997.997 0 0 0 1.305.542c.512-.214.754-.796.543-1.308a1.006 1.006 0 0 0-.918-.617zm20.68 0a1.005 1.005 0 0 0-.95.617c-.21.512.032 1.094.543 1.308a.997.997 0 0 0 1.305-.543.998.998 0 0 0-.899-1.382zM18.011 9.547a1.02 1.02 0 0 0-.57.172.999.999 0 1 0 1.113 1.66.996.996 0 0 0 .277-1.383 1 1 0 0 0-.82-.45zm30.004 0a1 1 0 0 0-.848.45.999.999 0 0 0 1.66 1.11 1 1 0 0 0 .152-.752.98.98 0 0 0-.425-.636.98.98 0 0 0-.54-.172zm-34.094 3.36c-.27 0-.531.105-.719.296a.995.995 0 0 0 0 1.41.995.995 0 0 0 1.41 0 .995.995 0 0 0 0-1.41.983.983 0 0 0-.691-.297zm38.183 0c-.27 0-.53.105-.718.296a.995.995 0 0 0 0 1.41.995.995 0 0 0 1.41 0 .995.995 0 0 0 0-1.41.983.983 0 0 0-.692-.297zM55.461 17a.995.995 0 0 0-.84 1.55.992.992 0 0 0 1.383.278A.997.997 0 0 0 55.46 17zm-44.895 0a.993.993 0 0 0-.847.441 1 1 0 0 0 .277 1.387 1 1 0 1 0 .57-1.828zM25 18.223v29.554l1.52-.922L49.313 33 25 18.223zm32.953 3.445a.999.999 0 0 0-.934 1.379 1.003 1.003 0 0 0 1.852-.766 1.002 1.002 0 0 0-.918-.613zm-49.875 0a.995.995 0 0 0-.945.617 1.005 1.005 0 0 0 .539 1.309 1.002 1.002 0 0 0 1.308-.543.997.997 0 0 0-.543-1.305.943.943 0 0 0-.359-.078zm51.406 5.066a.857.857 0 0 0-.199.016c-.539.11-.89.637-.785 1.176.11.543.637.894 1.176.789.543-.11.894-.637.789-1.18a1 1 0 0 0-.98-.8zm-52.937 0a1 1 0 1 0 .953 1.192 1 1 0 0 0-.781-1.176c-.059-.008-.114-.016-.172-.016zM6 32c-.55 0-1 .45-1 1s.45 1 1 1 1-.45 1-1-.45-1-1-1zm54 0c-.55 0-1 .45-1 1s.45 1 1 1 1-.45 1-1-.45-1-1-1zM6.523 37.266a1.001 1.001 0 1 0 .191 1.984 1.003 1.003 0 1 0-.191-1.984zm52.985 0a1.003 1.003 0 0 0-.223 1.984 1.007 1.007 0 0 0 1.18-.785 1.007 1.007 0 0 0-.79-1.18 2.73 2.73 0 0 0-.167-.02zm-1.54 5.062a1.008 1.008 0 0 0-.948.621.999.999 0 0 0 .542 1.305 1.004 1.004 0 0 0 1.31-.54 1.002 1.002 0 0 0-.903-1.386zm-49.906.004c-.132 0-.265.023-.39.074a1.006 1.006 0 0 0-.54.543c-.1.246-.1.52-.003.766a.998.998 0 0 0 1.309.539.98.98 0 0 0 .542-.54 1 1 0 0 0-.918-1.382zM55.47 47a1 1 0 1 0 .535.168.934.934 0 0 0-.535-.168zm-44.907 0a.974.974 0 0 0-.566.168 1.004 1.004 0 0 0-.277 1.387c.308.457.93.582 1.39.273A.999.999 0 0 0 10.563 47zm3.36 4.094a.988.988 0 0 0-.719.293.995.995 0 0 0 0 1.41.995.995 0 0 0 1.41 0 .995.995 0 0 0 0-1.41.963.963 0 0 0-.691-.293zm38.183 0a.988.988 0 0 0-.718.293.995.995 0 0 0 0 1.41.995.995 0 0 0 1.41 0 .995.995 0 0 0 0-1.41.963.963 0 0 0-.692-.293zM18.02 54.449a.993.993 0 0 0-.848.442 1 1 0 1 0 .848-.441zm29.992 0a1 1 0 0 0-.567.164.997.997 0 0 0-.273 1.39c.305.458.926.583 1.387.278.457-.308.582-.93.273-1.39a.983.983 0 0 0-.82-.442zm-25.32 2.492a.999.999 0 0 0-.946.621 1 1 0 1 0 1.305-.542 1.022 1.022 0 0 0-.36-.079zm20.648 0c-.133 0-.266.028-.387.079a1.006 1.006 0 0 0-.547 1.308 1.004 1.004 0 0 0 1.852 0 1 1 0 0 0 0-.766.999.999 0 0 0-.918-.62zm-15.578 1.54a1 1 0 1 0-.053 2 1 1 0 0 0 .053-2zm10.508.003a.808.808 0 0 0-.196.016c-.543.11-.894.633-.789 1.176a1.01 1.01 0 0 0 1.18.79c.258-.056.488-.208.637-.427a1 1 0 0 0-.832-1.555zM33 59c-.55 0-1 .45-1 1s.45 1 1 1 1-.45 1-1-.45-1-1-1z"/><path fill="#00C86E" d="M27 21.781L45.457 33 27 44.219z"/></g>
  </symbol>
  <symbol class="icon" id="icons8-real_estate_dots" viewBox="0 0 80 80">
    <path d="M19.719 10l1.5 6H22v21h2V16c.55 0 1-.45 1-1s-.45-1-1-1h-1.219l-.5-2H69.72l-.5 2H68c-.55 0-1 .45-1 1s.45 1 1 1v52H52v2h18V16h.781l1.5-6zM28 14c-.55 0-1 .45-1 1s.45 1 1 1 1-.45 1-1-.45-1-1-1zm4 0c-.55 0-1 .45-1 1s.45 1 1 1 1-.45 1-1-.45-1-1-1zm4 0c-.55 0-1 .45-1 1s.45 1 1 1 1-.45 1-1-.45-1-1-1zm4 0c-.55 0-1 .45-1 1s.45 1 1 1 1-.45 1-1-.45-1-1-1zm4 0c-.55 0-1 .45-1 1s.45 1 1 1 1-.45 1-1-.45-1-1-1zm4 0c-.55 0-1 .45-1 1s.45 1 1 1 1-.45 1-1-.45-1-1-1zm4 0c-.55 0-1 .45-1 1s.45 1 1 1 1-.45 1-1-.45-1-1-1zm4 0c-.55 0-1 .45-1 1s.45 1 1 1 1-.45 1-1-.45-1-1-1zm4 0c-.55 0-1 .45-1 1s.45 1 1 1 1-.45 1-1-.45-1-1-1zm4 0c-.55 0-1 .45-1 1s.45 1 1 1 1-.45 1-1-.45-1-1-1zm-36 6v8h10v-8zm13 0v8h10v-8zm13 0v8h10v-8zm-24 2h6v4h-6zm13 0h6v4h-6zm13 0h6v4h-6zM28 32v5h2v-3h6v3h2v-5zm13 0v5h2v-3h6v3h2v-5zm13 0v8h10v-8zm2 2h6v4h-6zm-46 5c-1.094 0-2 .906-2 2v2c0 1.094.906 2 2 2v25h6.832c.11.02.219.02.324 0h9.676c.11.02.219.02.324 0H50V45c1.094 0 2-.906 2-2v-2c0-1.094-.906-2-2-2zm0 2h40v2h-2v25H28V50H16v18h-4V43h-2zm4 2c-.55 0-1 .45-1 1s.45 1 1 1 1-.45 1-1-.45-1-1-1zm4 0c-.55 0-1 .45-1 1s.45 1 1 1 1-.45 1-1-.45-1-1-1zm4 0c-.55 0-1 .45-1 1s.45 1 1 1 1-.45 1-1-.45-1-1-1zm4 0c-.55 0-1 .45-1 1s.45 1 1 1 1-.45 1-1-.45-1-1-1zm4 0c-.55 0-1 .45-1 1s.45 1 1 1 1-.45 1-1-.45-1-1-1zm4 0c-.55 0-1 .45-1 1s.45 1 1 1 1-.45 1-1-.45-1-1-1zm4 0c-.55 0-1 .45-1 1s.45 1 1 1 1-.45 1-1-.45-1-1-1zm4 0c-.55 0-1 .45-1 1s.45 1 1 1 1-.45 1-1-.45-1-1-1zm4 0c-.55 0-1 .45-1 1s.45 1 1 1 1-.45 1-1-.45-1-1-1zm8 1v8h10v-8zm2 2h6v4h-6zm-24 4v12h12V50zm-14 2h8v16h-8zm16 0h3c0 .55.45 1 1 1s1-.45 1-1h3v3c-.55 0-1 .45-1 1s.45 1 1 1v3h-3c0-.55-.45-1-1-1s-1 .45-1 1h-3v-3c.55 0 1-.45 1-1s-.45-1-1-1zm4 3c-.55 0-1 .45-1 1s.45 1 1 1 1-.45 1-1-.45-1-1-1zm16 1v8h10v-8zm2 2h6v4h-6zm-32 1c-.55 0-1 .45-1 1s.45 1 1 1 1-.45 1-1-.45-1-1-1z"/>
  </symbol>
  <symbol class="icon" id="icons8-route_dots" viewBox="0 0 80 80">
    <path d="M40 3.008a5.01 5.01 0 0 0-3.566 1.469L4.477 36.434c-1.961 1.96-1.961 5.171 0 7.132L36.434 75.52a5.052 5.052 0 0 0 7.132 0L75.52 43.566a5.052 5.052 0 0 0 0-7.132L43.566 4.477A5.026 5.026 0 0 0 40 3.007zm0 1.984c.777 0 1.555.301 2.152.899L74.11 37.848a3.032 3.032 0 0 1 0 4.304L42.152 74.11a3.032 3.032 0 0 1-4.304 0L5.89 42.152a3.032 3.032 0 0 1 0-4.304L37.848 5.89A3.053 3.053 0 0 1 40 4.992zM40 12c-.55 0-1 .45-1 1s.45 1 1 1 1-.45 1-1-.45-1-1-1zm-3 3c-.55 0-1 .45-1 1s.45 1 1 1 1-.45 1-1-.45-1-1-1zm6 0c-.55 0-1 .45-1 1s.45 1 1 1 1-.45 1-1-.45-1-1-1zm-9 3c-.55 0-1 .45-1 1s.45 1 1 1 1-.45 1-1-.45-1-1-1zm12 0c-.55 0-1 .45-1 1s.45 1 1 1 1-.45 1-1-.45-1-1-1zm-15 3c-.55 0-1 .45-1 1s.45 1 1 1 1-.45 1-1-.45-1-1-1zm18 0c-.55 0-1 .45-1 1s.45 1 1 1 1-.45 1-1-.45-1-1-1zm-21 3c-.55 0-1 .45-1 1s.45 1 1 1 1-.45 1-1-.45-1-1-1zm24 0c-.55 0-1 .45-1 1s.45 1 1 1 1-.45 1-1-.45-1-1-1zm-27 3c-.55 0-1 .45-1 1s.45 1 1 1 1-.45 1-1-.45-1-1-1zm30 0c-.55 0-1 .45-1 1s.45 1 1 1 1-.45 1-1-.45-1-1-1zm-33 3c-.55 0-1 .45-1 1s.45 1 1 1 1-.45 1-1-.45-1-1-1zm36 0c-.55 0-1 .45-1 1s.45 1 1 1 1-.45 1-1-.45-1-1-1zm-13.293.637l-1.414 1.414L47.243 36H39c-2.75 0-5 2.25-5 5v10h2V41c0-1.668 1.332-3 3-3h8.242l-3.949 3.95 1.414 1.413L51.07 37zM19 33c-.55 0-1 .45-1 1s.45 1 1 1 1-.45 1-1-.45-1-1-1zm42 0c-.55 0-1 .45-1 1s.45 1 1 1 1-.45 1-1-.45-1-1-1zm-45 3c-.55 0-1 .45-1 1s.45 1 1 1 1-.45 1-1-.45-1-1-1zm48 0c-.55 0-1 .45-1 1s.45 1 1 1 1-.45 1-1-.45-1-1-1zm-51 3c-.55 0-1 .45-1 1s.45 1 1 1 1-.45 1-1-.45-1-1-1zm54 0c-.55 0-1 .45-1 1s.45 1 1 1 1-.45 1-1-.45-1-1-1zm-51 3c-.55 0-1 .45-1 1s.45 1 1 1 1-.45 1-1-.45-1-1-1zm48 0c-.55 0-1 .45-1 1s.45 1 1 1 1-.45 1-1-.45-1-1-1zm-45 3c-.55 0-1 .45-1 1s.45 1 1 1 1-.45 1-1-.45-1-1-1zm42 0c-.55 0-1 .45-1 1s.45 1 1 1 1-.45 1-1-.45-1-1-1zm-39 3c-.55 0-1 .45-1 1s.45 1 1 1 1-.45 1-1-.45-1-1-1zm36 0c-.55 0-1 .45-1 1s.45 1 1 1 1-.45 1-1-.45-1-1-1zm-33 3c-.55 0-1 .45-1 1s.45 1 1 1 1-.45 1-1-.45-1-1-1zm30 0c-.55 0-1 .45-1 1s.45 1 1 1 1-.45 1-1-.45-1-1-1zm-27 3c-.55 0-1 .45-1 1s.45 1 1 1 1-.45 1-1-.45-1-1-1zm24 0c-.55 0-1 .45-1 1s.45 1 1 1 1-.45 1-1-.45-1-1-1zm-21 3c-.55 0-1 .45-1 1s.45 1 1 1 1-.45 1-1-.45-1-1-1zm18 0c-.55 0-1 .45-1 1s.45 1 1 1 1-.45 1-1-.45-1-1-1zm-15 3c-.55 0-1 .45-1 1s.45 1 1 1 1-.45 1-1-.45-1-1-1zm12 0c-.55 0-1 .45-1 1s.45 1 1 1 1-.45 1-1-.45-1-1-1zm-9 3c-.55 0-1 .45-1 1s.45 1 1 1 1-.45 1-1-.45-1-1-1zm6 0c-.55 0-1 .45-1 1s.45 1 1 1 1-.45 1-1-.45-1-1-1zm-3 3c-.55 0-1 .45-1 1s.45 1 1 1 1-.45 1-1-.45-1-1-1z"/>
  </symbol>
  <symbol class="icon" id="icons8-security_checked_dots" viewBox="0 0 58 65">
    <g fill="none" fill-rule="evenodd"><use fill="#00C86E" xlink:href="#a"/><path stroke="#000" stroke-width="2" d="M26.522 33.371l14.527-14.003 3.47 3.595-18.107 17.463-10.839-11.117 3.586-3.488 7.363 7.55z"/><path fill="#000" fill-rule="nonzero" d="M29 .883l-.45.222S16.75 7 1 7H0v1c0 23.203 7.09 37.23 14.25 45.406 7.156 8.18 14.441 10.547 14.441 10.547l.309.098.309-.098s7.285-2.367 14.441-10.547C50.91 45.23 58 31.203 58 8V7h-1C41.25 7 29.45 1.105 29.45 1.105L29 .883zm0 2.21c1.148.555 12.082 5.618 26.965 5.86-.2 22.195-6.973 35.434-13.715 43.14-6.598 7.536-12.79 9.653-13.25 9.81-.46-.157-6.652-2.274-13.25-9.81C9.008 44.388 2.234 31.149 2.035 8.954 16.918 8.711 27.852 3.648 29 3.093zm-1.875 5.16l-.348.063-.093.04-.61.656.164.879.805.402.348-.066.093-.036.606-.66-.164-.879-.801-.398zm4.078.075l-.89.106-.45.777.356.82.304.176.094.035.89-.105.446-.778-.351-.824-.305-.176-.094-.03zm-7.89 1.25l-.348.043-.094.027-.652.618.105.89.774.45.351-.043.098-.028.648-.617-.105-.89-.777-.45zm11.71.043l-.882.16-.399.801.403.8.312.157.098.027.883-.16.402-.797-.403-.8-.316-.16-.098-.028zm-15.586 1.07l-.355.016-.098.027-.687.575.047.894.75.496.347-.02.102-.023.687-.574-.05-.895-.742-.496zm19.5.016l-.874.188-.376.816.43.785.32.145.098.027.875-.188.371-.816-.426-.785-.324-.145-.093-.027zm-23.468.871l-.348.008-.101.02-.707.55.015.895.73.523.352-.008.102-.02.707-.546-.02-.898-.73-.524zm27.39.012l-.859.254-.313.84.485.754.332.12.101.02.86-.254.308-.84-.488-.754-.328-.12-.098-.02zm3.996.664l-.847.293-.274.851.516.73.336.106.102.016.843-.29.278-.85-.52-.735-.336-.105-.098-.016zm-35.734.02l-.101.015-.723.524-.02.894.707.55.356.009.098-.016.726-.527.016-.895-.707-.547-.352-.008zm-3.902.456c-.024-.003-.047 0-.067 0-.058.004-.074.004-.05.004l-.942.059v.984a.991.991 0 0 0 .63.942c.382.152.823.054 1.105-.25a.999.999 0 0 0-.676-1.738zm43.531 0a.997.997 0 0 0-.613 1.766l.004.004a.994.994 0 0 0 1.093.207c.371-.16.614-.527.61-.934v-.98l-.942-.059c.024 0 .004 0-.054-.004a.408.408 0 0 0-.098 0zm-.246 4.141l-.703.555-.09.344-.008.101.332.832.867.23.703-.558.09-.34.008-.101-.332-.832-.867-.23zm-43.55.082l-.626.637-.047.348v.074l.004.062.461.77.89.093.61-.66.035-.351v-.031l-.004-.032v-.008l-.433-.785-.89-.117zm43.19 4.067l-.738.507-.113.332-.016.102.282.852.847.289.735-.508.113-.332.016-.106-.274-.847-.851-.29zm-42.902.152l-.566.691-.016.356.012.101.504.742.898.036.567-.692.015-.351-.015-.102-.504-.742-.895-.04zm42.242 3.953l-.77.46-.136.325-.02.102.22.867.827.344.77-.457.137-.328.02-.098-.22-.871-.828-.344zm-40.75.21l-.894.02-.524.723.008.356.02.097.547.711.898-.02.524-.726-.008-.351-.02-.102-.55-.707zm39.782 3.837l-.801.406-.156.317-.028.101.16.879.805.398.8-.406.157-.316.027-.098-.164-.879-.8-.402zm-38.891.234l-.89.074-.477.758.027.352.027.098.594.671.895-.074.476-.758-.03-.351-.028-.098-.594-.672zm37.629 3.727l-.832.324-.188.3-.035.095.07.894.762.473.836-.328.188-.297.039-.094-.078-.895-.762-.472zm-36.445.246l-.883.16-.399.805.063.343.035.098.656.61.883-.16.399-.801-.063-.348-.035-.098-.656-.61zm34.816 3.59l-.848.281-.203.293-.043.094.035.894.735.508.851-.285.2-.29.043-.093-.036-.898-.734-.504zm-33.262.265l-.867.23-.336.833.09.34.047.093.703.555.863-.23.336-.832-.09-.34-.046-.09-.7-.559zm31.375 3.422l-.879.184-.234.262-.05.086-.075.894.668.594.879-.18.234-.266.051-.085.074-.895-.668-.594zm-29.55.285l-.833.336-.23.868.137.324.05.09.77.46.828-.331.23-.872-.136-.324-.05-.086-.767-.465zM41.5 44.168l-.887.129-.246.25-.058.086-.125.887.632.632.887-.132.25-.25.059-.083.125-.886-.637-.633zm-25.047.27l-.808.386-.176.88.156.316.059.085.793.415.804-.383.176-.883-.148-.316-.063-.083-.793-.417zM39 47.48l-.895.036-.273.218-.066.078-.22.868.563.695.895-.031.273-.223.067-.078.218-.871L39 47.48zm-20.004.215l-.758.477-.07.894.187.297.067.075.84.324.754-.477.074-.894-.188-.297-.07-.078-.836-.32zm16.32 2.805l-.296.191-.07.07-.31.844.493.747.894.054.297-.191.07-.07.31-.844-.493-.75-.895-.051zm-13.437.168l-.707.555.027.898.215.274.078.07.867.23.703-.554-.023-.895-.219-.277-.074-.067-.867-.234zm10.363 2.523l-.312.164-.082.063-.383.809.414.793.887.14.312-.16.078-.063.387-.812-.418-.793-.883-.14zm-7.168.118l-.648.617.11.89.241.258.082.059.887.148.645-.62-.106-.888-.242-.257-.086-.059-.883-.148zm3.848 2.136a1 1 0 1 0-.418 1.898s.012.009.043.024l.45.223.487-.246a.992.992 0 0 0 .532-1.133.994.994 0 0 0-.996-.762c-.004-.004-.004-.004-.008 0-.032-.004-.063-.004-.09-.004z"/></g>
  </symbol>
  <symbol class="icon" id="icons8-shopping_cart_dots" viewBox="0 0 67 65">
    <g fill="none" fill-rule="evenodd"><path fill="#000" fill-rule="nonzero" d="M4 0C1.8 0 0 1.8 0 4s1.8 4 4 4 4-1.8 4-4c0-.61-.148-1.18-.395-1.7a8.99 8.99 0 0 1 6.551 7.137l7.5 42.606c.473 2.691 2.723 4.684 5.41 4.91C26.41 57.801 26 58.852 26 60c0 2.75 2.25 5 5 5s5-2.25 5-5c0-1.129-.395-2.16-1.031-3H48.03A4.948 4.948 0 0 0 47 60c0 2.75 2.25 5 5 5s5-2.25 5-5c0-1.129-.395-2.16-1.031-3H61v-2H27.566a3.991 3.991 0 0 1-3.941-3.309L22.27 44h32a7.01 7.01 0 0 0 6.808-5.367l5.168-21.535-49.422-4.035-.699-3.97A11.01 11.01 0 0 0 5.293 0H4zm13.184 15.098l46.57 3.804-4.625 19.266A4.99 4.99 0 0 1 54.269 42H21.923l-4.738-26.902zM28 21c-.55 0-1 .45-1 1s.45 1 1 1 1-.45 1-1-.45-1-1-1zm6 0c-.55 0-1 .45-1 1s.45 1 1 1 1-.45 1-1-.45-1-1-1zm6 0c-.55 0-1 .45-1 1s.45 1 1 1 1-.45 1-1-.45-1-1-1zm6 0c-.55 0-1 .45-1 1s.45 1 1 1 1-.45 1-1-.45-1-1-1zm6 0c-.55 0-1 .45-1 1s.45 1 1 1 1-.45 1-1-.45-1-1-1zm-24 4c-.55 0-1 .45-1 1s.45 1 1 1 1-.45 1-1-.45-1-1-1zm6 0c-.55 0-1 .45-1 1s.45 1 1 1 1-.45 1-1-.45-1-1-1zm6 0c-.55 0-1 .45-1 1s.45 1 1 1 1-.45 1-1-.45-1-1-1zm6 0c-.55 0-1 .45-1 1s.45 1 1 1 1-.45 1-1-.45-1-1-1zm6 0c-.55 0-1 .45-1 1s.45 1 1 1 1-.45 1-1-.45-1-1-1zm-24 4c-.55 0-1 .45-1 1s.45 1 1 1 1-.45 1-1-.45-1-1-1zm6 0c-.55 0-1 .45-1 1s.45 1 1 1 1-.45 1-1-.45-1-1-1zm6 0c-.55 0-1 .45-1 1s.45 1 1 1 1-.45 1-1-.45-1-1-1zm6 0c-.55 0-1 .45-1 1s.45 1 1 1 1-.45 1-1-.45-1-1-1zm6 0c-.55 0-1 .45-1 1s.45 1 1 1 1-.45 1-1-.45-1-1-1zm-24 4c-.55 0-1 .45-1 1s.45 1 1 1 1-.45 1-1-.45-1-1-1zm6 0c-.55 0-1 .45-1 1s.45 1 1 1 1-.45 1-1-.45-1-1-1zm6 0c-.55 0-1 .45-1 1s.45 1 1 1 1-.45 1-1-.45-1-1-1zm6 0c-.55 0-1 .45-1 1s.45 1 1 1 1-.45 1-1-.45-1-1-1zm6 0c-.55 0-1 .45-1 1s.45 1 1 1 1-.45 1-1-.45-1-1-1zm-24 4c-.55 0-1 .45-1 1s.45 1 1 1 1-.45 1-1-.45-1-1-1zm6 0c-.55 0-1 .45-1 1s.45 1 1 1 1-.45 1-1-.45-1-1-1zm6 0c-.55 0-1 .45-1 1s.45 1 1 1 1-.45 1-1-.45-1-1-1zm6 0c-.55 0-1 .45-1 1s.45 1 1 1 1-.45 1-1-.45-1-1-1zm6 0c-.55 0-1 .45-1 1s.45 1 1 1 1-.45 1-1-.45-1-1-1zM31 59c-.55 0-1 .45-1 1s.45 1 1 1 1-.45 1-1-.45-1-1-1zm21 0c-.55 0-1 .45-1 1s.45 1 1 1 1-.45 1-1-.45-1-1-1z"/><path fill="#00C86E" d="M4 2c1.117 0 2 .883 2 2s-.883 2-2 2-2-.883-2-2 .883-2 2-2zm27 55c1.668 0 3 1.332 3 3s-1.332 3-3 3-3-1.332-3-3 1.332-3 3-3zm21 0c1.668 0 3 1.332 3 3s-1.332 3-3 3-3-1.332-3-3 1.332-3 3-3z"/></g>
  </symbol>
  <symbol class="icon" id="icons8-tangent_dots" viewBox="0 0 80 80">
    <path style="line-height:normal;text-indent:0;text-align:start;text-transform:none;isolation:auto;mix-blend-mode:normal" d="M59.984 10.986A1 1 0 0 0 59 12c0 18.557-19.4 27.084-19.4 27.084s-1.1.49-2.752 1.445A1 1 0 0 0 37 40a1 1 0 0 0-1-1 1 1 0 0 0-1 1 1 1 0 0 0 1 1 1 1 0 0 0 .063-.004C30.179 44.574 19 53.298 19 68a1 1 0 1 0 2 0c0-18.557 19.4-27.084 19.4-27.084s1.1-.49 2.752-1.445A1 1 0 0 0 43 40a1 1 0 0 0 1 1 1 1 0 0 0 1-1 1 1 0 0 0-1-1 1 1 0 0 0-.062.004C49.82 35.426 61 26.702 61 12a1 1 0 0 0-1.016-1.014zM16 11a1 1 0 0 0-1 1 1 1 0 0 0 1 1 1 1 0 0 0 1-1 1 1 0 0 0-1-1zm24 0a1 1 0 0 0-1 1 1 1 0 0 0 1 1 1 1 0 0 0 1-1 1 1 0 0 0-1-1zm24 0a1 1 0 0 0-1 1 1 1 0 0 0 1 1 1 1 0 0 0 1-1 1 1 0 0 0-1-1zm-48 4a1 1 0 0 0-1 1 1 1 0 0 0 1 1 1 1 0 0 0 1-1 1 1 0 0 0-1-1zm24 0a1 1 0 0 0-1 1 1 1 0 0 0 1 1 1 1 0 0 0 1-1 1 1 0 0 0-1-1zm24 0a1 1 0 0 0-1 1 1 1 0 0 0 1 1 1 1 0 0 0 1-1 1 1 0 0 0-1-1zm-48 4a1 1 0 0 0-1 1 1 1 0 0 0 1 1 1 1 0 0 0 1-1 1 1 0 0 0-1-1zm24 0a1 1 0 0 0-1 1 1 1 0 0 0 1 1 1 1 0 0 0 1-1 1 1 0 0 0-1-1zm24 0a1 1 0 0 0-1 1 1 1 0 0 0 1 1 1 1 0 0 0 1-1 1 1 0 0 0-1-1zm-48 4a1 1 0 0 0-1 1 1 1 0 0 0 1 1 1 1 0 0 0 1-1 1 1 0 0 0-1-1zm24 0a1 1 0 0 0-1 1 1 1 0 0 0 1 1 1 1 0 0 0 1-1 1 1 0 0 0-1-1zm24 0a1 1 0 0 0-1 1 1 1 0 0 0 1 1 1 1 0 0 0 1-1 1 1 0 0 0-1-1zm-48 4a1 1 0 0 0-1 1 1 1 0 0 0 1 1 1 1 0 0 0 1-1 1 1 0 0 0-1-1zm24 0a1 1 0 0 0-1 1 1 1 0 0 0 1 1 1 1 0 0 0 1-1 1 1 0 0 0-1-1zm24 0a1 1 0 0 0-1 1 1 1 0 0 0 1 1 1 1 0 0 0 1-1 1 1 0 0 0-1-1zm-48 4a1 1 0 0 0-1 1 1 1 0 0 0 1 1 1 1 0 0 0 1-1 1 1 0 0 0-1-1zm24 0a1 1 0 0 0-1 1 1 1 0 0 0 1 1 1 1 0 0 0 1-1 1 1 0 0 0-1-1zm24 0a1 1 0 0 0-1 1 1 1 0 0 0 1 1 1 1 0 0 0 1-1 1 1 0 0 0-1-1zm-48 4a1 1 0 0 0-1 1 1 1 0 0 0 1 1 1 1 0 0 0 1-1 1 1 0 0 0-1-1zm24 0a1 1 0 0 0-1 1 1 1 0 0 0 1 1 1 1 0 0 0 1-1 1 1 0 0 0-1-1zm24 0a1 1 0 0 0-1 1 1 1 0 0 0 1 1 1 1 0 0 0 1-1 1 1 0 0 0-1-1zM8 39a1 1 0 0 0-1 1 1 1 0 0 0 1 1 1 1 0 0 0 1-1 1 1 0 0 0-1-1zm4 0a1 1 0 0 0-1 1 1 1 0 0 0 1 1 1 1 0 0 0 1-1 1 1 0 0 0-1-1zm4 0a1 1 0 0 0-1 1 1 1 0 0 0 1 1 1 1 0 0 0 1-1 1 1 0 0 0-1-1zm4 0a1 1 0 0 0-1 1 1 1 0 0 0 1 1 1 1 0 0 0 1-1 1 1 0 0 0-1-1zm4 0a1 1 0 0 0-1 1 1 1 0 0 0 1 1 1 1 0 0 0 1-1 1 1 0 0 0-1-1zm4 0a1 1 0 0 0-1 1 1 1 0 0 0 1 1 1 1 0 0 0 1-1 1 1 0 0 0-1-1zm4 0a1 1 0 0 0-1 1 1 1 0 0 0 1 1 1 1 0 0 0 1-1 1 1 0 0 0-1-1zm16 0a1 1 0 0 0-1 1 1 1 0 0 0 1 1 1 1 0 0 0 1-1 1 1 0 0 0-1-1zm4 0a1 1 0 0 0-1 1 1 1 0 0 0 1 1 1 1 0 0 0 1-1 1 1 0 0 0-1-1zm4 0a1 1 0 0 0-1 1 1 1 0 0 0 1 1 1 1 0 0 0 1-1 1 1 0 0 0-1-1zm4 0a1 1 0 0 0-1 1 1 1 0 0 0 1 1 1 1 0 0 0 1-1 1 1 0 0 0-1-1zm4 0a1 1 0 0 0-1 1 1 1 0 0 0 1 1 1 1 0 0 0 1-1 1 1 0 0 0-1-1zm4 0a1 1 0 0 0-1 1 1 1 0 0 0 1 1 1 1 0 0 0 1-1 1 1 0 0 0-1-1zm4 0a1 1 0 0 0-1 1 1 1 0 0 0 1 1 1 1 0 0 0 1-1 1 1 0 0 0-1-1zm-56 4a1 1 0 0 0-1 1 1 1 0 0 0 1 1 1 1 0 0 0 1-1 1 1 0 0 0-1-1zm24 0a1 1 0 0 0-1 1 1 1 0 0 0 1 1 1 1 0 0 0 1-1 1 1 0 0 0-1-1zm24 0a1 1 0 0 0-1 1 1 1 0 0 0 1 1 1 1 0 0 0 1-1 1 1 0 0 0-1-1zm-48 4a1 1 0 0 0-1 1 1 1 0 0 0 1 1 1 1 0 0 0 1-1 1 1 0 0 0-1-1zm24 0a1 1 0 0 0-1 1 1 1 0 0 0 1 1 1 1 0 0 0 1-1 1 1 0 0 0-1-1zm24 0a1 1 0 0 0-1 1 1 1 0 0 0 1 1 1 1 0 0 0 1-1 1 1 0 0 0-1-1zm-48 4a1 1 0 0 0-1 1 1 1 0 0 0 1 1 1 1 0 0 0 1-1 1 1 0 0 0-1-1zm24 0a1 1 0 0 0-1 1 1 1 0 0 0 1 1 1 1 0 0 0 1-1 1 1 0 0 0-1-1zm24 0a1 1 0 0 0-1 1 1 1 0 0 0 1 1 1 1 0 0 0 1-1 1 1 0 0 0-1-1zm-48 4a1 1 0 0 0-1 1 1 1 0 0 0 1 1 1 1 0 0 0 1-1 1 1 0 0 0-1-1zm24 0a1 1 0 0 0-1 1 1 1 0 0 0 1 1 1 1 0 0 0 1-1 1 1 0 0 0-1-1zm24 0a1 1 0 0 0-1 1 1 1 0 0 0 1 1 1 1 0 0 0 1-1 1 1 0 0 0-1-1zm-48 4a1 1 0 0 0-1 1 1 1 0 0 0 1 1 1 1 0 0 0 1-1 1 1 0 0 0-1-1zm24 0a1 1 0 0 0-1 1 1 1 0 0 0 1 1 1 1 0 0 0 1-1 1 1 0 0 0-1-1zm24 0a1 1 0 0 0-1 1 1 1 0 0 0 1 1 1 1 0 0 0 1-1 1 1 0 0 0-1-1zm-48 4a1 1 0 0 0-1 1 1 1 0 0 0 1 1 1 1 0 0 0 1-1 1 1 0 0 0-1-1zm24 0a1 1 0 0 0-1 1 1 1 0 0 0 1 1 1 1 0 0 0 1-1 1 1 0 0 0-1-1zm24 0a1 1 0 0 0-1 1 1 1 0 0 0 1 1 1 1 0 0 0 1-1 1 1 0 0 0-1-1zm-48 4a1 1 0 0 0-1 1 1 1 0 0 0 1 1 1 1 0 0 0 1-1 1 1 0 0 0-1-1zm24 0a1 1 0 0 0-1 1 1 1 0 0 0 1 1 1 1 0 0 0 1-1 1 1 0 0 0-1-1zm24 0a1 1 0 0 0-1 1 1 1 0 0 0 1 1 1 1 0 0 0 1-1 1 1 0 0 0-1-1z" text-decoration="none solid #000"/><path style="line-height:normal;text-indent:0;text-align:start;text-transform:none;isolation:auto;mix-blend-mode:normal" fill="#00c86e" d="M59.984 10.986A1 1 0 0 0 59 12c0 18.557-19.4 27.084-19.4 27.084s-3.558 1.914-3.537 1.912C30.179 44.574 19 53.298 19 68a1 1 0 1 0 2 0c0-18.557 19.4-27.084 19.4-27.084s3.558-1.914 3.538-1.912C49.821 35.426 61 26.702 61 12a1 1 0 0 0-1.016-1.014z" text-decoration="none solid #000"/>
  </symbol>
  <symbol class="icon" id="icons8-time_dots" viewBox="0 0 62 71">
    <g fill="none" fill-rule="evenodd"><path fill="#000" fill-rule="nonzero" d="M25 0c-1.094 0-2 .906-2 2v3c0 1.094.906 2 2 2h2v2.266C11.777 11.23 0 24.246 0 40c0 17.11 13.89 31 31 31s31-13.89 31-31c0-7.941-2.996-15.184-7.914-20.672l1.414-1.414a2.007 2.007 0 0 0 2.344-.344l1.12-1.117v-.004a2.014 2.014 0 0 0 0-2.828l-3.585-3.586a1.989 1.989 0 0 0-1.414-.578c-.516 0-1.028.191-1.414.578l-1.121 1.121c-.63.63-.739 1.59-.344 2.344l-1.621 1.621A30.87 30.87 0 0 0 35 9.266V7h2c1.094 0 2-.906 2-2V2c0-1.094-.906-2-2-2H25zm6 11c16.027 0 29 12.973 29 29S47.027 69 31 69 2 56.027 2 40s12.973-29 29-29zm0 3c-.55 0-1 .45-1 1s.45 1 1 1 1-.45 1-1-.45-1-1-1zm-6.46.852c-.024 0-.048 0-.071.003a1.003 1.003 0 0 0-.906 1.254 1 1 0 0 0 1.226.707.993.993 0 0 0 .707-1.222 1.002 1.002 0 0 0-.957-.742zm12.92.003a.999.999 0 0 0-.25 1.965 1 1 0 1 0 .52-1.93.8.8 0 0 0-.27-.035zm-18.983 2.493a.976.976 0 0 0-.477.136.99.99 0 0 0-.367 1.364c.133.23.351.398.61.468a1 1 0 1 0 .234-1.969zm24.976.004c-.34.015-.648.203-.82.496A1 1 0 0 0 43 19.215a.994.994 0 0 0 1.363-.367.997.997 0 0 0-.91-1.496zm-30.117 3.972a.984.984 0 0 0-.723.29 1.004 1.004 0 0 0 .707 1.71c.266 0 .52-.105.711-.293a1.012 1.012 0 0 0 0-1.418.992.992 0 0 0-.695-.289zm35.355 0a1.016 1.016 0 0 0-.722.29 1.012 1.012 0 0 0 0 1.417c.39.387 1.027.387 1.418 0a1.012 1.012 0 0 0 0-1.418.992.992 0 0 0-.696-.289zM17.31 25.391l-1.391 1.437 11.617 11.219A3.913 3.913 0 0 0 27 40c0 2.2 1.8 4 4 4a3.94 3.94 0 0 0 2.016-.566l2.015 2.015 1.418-1.418-2.015-2.015A3.94 3.94 0 0 0 35 40c0-2.2-1.8-4-4-4-.762 0-1.469.227-2.078.605L17.309 25.391zM52.625 26.5c-.168.004-.332.05-.477.133-.476.277-.64.887-.367 1.367.278.477.89.64 1.367.363A.99.99 0 0 0 53.516 27a1.003 1.003 0 0 0-.891-.5zm-43.324 0a1.02 1.02 0 0 0-.817.5 1.01 1.01 0 0 0-.101.758c.07.258.238.476.465.61.48.277 1.09.109 1.367-.368a.994.994 0 0 0-.367-1.363.993.993 0 0 0-.547-.137zm-2.457 6.031a.999.999 0 0 0-.25 1.965.993.993 0 0 0 1.222-.707 1 1 0 0 0-.972-1.258zm48.343 0a1 1 0 0 0-1.004 1.262 1 1 0 1 0 1.93-.52.996.996 0 0 0-.925-.742zM6 39c-.55 0-1 .45-1 1s.45 1 1 1 1-.45 1-1-.45-1-1-1zm50 0c-.55 0-1 .45-1 1s.45 1 1 1 1-.45 1-1-.45-1-1-1zM6.89 45.469a1 1 0 0 0-1.004 1.262 1 1 0 1 0 1.93-.52 1.005 1.005 0 0 0-.925-.742zm48.25.004a.995.995 0 0 0-.956.742.993.993 0 0 0 .707 1.222.998.998 0 1 0 .515-1.93 1.012 1.012 0 0 0-.265-.034zM9.325 51.5a1 1 0 0 0-.234 1.965.97.97 0 0 0 .758-.102.99.99 0 0 0 .367-1.363 1.003 1.003 0 0 0-.89-.5zm43.278 0c-.34.02-.649.207-.82.5-.274.48-.11 1.09.366 1.367.23.133.504.168.758.102a1.008 1.008 0 0 0 .711-1.227.99.99 0 0 0-.469-.605.993.993 0 0 0-.546-.137zm-39.266 5.176c-.27 0-.531.105-.723.293a1.012 1.012 0 0 0 0 1.418c.39.386 1.028.386 1.418 0a1.012 1.012 0 0 0 0-1.418 1.013 1.013 0 0 0-.695-.293zm35.355 0c-.27 0-.53.105-.722.293a1.012 1.012 0 0 0 0 1.418c.39.386 1.027.386 1.418 0a1.012 1.012 0 0 0 0-1.418 1.013 1.013 0 0 0-.696-.293zm-5.218 3.972a1 1 0 0 0-.84 1.5c.277.477.887.645 1.367.368.227-.133.395-.352.465-.61a.974.974 0 0 0-.102-.758.999.999 0 0 0-.89-.5zm-25.02.004A.997.997 0 0 0 18 62.515a.996.996 0 0 0 1.363-.363.975.975 0 0 0 .102-.757.998.998 0 0 0-1.012-.742zm19.027 2.496c-.027 0-.05 0-.074.004a.988.988 0 0 0-.805.496 1.01 1.01 0 0 0-.101.758.998.998 0 0 0 1.23.707 1 1 0 0 0-.25-1.965zm-12.96.004c-.45 0-.84.305-.957.739a.993.993 0 0 0 .707 1.222 1 1 0 1 0 .515-1.93.869.869 0 0 0-.265-.03zM31 64c-.55 0-1 .45-1 1s.45 1 1 1 1-.45 1-1-.45-1-1-1z"/><path fill="#00C86E" d="M31 38c1.117 0 2 .883 2 2s-.883 2-2 2-2-.883-2-2 .883-2 2-2zM25 2h12v3H25V2zm4 5h4v2h-4V7zm24.965 4.45l3.586 3.585-1.121 1.121-3.586-3.586 1.12-1.12zm-1.535 3.534l1.586 1.586-1.317 1.317a30.319 30.319 0 0 0-1.656-1.516l1.387-1.387z"/></g>
  </symbol>
  <symbol class="icon" id="icons8-under_computer_dots" viewBox="0 0 64 58">
    <g fill="none" fill-rule="evenodd"><path fill="#000" fill-rule="nonzero" d="M2 0C.906 0 0 .906 0 2v41c0 1.094.906 2 2 2h19v-2H2V2h60v41H43v2h19c1.094 0 2-.906 2-2V2c0-1.094-.906-2-2-2H2zm30.996 12c-2.668 0-4.437.84-5.496 1.738-.738.63-.828.992-1.012 1.352a8.292 8.292 0 0 0-4.531 1.742C20.312 18.129 19 20.258 19 23.172c0 2.223.68 5.465.918 6.945-.363.406-.652.895-.652 1.5 0 .57.16 1 .285 1.43.066.21.125.41.164.555.039.144.039.293.039.128 0 1.188 1.004 2.122 2.172 2.149.383 2.414 1.152 5.105 3.074 6.805v3.648c-.598.2-3.457 1.121-6.941 2.848-1.918.949-3.848 2.062-5.356 3.324C11.191 53.77 10 55.23 10 57v1h2v-1c0-.797.684-1.867 1.984-2.96 1.305-1.095 3.125-2.161 4.957-3.071 3.668-1.817 7.368-3.016 7.368-3.016l.691-.226v-5.942l-.414-.297c-1.598-1.156-2.555-4.195-2.875-6.71l-.113-.876H21.98c-.16 0-.226-.09-.226-.172 0-.332-.059-.46-.11-.652-.05-.191-.113-.394-.175-.598-.117-.402-.203-.867-.203-.863 0-.117.054-.219.218-.316l.567-.344-.09-.656c-.215-1.5-.961-5.238-.961-7.13 0-2.335.953-3.792 2.195-4.769C24.437 17.426 26.027 17 27 17h.703l.238-.664s.149-.473.856-1.074c.707-.602 1.937-1.262 4.2-1.262 3.12 0 6.226 1.805 8.53 3.688 1.891 1.542 2.676 2.574 3.09 3.078-.164.144-.199.078-.363.28-.66.84-1.254 2.22-1.254 4.278 0 .914-.18 1.887-.39 2.754-.208.867-.442 1.59-.547 2.211l-.114.66.567.356c.164.101.218.195.218.312 0-.004-.086.461-.203.867-.062.2-.125.403-.176.594-.05.195-.109.32-.109.652 0 .086-.066.172-.226.172h-1.622l-.109.875c-.316 2.52-1.277 5.559-2.875 6.711L37 41.79v5.938l.691.226s3.7 1.2 7.368 3.016c1.832.91 3.652 1.976 4.957 3.07C51.316 55.133 52 56.203 52 57v1h2v-1c0-1.77-1.191-3.23-2.703-4.496-1.508-1.262-3.438-2.375-5.356-3.324-3.484-1.727-6.343-2.649-6.941-2.848v-3.648c1.922-1.696 2.691-4.391 3.074-6.805 1.168-.027 2.172-.957 2.172-2.149 0 .168 0 .02.04-.125.038-.148.097-.347.163-.558.125-.43.285-.86.285-1.43 0-.574-.257-1.039-.59-1.437.098-.407.235-.895.415-1.633.226-.942.441-2.055.441-3.223 0-1.687.45-2.558.824-3.035.375-.477.598-.527.598-.527l1.293-.469-.844-1.086s-1.59-2.039-4.078-4.07C40.301 14.105 36.863 12 32.996 12zM27 18c-.55 0-1 .45-1 1s.45 1 1 1 1-.45 1-1-.45-1-1-1zm1 3c-.55 0-1 .45-1 1s.45 1 1 1 1-.45 1-1-.45-1-1-1zM6 38c-.55 0-1 .45-1 1s.45 1 1 1 1-.45 1-1-.45-1-1-1zm4 0c-.55 0-1 .45-1 1s.45 1 1 1 1-.45 1-1-.45-1-1-1zm4 0c-.55 0-1 .45-1 1s.45 1 1 1 1-.45 1-1-.45-1-1-1zm4 0c-.55 0-1 .45-1 1s.45 1 1 1 1-.45 1-1-.45-1-1-1zm28 0c-.55 0-1 .45-1 1s.45 1 1 1 1-.45 1-1-.45-1-1-1zm4 0c-.55 0-1 .45-1 1s.45 1 1 1 1-.45 1-1-.45-1-1-1zm4 0c-.55 0-1 .45-1 1s.45 1 1 1 1-.45 1-1-.45-1-1-1zm4 0c-.55 0-1 .45-1 1s.45 1 1 1 1-.45 1-1-.45-1-1-1zm-28 8c-.55 0-1 .45-1 1s.45 1 1 1 1-.45 1-1-.45-1-1-1zm4 0c-.55 0-1 .45-1 1s.45 1 1 1 1-.45 1-1-.45-1-1-1z"/><path fill="#00C86E" d="M39 43h23V2H2v41h23v-.316c-1.922-1.7-2.691-4.391-3.074-6.805-1.168-.027-2.172-.961-2.211-2.277-.04-.145-.098-.344-.164-.555-.125-.43-.285-.86-.285-1.43 0-.605.289-1.094.652-1.5-.238-1.48-.918-4.722-.918-6.945 0-2.914 1.313-5.043 2.957-6.34a8.292 8.292 0 0 1 4.531-1.742c.184-.36.274-.723 1.012-1.352C28.559 12.84 30.328 12 32.996 12c3.867 0 7.305 2.105 9.797 4.137 2.488 2.031 4.078 4.07 4.078 4.07l.844 1.086-1.293.469s-.223.05-.598.527c-.375.477-.824 1.348-.824 3.035 0 1.168-.215 2.281-.441 3.223-.18.738-.317 1.226-.414 1.633.332.398.59.863.59 1.437 0 .57-.16 1-.286 1.43-.066.21-.125.41-.203.683 0 1.192-1.004 2.122-2.172 2.149-.383 2.414-1.152 5.11-3.074 6.805V43z"/></g>
  </symbol>
  <symbol class="icon" id="icons8-user_group_man_man_dots" viewBox="0 0 80 80">
    <path d="M31.727 9c-4.84 0-9.192 2.648-12.348 5.223-3.156 2.578-5.168 5.164-5.168 5.164l-.902 1.156 1.41.414s.547.152 1.203.824c.652.668 1.351 1.809 1.351 3.969 0 2.8.43 5.063.645 6.02A2.741 2.741 0 0 0 17 33.8c0 .65.195 1.204.355 1.747.079.273.157.527.207.719.051.191.063.379.063.234 0 1.36 1.14 2.422 2.484 2.469A12.946 12.946 0 0 0 25 48.519v3.731c-1.441.438-4.902 1.555-8.426 3.219-2.3 1.086-4.613 2.394-6.414 3.945C8.36 60.964 7 62.82 7 65v6h52v-4h14v-5.5c0-2.004-1.246-3.7-2.879-5.105-1.633-1.403-3.723-2.583-5.793-3.563-3.098-1.46-6.168-2.465-7.527-2.879v-3.242a11.764 11.764 0 0 0 4.386-8.574c1.22-.094 2.25-1.04 2.25-2.29 0 .157.004-.011.051-.183s.117-.398.188-.644c.144-.489.324-.985.324-1.598a2.57 2.57 0 0 0-.844-1.89c.117-.677.844-4.829.844-7.833 0-3.258-1.223-5.61-2.875-7.062-1.508-1.325-3.277-1.852-4.844-1.95-.199-.34-.441-.878-1.465-1.675C53.508 11.988 51.402 11 48.356 11c-2.7 0-5.223.922-7.426 2.152-.11-.011-.22-.039-.325-.043-.273-.433-.757-1.113-1.761-1.898C37.402 10.09 35.09 9 31.727 9zm0 2c2.937 0 4.761.91 5.882 1.79 1.125.878 1.496 1.651 1.496 1.651l.274.559H40c1.332 0 3.125.508 4.52 1.738C45.918 17.968 47 19.891 47 23c0 2.79-.664 6.86-.86 8h-.015c-.086 0-.07.02-.125.027V28c0-3.422-1.398-5.723-2.805-7.086-1.406-1.363-2.879-1.863-2.879-1.863l-.57-.192-.437.418s-.63.618-2.149 1.313C35.64 21.285 33.29 22 30 22c-1.8 0-4.172.637-6.23 2.074-2.051 1.434-3.758 3.778-3.766 6.957-.055-.008-.043-.031-.129-.031-.023 0-.047.008-.07.008a25.783 25.783 0 0 1-.532-5.258c0-2.617-.937-4.355-1.918-5.363-.418-.43-.511-.356-.875-.57.692-.813 1.977-2.255 4.165-4.04C23.617 13.352 27.633 11 31.727 11zm16.628 2c2.622 0 4.239.809 5.235 1.59.992.777 1.312 1.453 1.312 1.453l.274.555h.625c1.176 0 2.765.453 4 1.543C61.039 19.227 62 20.926 62 23.699c0 2.266-.469 5.301-.703 6.723v-2.223c0-3.105-1.274-5.207-2.55-6.449-1.282-1.242-2.63-1.7-2.63-1.7l-.574-.19-.438.417s-.464.461-1.628 1.035c-1 .489-2.504 1-4.497 1.239-.109-3.352-1.402-5.79-3.136-7.317a8.426 8.426 0 0 0-1.969-1.285c1.441-.582 2.953-.949 4.48-.949zM40 21.156c.242.094.875.293 1.805 1.192C42.898 23.41 44 25.105 44 28v6.305l1.504-.883c.258-.149.496-.281.664-.367.02-.012.027-.012.047-.024.457.047.785.367.785.77 0 .074-.117.66-.27 1.183-.078.258-.156.52-.222.758-.067.238-.133.406-.133.758 0 .266-.219.5-.563.5H44v1.367c0 5.422-3.91 9.903-9.059 10.82l-.285.047-.215.2c-.39.355-.882.566-1.441.566s-1.05-.21-1.441-.566l-.215-.2-.285-.047C25.91 48.27 22 43.79 22 38.367V37h-1.813c-.343 0-.562-.234-.562-.5 0-.352-.066-.52-.133-.758-.066-.238-.144-.5-.222-.758-.153-.523-.27-1.109-.27-1.183 0-.403.328-.723.785-.77.02.012.027.012.047.024.168.086.406.218.664.367l1.504.883V31.05c0-2.492 1.242-4.168 2.914-5.336C26.586 24.547 28.711 24 30 24c3.582 0 6.23-.785 7.992-1.59 1.309-.598 1.653-.965 2.008-1.254zm15.809 1.012c.242.094.746.246 1.543 1.02.968.937 1.945 2.433 1.945 5.011v5.848l1.504-.879c.222-.129.422-.238.566-.313.36.04.633.258.633.567 0 .039-.105.57-.242 1.035-.07.234-.14.465-.2.684-.058.218-.12.367-.12.707 0 .187-.149.351-.407.351h-1.734v1.332c0 4.832-3.484 8.82-8.067 9.64l-.289.048-.21.195a1.806 1.806 0 0 1-1.231.488c-.477 0-.898-.183-1.234-.488l-.215-.195-.281-.047a9.779 9.779 0 0 1-3.98-1.711 12.931 12.931 0 0 0 2.1-6.492c1.344-.047 2.485-1.11 2.485-2.469 0 .145.012-.043.063-.234.05-.192.128-.446.207-.72.16-.542.355-1.097.355-1.745 0-.82-.371-1.543-.941-2.055.152-.887.71-4.226.882-7.156 2.38-.25 4.18-.875 5.418-1.485.938-.46 1.13-.683 1.45-.937zM27.5 33a1.5 1.5 0 1 0 0 3 1.5 1.5 0 0 0 0-3zm11 0a1.5 1.5 0 1 0 0 3 1.5 1.5 0 0 0 0-3zm16 0a1.5 1.5 0 1 0 0 3 1.5 1.5 0 0 0 0-3zM42.559 47.035a11.767 11.767 0 0 0 4.64 2.031c.64.493 1.422.836 2.301.836.89 0 1.688-.351 2.336-.855a11.716 11.716 0 0 0 2.965-1.043v5.086c-.121.23-1.317 2.465-4.426 2.851-.316-.156-.633-.32-.95-.472-3.523-1.664-6.984-2.782-8.425-3.219v-3.727a13.051 13.051 0 0 0 1.559-1.488zM27 49.825a12.96 12.96 0 0 0 3.441 1.234c.707.562 1.582.941 2.559.941.973 0 1.844-.379 2.547-.938A12.72 12.72 0 0 0 39 49.828v5.86C38.879 55.93 37.297 59 33 59s-5.879-3.07-6-3.313zm29.8 2.234c1.47.464 4.028 1.336 6.673 2.582 1.976.937 3.937 2.062 5.343 3.27C70.223 59.12 71 60.354 71 61.5V65H59c0-.758-.176-1.477-.465-2.156a.998.998 0 0 0-1.031-1.711 12.523 12.523 0 0 0-1.664-1.719c-.887-.762-1.899-1.465-2.969-2.113 2.652-1.184 3.824-3.453 3.824-3.453l.106-.211zM25 54.355v1.88l.105.214S27.465 61 33 61s7.895-4.55 7.895-4.55l.105-.216v-1.879c1.605.504 4.547 1.497 7.574 2.926 2.2 1.04 4.387 2.293 5.961 3.649C56.11 62.285 57 63.68 57 65v4H9v-4c0-1.32.89-2.715 2.465-4.07 1.574-1.356 3.762-2.61 5.96-3.649 3.028-1.43 5.97-2.422 7.575-2.926zM62 61c-.55 0-1 .45-1 1s.45 1 1 1 1-.45 1-1-.45-1-1-1zm4 0c-.55 0-1 .45-1 1s.45 1 1 1 1-.45 1-1-.45-1-1-1zm-53 4c-.55 0-1 .45-1 1s.45 1 1 1 1-.45 1-1-.45-1-1-1zm4 0c-.55 0-1 .45-1 1s.45 1 1 1 1-.45 1-1-.45-1-1-1zm4 0c-.55 0-1 .45-1 1s.45 1 1 1 1-.45 1-1-.45-1-1-1zm4 0c-.55 0-1 .45-1 1s.45 1 1 1 1-.45 1-1-.45-1-1-1zm4 0c-.55 0-1 .45-1 1s.45 1 1 1 1-.45 1-1-.45-1-1-1zm4 0c-.55 0-1 .45-1 1s.45 1 1 1 1-.45 1-1-.45-1-1-1zm4 0c-.55 0-1 .45-1 1s.45 1 1 1 1-.45 1-1-.45-1-1-1zm4 0c-.55 0-1 .45-1 1s.45 1 1 1 1-.45 1-1-.45-1-1-1zm4 0c-.55 0-1 .45-1 1s.45 1 1 1 1-.45 1-1-.45-1-1-1zm4 0c-.55 0-1 .45-1 1s.45 1 1 1 1-.45 1-1-.45-1-1-1zm4 0c-.55 0-1 .45-1 1s.45 1 1 1 1-.45 1-1-.45-1-1-1z"/>
  </symbol>
  <symbol class="icon" id="next_player" viewBox="0 0 24 24">
    <path d="M6 18l8.5-6L6 6v12zM16 6v12h2V6h-2z"/>
  </symbol>
  <symbol class="icon" id="pause_player" viewBox="0 0 24 24">
    <path d="M6 19h4V5H6v14zm8-14v14h4V5h-4z"/>
  </symbol>
  <symbol class="icon" id="play_player" viewBox="0 0 24 24">
    <path d="M8 5v14l11-7z"/>
  </symbol>
  <symbol class="icon" id="previous_player" viewBox="0 0 24 24">
    <path d="M6 6h2v12H6zm3.5 6l8.5 6V6z"/>
  </symbol>
  <symbol class="icon" id="fb_social" viewBox="0 0 18 18">
    <path d="M16.2 0H1.8A1.793 1.793 0 0 0 0 1.8v14.4A1.793 1.793 0 0 0 1.8 18h14.4a1.793 1.793 0 0 0 1.8-1.8V1.8A1.793 1.793 0 0 0 16.2 0zm-.9 1.8v2.7h-1.8a.9.9 0 0 0-.9.9v1.8h2.7v2.7h-2.7v6.3H9.9V9.9H8.1V7.2h1.8V4.9a3.138 3.138 0 0 1 3.2-3.1h2.2z"/>
  </symbol>
  <symbol class="icon" id="gp_social" viewBox="0 0 18 18">
    <path d="M8.3 6.2c0-.9-.5-2.7-1.9-2.7A1.256 1.256 0 0 0 5.2 5c0 1.1.5 2.6 1.8 2.6a1.232 1.232 0 0 0 1.3-1.4zm-.6 4.4h-.2a5.5 5.5 0 0 0-1.6.3 1.608 1.608 0 0 0-1.3 1.5c0 1 .9 2 2.7 2a1.976 1.976 0 0 0 2.2-1.8c-.1-.6-.6-1.1-1.8-2zM16.2 0H1.8A1.793 1.793 0 0 0 0 1.8v14.4A1.793 1.793 0 0 0 1.8 18h14.4a1.793 1.793 0 0 0 1.8-1.8V1.8A1.793 1.793 0 0 0 16.2 0zM6.4 15.5c-2.5 0-3.7-1.4-3.7-2.7a2.537 2.537 0 0 1 1.4-2.2 5.466 5.466 0 0 1 2.8-.8 1.078 1.078 0 0 1-.3-.9.9.9 0 0 1 .1-.5h-.4a2.739 2.739 0 0 1-2.9-2.7c0-1.5 1.2-3.2 3.7-3.2h3.8l-.3.3-.6.6-.1.1h-.6a2.666 2.666 0 0 1 .8 2 2.545 2.545 0 0 1-1.4 2.4.842.842 0 0 0-.4.7.538.538 0 0 0 .4.5c.1.1.3.2.4.3a3.164 3.164 0 0 1 1.7 2.6c0 1.6-1.2 3.5-4.4 3.5zM15.3 9h-1.8v1.8h-.9V9h-1.8v-.9h1.8V6.3h.9v1.8h1.8V9z"/>
  </symbol>
  <symbol class="icon" id="mr_social" viewBox="0 0 18 18">
    <path d="M8.8 6.5a2.419 2.419 0 0 0-2.4 2.6 2.263 2.263 0 0 0 2.3 2.5 2.456 2.456 0 0 0 2.5-2.4v-.3a2.309 2.309 0 0 0-2.4-2.4zM16.2 0H1.8A1.793 1.793 0 0 0 0 1.8v14.4A1.793 1.793 0 0 0 1.8 18h14.4a1.793 1.793 0 0 0 1.8-1.8V1.8A1.793 1.793 0 0 0 16.2 0zm-2.4 13.4a1.566 1.566 0 0 1-2.5-1.2v-.4A3.338 3.338 0 0 1 8.8 13a3.905 3.905 0 0 1 0-7.8 3.733 3.733 0 0 1 2.6 1.2.56.56 0 0 1 .5-.6h.1a.619.619 0 0 1 .6.6v5.4c0 .4.3.5.6.3.8-.9 1.8-4.6-.5-6.7A5.34 5.34 0 0 0 6 4.9a5.17 5.17 0 0 0-1.7 6.2 4.965 4.965 0 0 0 6.2 2.7c1-.4 1.4 1 .4 1.4a6.511 6.511 0 0 1-7.7-3 6.6 6.6 0 0 1 2.3-8.7 6.674 6.674 0 0 1 8.4 1.1c2.3 2.4 2.1 7-.1 8.8z"/>
  </symbol>
  <symbol class="icon" id="ok_social" viewBox="0 0 18 18">
    <path d="M16.2 0H1.8A1.793 1.793 0 0 0 0 1.8v14.4A1.793 1.793 0 0 0 1.8 18h14.4a1.793 1.793 0 0 0 1.8-1.8V1.8A1.793 1.793 0 0 0 16.2 0zM9 2.5a3.483 3.483 0 0 1 3.4 3.6 3.543 3.543 0 0 1-3.5 3.5A3.529 3.529 0 0 1 5.6 6 3.337 3.337 0 0 1 9 2.5zm3.9 8.4a3.956 3.956 0 0 1-1.5 1 8.469 8.469 0 0 1-1.7.4l.2.2 2.4 2.4a.8.8 0 0 1 .2.9 1.149 1.149 0 0 1-.9.6.864.864 0 0 1-.6-.3l-1.8-1.8a.231.231 0 0 0-.4 0c-.6.6-1.2 1.2-1.8 1.9a.8.8 0 0 1-.9.2.874.874 0 0 1-.5-.9.864.864 0 0 1 .3-.6c.8-.8 1.6-1.6 2.3-2.4l.2-.2a5.257 5.257 0 0 1-2.8-1 .53.53 0 0 0-.3-.2.817.817 0 0 1-.1-1.2c.2-.4.6-.4 1.1-.2a.349.349 0 0 1 .2.1 4.353 4.353 0 0 0 5.1 0c.2-.1.3-.2.5-.3a.7.7 0 0 1 .9.4.92.92 0 0 1-.1 1zM9 7.7A1.752 1.752 0 0 0 10.7 6 1.628 1.628 0 0 0 9 4.3 1.685 1.685 0 0 0 7.3 6 1.752 1.752 0 0 0 9 7.7z"/>
  </symbol>
  <symbol class="icon" id="rss_social" viewBox="0 0 16 16">
    <path d="M15.751 16h-3.113a.248.248 0 0 1-.245-.247c0-6.704-5.448-12.158-12.146-12.158A.247.247 0 0 1 0 3.349V.248C0 .111.111 0 .247 0c8.651 0 15.696 7.023 15.739 15.676l.014.077a.25.25 0 0 1-.249.247zM.247 5.226c5.771 0 10.475 4.682 10.518 10.45l.012.077a.248.248 0 0 1-.248.246H7.506a.246.246 0 0 1-.246-.246c0-3.871-3.148-7.019-7.013-7.019A.248.248 0 0 1 0 8.487V5.474c0-.137.111-.248.247-.248zm2.125 6.028a2.375 2.375 0 0 1 2.372 2.374A2.376 2.376 0 0 1 2.372 16 2.376 2.376 0 0 1 0 13.628a2.375 2.375 0 0 1 2.372-2.374z"/>
  </symbol>
  <symbol class="icon" id="tw_social" viewBox="0 0 18 18">
    <path d="M16.2 0H1.8A1.793 1.793 0 0 0 0 1.8v14.4A1.793 1.793 0 0 0 1.8 18h14.4a1.793 1.793 0 0 0 1.8-1.8V1.8A1.793 1.793 0 0 0 16.2 0zm-2.1 6.6c-.1 4.1-2.7 7-6.7 7.2a6.2 6.2 0 0 1-3.9-1.1 4.708 4.708 0 0 0 3.5-1A2.248 2.248 0 0 1 4.9 10a3.334 3.334 0 0 0 1 0A2.484 2.484 0 0 1 4 7.6a1.689 1.689 0 0 0 1 .3 2.7 2.7 0 0 1-.8-3.3 7.067 7.067 0 0 0 4.9 2.5c-.5-2.5 2.9-3.9 4.2-2.2a13.081 13.081 0 0 0 1.5-.5 2.209 2.209 0 0 1-1 1.3 6.468 6.468 0 0 0 1.3-.4 2.43 2.43 0 0 1-1 1.3z"/>
  </symbol>
  <symbol class="icon" id="vk_social" viewBox="0 0 18 18">
    <path d="M16.2 0H1.8A1.793 1.793 0 0 0 0 1.8v14.4A1.793 1.793 0 0 0 1.8 18h14.4a1.793 1.793 0 0 0 1.8-1.8V1.8A1.793 1.793 0 0 0 16.2 0zm-2.5 10.4a15.933 15.933 0 0 1 1.3 1.3 4.233 4.233 0 0 1 .5.7.442.442 0 0 1-.3.7h-1.9a1.656 1.656 0 0 1-1.2-.5 6.034 6.034 0 0 0-.8-.8l-.3-.3a.349.349 0 0 0-.6.2 1.486 1.486 0 0 0-.2.9.53.53 0 0 1-.6.6 4.9 4.9 0 0 1-2.7-.6 5.814 5.814 0 0 1-1.8-1.7 22.1 22.1 0 0 1-2.6-4.4c-.1-.3 0-.5.4-.5h1.9a.42.42 0 0 1 .4.4 17.1 17.1 0 0 0 1.3 2.3 1.205 1.205 0 0 0 .5.5.288.288 0 0 0 .5-.1.9.9 0 0 0 .1-.5 9.652 9.652 0 0 0 0-1.7.85.85 0 0 0-.7-.7c-.1 0-.1-.1 0-.2a.6.6 0 0 1 .6-.3h2.2c.3.1.3.2.4.6v2.4a.864.864 0 0 0 .3.6c.2.1.3-.1.4-.2A6.15 6.15 0 0 0 12 7.2c.1-.3.3-.6.4-.9a.462.462 0 0 1 .5-.3h2.3c.3.1.4.2.3.5a6.376 6.376 0 0 1-.8 1.4 13.444 13.444 0 0 1-1.1 1.4.708.708 0 0 0 .1 1.1z"/>
  </symbol>
</svg>