<svg xmlns="http://www.w3.org/2000/svg" width="48" height="48" viewBox="0 0 48 48"><path fill="#3F51B5" d="M2 10h44v28H2z"/><g fill="#FFF"><path d="M2 14.216l20.81 12.719 3.129-5.12L6.608 10H2z"/><path d="M46 10h-3.609l-19.33 11.814 3.128 5.121L46 14.826z"/><path d="M26.189 20.271l-3.128 5.12L43.691 38H46v-5.621z"/><path d="M2 32.991V38h3.31l20.629-12.608-3.128-5.121z"/><path d="M2 20h44v8H2z"/><path d="M20 10h8v28h-8z"/></g><g fill="#E53935"><path d="M17.218 20L2 10.699v2.344L13.382 20zm27.091-10L27.947 20h3.835L46 11.311V10zM33.082 28L46 35.895v-2.344L36.917 28zm-17.164 0L2 36.506V38h1.392l16.361-10zM2 22h44v4H2z"/><path d="M22 10h4v28h-4z"/></g></svg>