<svg width="134" height="45" viewBox="0 0 134 45" xmlns="http://www.w3.org/2000/svg"><path d="M127.318 7.038a22.137 22.137 0 0 1 6.517 15.721c0 12.282-9.957 22.23-22.23 22.23H22.717a22.146 22.146 0 0 1-15.72-6.508A22.173 22.173 0 0 1 .478 22.76C.478 10.48 10.437.53 22.718.53h5.715v12.718c1.117-.95 3.04-1.684 5.463-1.684 6.153 0 11.133 4.978 11.133 11.13 0 6.145-4.98 11.132-11.133 11.132-6.144 0-11.13-4.987-11.13-11.131V6.197h-.049c-9.14 0-16.57 7.43-16.57 16.562 0 9.133 7.43 16.564 16.57 16.564h88.888c9.133 0 16.564-7.43 16.564-16.564 0-9.131-7.431-16.562-16.564-16.562H86.59V33.68h-5.667V.53h30.682a22.13 22.13 0 0 1 15.713 6.508zM33.896 17.23a5.463 5.463 0 0 1 5.465 5.465 5.467 5.467 0 0 1-5.465 5.464 5.472 5.472 0 0 1-5.463-5.464 5.468 5.468 0 0 1 5.463-5.465zm13.765 16.455v-21.63h5.667v21.63H47.66zm30.558-10.99c0 6.145-4.978 11.131-11.13 11.131-6.145 0-11.132-4.986-11.132-11.13 0-6.153 4.987-11.131 11.131-11.131a11.124 11.124 0 0 1 11.131 11.13zm-5.666 0a5.462 5.462 0 0 0-5.465-5.464 5.467 5.467 0 0 0-5.464 5.465 5.473 5.473 0 0 0 5.464 5.464 5.467 5.467 0 0 0 5.465-5.464zm38.996 10.99h-5.667v-1.943c-1.264 1.33-3.116 2.085-5.464 2.085-6.145 0-11.131-4.987-11.131-11.131 0-6.152 4.986-11.133 11.13-11.133 6.143 0 11.13 4.979 11.132 11.13v10.992zm-11.131-5.526a5.472 5.472 0 0 0 5.464-5.463 5.467 5.467 0 0 0-5.464-5.465 5.467 5.467 0 0 0-5.465 5.465 5.472 5.472 0 0 0 5.465 5.463z" fill="#FFF" fill-rule="evenodd"/></svg>