<svg xmlns="http://www.w3.org/2000/svg" viewBox="10 15 80 70"><path d="M75.053 23.676c-3.35-3.35-7.688-5.11-12.076-5.282-2.09-.107-12.278-.135-17.206 8.98l.003-.002h-.002c-4.926-9.113-15.115-9.085-17.204-8.978-4.388.173-8.726 1.93-12.076 5.282-5.09 5.09-6.513 12.458-4.27 18.822 1.185 3.49 7.287 17.426 33.55 36.045 1.453-1.03 2.84-2.043 4.17-3.043-2.008-1.087-3.895-2.477-5.593-4.174-9.434-9.434-9.434-24.73 0-34.162 9.434-9.434 24.73-9.434 34.163 0 .59.59 1.145 1.205 1.662 1.84.764-5.436-.94-11.15-5.12-15.328zM26.67 26.292c-3.56 1.908-6.13 4.702-7.74 6.867-.61.82-1.913.246-1.712-.757 1.226-6.125 5.57-7.67 8.93-7.91 1.024-.07 1.428 1.313.522 1.798zm33.883 18.35c-3.467 1.858-5.97 4.58-7.538 6.686-.594.8-1.86.24-1.666-.735 1.192-5.964 5.423-7.47 8.692-7.7.998-.07 1.39 1.277.51 1.75zm26.844 30.063l-9.81-8.14C83.67 58.6 83.093 47.14 75.813 39.86c-3.842-3.842-8.95-5.958-14.384-5.958s-10.543 2.116-14.385 5.958c-7.93 7.93-7.93 20.837 0 28.768 3.842 3.842 8.95 5.958 14.384 5.958 4.515 0 8.795-1.48 12.322-4.18l8.14 9.807c1.47 1.773 4.146 1.897 5.775.268 1.63-1.627 1.504-4.303-.268-5.774zm-37.713-8.718c-6.475-6.475-6.475-17.01 0-23.487 3.137-3.137 7.307-4.864 11.743-4.864s8.607 1.727 11.743 4.864c6.475 6.475 6.475 17.01 0 23.487-3.137 3.137-7.307 4.864-11.743 4.864-4.435.003-8.606-1.725-11.743-4.862z"/></svg>