<svg xmlns="http://www.w3.org/2000/svg" viewBox="0 0 100 100"><path d="M50 5C25.187 5 5 25.187 5 50s20.187 45 45 45 45-20.187 45-45S74.813 5 50 5zm38.497 44h-16.07c-.286-5-2.19-9.71-5.223-13.312l5.682-5.755c.76-.758.76-2.024 0-2.782-.758-.757-1.986-.775-2.744-.017l-5.33 5.672C61.21 29.77 57 27.86 52 27.573v-16.07C72 12.175 87.824 29 88.497 49zM52 30.16c4 .278 8.21 1.896 11.334 4.467L52 45.96v-15.8zM49 49H30.16C30.806 39 39 30.805 49 30.16V49zm0 3v17.84C39 69.195 30.805 61 30.16 52H49zm3 0h17.84C69.195 61 61 69.196 52 69.84V52zm2.04-3l11.333-11.334C67.945 40.79 69.563 45 69.84 49h-15.8zM49 11.503v16.07C38 28.223 28.224 38 27.573 49h-16.07C12.175 29 29 12.175 49 11.503zM11.503 52h16.07C28.223 63 38 71.775 49 72.428v16.07C29 87.823 12.175 72 11.503 52zM52 88.497v-16.07C63 71.776 71.775 63 72.428 52h16.07C87.823 72 72 87.824 52 88.497z"/><path d="M31.074 33.177c2.14 0 3.882-1.74 3.882-3.882 0-2.14-1.74-3.882-3.882-3.882-2.14 0-3.882 1.74-3.882 3.882 0 2.14 1.742 3.882 3.882 3.882zM33.663 70.705c-2.14 0-3.882 1.74-3.882 3.882s1.743 3.882 3.883 3.882 3.882-1.742 3.882-3.883-1.742-3.882-3.882-3.882zM58.25 55.176c-2.142 0-3.883 1.742-3.883 3.883s1.74 3.88 3.883 3.88c2.14 0 3.882-1.74 3.882-3.88s-1.74-3.884-3.882-3.884z"/></svg>