<svg xmlns="http://www.w3.org/2000/svg" class="icons-sprite">
  <symbol id="add" viewBox="0 0 16 16">
     <path fill-rule="evenodd" d="M8,0C3.582,0,0,3.582,0,8s3.582,8,8,8c4.418,0,8-3.582,8-8S12.418,0,8,0z   M12,9H9v3H7V9H4V7h3V4h2v3h3V9z"/> 
  </symbol>
  <symbol id="button" viewBox="0 0 19 19">
      <path id="&#x41F;&#x440;&#x44F;&#x43C;&#x43E;&#x443;&#x433;&#x43E;&#x43B;&#x44C;&#x43D;&#x438;&#x43A;_4" data-name="&#x41F;&#x440;&#x44F;&#x43C;&#x43E;&#x443;&#x433;&#x43E;&#x43B;&#x44C;&#x43D;&#x438;&#x43A; 4" class="cls-1" d="M26.5,17A9.5,9.5,0,1,1,17,26.5,9.5,9.5,0,0,1,26.5,17ZM24,23l6,3v1l-6,3V23Z" transform="translate(-17 -17)"/> 
  </symbol>
  <symbol id="chevron-down" viewBox="0 0 10 5" preserveAspectRatio="xMidYMid" >
     <path d="M5.000,5.000 L0.000,1.072 L0.683,-0.000 L5.000,3.391 L9.317,-0.000 L10.000,1.072 L5.000,5.000 Z"/> 
  </symbol>
  <symbol id="chevron-left" viewBox="0 0 7.13 14" preserveAspectRatio="xMidYMid" >
     <path d="M0 7l5.598-7 1.528.956L2.293 7l4.833 6.043L5.598 14 0 7z"/> 
  </symbol>
  <symbol id="chevron-right" viewBox="0 0 7.12 14" preserveAspectRatio="xMidYMid" >
     <path d="M7.12 7l-5.598 7-1.528-.957L4.827 7-.006.956 1.522 0 7.12 7z"/> 
  </symbol>
  <symbol id="chevron-up" viewBox="0 0 10 5" preserveAspectRatio="xMidYMid" >
     <path d="M5.000,-0.000 L10.000,3.928 L9.317,5.000 L5.000,1.609 L0.683,5.000 L-0.000,3.928 L5.000,-0.000 Z" class="cls-1"/> 
  </symbol>
  <symbol id="close" viewBox="0 0 16 16" preserveAspectRatio="xMidYMid" >
     <path d="M16.000,14.546 L14.545,16.000 L8.000,9.455 L1.455,16.000 L-0.000,14.546 L6.545,8.000 L-0.000,1.455 L1.455,0.000 L8.000,6.546 L14.545,0.000 L16.000,1.455 L9.454,8.000 L16.000,14.546 Z" class="cls-1"/> 
  </symbol>
  <symbol id="cursor" viewBox="0 0 128 112">
      <path id="&#x424;&#x438;&#x433;&#x443;&#x440;&#x430;_1" data-name="&#x424;&#x438;&#x433;&#x443;&#x440;&#x430; 1" class="cls-1" d="M87.412,32.886H0V95.112H87.412V32.886ZM74.924,82.667H12.488V45.331H74.924V82.667ZM128,20.441V8H84.293V20.441H99.9v87.116H84.293V120H128V107.557H112.39V20.441H128Z" transform="translate(0 -8)"/> 
  </symbol>
  <symbol id="fb" viewBox="0 0 18 18">
      <path id="&#x424;&#x438;&#x433;&#x443;&#x440;&#x430;_1" data-name="&#x424;&#x438;&#x433;&#x443;&#x440;&#x430; 1" class="cls-1" d="M16.2,0H1.8A1.793,1.793,0,0,0,0,1.8V16.2A1.793,1.793,0,0,0,1.8,18H16.2A1.793,1.793,0,0,0,18,16.2V1.8A1.793,1.793,0,0,0,16.2,0h0ZM15.3,1.8V4.5H13.5a0.9,0.9,0,0,0-.9.9V7.2h2.7V9.9H12.6v6.3H9.9V9.9H8.1V7.2H9.9V4.9a3.138,3.138,0,0,1,3.2-3.1h2.2Z"/> 
  </symbol>
  <symbol id="github-octocat" viewBox="0 0 16 15.969">
      <path id="&#x424;&#x438;&#x433;&#x443;&#x440;&#x430;_6" data-name="&#x424;&#x438;&#x433;&#x443;&#x440;&#x430; 6" class="cls-1" d="M1088,28a8.228,8.228,0,0,0-2.53,15.977,0.407,0.407,0,0,0,.55-0.389c0-.195-0.01-0.84-0.01-1.527-2.01.379-2.53-.5-2.69-0.963a2.982,2.982,0,0,0-.82-1.158c-0.28-.154-0.68-0.533-0.01-0.543a1.6,1.6,0,0,1,1.23.84,1.686,1.686,0,0,0,2.33.676,1.741,1.741,0,0,1,.51-1.1c-1.78-.2-3.64-0.912-3.64-4.048a3.236,3.236,0,0,1,.82-2.2,3.014,3.014,0,0,1,.08-2.173s0.67-.215,2.2.84a7.366,7.366,0,0,1,4,0c1.53-1.066,2.2-.84,2.2-0.84a3.014,3.014,0,0,1,.08,2.173,3.217,3.217,0,0,1,.82,2.2c0,3.146-1.87,3.843-3.65,4.048a1.968,1.968,0,0,1,.54,1.517c0,1.1-.01,1.978-0.01,2.255a0.4,0.4,0,0,0,.55.389A8.2,8.2,0,0,0,1096,36.2a8.1,8.1,0,0,0-8-8.2h0Z" transform="translate(-1080 -28)"/> 
  </symbol>
  <symbol id="gp" viewBox="0 0 18 18">
      <path id="&#x424;&#x438;&#x433;&#x443;&#x440;&#x430;_2" data-name="&#x424;&#x438;&#x433;&#x443;&#x440;&#x430; 2" class="cls-1" d="M8.3,6.2c0-.9-0.5-2.7-1.9-2.7A1.256,1.256,0,0,0,5.2,5c0,1.1.5,2.6,1.8,2.6A1.232,1.232,0,0,0,8.3,6.2h0ZM7.7,10.6H7.5a5.5,5.5,0,0,0-1.6.3,1.608,1.608,0,0,0-1.3,1.5c0,1,.9,2,2.7,2a1.976,1.976,0,0,0,2.2-1.8c-0.1-.6-0.6-1.1-1.8-2h0ZM16.2,0H1.8A1.793,1.793,0,0,0,0,1.8V16.2A1.793,1.793,0,0,0,1.8,18H16.2A1.793,1.793,0,0,0,18,16.2V1.8A1.793,1.793,0,0,0,16.2,0h0ZM6.4,15.5c-2.5,0-3.7-1.4-3.7-2.7a2.537,2.537,0,0,1,1.4-2.2,5.466,5.466,0,0,1,2.8-.8,1.078,1.078,0,0,1-.3-0.9,0.9,0.9,0,0,1,.1-0.5H6.3A2.739,2.739,0,0,1,3.4,5.7c0-1.5,1.2-3.2,3.7-3.2h3.8l-0.3.3L10,3.4l-0.1.1H9.3a2.666,2.666,0,0,1,.8,2A2.545,2.545,0,0,1,8.7,7.9a0.842,0.842,0,0,0-.4.7,0.538,0.538,0,0,0,.4.5C8.8,9.2,9,9.3,9.1,9.4A3.164,3.164,0,0,1,10.8,12c0,1.6-1.2,3.5-4.4,3.5h0ZM15.3,9H13.5v1.8H12.6V9H10.8V8.1h1.8V6.3h0.9V8.1h1.8V9Z"/> 
  </symbol>
  <symbol id="hamburger" viewBox="0 0 20 14" preserveAspectRatio="xMidYMid" >
     <path d="M0.000,14.000 L0.000,12.000 L20.000,12.000 L20.000,14.000 L0.000,14.000 ZM0.000,6.000 L20.000,6.000 L20.000,8.000 L0.000,8.000 L0.000,6.000 ZM0.000,0.000 L20.000,0.000 L20.000,2.000 L0.000,2.000 L0.000,0.000 Z"/> 
  </symbol>
  <symbol id="heart" viewBox="0 0 124 113">
      <path id="&#x424;&#x438;&#x433;&#x443;&#x440;&#x430;_2" data-name="&#x424;&#x438;&#x433;&#x443;&#x440;&#x430; 2" class="cls-1" d="M64,120l-8.68-8.6C23.08,83.152,2,64.114,2,40.777,2,21.739,16.88,7,36.1,7A37.405,37.405,0,0,1,64,19.9,37.405,37.405,0,0,1,91.9,7C111.12,7,126,21.739,126,40.777c0,23.337-21.08,42.375-53.32,70.625Z" transform="translate(-2 -7)"/> 
  </symbol>
  <symbol id="input" viewBox="0 0 41 41">
     <path d="M27.999,10.5H0v20h27.999V10.5z M23.999,26.5H4v-12h19.999V26.5z M41,6.5v-4H27v4h5l0,28h-5v4h14v-4h-5v-28H41z" fill="#000000"/> 
  </symbol>
  <symbol id="maginifer" viewBox="0 0 17 17" preserveAspectRatio="xMidYMid" >
     <path d="M17.000,15.803 L15.803,17.000 L12.148,13.344 C10.866,14.365 9.265,15.000 7.500,15.000 C3.358,15.000 0.000,11.642 0.000,7.500 C0.000,3.358 3.358,0.000 7.500,0.000 C11.642,0.000 15.000,3.358 15.000,7.500 C15.000,9.265 14.365,10.866 13.345,12.147 L17.000,15.803 ZM7.500,2.000 C4.462,2.000 2.000,4.462 2.000,7.500 C2.000,10.538 4.462,13.000 7.500,13.000 C10.538,13.000 13.000,10.538 13.000,7.500 C13.000,4.462 10.538,2.000 7.500,2.000 Z"/> 
  </symbol>
  <symbol id="mr" viewBox="0 0 18 18">
      <path id="&#x424;&#x438;&#x433;&#x443;&#x440;&#x430;_3" data-name="&#x424;&#x438;&#x433;&#x443;&#x440;&#x430; 3" class="cls-1" d="M8.8,6.5h0A2.419,2.419,0,0,0,6.4,9.1a2.263,2.263,0,0,0,2.3,2.5,2.456,2.456,0,0,0,2.5-2.4V8.9A2.309,2.309,0,0,0,8.8,6.5ZM16.2,0H1.8A1.793,1.793,0,0,0,0,1.8V16.2A1.793,1.793,0,0,0,1.8,18H16.2A1.793,1.793,0,0,0,18,16.2V1.8A1.793,1.793,0,0,0,16.2,0ZM13.8,13.4a1.566,1.566,0,0,1-2.5-1.2V11.8A3.338,3.338,0,0,1,8.8,13a3.905,3.905,0,0,1,0-7.8,3.733,3.733,0,0,1,2.6,1.2h0a0.56,0.56,0,0,1,.5-0.6H12a0.619,0.619,0,0,1,.6.6v5.4c0,0.4.3,0.5,0.6,0.3,0.8-.9,1.8-4.6-0.5-6.7A5.34,5.34,0,0,0,6,4.9a5.17,5.17,0,0,0-1.7,6.2,4.965,4.965,0,0,0,6.2,2.7c1-.4,1.4,1,0.4,1.4a6.511,6.511,0,0,1-7.7-3A6.6,6.6,0,0,1,5.5,3.5a6.674,6.674,0,0,1,8.4,1.1C16.2,7,16,11.6,13.8,13.4Z"/> 
  </symbol>
  <symbol id="ok" viewBox="0 0 18 18">
      <path id="&#x424;&#x438;&#x433;&#x443;&#x440;&#x430;_6" data-name="&#x424;&#x438;&#x433;&#x443;&#x440;&#x430; 6" class="cls-1" d="M16.2,0H1.8A1.793,1.793,0,0,0,0,1.8V16.2A1.793,1.793,0,0,0,1.8,18H16.2A1.793,1.793,0,0,0,18,16.2V1.8A1.793,1.793,0,0,0,16.2,0ZM9,2.5a3.483,3.483,0,0,1,3.4,3.6A3.543,3.543,0,0,1,8.9,9.6,3.529,3.529,0,0,1,5.6,6,3.337,3.337,0,0,1,9,2.5Zm3.9,8.4a3.956,3.956,0,0,1-1.5,1,8.469,8.469,0,0,1-1.7.4l0.2,0.2,2.4,2.4a0.8,0.8,0,0,1,.2.9,1.149,1.149,0,0,1-.9.6,0.864,0.864,0,0,1-.6-0.3L9.2,14.3a0.231,0.231,0,0,0-.4,0c-0.6.6-1.2,1.2-1.8,1.9a0.8,0.8,0,0,1-.9.2,0.874,0.874,0,0,1-.5-0.9,0.864,0.864,0,0,1,.3-0.6c0.8-.8,1.6-1.6,2.3-2.4l0.2-.2a5.257,5.257,0,0,1-2.8-1,0.53,0.53,0,0,0-.3-0.2,0.817,0.817,0,0,1-.1-1.2c0.2-.4.6-0.4,1.1-0.2a0.349,0.349,0,0,1,.2.1,4.353,4.353,0,0,0,5.1,0c0.2-.1.3-0.2,0.5-0.3a0.7,0.7,0,0,1,.9.4A0.92,0.92,0,0,1,12.9,10.9ZM9,7.7A1.752,1.752,0,0,0,10.7,6,1.628,1.628,0,0,0,9,4.3,1.685,1.685,0,0,0,7.3,6,1.752,1.752,0,0,0,9,7.7Z"/> 
  </symbol>
  <symbol id="rss" viewBox="0 0 16 16" preserveAspectRatio="xMidYMid" >
     <path d="M15.751,16.000 L15.738,16.000 L12.638,16.000 C12.504,16.000 12.393,15.888 12.393,15.753 C12.393,9.049 6.945,3.595 0.247,3.595 C0.111,3.595 -0.000,3.485 -0.000,3.349 L-0.000,0.248 C-0.000,0.111 0.111,-0.000 0.247,-0.000 C8.898,-0.000 15.943,7.023 15.986,15.676 L16.000,15.753 C16.000,15.888 15.886,16.000 15.751,16.000 ZM0.247,5.226 C6.018,5.226 10.722,9.908 10.765,15.676 L10.777,15.753 C10.777,15.887 10.666,15.999 10.529,15.999 L10.518,15.999 L7.506,15.999 C7.369,15.999 7.260,15.887 7.260,15.753 C7.260,11.882 4.112,8.734 0.247,8.734 C0.111,8.734 -0.000,8.623 -0.000,8.487 L-0.000,5.474 C-0.000,5.337 0.111,5.226 0.247,5.226 ZM2.372,11.254 C3.680,11.254 4.744,12.318 4.744,13.628 C4.744,14.934 3.680,16.000 2.372,16.000 C1.064,16.000 -0.000,14.934 -0.000,13.628 C-0.000,12.318 1.064,11.254 2.372,11.254 Z"/> 
  </symbol>
  <symbol id="text" viewBox="0 0 475.082 475.082">
     <path d="M473.371,433.11c-10.657-3.997-20.458-6.563-29.407-7.706c-8.945-0.767-15.516-2.95-19.701-6.567   c-2.475-1.529-5.808-6.95-9.996-16.279c-7.806-15.604-13.989-29.786-18.555-42.537c-7.427-20.181-13.617-35.789-18.565-46.829   c-10.845-25.311-19.982-47.678-27.401-67.092c-4.001-10.466-15.797-38.731-35.405-84.796L255.813,24.265l-3.142-5.996h-15.129   h-21.414l-79.94,206.704L68.523,400.847c-5.33,9.896-9.9,16.372-13.706,19.417c-3.996,2.848-14.466,5.805-31.405,8.843   c-11.042,2.102-18.654,3.812-22.841,5.141L0,456.812h5.996c16.37,0,32.264-1.334,47.679-3.997l13.706-2.279   c53.868,3.806,87.082,5.708,99.642,5.708c0.381-1.902,0.571-4.476,0.571-7.706c0-5.715-0.094-11.231-0.287-16.563   c-3.996-0.568-7.851-1.143-11.561-1.711c-3.711-0.575-6.567-1.047-8.565-1.431c-1.997-0.373-3.284-0.568-3.855-0.568   c-14.657-2.094-24.46-5.14-29.407-9.134c-3.236-2.282-4.854-6.375-4.854-12.278c0-3.806,2.19-11.796,6.567-23.982   c14.277-39.776,24.172-65.856,29.692-78.224l128.483,0.568l26.269,65.096l13.411,32.541c1.144,3.241,1.711,6.283,1.711,9.138   s-1.14,5.428-3.426,7.707c-2.285,1.905-8.753,4.093-19.417,6.563l-37.404,7.994c-0.763,6.283-1.136,13.702-1.136,22.271   l16.56-0.575l57.103-3.138c10.656-0.38,23.51-0.575,38.547-0.575c18.264,0,36.251,0.763,53.957,2.282   c21.313,1.523,39.588,2.283,54.819,2.283c0.192-2.283,0.281-4.754,0.281-7.423C475.082,445.957,474.513,440.537,473.371,433.11z    M251.245,270.941c-2.666,0-7.662-0.052-14.989-0.144c-7.327-0.089-18.649-0.233-33.973-0.425   c-15.321-0.195-29.93-0.383-43.824-0.574l48.535-128.477c7.424,15.037,16.178,35.117,26.264,60.242   c11.425,27.79,20.179,50.727,26.273,68.809L251.245,270.941z" fill="#000000"/> 
  </symbol>
  <symbol id="tw" viewBox="0 0 18 18">
      <path id="&#x424;&#x438;&#x433;&#x443;&#x440;&#x430;_5" data-name="&#x424;&#x438;&#x433;&#x443;&#x440;&#x430; 5" class="cls-1" d="M16.2,0H1.8A1.793,1.793,0,0,0,0,1.8V16.2A1.793,1.793,0,0,0,1.8,18H16.2A1.793,1.793,0,0,0,18,16.2V1.8A1.793,1.793,0,0,0,16.2,0h0ZM14.1,6.6c-0.1,4.1-2.7,7-6.7,7.2a6.2,6.2,0,0,1-3.9-1.1,4.708,4.708,0,0,0,3.5-1A2.248,2.248,0,0,1,4.9,10a3.334,3.334,0,0,0,1,0A2.484,2.484,0,0,1,4,7.6a1.689,1.689,0,0,0,1,.3,2.7,2.7,0,0,1-.8-3.3A7.067,7.067,0,0,0,9.1,7.1C8.6,4.6,12,3.2,13.3,4.9a13.081,13.081,0,0,0,1.5-.5,2.209,2.209,0,0,1-1,1.3,6.468,6.468,0,0,0,1.3-.4,2.43,2.43,0,0,1-1,1.3h0Z"/> 
  </symbol>
  <symbol id="vk" viewBox="0 0 18 18">
      <path id="&#x424;&#x438;&#x433;&#x443;&#x440;&#x430;_4" data-name="&#x424;&#x438;&#x433;&#x443;&#x440;&#x430; 4" class="cls-1" d="M16.2,0H1.8A1.793,1.793,0,0,0,0,1.8V16.2A1.793,1.793,0,0,0,1.8,18H16.2A1.793,1.793,0,0,0,18,16.2V1.8A1.793,1.793,0,0,0,16.2,0ZM13.7,10.4A15.933,15.933,0,0,1,15,11.7a4.233,4.233,0,0,1,.5.7,0.442,0.442,0,0,1-.3.7H13.3a1.656,1.656,0,0,1-1.2-.5,6.034,6.034,0,0,0-.8-0.8L11,11.5a0.349,0.349,0,0,0-.6.2,1.486,1.486,0,0,0-.2.9,0.53,0.53,0,0,1-.6.6,4.9,4.9,0,0,1-2.7-.6,5.814,5.814,0,0,1-1.8-1.7A22.1,22.1,0,0,1,2.5,6.5C2.4,6.2,2.5,6,2.9,6H4.8a0.42,0.42,0,0,1,.4.4A17.1,17.1,0,0,0,6.5,8.7a1.205,1.205,0,0,0,.5.5,0.288,0.288,0,0,0,.5-0.1,0.9,0.9,0,0,0,.1-0.5,9.652,9.652,0,0,0,0-1.7,0.85,0.85,0,0,0-.7-0.7c-0.1,0-.1-0.1,0-0.2a0.6,0.6,0,0,1,.6-0.3H9.7c0.3,0.1.3,0.2,0.4,0.6V8.7a0.864,0.864,0,0,0,.3.6c0.2,0.1.3-.1,0.4-0.2A6.15,6.15,0,0,0,12,7.2c0.1-.3.3-0.6,0.4-0.9A0.462,0.462,0,0,1,12.9,6h2.3c0.3,0.1.4,0.2,0.3,0.5a6.376,6.376,0,0,1-.8,1.4,13.444,13.444,0,0,1-1.1,1.4A0.708,0.708,0,0,0,13.7,10.4Z"/> 
  </symbol>
</svg>