<svg xmlns="http://www.w3.org/2000/svg" viewBox="0 0 100 125"><path style="text-indent:0;text-transform:none;block-progression:tb" d="M50 5a1 1 0 0 0-1 1v8a1 1 0 1 0 2 0V6a1 1 0 0 0-1-1zM21.719 16.719c-.256 0-.524.086-.719.281-.39.39-.39 1.047 0 1.438l5.656 5.656c.39.39 1.047.39 1.438 0 .39-.39.39-1.047 0-1.438L22.437 17a1.012 1.012 0 0 0-.718-.281zm56.562 0c-.256 0-.523.086-.719.281l-5.656 5.656c-.39.39-.39 1.047 0 1.438.39.39 1.047.39 1.438 0L79 18.437c.39-.39.39-1.047 0-1.437a1.011 1.011 0 0 0-.719-.281zM50 21c-12.712 0-25 9.873-25 23.844 0 8.931 3.412 14.458 6.688 19.094C34.962 68.573 38 72.278 38 78v12c0 2.846 2.352 5 5 5h14c2.648 0 5-2.154 5-5V78c0-5.722 3.037-9.427 6.313-14.062C71.588 59.302 75 53.775 75 44.844 75 30.874 62.712 21 50 21zm0 2c11.678 0 23 9.05 23 21.844 0 8.432-3.088 13.375-6.313 17.937-3.054 4.323-6.32 8.337-6.656 14.219H39.97c-.336-5.882-3.602-9.896-6.656-14.219C30.087 58.22 27 53.276 27 44.844 27 32.05 38.322 23 50 23zM10 45a1 1 0 1 0 0 2h8a1 1 0 1 0 0-2h-8zm72 0a1 1 0 1 0 0 2h8a1 1 0 1 0 0-2h-8zM40 79h20v6H40v-6zm0 8h20v3c0 1.75-1.427 3-3 3H43c-1.573 0-3-1.25-3-3v-3z" overflow="visible" color="#000"/></svg>