<svg viewBox="0 0 47 35" xmlns="http://www.w3.org/2000/svg"><path d="M5.867 25.516c-.5-.4-1.2-.6-1.9-.6-1.9 0-3.5 1.6-3.5 3.5s1.6 3.5 3.5 3.5 3.5-1.6 3.5-3.5c0-.7-.2-1.3-.5-1.8l8.8-8.8c.5.3 1.2.5 1.8.5 1.6 0 3-1.1 3.4-2.7h7.8c.4 1.5 1.8 2.7 3.4 2.7 1.9 0 3.5-1.6 3.5-3.5 0-.7-.2-1.3-.5-1.9l10.3-10.3v4.8h1.5v-7.4h-7.4v1.5h4.8l-10.4 10.3c-.6-.4-1.2-.5-1.9-.5-1.7 0-3.1 1.2-3.4 2.8h-7.8c-.3-1.6-1.7-2.8-3.4-2.8-1.9 0-3.5 1.6-3.5 3.5 0 .7.2 1.3.6 1.9l-8.7 8.8zm26.3-12.7c.5 0 1 .2 1.4.6.4.4.6.9.6 1.4 0 1.1-.9 2-2 2s-2-.9-2-2 .9-2 2-2zm-28.2 17.6c-1.1 0-2-.9-2-2s.9-2 2-2 2 .9 2 2-.9 2-2 2zm13.6-17.6c1.1 0 2 .9 2 2s-.9 1.9-2 1.9c-.5 0-1-.2-1.4-.6-.4-.4-.6-.9-.6-1.4 0-1 .9-1.9 2-1.9z" fill="#1ca8dd"/></svg>