<svg viewBox="0 0 125 125" xmlns="http://www.w3.org/2000/svg"><g fill="#1ca9dd"><path d="M64.5 52.834c0 2.482 2.35 4.666 4.83 4.666h13c2.482 0 4.17-2.184 4.17-4.666v-17c0-2.481-1.688-4.334-4.17-4.334h-13c-2.48 0-4.83 1.853-4.83 4.334v.666h-30v-.666c0-2.481-1.688-4.334-4.17-4.334h-13c-2.48 0-4.83 1.853-4.83 4.334v17c0 2.482 2.35 4.666 4.83 4.666h13c2.482 0 4.17-2.184 4.17-4.666V52.5h30v.334zm4-.5v-16.5c0-.271.559-.334.83-.334h13c.271 0 .17.063.17.334v17c0 .272.102.666-.17.666h-13c-.271 0-.83-.394-.83-.666v-.5zM30.33 53.5h-13c-.271 0-.83-.394-.83-.666v-17c0-.271.559-.334.83-.334h13c.271 0 .17.063.17.334v17c0 .272.102.666-.17.666zm9.17-5h-5v-8h5v8zm18 0h-16v-8h16v8zm2 0v-8h5v8h-5zM108.33 67.5h-13c-2.48 0-4.83 1.853-4.83 4.334v.666h-30v-.666c0-2.481-1.688-4.334-4.17-4.334h-13c-2.48 0-4.83 1.853-4.83 4.334v17c0 2.482 2.35 4.666 4.83 4.666h13c2.482 0 4.17-2.184 4.17-4.666V88.5h30v.334c0 2.482 2.35 4.666 4.83 4.666h13c2.482 0 4.17-2.184 4.17-4.666v-17c0-2.481-1.688-4.334-4.17-4.334zm-52 22h-13c-.271 0-.83-.394-.83-.666v-17c0-.271.559-.334.83-.334h13c.271 0 .17.063.17.334v17c0 .272.102.666-.17.666zm9.17-5h-5v-8h5v8zm18 0h-16v-8h16v8zm7 0h-5v-8h5v8zm17.83 5h-13c-.271 0-.83-.394-.83-.666v-17c0-.271.559-.334.83-.334h13c.271 0 .17.063.17.334v17c0 .272.102.666-.17.666z"/><path d="M108.33 67.5h-13c-2.48 0-4.83 5-4.83 5h-30v-.666c0-2.481-1.688-4.334-4.17-4.334h-13c-2.48 0-4.83 1.853-4.83 4.334v17c0 2.482 2.35 4.666 4.83 4.666h13c2.482 0 4.17-2.184 4.17-4.666V88.5h30v.334c0 2.482 2.35 4.666 4.83 4.666h13c2.482 0 4.17-2.184 4.17-4.666v-17c0-2.481-1.688-4.334-4.17-4.334zm-52 22h-13c-.271 0-.83-.394-.83-.666v-17c0-.271.559-.334.83-.334h13c.271 0 .17.063.17.334v17c0 .272.102.666-.17.666zm52 0h-13c-.271 0-.83-.394-.83-.666v-17c0-.271.559-.334.83-.334h13c.271 0 .17.063.17.334v17c0 .272.102.666-.17.666zM64.5 52.834c0 2.482 2.35 4.666 4.83 4.666h13c2.482 0 4.17-2.184 4.17-4.666v-17c0-2.481-1.688-4.334-4.17-4.334h-13c-2.48 0-4.83 1.853-4.83 4.334v.666h-30v-.666c0-2.481-1.688-4.334-4.17-4.334h-13c-2.48 0-4.83 1.853-4.83 4.334v17c0 2.482 2.35 4.666 4.83 4.666h13c2.482 0 4.17-2.184 4.17-4.666V52.5h30v.334zm4-.5v-16.5c0-.271.559-.334.83-.334h13c.271 0 .17.063.17.334v17c0 .272.102.666-.17.666h-13c-.271 0-.83-.394-.83-.666v-.5zM30.33 53.5h-13c-.271 0-.83-.394-.83-.666v-17c0-.271.559-.334.83-.334h13c.271 0 .17.063.17.334v17c0 .272.102.666-.17.666z" fill-opacity=".1"/></g></svg>