<svg xmlns="http://www.w3.org/2000/svg" viewBox="0 0 100 125"><path d="M52 40.334C52 42.816 54.35 45 56.83 45h13c2.482 0 4.17-2.184 4.17-4.666v-17C74 20.853 72.312 19 69.83 19h-13C54.35 19 52 20.853 52 23.334V24H22v-.666C22 20.853 20.312 19 17.83 19h-13C2.35 19 0 20.853 0 23.334v17C0 42.816 2.35 45 4.83 45h13c2.482 0 4.17-2.184 4.17-4.666V40h30v.334zm4-.5v-16.5c0-.271.559-.334.83-.334h13c.271 0 .17.063.17.334v17c0 .272.102.666-.17.666h-13c-.271 0-.83-.394-.83-.666v-.5zM17.83 41h-13c-.271 0-.83-.394-.83-.666v-17c0-.271.559-.334.83-.334h13c.271 0 .17.063.17.334v17c0 .272.102.666-.17.666zM27 36h-5v-8h5v8zm18 0H29v-8h16v8zm2 0v-8h5v8h-5zM95.83 55h-13C80.35 55 78 56.853 78 59.334V60H48v-.666C48 56.853 46.312 55 43.83 55h-13C28.35 55 26 56.853 26 59.334v17C26 78.816 28.35 81 30.83 81h13c2.482 0 4.17-2.184 4.17-4.666V76h30v.334C78 78.816 80.35 81 82.83 81h13c2.482 0 4.17-2.184 4.17-4.666v-17C100 56.853 98.312 55 95.83 55zm-52 22h-13c-.271 0-.83-.394-.83-.666v-17c0-.271.559-.334.83-.334h13c.271 0 .17.063.17.334v17c0 .272.102.666-.17.666zM53 72h-5v-8h5v8zm18 0H55v-8h16v8zm7 0h-5v-8h5v8zm17.83 5h-13c-.271 0-.83-.394-.83-.666v-17c0-.271.559-.334.83-.334h13c.271 0 .17.063.17.334v17c0 .272.102.666-.17.666z"/><text y="115" font-size="5" font-weight="bold" font-family="'Helvetica Neue', Helvetica, Arial-Unicode, Arial, Sans-serif">Created by Stefania Servidio</text><text y="120" font-size="5" font-weight="bold" font-family="'Helvetica Neue', Helvetica, Arial-Unicode, Arial, Sans-serif">from the Noun Project</text></svg>