<svg xmlns="http://www.w3.org/2000/svg" viewBox="0 0 100 125"><path d="M86.93 18.174l-17.588-5.356C65.498 6.423 58.003 2.334 50.001 2.334c-8.22 0-15.552 3.996-19.353 10.485l-17.565 5.292c-4.551 1.372-7.708 5.854-7.707 10.524 0 .644.061 1.291.185 1.933l10.953 56.709C17.527 92.5 22.68 97 28.001 97h44.002c5.32 0 10.475-4.5 11.488-9.722l10.948-56.501c.125-.645.186-1.357.185-2.003-.001-4.668-3.152-9.218-7.694-10.6zm-19.235 9.929a17.973 17.973 0 0 1-2.229 5.577l-3.118-2.183a14.362 14.362 0 0 1-1.066 1.579l3.112 2.18a18.237 18.237 0 0 1-4.403 4.152l-1.906-3.3c-.522.36-1.073.677-1.643.965l1.927 3.3C56.136 41.54 54 42.241 51 42.381v-3.81c0 .021-.68.049-1.002.049-.321 0-.998-.027-.998-.048v3.809c-2-.109-4.071-.559-5.918-1.323l1.625-3.458a14.108 14.108 0 0 1-1.713-.82l-1.612 3.463a18.183 18.183 0 0 1-4.754-3.761l2.91-2.442a14.343 14.343 0 0 1-1.203-1.476l-2.913 2.445a18.023 18.023 0 0 1-2.72-5.371l3.681-.985a14.094 14.094 0 0 1-.44-1.854l-3.697.99a18.044 18.044 0 0 1-.34-3.454c0-.853.08-1.686.195-2.508l3.747.662c.082-.638.209-1.261.373-1.869l-3.757-.662a17.935 17.935 0 0 1 2.345-5.417l3.117 2.184c.341-.54.708-1.059 1.115-1.546l-3.12-2.184a18.232 18.232 0 0 1 4.365-3.901l1.9 3.291c.53-.347 1.088-.653 1.664-.929l-1.93-3.3c.756-.378 1.482-.7 2.236-.97C45.695 6.725 47 6.444 49 6.365v3.731c0-.021.677-.048.998-.048.322 0 1.002.027 1.002.049v-3.73c2 .084 3.267.376 4.804.85.289.098.58.19.863.302l-1.624 3.458a13.91 13.91 0 0 1 1.733.777l1.604-3.445a18.234 18.234 0 0 1 4.669 3.518l-2.912 2.443c.447.451.854.939 1.238 1.446l2.913-2.445a18.076 18.076 0 0 1 2.807 5.179l-3.688.988c.217.593.403 1.2.54 1.827l3.675-.984c.3 1.305.475 2.657.475 4.053 0 .637-.036 1.267-.1 1.887l-3.772-.665a14.21 14.21 0 0 1-.287 1.884l3.757.663zm22.818 1.786L79.564 86.516C78.908 89.895 75.445 93 72.003 93H52v-5a2 2 0 0 0-4 0v5H28.001c-3.442 0-6.904-3.105-7.561-6.484L9.487 29.932a6.886 6.886 0 0 1-.111-1.239c.001-2.934 2.027-5.867 4.861-6.721l17.271-5.219A19.83 19.83 0 0 0 30 24.342c0 11.028 8.972 19.996 20 19.996 11.027 0 20-8.974 20-20.002 0-2.688-.541-5.25-1.507-7.594L85.765 22c2.834.863 4.859 3.774 4.859 6.711 0 .394-.036.789-.111 1.178z"/><path d="M51 22.046V14a1 1 0 0 0-2 0v8.044c-1 .386-1.5 1.265-1.5 2.29a2.5 2.5 0 0 0 4.999 0c0-1.024-.499-1.901-1.499-2.288zM78.003 51h-56a1 1 0 1 0 0 2h56a1 1 0 0 0 0-2zM77.003 59h-54a1 1 0 1 0 0 2h54a1 1 0 0 0 0-2zM76.003 67h-52a1 1 0 1 0 0 2h52a1 1 0 0 0 0-2zM75.003 75h-50a1 1 0 1 0 0 2h50a1 1 0 0 0 0-2z"/></svg>