<svg viewBox="0 0 125 125" xmlns="http://www.w3.org/2000/svg"><path d="M86.477 39.5c-.126-3-.824-5.384-1.977-7.937V13.5l-12 6.407c-3.031-1.299-6.411-2.215-10.002-2.215-13.107 0-23.448 9.808-23.978 21.808H34.5v12h4.133l3.867 54.076a6.006 6.006 0 0 0 5.998 5.924h28a6.007 6.007 0 0 0 6.001-5.924L86.367 51.5H90.5v-12h-4.023zM76.5 19.771l4-1.271v7.028a23.275 23.275 0 0 0-4-3.437v-2.32zm-14.002 2.114c11.402 0 20 7.976 20 18.812l.002.803h-40l-.002-.807c0-10.832 8.598-18.808 20-18.808zM86.5 47.5h-48v-4h48v4z" fill="#1ca9dd" fill-opacity=".1"/><path d="M86.477 39.5c-.126-3-.824-5.384-1.977-7.937V13.5l-12 3.5v2.907c-3.031-1.299-6.411-2.215-10.002-2.215-13.107 0-23.448 9.808-23.978 21.808H34.5v12h4.133l3.867 54.076a6.006 6.006 0 0 0 5.998 5.924h28a6.007 6.007 0 0 0 6.001-5.924L86.367 51.5H90.5v-12h-4.023zM76.5 19.771l4-1.271v7.028a23.275 23.275 0 0 0-4-3.437v-2.32zm-14.002 2.114c11.402 0 20 7.976 20 18.812l.002.803h-40l-.002-.807c0-10.832 8.598-18.808 20-18.808zM81.323 64.5H68.5v2h12.685l-.414 6H72.5v2h8.133l-.414 6H68.5v2h11.582l-.414 6H72.5v2h7.03l-.414 6H68.5v2h10.478l-.473 7.055-.005.042c0 1.102-.898 1.903-2.002 1.903h-28a2 2 0 0 1-1.998-2l-3.857-54h39.715l-1.035 13zm5.177-17h-48v-4h48v4z" fill="#1ca9dd"/></svg>