<svg xmlns="http://www.w3.org/2000/svg" viewBox="0 0 100 100" fill="#1ca8dd"><path d="M25 15.3c-4.6 0-8.4 3.7-8.4 8.4v54.4c0 4.6 3.7 8.3 8.4 8.3h50.3c4.6 0 8.3-3.7 8.3-8.3V23.7c0-4.6-3.7-8.4-8.3-8.4H25zm56.7 8.4v54.4c0 3.5-2.8 6.3-6.3 6.3H25c-3.5 0-6.4-2.8-6.4-6.3V23.7c0-3.5 2.8-6.4 6.4-6.4h50.3c3.5 0 6.4 2.9 6.4 6.4z"/><path d="M50.2 25.3c-.4 0-9.6-.1-14.6 4.9-.3.3-.4.9-.1 1.3l5.7 7.8c.2.3.5.4.8.4h16.4c.3 0 .6-.2.8-.4l5.7-7.8c.3-.4.2-.9-.1-1.3-5-5-14.2-4.9-14.6-4.9zM49 37.7c.1-.5.5-.8 1-.8s.9.4 1 .8h-2zm8.9 0H53c-.1-1.2-.9-2.3-2-2.7v-5.4c0-.6-.4-1-1-1s-1 .4-1 1V35c-1.1.4-1.9 1.4-2 2.7h-4.5L37.6 31c4.5-3.8 12.5-3.8 12.6-3.8.1 0 8 0 12.5 3.8l-4.8 6.7z"/></svg>