<svg xmlns="http://www.w3.org/2000/svg" viewBox="0 0 100 125"><path d="M52 51.055V35.5a2 2 0 0 0-4 0v15.555c-1 .693-2 1.969-2 3.445a4 4 0 0 0 8 0c0-1.477-1-2.752-2-3.445z"/><path d="M50 24.5c-16.542 0-30 13.458-30 30s13.458 30 30 30 30-13.458 30-30-13.458-30-30-30zm0 58c-15.439 0-28-12.561-28-28s12.561-28 28-28 28 12.561 28 28-12.561 28-28 28z"/><path d="M82.795 37.4l1.465-.845a.856.856 0 0 0 .312-1.167l-3.646-6.315a.856.856 0 0 0-1.167-.312l-1.949 1.125c-.049.029-.082.073-.124.109C71.95 23.519 64 19.072 55 17.851V15h-3v-2h2V9h-8v4h2v2h-3v2.851c-9 1.238-17.161 5.789-22.915 12.405a.826.826 0 0 0-.325-.371l-1.949-1.125a.858.858 0 0 0-1.167.312l-3.646 6.315a.857.857 0 0 0 .312 1.167l1.795 1.036A36.79 36.79 0 0 0 13 54.5c0 20.402 16.598 37 37 37s37-16.598 37-37a36.76 36.76 0 0 0-4.205-17.1zM50 87.5c-18.196 0-33-14.804-33-33s14.804-33 33-33 33 14.804 33 33-14.804 33-33 33z"/><text y="115" font-size="5" font-weight="bold" font-family="'Helvetica Neue', Helvetica, Arial-Unicode, Arial, Sans-serif">Created by Stefania Servidio</text><text y="120" font-size="5" font-weight="bold" font-family="'Helvetica Neue', Helvetica, Arial-Unicode, Arial, Sans-serif">from the Noun Project</text></svg>