<svg xmlns="http://www.w3.org/2000/svg" viewBox="0 0 100 125"><path d="M73.977 27c-.126-3-.824-5.384-1.977-7.937V1L60 4.5v2.907c-3.031-1.299-6.411-2.215-10.002-2.215C36.891 5.192 26.55 15 26.02 27H22v12h4.133L30 93.076A6.006 6.006 0 0 0 35.998 99h28a6.007 6.007 0 0 0 6.001-5.924L73.867 39H78V27h-4.023zM64 7.271L68 6v7.028a23.275 23.275 0 0 0-4-3.437v-2.32zM49.998 9.385c11.402 0 20 7.976 20 18.812L70 29H30l-.002-.807c0-10.832 8.598-18.808 20-18.808zM68.823 52H56v2h12.685l-.414 6H60v2h8.133l-.414 6H56v2h11.582l-.414 6H60v2h7.03l-.414 6H56v2h10.478l-.473 7.055-.005.042C66 94.199 65.102 95 63.998 95h-28A2 2 0 0 1 34 93l-3.857-54h39.715l-1.035 13zM74 35H26v-4h48v4z"/></svg>