<svg xmlns="http://www.w3.org/2000/svg" viewBox="0 0 128 128"><path d="M61.1 94.7l-18.8 13.1c-4 2.8-9.2-1-7.8-5.7l6.6-21.9c.6-2-.1-4.3-1.8-5.6L21 60.7c-3.9-2.9-1.9-9.1 3-9.2l22.9-.5c2.1 0 4-1.4 4.7-3.4L59.2 26c1.6-4.6 8.1-4.6 9.7 0l7.5 21.6c.7 2 2.6 3.4 4.7 3.4l22.9.5c4.9.1 6.9 6.3 3 9.2L88.7 74.6c-1.7 1.3-2.4 3.5-1.8 5.6l6.6 21.9c1.4 4.6-3.8 8.5-7.8 5.7L66.9 94.7a4.8 4.8 0 0 0-5.8 0z" fill="#fff"/><path d="M74.1 95.7l-18.8 13.1c-4 2.8-9.2-1-7.8-5.7l6.6-21.9c.6-2-.1-4.3-1.8-5.6L34 61.7c-3.9-2.9-1.9-9.1 3-9.2l22.9-.5c2.1 0 4-1.4 4.7-3.4L72.2 27c1.6-4.6 8.1-4.6 9.7 0l7.5 21.6c.7 2 2.6 3.4 4.7 3.4l22.9.5c4.9.1 6.9 6.3 3 9.2l-18.2 13.8c-1.7 1.3-2.4 3.5-1.8 5.6l6.6 21.9c1.4 4.6-3.8 8.5-7.8 5.7l-18.9-13a4.8 4.8 0 0 0-5.8 0z" fill="#ffee76"/><path d="M39.4 111.7c-1.7 0-3.3-.5-4.8-1.6-2.8-2.1-4-5.6-3-8.9l6.6-21.9c.3-.8 0-1.8-.7-2.3L19.2 63.1c-2.8-2.1-3.9-5.6-2.8-9 1.1-3.3 4-5.5 7.6-5.6l22.9-.5c.9 0 1.7-.6 2-1.4L56.3 25c1.2-3.3 4.2-5.5 7.7-5.5s6.5 2.1 7.7 5.5l7.5 21.6c.3.8 1.1 1.4 2 1.4l22.9.5c3.5.1 6.5 2.3 7.6 5.6s0 6.9-2.8 9L90.5 77c-.7.5-1 1.5-.7 2.3l6.6 21.9c1 3.4-.2 6.9-3 8.9-2.8 2.1-6.5 2.1-9.4.1L65.2 97.1c-.7-.5-1.7-.5-2.4 0L44 110.2c-1.4 1-3 1.5-4.6 1.5zM64 25.6c-.4 0-1.5.1-2 1.4l-7.5 21.6c-1.1 3.2-4.1 5.4-7.5 5.5l-22.9.5c-1.4 0-1.9 1.1-2 1.5-.1.3-.4 1.5.7 2.3L41 72.2c2.7 2 3.8 5.6 2.9 8.8l-6.6 21.9c-.4 1.3.5 2.1.8 2.3.3.2 1.3.8 2.5 0l18.8-13.1a8.3 8.3 0 0 1 9.3 0l18.8 13.1c1.1.8 2.2.2 2.5 0 .3-.2 1.2-1 .8-2.3L84 81c-1-3.2.2-6.8 2.9-8.8l18.2-13.8c1.1-.8.8-2 .7-2.3s-.6-1.4-2-1.5L81 54.1c-3.4-.1-6.4-2.3-7.5-5.5L66 27c-.5-1.3-1.6-1.4-2-1.4z" fill="#3f4a54"/></svg>