<?xml version="1.0" encoding="UTF-8" standalone="no"?>
<svg width="350px" height="38px" viewBox="0 0 350 38" version="1.1" xmlns="http://www.w3.org/2000/svg" xmlns:xlink="http://www.w3.org/1999/xlink" xmlns:sketch="http://www.bohemiancoding.com/sketch/ns">
    <!-- Generator: Sketch 3.2 (9961) - http://www.bohemiancoding.com/sketch -->
    <title>Fill 31</title>
    <desc>Created with Sketch.</desc>
    <defs></defs>
    <g id="Page-1" stroke="none" stroke-width="1" fill="none" fill-rule="evenodd" sketch:type="MSPage">
        <path d="M0.598,23.084 L2.292,23.084 L2.292,18.004 L12.64,18.004 L12.64,13.676 L19.037,13.676 L19.037,18.568 L22.612,18.568 L22.612,13.676 L26.375,13.676 L26.375,2.951 L28.068,2.951 L28.068,0.505 L32.208,0.505 L32.208,2.951 L33.901,2.951 L33.901,12.359 L35.407,12.359 L35.407,20.356 L38.794,20.356 L38.794,6.962 L52.1520009,6.89655436 L52.152,22.708 L54.975,22.708 L54.975,18.944 L60.996,18.944 L60.996,20.826 L63.254,20.826 L63.254,7.655 L64.947,7.655 L64.947,2.951 L70.216,2.951 L70.216,7.467 L71.392,8.643 L71.392,16.31 L73.414,16.31 L73.414,13.864 L78.683,13.864 L78.683,16.498 L81.882,16.498 L81.882,18.944 L85.269,18.944 L85.269,15.557 L87.715,15.557 L87.715,8.314 L101.45,8.314 L101.45,15.557 L103.896,15.557 L103.896,8.314 L115.562,8.314 L115.562,11.23 L118.76,11.23 L118.76,21.955 L123.276,21.955 L123.276,12.735 L138.517,12.735 L138.517,17.627 L140.774,17.627 L140.774,23.836 L142.279,23.836 L142.279,24.599 L148.865,24.599 L148.865,13.31 L155.263,13.31 L155.263,17.073 L157.521,17.073 L157.521,13.31 L165.047,13.31 L165.047,20.084 L166.552,20.084 L166.552,24.599 L170.127,24.599 L170.127,16.885 L178.218,16.885 L178.218,15.004 L179.911,15.004 L179.911,12.746 L181.604,12.746 L181.604,14.627 L183.486,14.627 L183.486,12.369 L187.813,12.369 L187.813,14.439 L189.695,14.439 L189.695,20.46 L193.271,20.46 L193.271,12.181 L200.42,12.181 L200.42,14.627 L203.431,14.627 L203.431,12.278 L209.264,12.09 L209.264,20.46 L212.462,20.46 L212.462,9.414 L222.059,9.414 L222.059,18.202 L223.939,18.202 L223.939,13.31 L228.079,13.31 L228.079,16.32 L236.734,16.32 L236.734,20.084 L243.508,20.084 L243.508,14.251 L247.083,14.251 L247.083,17.638 L249.717,17.638 L249.717,15.568 L253.48,15.568 L253.48,13.122 L257.996,13.122 L257.996,19.519 L261.383,19.519 L261.383,7.101 L266.84,7.289 L266.84,12.934 L270.603,12.934 L270.603,18.014 L275.307,18.014 L275.307,12.369 L278.505,12.369 L278.505,9.923 L282.833,9.923 L282.833,11.617 L285.844,11.617 L285.844,8.983 L296.944,8.983 L296.944,17.826 L297.885,15.944 L302.213,15.944 L302.213,26.669 L305.411,26.669 L305.411,23.094 L306.729,23.094 L306.729,11.805 L311.057,11.805 L311.057,27.798 L313.314,27.798 L313.314,30.997 L317.83,30.997 L317.83,28.362 L327.238,28.362 L327.238,10.488 L334.576,10.488 L334.576,28.739 L349.628,28.739 L349.628,37.959 L0.598,37.206 L0.598,23.084 Z" id="Fill-31" fill="#FFFFFF" sketch:type="MSShapeGroup"></path>
    </g>
</svg>