<?xml version="1.0" encoding="UTF-8" standalone="no"?>
<svg width="33px" height="42px" viewBox="0 0 33 42" version="1.1" xmlns="http://www.w3.org/2000/svg" xmlns:xlink="http://www.w3.org/1999/xlink" xmlns:sketch="http://www.bohemiancoding.com/sketch/ns">
    <!-- Generator: Sketch 3.1.1 (8761) - http://www.bohemiancoding.com/sketch -->
    <title>logotype</title>
    <desc>Created with Sketch.</desc>
    <defs></defs>
    <g id="Page-1" stroke="none" stroke-width="1" fill="none" fill-rule="evenodd" sketch:type="MSPage">
        <g id="logotype" sketch:type="MSLayerGroup" transform="translate(1.000000, 0.000000)" stroke="#151616" stroke-width="0.1417">
            <path d="M-0.0957,7.1377 C-0.1388,7.2193 -0.9563,8.8625 0.552,10.019 C0.95,10.3662 1.3428,10.5175 1.7495,10.4796 C2.6661,10.3956 3.4954,9.3494 4.1624,8.5074 C4.1588,8.5032 4.1556,8.4991 4.1519,8.4947 L4.2095,8.4481 C4.216,8.4398 4.2227,8.4318 4.2292,8.4235 C4.6294,7.9236 5.0875,7.4354 5.7095,7.1938 L5.7397,7.187 C6.6507,7.1107 7.1617,7.4628 7.4102,7.7207 C7.3958,7.2817 7.2657,6.4748 6.5271,6.2289 C5.3185,5.8261 4.6124,6.2017 4.0774,6.8211 C3.8164,7.1231 3.5963,7.4832 3.3785,7.8394 C2.9172,8.5933 2.4806,9.3022 1.7013,9.2122 C1.356,9.1714 1.0878,8.9878 0.9649,8.7078 C0.8201,8.3791 0.8959,7.9581 1.1669,7.5823 L1.197,7.5543 C1.8968,7.1206 2.5889,7.1165 3.3117,7.5421 C3.5094,7.2234 3.726,6.8934 3.988,6.6106 C2.6261,5.9223 0.8853,5.7168 -0.0945,7.1362 L-0.0957,7.1377 L-0.0957,7.1377 Z" id="path4" fill="#F6E744" sketch:type="MSShapeGroup"></path>
            <path d="M3.3869,17.8169 C3.1254,19.3182 2.7617,23.7216 7.1269,24.9268 C7.1269,24.3285 7.1299,23.7473 7.1377,23.2479 C5.6339,22.4761 4.1128,21.3543 4.7866,17.9951 C4.7868,17.9935 4.7873,17.9915 4.7876,17.9898 C4.5659,17.6205 4.4322,17.2642 4.3581,17.0262 C4.2211,17.2246 3.9449,17.5052 3.3869,17.8169 L3.3869,17.8169 Z" id="path6" fill="#F6E744" sketch:type="MSShapeGroup"></path>
            <path d="M3.5783,15.313 C3.5197,15.3006 3.4643,15.3358 3.4513,15.3926 C3.2422,16.3004 2.9419,17.3158 2.0375,18.0508 C2.4294,17.3804 2.6826,16.6297 2.762,15.8931 C2.7777,15.7488 2.7904,15.6027 2.8033,15.457 C2.8726,14.6687 2.9382,13.9242 3.4003,13.5887 C3.8892,13.2342 4.7988,13.6664 4.8082,13.6708 L4.8131,13.6609 L6.5091,14.2775 L6.4993,14.2841 C6.5032,14.2902 6.9105,14.9009 6.9514,15.2486 C6.975,15.4453 6.9097,15.5681 6.7669,15.8374 C6.6101,16.1336 6.3724,16.581 6.0897,17.4415 C5.9599,17.8363 5.9873,18.2565 6.0193,18.7431 C6.0257,18.8347 6.0315,18.9291 6.0373,19.0267 C5.9987,18.992 5.9597,18.957 5.9196,18.9211 C5.6124,18.6468 5.2645,18.335 5.0491,18.007 C5.0364,17.9876 5.0238,17.9684 5.012,17.949 C4.9829,17.9029 4.9552,17.8566 4.9292,17.811 C4.9003,17.7603 4.8731,17.7101 4.8476,17.6605 C4.6096,17.1994 4.5111,16.7937 4.4926,16.7109 L4.4943,16.6507 L4.2428,16.5475 L4.2785,16.7245 C4.2651,16.7767 4.1537,17.1091 3.4411,17.5414 C3.4018,17.5653 3.3605,17.5894 3.3173,17.6142 C3.2784,17.636 3.2381,17.6581 3.1961,17.6807 C2.9649,17.8041 2.685,17.9337 2.3456,18.0656 C3.1666,17.3075 3.4545,16.3244 3.658,15.4404 C3.6713,15.3831 3.6355,15.3261 3.5783,15.313 L3.5783,15.313 Z" id="path8" fill="#F6E744" sketch:type="MSShapeGroup"></path>
            <path d="M5.3811,7.6005 L5.1524,7.7656 C4.8839,7.9797 4.6495,8.241 4.4327,8.5088 C4.5659,8.6855 4.6929,8.8774 4.8111,9.081 C5.8411,10.8712 5.1195,12.9797 4.9248,13.4755 L6.4835,14.0425 C6.5715,13.3206 6.9145,9.7167 5.332,7.6394 L5.3961,7.5908 C5.3909,7.5939 5.3858,7.5973 5.3811,7.6005 L5.3811,7.6005 Z" id="path10" fill="#F6E744" sketch:type="MSShapeGroup"></path>
            <path d="M5.5046,39.8507 C5.2987,40.4355 5.6815,41.0506 6.1592,41.6027 C6.1057,41.1739 6.0462,40.4654 6.0785,39.9055 C6.0805,39.8773 6.0607,39.8147 6.0124,39.7634 C5.9643,39.7127 5.9036,39.6867 5.8258,39.6867 L5.8253,39.6867 C5.7323,39.689 5.5879,39.7822 5.5046,39.8507 L5.5046,39.8507 Z" id="path12" fill="#FFD700" sketch:type="MSShapeGroup"></path>
            <path d="M8.0727,40.8784 C8.0934,40.9044 8.1106,40.9299 8.1235,40.9548 C8.2339,41.1681 8.2538,41.5696 8.2504,41.8717 L8.9871,40.7724 C8.9606,40.7194 8.9359,40.6626 8.9101,40.6038 C8.8169,40.3913 8.7207,40.1719 8.5502,40.1381 C8.3704,40.1897 8.2677,40.5259 8.1919,40.7733 C8.1776,40.8192 8.1644,40.8634 8.1512,40.9042 L8.0727,40.8784 L8.0727,40.8784 Z" id="path14" fill="#FFD700" sketch:type="MSShapeGroup"></path>
            <path d="M10.396,38.1336 C9.8156,38.6908 9.9032,39.3702 10.1029,39.9832 C10.1275,39.9459 10.1549,39.9087 10.1872,39.8718 C10.2433,39.8265 10.312,39.8121 10.3802,39.8308 C10.5683,39.882 10.7631,40.2173 10.9019,40.5153 L10.9842,39.4052 C10.9319,38.8358 10.7435,38.4199 10.396,38.1336 L10.396,38.1336 Z" id="path16" fill="#FFD700" sketch:type="MSShapeGroup"></path>
            <path d="M16.5582,17.1089 C17.0066,16.5787 17.0744,15.7357 17.0408,15.068 C17.0316,14.8827 17.0147,14.711 16.9958,14.5632 C17.2578,14.796 17.4612,15.095 17.6743,15.4077 C17.8128,15.6106 17.956,15.8206 18.1218,16.0209 C18.3302,16.2725 18.5742,16.509 18.8903,16.6983 C19.3237,16.9581 19.8918,17.1293 20.6879,17.1293 L20.6882,17.1293 C20.8479,17.1293 21.0169,17.1225 21.1907,17.1087 L21.5511,17.0803 L21.2325,16.9093 C20.0098,16.2533 19.2743,15.495 19.0461,14.6557 C18.8594,13.9674 19.0095,13.2018 19.4928,12.3792 C20.287,12.7085 21.031,13.0889 21.2198,13.6253 C21.3045,13.8656 21.2715,14.121 21.1189,14.4061 C20.6915,14.715 20.1805,14.5163 19.5825,13.8307 L19.4298,13.6556 L19.3975,13.8857 C19.3538,14.1977 19.5672,14.8469 19.9438,15.2801 C20.18,15.5518 20.4408,15.6861 20.6984,15.664 C21.5958,15.6445 21.9463,14.8652 22.2853,14.1113 C22.3691,13.9244 22.455,13.7338 22.5497,13.5509 C22.5492,13.5849 22.5487,13.6192 22.5482,13.6529 C22.5373,14.5471 22.5278,15.3192 21.7769,16.2715 L21.5232,16.5935 L21.9012,16.4351 C22.1882,16.3152 22.4176,16.1823 22.6043,16.0365 C23.6037,16.1508 25.7615,16.5514 26.3966,16.8826 C26.4527,16.9117 26.4653,16.9913 26.483,17.1293 C26.4966,17.2366 26.5124,17.3583 26.5651,17.4804 L26.6,17.5612 L26.686,17.542 C26.7948,17.5173 26.9121,17.4791 27.0303,17.4403 C27.2726,17.3609 27.5484,17.2713 27.6796,17.3477 C27.9729,17.542 28.155,17.7615 28.3016,17.938 C28.4325,18.0958 28.5412,18.2347 28.6866,18.2917 L29.8982,19.2236 L29.8805,19.2393 L29.999,19.3149 C30.2034,19.4452 30.5676,19.7029 30.8986,19.9957 L30.8901,19.9983 C31.0025,20.3523 31.0005,20.643 30.8854,20.862 C30.7798,21.0635 30.5735,21.2146 30.2724,21.3114 C30.1566,21.2633 30.0216,21.2415 29.8954,21.2534 C29.7805,21.2636 29.6805,21.3004 29.6038,21.3592 C29.6764,20.0469 28.9815,19.8075 28.4628,19.6287 C28.3973,19.6062 28.3332,19.5843 28.2722,19.561 C28.2182,19.5397 28.1562,19.5671 28.1351,19.6217 C28.1139,19.6764 28.1412,19.7378 28.1958,19.7587 C28.2592,19.7835 28.3257,19.8063 28.3934,19.8296 C28.9657,20.0265 29.5571,20.2302 29.3602,21.6714 C29.258,21.8264 29.1534,21.9995 29.0686,22.1395 C29.0303,22.2027 28.9885,22.2717 28.9606,22.3155 L28.404,22.3182 C28.3652,22.3287 28.3276,22.3406 28.2916,22.3539 C28.4067,22.1272 28.6806,21.5163 28.4776,21.1873 C28.3278,20.9452 28.1639,20.8225 27.9896,20.8225 L27.9853,20.8226 C27.8777,20.824 27.7202,20.8753 27.581,21.1125 C27.4562,21.3244 27.3776,21.5872 27.3288,21.8086 C27.2377,21.67 27.0867,21.5488 26.9407,21.4316 C26.7943,21.3143 26.6426,21.1929 26.5749,21.0698 C26.5037,20.9411 26.5057,20.7386 26.5074,20.5429 C26.5093,20.3023 26.5115,20.0532 26.3894,19.8704 C26.1463,19.5057 25.2501,19.1481 25.1484,19.1084 L25.1479,19.1104 C25.0336,19.0779 24.538,19.0794 21.6356,19.1184 C21.4353,19.1211 21.2234,19.1239 20.9992,19.1271 C19.6607,19.1453 18.284,19.1645 17.2737,19.1711 C17.0647,19.1723 16.8714,19.1733 16.6974,19.1735 L16.6968,19.1735 C16.5521,19.1735 16.3731,18.9419 16.2183,18.5542 C16.1966,18.4863 16.1597,18.0848 16.1132,17.4538 C16.2836,17.3731 16.4322,17.2581 16.5582,17.1089 L16.5582,17.1089 Z M29.0992,19.3541 C29.5992,19.4915 29.8293,19.9007 30.0787,20.421 C30.0966,20.4589 30.135,20.4809 30.1743,20.4809 C30.1896,20.4809 30.2055,20.4778 30.2203,20.4708 C30.273,20.4455 30.2955,20.3821 30.27,20.3292 C30.0557,19.8809 29.7886,19.3233 29.1556,19.1492 C29.098,19.1339 29.0405,19.1669 29.0249,19.2235 C29.0094,19.28 29.0427,19.3383 29.0992,19.3541 L29.0992,19.3541 Z M23.3483,18.0396 C23.9187,18.0015 24.5081,17.9609 25.072,18.0789 C25.1577,18.0908 25.3696,18.2574 25.5216,18.4055 C25.542,18.4256 25.569,18.4353 25.5956,18.4353 C25.6233,18.4353 25.6508,18.4247 25.6719,18.4033 C25.7126,18.3615 25.7117,18.2943 25.6697,18.2532 C25.5842,18.1697 25.2899,17.8944 25.1078,17.8698 C24.5229,17.747 23.9183,17.7882 23.334,17.8276 C22.7291,17.8689 22.1588,17.9072 21.5935,17.781 C21.4301,17.7297 21.1186,17.4753 21.013,17.382 C20.9691,17.3427 20.9021,17.3469 20.8632,17.391 C20.8241,17.435 20.8282,17.502 20.8722,17.5408 C20.9144,17.5785 21.2929,17.9091 21.5389,17.9859 C22.1424,18.1212 22.7552,18.0795 23.3483,18.0396 L23.3483,18.0396 Z" id="path18" fill="#F6E744" sketch:type="MSShapeGroup"></path>
            <path d="M23.5409,6.1321 C22.4225,6.0051 19.4152,6.1962 18.9881,6.2508 C18.9915,6.3379 19.0324,6.4331 19.0933,6.5215 C19.1486,6.5142 19.2969,6.5057 19.47,6.4883 C20.3211,6.4016 22.3135,6.1996 23.3784,6.345 C23.6001,6.3752 23.7372,6.4545 23.8697,6.531 C23.9695,6.5888 24.0652,6.6442 24.1997,6.6774 C24.1185,6.2022 23.5472,6.1328 23.5409,6.1321 L23.5409,6.1321 Z" id="path20" fill="#FFD700" sketch:type="MSShapeGroup"></path>
            <path d="M21.2994,37.3882 C21.1381,37.7495 21.6373,38.5389 21.8925,38.8671 C21.9486,38.3968 22.0117,37.5949 21.894,37.3067 C21.8607,37.2248 21.7911,37.1833 21.6867,37.1833 C21.5174,37.1833 21.3426,37.2914 21.2994,37.3882 L21.2994,37.3882 Z" id="path22" fill="#FFD700" sketch:type="MSShapeGroup"></path>
            <path d="M9.0315,15.2566 C9.4673,15.2566 9.7424,14.9556 9.78,14.672 C9.9213,13.6036 9.8499,12.3312 9.7745,10.9836 C9.6616,8.9696 9.5445,6.8871 10.0903,5.1167 C11.0668,1.9496 12.8121,1.4766 13.7653,1.4766 C14.1218,1.4766 14.3536,1.5443 14.356,1.5451 L14.4549,1.5748 L14.4871,1.4767 C14.5733,1.2144 14.8506,0.4998 15.0943,0.3409 C15.2659,0.2292 15.4464,0.1726 15.6317,0.1726 C15.9607,0.1726 16.2161,0.3479 16.345,0.512 C16.8354,1.1346 16.9024,1.5107 16.8935,1.5774 L16.9758,1.5961 L16.8935,1.6585 L16.9241,1.7122 L17.0501,1.7182 L17.052,1.7151 C17.068,1.7153 17.0864,1.7153 17.1072,1.7153 L17.635,1.7136 C18.7227,1.7136 19.0527,1.7624 19.1379,1.8032 C19.2826,1.873 19.4428,2.2682 19.5101,2.5263 L19.5322,2.6118 L19.6203,2.6057 C19.6235,2.6054 19.9644,2.5824 20.3885,2.5824 C21.5105,2.5824 21.973,2.7415 22.0323,2.8907 C22.1335,3.1467 22.1168,3.2287 22.1046,3.252 C22.094,3.2727 22.0588,3.2831 22.0021,3.2974 C21.9216,3.318 21.8108,3.3459 21.7633,3.4649 L21.747,3.5057 L21.7644,3.546 C21.9701,4.0268 22.0973,5.0813 21.9806,5.3372 C21.9674,5.3658 21.9082,5.4142 21.6605,5.4142 C21.5105,5.4142 21.3211,5.3969 21.1213,5.3792 C20.8727,5.3566 20.5916,5.3316 20.3113,5.3316 C19.9533,5.3316 19.6602,5.3734 19.415,5.4596 C19.1493,5.5528 18.8689,5.7942 18.7948,6.088 C18.7822,6.136 18.7756,6.1858 18.7756,6.2363 C18.7749,6.4034 18.8597,6.5787 18.9813,6.7244 C19.1105,6.8785 19.2809,6.9997 19.4348,7.0429 C19.8323,7.1539 20.4327,7.1706 20.7549,7.1706 C21.1701,7.1706 21.5887,7.1437 21.8883,7.0988 C21.8485,7.9593 21.7747,8.5405 21.657,8.9212 C21.621,9.0385 21.2053,9.1174 20.8402,9.1174 L20.8317,9.1174 C20.8157,9.1111 20.7977,9.1087 20.779,9.1109 C20.761,9.1133 20.7434,9.1155 20.7254,9.1174 L20.5664,9.1174 L20.5804,9.1305 C19.4793,9.2046 18.3188,8.7051 17.5751,7.8248 C16.9766,7.1162 16.7758,6.308 17.01,5.5487 C17.0273,5.4924 16.9958,5.4332 16.9399,5.4156 C16.8826,5.4004 16.8243,5.43 16.8069,5.4858 C16.5549,6.3048 16.7756,7.2073 17.4129,7.9617 C18.1481,8.8321 19.2698,9.3497 20.3661,9.3497 C20.5081,9.3497 20.6494,9.3409 20.7895,9.3233 C21.5461,10.0143 22.3609,10.8109 23.1085,11.7641 C23.4649,12.2191 23.8061,12.7096 24.118,13.241 C24.23,13.4312 24.3378,13.6266 24.4415,13.8276 C24.4973,13.9847 24.5164,14.1634 24.5371,14.3523 C24.5665,14.6206 24.5968,14.8981 24.7494,15.1744 C24.8791,15.4097 25.2043,15.6002 25.4571,15.72 C25.2531,15.7549 24.9966,15.7909 24.7984,15.7909 C24.6408,15.7909 24.5848,15.7681 24.5678,15.7581 C24.2446,15.5692 24.1125,15.1875 23.9129,14.6099 C23.8391,14.3975 23.7571,14.1608 23.6536,13.8987 L23.5412,13.614 L23.3686,14.1968 C23.169,14.8824 23.0243,15.3801 22.5927,15.7725 C22.5657,15.7969 22.5377,15.821 22.5084,15.8446 C22.4795,15.8681 22.4494,15.891 22.418,15.9138 C22.394,15.8531 22.392,15.7715 22.4093,15.6656 C22.5474,15.3765 22.63,15.0977 22.68,14.8234 C22.7511,14.4315 22.7559,14.0484 22.7608,13.6558 C22.7628,13.4881 22.765,13.3178 22.7723,13.1437 L22.7885,12.7613 L22.5778,13.0809 C22.3841,13.3744 22.2354,13.7046 22.0918,14.0244 C21.7516,14.7815 21.4573,15.4356 20.6874,15.4526 C20.669,15.4536 20.6569,15.4543 20.6449,15.4543 C20.6449,15.4543 20.6449,15.4543 20.6447,15.4543 C20.4227,15.4543 20.2283,15.2838 20.104,15.1408 C19.8687,14.8701 19.6941,14.4833 19.6303,14.1922 C20.2363,14.7919 20.8011,14.9134 21.2655,14.5625 L21.2941,14.529 C21.4843,14.1845 21.527,13.8569 21.4204,13.5551 C21.1968,12.9207 20.3601,12.504 19.4892,12.1484 L19.4054,12.1141 L19.3583,12.1913 C18.8065,13.0953 18.6326,13.9431 18.8414,14.7118 C19.0643,15.5317 19.7264,16.2723 20.8122,16.9162 C20.7702,16.9171 20.7289,16.9176 20.6884,16.9176 L20.6881,16.9176 C18.9606,16.9174 18.3961,16.0892 17.85,15.2885 C17.5729,14.8818 17.311,14.4979 16.9116,14.2292 L16.7066,14.0918 L16.7476,14.3352 C16.7672,14.4506 16.7947,14.6393 16.8137,14.8677 C16.8655,15.4997 16.8487,16.4372 16.3962,16.9723 C16.3089,17.0754 16.2094,17.1595 16.0967,17.2243 C16.0638,17.2432 16.0298,17.2605 15.9944,17.276 C15.9613,17.2908 15.9272,17.3039 15.892,17.3159 C15.6988,17.3804 15.4749,17.4005 15.2198,17.3753 C14.6205,17.2248 14.4656,16.4501 14.4254,16.0552 C14.7988,16.3389 15.1149,16.4826 15.3672,16.4826 C15.5741,16.4826 15.7299,16.3855 15.8154,16.2128 C15.8581,16.1273 15.8834,16.0237 15.8893,15.904 C15.8914,15.8617 15.8909,15.818 15.8885,15.7731 C15.878,15.5946 15.8307,15.3977 15.7501,15.1991 C15.477,14.526 14.8204,13.8298 13.9094,13.7401 L13.7865,13.7285 L13.7932,13.8516 C13.7939,13.87 13.8881,15.6751 13.6887,16.7917 C13.5129,17.1457 13.3007,17.3329 13.0742,17.3329 C12.8654,17.3329 12.6429,17.1642 12.4934,16.8929 C12.3611,16.6524 12.2689,16.2862 12.3788,15.9535 C12.3906,15.9815 12.4021,16.0091 12.4137,16.0363 C12.5567,16.375 12.6917,16.695 12.9955,16.695 C13.1201,16.695 13.257,16.6373 13.4141,16.518 L13.4441,16.4824 C13.6521,16.0813 13.4473,15.6787 13.1635,15.1215 C12.9164,14.6352 12.5774,13.9692 12.3616,13.0196 L12.2999,12.7481 L12.1651,12.9919 C12.1076,13.0958 12.0704,13.2308 12.0453,13.3894 C12.0061,13.6329 11.9957,13.9315 11.9843,14.2569 C11.9748,14.523 11.965,14.8 11.9393,15.0658 C11.9179,15.2855 11.8856,15.4978 11.8332,15.6898 C11.7456,16.013 11.6014,16.2791 11.3588,16.4281 C11.2937,16.4679 11.1139,16.535 10.6394,16.535 C10.518,16.535 10.4,16.5306 10.2998,16.5248 C10.586,16.3138 11.0403,15.9508 11.1744,15.6873 C11.5536,14.941 11.5402,14.2614 11.1265,13.264 L11.0291,13.0287 L10.9305,13.2632 C10.814,13.5415 10.7729,13.8445 10.7331,14.1376 C10.6625,14.6581 10.6013,15.1078 10.1646,15.3511 C9.9608,15.4649 9.7238,15.5861 9.4917,15.5861 C9.2761,15.5861 9.0889,15.4759 8.9235,15.2511 C8.9598,15.255 8.996,15.2566 9.0315,15.2566 L9.0315,15.2566 Z M18.0893,7.0141 C18.1177,7.1882 18.402,7.3042 18.5232,7.3463 C18.5348,7.3501 18.5463,7.3521 18.5579,7.3521 C18.6016,7.3521 18.6429,7.3246 18.6582,7.2804 C18.6772,7.2251 18.648,7.1649 18.5926,7.1454 C18.4571,7.0986 18.3142,7.0168 18.2981,6.9767 C18.2282,6.5477 18.1973,5.9161 18.2966,5.5503 C18.3161,5.4784 18.4792,5.3262 18.6195,5.2259 C18.6672,5.1919 18.6783,5.1256 18.6443,5.0778 C18.6104,5.0304 18.5436,5.0193 18.4962,5.053 C18.4372,5.0952 18.1405,5.3145 18.0917,5.4947 C17.9682,5.9501 18.0322,6.664 18.0893,7.0141 L18.0893,7.0141 Z M17.8363,2.9526 C18.0706,3.0907 18.2323,3.2012 18.3619,3.2901 C18.5926,3.4476 18.7196,3.5346 18.9206,3.5346 C18.9505,3.5346 18.982,3.5324 19.0158,3.5285 C19.1197,3.5162 19.2084,3.4362 19.2596,3.3095 C19.3276,3.141 19.3276,2.8854 19.1957,2.7236 L19.1741,2.6972 L19.1416,2.6879 C18.9621,2.6393 18.8036,2.6542 18.4392,2.6959 C18.293,2.7129 18.1121,2.7335 17.8804,2.7552 L17.5536,2.7858 L17.8363,2.9526 L17.8363,2.9526 Z M16.2124,1.2411 C16.2064,1.1831 16.1593,1.1366 16.0956,1.1468 C15.0687,1.2566 15.0392,1.9267 15.0053,2.7032 C15.0026,2.7617 15.048,2.8112 15.1065,2.8139 L15.1111,2.8139 C15.1678,2.8139 15.2149,2.7695 15.2172,2.7127 C15.2549,1.8587 15.3087,1.4443 16.1183,1.3579 C16.1765,1.3516 16.2185,1.2996 16.2124,1.2411 L16.2124,1.2411 Z M15.6198,13.0508 C15.6557,13.0804 15.693,13.1094 15.7315,13.1375 C15.7674,13.1639 15.8044,13.1897 15.8424,13.2147 C16.1994,13.45 16.6556,13.6316 17.2367,13.7312 C17.4957,13.8676 17.7824,13.9939 18.097,14.1094 C18.1558,14.1495 18.1942,14.174 18.2019,14.1789 C18.2195,14.1901 18.2391,14.1954 18.2588,14.1954 C18.2937,14.1954 18.328,14.1784 18.3481,14.1463 C18.38,14.0968 18.3652,14.0315 18.3156,14 C18.3149,13.9994 18.3098,13.9963 18.3011,13.9905 C18.2896,13.9657 18.2686,13.9454 18.2406,13.9352 C18.225,13.9296 18.2096,13.9239 18.1942,13.9186 C17.9145,13.7249 17.2384,13.223 17.1147,12.8132 C17.0247,12.5138 17.4741,11.9138 17.8026,11.4754 L17.8427,11.4222 C18.134,11.0322 18.1175,10.7664 18.1041,10.5527 C18.0983,10.4595 18.0931,10.3789 18.117,10.3029 C18.134,10.2466 18.1027,10.1873 18.0466,10.1699 C17.9888,10.1546 17.9312,10.1842 17.9138,10.24 C17.8791,10.3534 17.8857,10.4617 17.8922,10.5658 C17.9045,10.7635 17.9171,10.9679 17.6726,11.2947 L17.6326,11.3484 C17.2379,11.8753 16.7904,12.4723 16.9114,12.8746 C16.9853,13.1198 17.2116,13.3807 17.4546,13.6042 C17.4255,13.5899 17.3968,13.5753 17.3684,13.5605 C17.3528,13.5438 17.3319,13.5316 17.3077,13.5277 C17.307,13.5275 17.306,13.5275 17.3052,13.5272 C16.5761,13.1378 16.0887,12.6643 15.852,12.1144 C15.8164,12.0316 15.7872,11.949 15.7637,11.8668 C15.7212,11.7186 15.6974,11.5717 15.6877,11.4285 C15.6755,11.251 15.6855,11.0789 15.7095,10.9157 C15.7734,10.4722 15.9395,10.0953 16.0439,9.8583 L16.0816,9.7717 C16.1046,9.7175 16.0796,9.6551 16.0257,9.6323 C15.9718,9.609 15.9096,9.634 15.8865,9.6879 L15.8495,9.7726 C15.8002,9.8845 15.7337,10.0356 15.6702,10.2162 C15.6387,10.3058 15.6079,10.4026 15.5804,10.5056 C15.5457,10.6348 15.5161,10.7737 15.4969,10.9193 C15.4563,11.2228 15.46,11.5565 15.5527,11.8978 C15.5796,11.9976 15.6141,12.0979 15.6574,12.1984 C15.6647,12.2152 15.6719,12.2319 15.6797,12.2485 C15.715,12.3254 15.7548,12.4007 15.799,12.4747 C15.9942,12.8012 16.2766,13.0987 16.6439,13.3656 C16.3182,13.2553 16.0489,13.1116 15.8264,12.9438 C15.7879,12.9147 15.7506,12.8848 15.715,12.8542 C15.6757,12.821 15.6383,12.7867 15.6023,12.7517 C14.5911,11.7689 14.8256,10.1973 14.932,9.4856 C14.9812,9.1554 14.9999,9.0316 14.8695,9.0032 C14.8116,8.9891 14.756,9.0272 14.7431,9.0841 C14.7365,9.1132 14.7428,9.1421 14.7578,9.1651 C14.7578,9.2149 14.7394,9.3363 14.7219,9.4545 C14.6154,10.169 14.3415,12.0027 15.6198,13.0508 L15.6198,13.0508 Z M13.3314,11.5263 C13.3503,11.5622 13.3873,11.5824 13.4252,11.5824 C13.442,11.5824 13.4591,11.5785 13.4752,11.5697 C13.5269,11.5423 13.5464,11.478 13.5186,11.4262 C12.7171,9.9269 13.4407,8.7141 13.4482,8.7021 C13.4785,8.6523 13.463,8.5867 13.4131,8.5559 C13.3637,8.5258 13.2977,8.5406 13.2669,8.5911 C13.2343,8.6445 12.4731,9.9207 13.3314,11.5263 L13.3314,11.5263 Z" id="path24" fill="#F6E744" sketch:type="MSShapeGroup"></path>
            <path d="M23.9388,38.306 L23.9832,38.4859 C24.0653,38.8105 24.0964,38.9329 24.1554,39.6105 C24.4926,39.1536 24.7462,38.7112 24.8954,38.4303 C24.7699,37.97 24.5621,37.5509 24.4567,37.547 C24.3246,37.5446 24.092,37.9228 23.9388,38.306 L23.9388,38.306 Z" id="path26" fill="#FFD700" sketch:type="MSShapeGroup"></path>
            <path d="M3.1419,38.0202 C3.1994,37.4178 3.2595,36.7946 3.2485,36.1397 C3.2385,35.505 3.2121,34.8888 3.1863,34.2927 C3.1196,32.7393 3.0617,31.3979 3.3796,31.0805 C3.4237,31.0368 3.4738,31.0167 3.5333,31.0203 L3.6241,31.0244 L3.6418,30.9353 C3.781,30.7753 5.5743,30.7275 6.1612,30.8814 L6.2184,30.8962 L6.2614,30.8557 C7.1449,30.0141 7.3615,29.1394 7.3704,29.1022 C7.3719,29.0548 7.3421,27.0864 7.3386,25.2011 L7.3386,25.0918 C7.3384,25.0552 7.3384,25.0187 7.3384,24.9824 C7.3381,24.406 7.3403,23.8446 7.3471,23.3566 C7.3477,23.3162 7.3481,23.2767 7.3489,23.2373 C7.3496,23.197 7.35,23.1572 7.3508,23.1181 C7.3549,22.8938 7.36,22.6891 7.3664,22.5106 C7.5202,21.782 8.6381,21.1541 9.7195,20.5466 C10.9049,19.8802 12.0247,19.2513 12.0453,18.4221 L12.0451,15.7193 C12.1607,15.2765 12.1791,14.7525 12.1963,14.2637 C12.2068,13.9649 12.2169,13.6762 12.2509,13.4467 C12.468,14.2224 12.7562,14.7884 12.9742,15.2172 C13.2416,15.7428 13.4057,16.0648 13.2661,16.3631 C13.1576,16.4421 13.0662,16.4824 12.9954,16.4824 C12.8327,16.4824 12.729,16.2372 12.6091,15.953 C12.5679,15.855 12.5247,15.7535 12.4765,15.6546 L12.3928,15.4837 L12.2913,15.6442 C12.0551,16.0176 12.0614,16.5479 12.3073,16.9943 C12.497,17.3389 12.7835,17.5445 13.0741,17.5445 C13.2946,17.5448 13.6141,17.4278 13.886,16.8711 L13.8953,16.8434 C14.0733,15.864 14.0293,14.4064 14.0108,13.9672 C15.1421,14.1537 15.7054,15.3169 15.677,15.893 C15.6687,16.0647 15.608,16.2699 15.3671,16.2699 C15.2006,16.2699 14.893,16.1778 14.3739,15.7413 L14.201,15.5959 L14.1993,15.8218 C14.1988,15.8837 14.1993,17.3375 15.1836,17.5838 C15.2769,17.5937 15.3519,17.5976 15.4235,17.5976 L15.4237,17.5976 C15.5983,17.5976 15.7603,17.5757 15.9084,17.532 C15.9565,18.1611 15.996,18.5702 16.0213,18.6331 C16.2208,19.1323 16.4484,19.3855 16.697,19.3855 L16.6974,19.3855 C16.8371,19.3853 16.9888,19.3848 17.1513,19.3838 C17.107,19.5713 17.0459,19.7432 16.9682,19.9025 C16.848,20.1506 16.6888,20.3674 16.4952,20.5619 C16.3124,20.7457 16.0992,20.9093 15.8593,21.0606 C15.5707,21.2427 15.2436,21.4068 14.885,21.5656 C14.8315,21.5893 14.8072,21.652 14.8308,21.7055 C14.8486,21.7453 14.8875,21.7686 14.9279,21.7686 C14.9426,21.7686 14.9571,21.7659 14.9709,21.7599 C15.2856,21.6205 15.5964,21.469 15.8859,21.2929 L16.4738,21.95 C16.4947,21.9733 16.5238,21.9852 16.5527,21.9852 C16.578,21.9852 16.6035,21.9764 16.6236,21.9582 C16.6671,21.9192 16.6709,21.8521 16.6319,21.8084 L16.0676,21.1774 C16.2471,21.0577 16.4161,20.9265 16.5703,20.7807 L17.2742,21.451 C17.2946,21.4705 17.321,21.4799 17.3473,21.4799 C17.3754,21.4799 17.4033,21.4689 17.4241,21.4471 C17.4645,21.4046 17.463,21.3373 17.4202,21.2968 L16.7198,20.6297 C16.8628,20.4742 16.9895,20.3031 17.0954,20.1132 L17.7794,20.7646 C17.7998,20.7841 17.8261,20.7938 17.8525,20.7938 C17.8807,20.7938 17.9086,20.7828 17.9295,20.7607 C17.9698,20.7185 17.9683,20.6512 17.9259,20.6107 L17.195,19.9148 C17.2592,19.7718 17.3123,19.6188 17.3525,19.4547 L18.3284,20.2295 C18.3481,20.2448 18.3713,20.2523 18.3945,20.2523 C18.4257,20.2523 18.4568,20.2385 18.4777,20.2122 C18.5141,20.1663 18.5066,20.0993 18.4607,20.0629 L17.6012,19.3809 C18.5714,19.3729 19.8019,19.3559 21.0023,19.3394 C21.2027,19.3367 21.4037,19.3338 21.6033,19.3311 C20.8248,22.1954 18.8759,22.7028 15.3424,22.6689 L15.3,22.6682 L15.2694,22.6968 C15.1086,22.8449 14.5966,23.3529 14.7478,23.6637 L14.7753,23.7199 L14.8377,23.7231 C21.1362,24.0586 21.3171,24.1232 23.0465,24.7399 C23.2495,24.8125 23.4738,24.8924 23.7314,24.9812 C23.8654,25.0274 24.0111,25.0511 24.1519,25.0745 C24.5057,25.1322 24.8395,25.1873 25.0961,25.5545 C25.3854,25.9679 25.0927,26.5604 25.0274,26.6813 L24.1369,27.2235 L24.1265,27.2558 C23.4071,26.8143 23.4231,26.6543 23.4694,26.2032 L23.4825,26.068 C23.4879,26.0097 23.4446,25.9581 23.3864,25.9527 C23.3218,25.9451 23.2766,25.991 23.2713,26.0491 L23.2582,26.1816 C23.2038,26.7135 23.2152,26.9525 24.0579,27.4628 C23.853,28.0713 23.2154,29.8908 22.6856,30.5998 C22.4259,30.9473 21.9704,31.2102 21.4882,31.4882 C20.8385,31.8633 20.1664,32.2508 19.9508,32.8888 L19.943,32.9117 L19.9459,32.9357 C20.0459,33.7693 20.878,34.6307 21.56,35.1155 L21.5979,35.1325 C21.9715,35.2178 22.3353,35.243 22.6873,35.2673 C23.1385,35.2986 23.5646,35.328 24.0006,35.4747 C24.1971,35.5404 24.4343,35.4115 24.6848,35.2743 C24.8752,35.1706 25.0721,35.0631 25.2246,35.0587 C25.43,35.0658 25.8843,35.2767 26.0676,35.378 C26.0812,35.3977 26.0946,35.4171 26.1076,35.4365 L26.1059,35.4377 L25.92,35.3352 C25.5133,36.0758 25.682,37.2478 25.7743,37.6746 C25.7248,37.7142 25.6837,37.7508 25.6567,37.7761 L25.5222,37.8479 C25.1621,36.6043 24.2869,35.9813 22.85,35.9444 C22.7934,35.9392 22.7427,35.9888 22.7412,36.0475 C22.7397,36.1063 22.7859,36.1548 22.8446,36.1563 C24.2111,36.1918 25.0028,36.7621 25.3306,37.9501 L25.0633,38.0927 L25.0484,38.1256 C25.048,38.1264 25.0433,38.1366 25.0344,38.155 C24.9258,37.8253 24.7233,37.3434 24.4638,37.3343 C24.4612,37.3341 24.4582,37.3341 24.4553,37.3341 C24.1275,37.3341 23.8427,37.9678 23.734,38.2454 C23.6958,38.2417 23.6584,38.238 23.6218,38.2341 C23.3496,38.2067 23.1143,38.1831 22.889,38.2606 C22.6858,38.3303 22.5164,38.5095 22.3527,38.6825 C22.2694,38.7707 22.1847,38.8605 22.0983,38.9312 C22.1478,38.5296 22.2408,37.5936 22.0907,37.226 C22.0244,37.0636 21.8773,36.9704 21.6867,36.9704 C21.4477,36.9704 21.1868,37.1187 21.1057,37.3013 C20.9969,37.5444 21.07,37.9061 21.3221,38.3766 C21.424,38.5671 21.6297,38.8904 21.788,39.0723 C21.4738,39.0874 21.0186,38.8018 20.7726,38.5871 C20.5684,38.4096 20.495,38.1207 20.4239,37.8415 C20.3729,37.6415 20.3202,37.4346 20.2182,37.2707 C19.4289,36.004 17.0143,33.4553 16.9118,33.3475 L16.8808,33.3146 L16.8353,33.3146 C16.5523,33.3132 15.7748,33.2559 15.5769,33.0097 C15.4652,32.8706 15.4528,32.5547 15.5172,32.3862 C15.7022,31.8981 16.2758,31.5585 16.8301,31.2298 C17.1859,31.0188 17.5222,30.8194 17.7529,30.5847 C17.7927,30.5441 17.826,30.5239 17.8554,30.5057 C18.0377,30.3951 18.0341,30.3776 17.8394,29.4707 L17.8114,29.3394 L17.7809,29.3158 C17.1991,28.8628 14.8248,27.7597 14.5237,27.9284 C14.1925,28.1124 13.982,28.5456 13.738,29.0475 C13.3319,29.8829 12.8265,30.9226 11.5324,31.4922 C11.2969,31.5953 11.3305,31.8346 11.3629,32.0655 C11.4011,32.3401 11.4445,32.6504 11.1804,32.9492 C10.7189,33.1413 10.224,33.1146 9.7455,33.0896 C9.3339,33.0672 8.9452,33.0474 8.6039,33.1676 C8.2044,33.4182 7.7148,33.573 7.2415,33.7228 C6.7532,33.8775 6.2917,34.0232 5.9731,34.2541 L5.9476,34.2723 L5.8942,34.4092 C5.5568,35.2736 5.1371,36.3494 5.4354,37.357 C5.4967,37.5627 5.7361,37.5085 5.9105,37.4684 C6.003,37.4476 6.1574,37.4123 6.1948,37.4446 C6.2294,37.4755 6.2212,37.5954 6.2153,37.6829 C6.2054,37.831 6.194,37.999 6.3116,38.0976 C6.5084,38.2622 6.7843,38.1556 7.0283,38.0614 C7.2165,37.9888 7.4119,37.913 7.5013,37.9849 C7.5212,38.0174 7.5056,38.183 7.4993,38.2537 C7.4852,38.401 7.4765,38.4982 7.5617,38.5434 C7.5843,38.5546 7.6426,38.5763 7.7121,38.5191 C8.2406,38.0767 9.1119,37.7298 9.3142,37.6936 L9.3482,37.6997 C9.6981,37.7623 9.9875,37.8635 10.2208,38.008 C9.5349,38.6932 9.717,39.5393 9.9543,40.2025 L9.9897,40.1898 C9.9858,40.1981 9.9819,40.2061 9.9781,40.214 C9.9008,40.3746 9.8329,40.5161 9.6964,40.5912 C9.7025,40.5729 9.7035,40.5527 9.6986,40.5326 C9.357,39.1535 8.4997,38.9994 7.5923,38.8365 C7.4639,38.8134 7.3338,38.7901 7.2021,38.7629 C7.1427,38.7517 7.0885,38.7879 7.0767,38.8452 C7.0648,38.9025 7.1013,38.9588 7.1589,38.9707 C7.2925,38.9982 7.4245,39.0222 7.5548,39.0453 C8.4649,39.2089 9.1838,39.3378 9.4925,40.5836 C9.4988,40.6084 9.5128,40.6287 9.5318,40.6431 C9.4378,40.6557 9.3212,40.6484 9.1729,40.6159 L9.1451,40.6098 C9.1319,40.5804 9.1182,40.5496 9.1044,40.5183 C8.9959,40.2704 8.8601,39.9613 8.5596,39.9243 L8.5429,39.9222 L8.5266,39.9256 C8.2112,39.985 8.0881,40.3874 7.989,40.7108 L7.9701,40.7712 C7.7104,40.5386 7.2368,40.318 6.9921,40.349 C6.6323,40.3932 6.5742,40.7139 6.5179,41.0243 C6.4866,41.1983 6.4522,41.3873 6.3679,41.5591 C6.319,41.1548 6.2589,40.4745 6.2909,39.9173 C6.2962,39.8207 6.2478,39.7029 6.1666,39.6174 C6.0795,39.5249 5.9605,39.4742 5.832,39.4742 C5.6099,39.4789 5.371,39.6845 5.3445,39.7078 L5.3157,39.7496 C5.0713,40.3908 5.414,41.0303 5.8843,41.6053 C5.8173,41.5837 5.7518,41.5647 5.6888,41.5465 C5.4314,41.4723 5.2095,41.408 5.0857,41.2457 C5.0434,41.1896 5.0187,41.0699 4.995,40.9546 C4.9544,40.7562 4.9121,40.5516 4.7544,40.47 C4.5227,40.3501 4.3078,40.3855 4.0809,40.423 C3.8042,40.4689 3.5182,40.5152 3.1288,40.297 C2.9879,39.6285 3.063,38.8467 3.1419,38.0202 L3.1419,38.0202 Z M20.753,36.5884 C20.7678,36.6448 20.8254,36.68 20.8829,36.6637 C21.5936,36.4761 22.1416,36.4814 22.4681,36.6797 C22.6383,36.7835 22.7481,36.9405 22.7945,37.1466 C22.8057,37.1957 22.8496,37.2292 22.8982,37.2292 C22.9057,37.2292 22.9135,37.2284 22.9215,37.2267 C22.9788,37.2135 23.0145,37.157 23.0018,37.0997 C22.9424,36.8353 22.7999,36.6328 22.5781,36.4983 C22.1955,36.2662 21.607,36.2523 20.8283,36.4587 C20.7717,36.4736 20.738,36.5317 20.753,36.5884 L20.753,36.5884 Z M19.3026,31.7643 C19.3155,31.8113 19.3582,31.8423 19.405,31.8423 C19.414,31.8423 19.4235,31.841 19.4332,31.8386 C20.3447,31.5888 20.9053,30.7366 21.4477,29.9127 C21.5182,29.8059 21.5883,29.6989 21.6594,29.5932 C21.6925,29.5443 21.6793,29.4784 21.6308,29.4458 C21.5825,29.4126 21.5165,29.4257 21.4837,29.4745 C21.412,29.5811 21.3411,29.6884 21.2703,29.7959 C20.7259,30.6234 20.2114,31.4053 19.3769,31.6337 C19.3203,31.6495 19.287,31.7077 19.3026,31.7643 L19.3026,31.7643 Z M14.0455,24.5357 C15.5591,25.3826 17.2814,26.4007 18.5693,27.7654 C18.5904,27.7875 18.6186,27.7984 18.6467,27.7984 C18.6727,27.7984 18.6992,27.789 18.7196,27.7697 C18.7624,27.7295 18.7643,27.6622 18.724,27.6197 C17.4155,26.2329 15.6763,25.2051 14.1492,24.3505 C14.0989,24.3223 14.0338,24.34 14.0047,24.3912 C13.9762,24.4424 13.9943,24.507 14.0455,24.5357 L14.0455,24.5357 Z M7.3631,32.2244 C7.3829,32.2572 7.4181,32.2756 7.4539,32.2756 C7.4727,32.2756 7.4916,32.2707 7.5086,32.2605 C7.521,32.253 7.5334,32.2458 7.5458,32.238 C7.5513,32.239 7.5569,32.2394 7.5625,32.2394 C7.5906,32.2394 7.6191,32.228 7.6397,32.2059 C7.6584,32.186 7.6771,32.1663 7.6959,32.1464 C10.2426,30.5762 11.3494,29.0216 10.9872,27.523 C10.9737,27.466 10.9149,27.4315 10.8593,27.4449 C10.8019,27.4585 10.7672,27.5161 10.781,27.5729 C11.079,28.8054 10.2801,30.0988 8.405,31.4254 C9.2805,30.5412 10.1182,29.6372 9.866,28.8515 C9.848,28.7954 9.7902,28.7643 9.7324,28.783 C9.6766,28.8007 9.6458,28.8607 9.6639,28.9166 C9.8921,29.628 8.9759,30.55 8.0896,31.4412 C7.9105,31.6213 7.7314,31.8015 7.5608,31.9804 C7.5076,32.0132 7.454,32.046 7.3996,32.0785 C7.3491,32.1088 7.3328,32.1739 7.3631,32.2244 L7.3631,32.2244 Z M6.2741,31.6359 C6.292,31.6749 6.3307,31.698 6.3709,31.698 C6.3857,31.698 6.4005,31.6951 6.4148,31.6888 C7.5713,31.1653 8.1632,30.1974 8.1739,28.8126 C8.1745,28.7534 8.127,28.7125 8.0678,28.7058 C8.0096,28.7058 7.962,28.7524 7.9618,28.8109 C7.9515,30.1243 7.4169,31.0019 6.3272,31.495 C6.2738,31.5193 6.2502,31.5822 6.2741,31.6359 L6.2741,31.6359 Z M5.0251,39.2881 C5.0639,39.3313 5.1314,39.3345 5.1749,39.2946 C5.2409,39.2347 5.6018,39.1138 5.9987,39.1541 C6.2651,39.1812 6.6385,39.2915 6.9068,39.6618 C6.9274,39.6904 6.9597,39.7054 6.9927,39.7054 C7.0144,39.7054 7.0362,39.6989 7.0548,39.6853 C7.1024,39.6511 7.1129,39.5846 7.0784,39.5372 C6.7643,39.1032 6.3294,38.9747 6.0203,38.9429 C5.5701,38.8982 5.1506,39.0291 5.0316,39.1383 C4.9884,39.1777 4.9855,39.2449 5.0251,39.2881 L5.0251,39.2881 Z M4.8907,33.4138 C5.0034,33.231 5.0958,33.1808 5.1297,33.1774 C5.1897,33.1863 5.2409,33.1444 5.2484,33.0858 C5.2562,33.0278 5.2149,32.9746 5.1569,32.9671 C4.9199,32.9333 4.6757,33.2487 4.4331,33.8955 C4.3098,34.224 3.8786,35.5939 4.1816,35.7962 C4.1998,35.8083 4.2202,35.8139 4.2406,35.8139 C4.2746,35.8139 4.3083,35.7973 4.3287,35.7668 C4.3615,35.7179 4.3485,35.6522 4.2997,35.6197 C4.2037,35.4741 4.4846,34.0742 4.8907,33.4138 L4.8907,33.4138 Z M3.2383,39.7482 C3.2776,39.7917 3.3451,39.7941 3.3881,39.754 C3.577,39.5793 3.8399,39.494 4.0762,39.5317 C4.2619,39.5613 4.4132,39.6649 4.5018,39.824 C4.5212,39.8587 4.5574,39.8781 4.5943,39.8781 C4.6118,39.8781 4.6297,39.874 4.6463,39.8649 C4.6975,39.8361 4.7155,39.7715 4.6871,39.7203 C4.5659,39.5035 4.361,39.3619 4.1097,39.3221 C3.8055,39.2754 3.4835,39.377 3.2442,39.5984 C3.2009,39.638 3.1982,39.7052 3.2383,39.7482 L3.2383,39.7482 Z" id="path28" fill="#F6E744" sketch:type="MSShapeGroup"></path>
            <path d="M26.1058,35.438 C25.7561,36.0747 25.8799,37.1103 25.9613,37.5438 C26.0672,37.4809 26.1801,37.4365 26.2716,37.4521 C26.5316,37.4926 26.6676,37.7111 26.8116,37.9423 C26.8737,38.0426 26.9374,38.1442 27.0136,38.238 C27.0905,37.1359 26.7504,36.3789 26.1074,35.4369 L26.1058,35.438 L26.1058,35.438 Z" id="path30" fill="#FFD700" sketch:type="MSShapeGroup"></path>
            <path d="M27.4754,22.2155 C27.5232,22.4369 27.5482,22.6841 27.5611,22.8565 C27.5786,22.8409 27.5961,22.8254 27.6135,22.8096 C27.7102,22.7234 27.808,22.6363 27.9166,22.5576 L27.9124,22.552 C28.0246,22.4688 28.4845,21.6022 28.2968,21.2987 C28.1916,21.1288 28.0826,21.0353 27.9894,21.0353 L27.9877,21.0353 C27.887,21.0365 27.8044,21.1516 27.7641,21.2203 C27.5667,21.5553 27.4941,22.0594 27.4754,22.2155 L27.4754,22.2155 Z" id="path32" fill="#FFD700" sketch:type="MSShapeGroup"></path>
            <path d="M27.1986,6.27 C27.4504,6.2404 27.7483,6.1838 27.9018,6.0842 C27.9542,6.0505 28.0076,6.0225 28.0613,5.9946 C28.178,5.9339 28.2883,5.8764 28.3932,5.7438 C28.4638,5.6544 28.4668,5.4199 28.398,5.3453 C28.3662,5.3106 28.2645,5.2717 28.1763,5.2717 C28.1338,5.2717 28.1142,5.2812 28.1122,5.2817 C27.9409,5.6336 27.4966,6.0298 27.1986,6.27 L27.1986,6.27 Z" id="path34" fill="#FFD700" sketch:type="MSShapeGroup"></path>
            <path d="M28.7938,4.1833 L28.0904,4.7576 L28.2147,5.061 C28.3324,5.0698 28.4772,5.1179 28.5541,5.2016 C28.6459,5.3008 28.6748,5.4648 28.6566,5.6146 C28.6816,5.6105 28.7049,5.608 28.7253,5.608 C28.7719,5.608 28.827,5.6015 28.88,5.5957 C28.9426,5.5888 28.9994,5.5825 29.048,5.5838 C29.1302,5.4694 29.1963,5.3873 29.2155,5.3638 C29.2526,5.3182 29.3199,5.3116 29.3648,5.3482 C29.4105,5.3854 29.4173,5.4521 29.3804,5.4976 C29.2568,5.6493 28.9742,6.0343 28.8533,6.3408 C29.0177,6.3049 29.1546,6.3251 29.2614,6.4017 C29.3544,6.468 29.4177,6.5746 29.4479,6.7113 C29.4845,6.6989 29.5197,6.6873 29.5532,6.6764 C29.906,6.5606 30.0667,6.5076 30.3853,5.9276 C30.4133,5.8762 30.4788,5.8581 30.529,5.8855 C30.5807,5.9137 30.5992,5.9783 30.5713,6.0296 C30.3025,6.5198 30.1165,6.6815 29.8791,6.7846 L29.9082,7.3052 C29.9764,7.2263 30.0546,7.1581 30.1457,7.112 C30.195,7.087 30.2469,7.0741 30.2991,7.0741 C30.4985,7.0741 30.6422,7.2525 30.7282,7.4023 C30.7582,7.455 30.7743,7.5145 30.7789,7.5776 C31.3119,7.2433 31.6583,6.9677 31.82,6.8303 C31.8295,6.6128 31.8016,6.3639 31.7401,6.3124 C31.6573,6.2427 31.2649,6.1412 31.0123,6.0914 L30.8967,6.0684 L30.9316,5.9557 C31.0151,5.6858 31.0851,5.2339 30.969,5.122 C30.8423,5.0005 30.4684,5.036 30.262,5.088 L30.1375,5.1188 L30.1302,4.9908 C30.1163,4.7417 30.0408,4.2969 29.8981,4.1641 C29.7366,4.0141 29.1449,4.0947 28.7938,4.1833 L28.7938,4.1833 Z" id="path36" fill="#F6E744" sketch:type="MSShapeGroup"></path>
            <path d="M28.6489,6.8405 C28.5416,7.0398 28.4394,7.2297 28.1264,7.614 C28.5857,7.5235 28.8135,7.2824 29.0347,7.0478 C29.107,6.9711 29.1767,6.8972 29.2523,6.8312 C29.2406,6.7103 29.201,6.6193 29.1384,6.5744 C29.0456,6.5086 28.9,6.5406 28.7902,6.5809 L28.7829,6.602 C28.7292,6.6902 28.6887,6.7657 28.6489,6.8405 L28.6489,6.8405 Z" id="path38" fill="#FFD700" sketch:type="MSShapeGroup"></path>
            <path d="M29.1063,22.4799 L29.0409,22.8281 C29.2716,22.6547 29.5117,22.5314 29.7543,22.4311 C29.9063,22.3343 30.2062,22.0067 30.2996,21.7352 C30.3264,21.6588 30.3295,21.5968 30.3079,21.578 C30.2977,21.569 30.2867,21.5604 30.2751,21.5524 C30.1816,21.4881 30.042,21.4538 29.9146,21.4648 C29.8165,21.474 29.739,21.5087 29.696,21.5639 C29.6552,21.616 29.6101,21.6801 29.5634,21.7496 C29.5579,21.7773 29.5416,21.8003 29.52,21.8153 C29.4236,21.9629 29.3254,22.1254 29.2502,22.2494 C29.1789,22.3674 29.1367,22.4379 29.1063,22.4799 L29.1063,22.4799 Z" id="path40" fill="#FFD700" sketch:type="MSShapeGroup"></path>
            <path d="M27.9183,4.8979 L28.0018,5.1018 C27.9579,5.1288 27.9341,5.1631 27.9217,5.1882 C27.6825,5.6785 26.7968,6.3102 26.7878,6.3168 L26.5023,6.5191 L26.8522,6.5094 C26.8856,6.5084 27.676,6.4841 28.0174,6.2627 C28.0637,6.2324 28.1116,6.2078 28.1591,6.1831 C28.2847,6.1175 28.4267,6.0437 28.5596,5.8754 C28.5657,5.8677 28.5717,5.8597 28.5772,5.8509 C28.6258,5.838 28.6967,5.8201 28.7254,5.8201 C28.7766,5.8201 28.8368,5.814 28.8958,5.8075 C28.7507,6.0342 28.6076,6.3047 28.5879,6.5145 C28.5387,6.5968 28.5001,6.6687 28.462,6.7398 C28.3423,6.962 28.2298,7.1713 27.7916,7.6841 L27.6287,7.8744 L27.8787,7.8592 C28.6035,7.814 28.9284,7.4699 29.1891,7.1936 C29.2765,7.1011 29.3593,7.0132 29.4494,6.9433 L29.4674,6.9438 C29.4676,6.9389 29.4676,6.9343 29.4676,6.9295 C29.4679,6.9292 29.4684,6.9289 29.4686,6.9287 C29.5226,6.91 29.5725,6.8935 29.6196,6.8782 C29.6371,6.8726 29.6541,6.867 29.6706,6.8614 L29.7109,7.5774 L29.7201,7.5769 C29.6896,7.6289 29.6614,7.6803 29.6347,7.7292 L29.6203,7.7564 C29.5591,7.868 29.5155,7.9485 29.4771,8.0118 C28.9616,8.0402 28.645,8.1237 28.1711,8.3845 C27.886,8.5513 27.5505,8.8305 27.1671,9.2202 C26.2027,10.1006 25.0501,10.5292 23.6514,10.5292 C23.5926,10.5292 23.5452,10.5765 23.5452,10.6352 C23.5452,10.6938 23.5926,10.7411 23.6514,10.7411 C24.7059,10.7411 25.626,10.5066 26.4353,10.028 C26.1711,10.3398 25.8902,10.6909 25.5928,11.0805 C25.5802,11.097 24.5407,12.4691 24.2285,13.0139 C23.4911,11.7888 22.6095,10.787 21.7466,9.936 L27.9183,4.8979 L27.9183,4.8979 Z M22.9528,9.9192 C22.9617,9.9709 23.0067,10.0069 23.0574,10.0069 C23.0633,10.0069 23.0696,10.0066 23.0759,10.0054 C23.4846,9.9343 23.898,9.6458 24.2979,9.3671 C24.4652,9.2505 24.623,9.1403 24.7779,9.0473 C25.1567,8.8201 25.6831,8.4534 25.8722,8.2577 C25.9129,8.2157 25.9117,8.1485 25.8697,8.1074 C25.8277,8.0669 25.7607,8.0679 25.7194,8.1101 C25.5505,8.2852 25.0299,8.6487 24.6688,8.8655 C24.5074,8.9622 24.3394,9.0796 24.1765,9.193 C23.7955,9.4586 23.4014,9.7332 23.0389,9.7964 C22.9814,9.8063 22.9428,9.8614 22.9528,9.9192 L22.9528,9.9192 Z" id="path42" fill="#F6E744" sketch:type="MSShapeGroup"></path>
            <path d="M29.2486,8.5743 C29.4369,8.4068 29.5161,8.3357 29.5967,8.2189 C29.6188,8.1871 29.6412,8.1516 29.6654,8.1101 C29.6843,8.0783 29.7045,8.0428 29.7271,8.0023 C29.7501,7.9603 29.7761,7.9132 29.8055,7.8593 L29.821,7.8312 C29.9279,7.636 30.0607,7.3931 30.2416,7.3016 C30.2615,7.2912 30.2804,7.2865 30.2991,7.2865 C30.373,7.2865 30.4647,7.3691 30.5439,7.5077 C30.5713,7.5558 30.573,7.6296 30.5575,7.7132 C30.5485,7.7607 30.5339,7.8112 30.5149,7.8617 C30.4931,7.9198 30.4657,7.9775 30.4348,8.0307 C30.3984,8.0936 30.3573,8.1499 30.3149,8.1924 C30.2114,8.2968 30.132,8.3828 30.0662,8.4537 C29.7863,8.7569 29.7819,8.7615 28.978,8.8174 C29.089,8.7161 29.1772,8.638 29.2486,8.5743 L29.2486,8.5743 Z" id="path44" fill="#FFD700" sketch:type="MSShapeGroup"></path>
            <path d="M30.2351,22.2546 C30.2684,22.2434 30.3014,22.2322 30.3344,22.2211 C30.5566,22.1466 30.7855,22.0696 31.0045,21.9717 C31.2607,21.698 31.6411,21.1933 31.6118,20.9537 C31.5865,20.7456 31.4054,20.4955 31.1679,20.2512 C31.2092,20.5251 31.1776,20.763 31.0737,20.9611 C30.9606,21.1765 30.7629,21.3435 30.4854,21.4594 C30.5347,21.5276 30.5626,21.6418 30.4917,21.8289 C30.4446,21.9536 30.3489,22.1101 30.2351,22.2546 L30.2351,22.2546 Z" id="path46" fill="#FFD700" sketch:type="MSShapeGroup"></path>
        </g>
    </g>
</svg>