<?xml version="1.0" encoding="UTF-8" standalone="no"?>
<svg width="60px" height="61px" viewBox="0 0 60 61" version="1.1" xmlns="http://www.w3.org/2000/svg" xmlns:xlink="http://www.w3.org/1999/xlink" xmlns:sketch="http://www.bohemiancoding.com/sketch/ns">
    <!-- Generator: Sketch 3.2 (9961) - http://www.bohemiancoding.com/sketch -->
    <title>ico-work-21</title>
    <desc>Created with Sketch.</desc>
    <defs>
        <linearGradient x1="0.000835701153%" y1="50.0050139%" x2="99.9991643%" y2="50.0050139%" id="linearGradient-1">
            <stop stop-color="#F7F7F7" offset="0%"></stop>
            <stop stop-color="#EBEBEB" offset="100%"></stop>
        </linearGradient>
    </defs>
    <g id="Welcome" stroke="none" stroke-width="1" fill="none" fill-rule="evenodd" sketch:type="MSPage">
        <g id="tangerine" sketch:type="MSArtboardGroup" transform="translate(-521.000000, -1895.000000)">
            <g id="ico-work-21" sketch:type="MSLayerGroup" transform="translate(521.000000, 1895.000000)">
                <path d="M56.234375,25.0716811 C56.759375,23.0597904 55.556875,20.9807147 53.5625,20.4518702 L30.483625,14.3275845 C28.48925,13.7982988 26.428,15.0107778 25.9030625,17.0219122 L20.85425,36.3681937 C20.329375,38.3799584 21.532,40.4591601 23.526375,40.9885719 L46.605,47.1121013 C48.599375,47.6415131 50.660625,46.428908 51.1855625,44.4177736 L56.234375,25.0716811" id="path408" fill="#EEC74A" sketch:type="MSShapeGroup" transform="translate(38.543642, 30.716030) scale(1, -1) translate(-38.543642, -30.716030) "></path>
                <path d="M25.9175,24.8626891 C25.912625,24.8801471 25.9076875,24.8986134 25.9030625,24.9160714 L20.85425,44.2623529 C20.845,44.2976471 20.8364375,44.3329412 20.828125,44.3682353 C20.8364375,44.3329412 20.845,44.2976471 20.85425,44.2623529 L25.9030625,24.9160714 C25.9076875,24.8986134 25.912625,24.8801471 25.9175,24.8626891 M20.8291875,44.3694958 C20.8279875,44.3754958 20.8268875,44.3804958 20.8256875,44.3854958 C20.8268875,44.3804958 20.8279875,44.3754958 20.8291875,44.3694958 M20.82595,44.3827311 C20.82485,44.3867311 20.82405,44.3907311 20.82325,44.3947311 C20.82405,44.3907311 20.82485,44.3867311 20.82595,44.3827311 M20.8227125,44.3959664 C20.8220125,44.3989664 20.8216125,44.4009664 20.8208125,44.4039664 C20.8216125,44.4009664 20.8220125,44.3989664 20.8227125,44.3959664 M20.819325,44.4092017 C20.819025,44.4102017 20.818625,44.4112017 20.818625,44.4132017 C20.818625,44.4112017 20.819025,44.4102017 20.819325,44.4092017" id="path410" fill="#BCBCBC" sketch:type="MSShapeGroup" transform="translate(23.381125, 34.663109) scale(1, -1) translate(-23.381125, -34.663109) "></path>
                <path d="M28.640125,22.2862815 C27.3661875,22.6038655 26.292,23.5871218 25.9175,24.9409664 C25.912625,24.9584244 25.9076875,24.9768908 25.9030625,24.9943487 L20.85425,44.3406303 C20.845,44.3759244 20.8364375,44.4112185 20.828125,44.4465126 C20.828125,44.4471429 20.827875,44.4477731 20.827875,44.4477731 C20.827125,44.4515546 20.8264375,44.4547059 20.8256875,44.4578571 C20.8254375,44.4591176 20.8251875,44.4597479 20.8249375,44.4610084 C20.82425,44.4635294 20.82375,44.4660504 20.82325,44.4685714 C20.82275,44.4704622 20.82225,44.4723529 20.822,44.4742437 C20.8215625,44.4761345 20.8213125,44.477395 20.8208125,44.4792857 C20.8200625,44.4818067 20.8195625,44.4843277 20.8190625,44.487479 C20.818875,44.4881092 20.818625,44.4887395 20.818625,44.49 C20.6171875,45.4114286 20.775625,46.3378992 21.19875,47.1162605 L35.545625,24.0327731 L28.640125,22.2862815" id="path412" fill="#B09336" sketch:type="MSShapeGroup" transform="translate(28.138098, 34.702248) scale(1, -1) translate(-28.138098, -34.702248) "></path>
                <path d="M31.3195625,16.0228992 L31.4086875,16.0815126 L32.128875,17.4661765 L33.7434375,16.5945378 L33.785375,16.6052521 L34.792,18.1455882 L36.4045625,17.2764706 L36.4460625,17.2852941 L37.4511875,18.8256303 L39.0625,17.9539916 L39.1023125,17.9647059 L40.1061875,19.5031513 L41.3935625,18.6327731 L41.4701875,18.6365546 L39.94825,24.2621849 L29.943625,21.5155462 L31.3195625,16.0228992" id="path414" fill="#FFFFFF" sketch:type="MSShapeGroup" transform="translate(35.693625, 20.151050) scale(1, -1) translate(-35.693625, -20.151050) "></path>
                <path d="M40.911125,39.2503992 L39.589875,33.2605462 L40.911125,33.5918697 L41.734625,30.2641387 L44.37575,30.9298109 L43.5498125,34.257605 L44.870625,34.5914496 L40.911125,39.2503992" id="path416" fill="#E54F4C" sketch:type="MSShapeGroup" transform="translate(42.214875, 34.770441) scale(1, -1) translate(-42.214875, -34.770441) "></path>
                <path d="M47.756375,37.3133824 L46.43625,31.3222689 L47.756375,31.6544118 L48.5810625,28.3266176 L51.2206875,28.9920378 L50.39625,32.3190756 L51.7170625,32.6531723 L47.756375,37.3133824" id="path418" fill="#E54F4C" sketch:type="MSShapeGroup" transform="translate(49.061250, 32.832920) scale(1, -1) translate(-49.061250, -32.832920) "></path>
                <path d="M59.223125,15.8801471 L24.6145,7.1260084 L12.7463125,50.5434454 C12.4778125,51.5222269 11.766625,52.3163445 10.827875,52.6844118 L2.5746875,55.0711765 C2.2878125,55.1713866 2.0920625,55.2482773 1.8210625,55.2482773 C0.8471875,55.2482773 0.057375,54.4522689 0.057375,53.4697059 C0.057375,52.7537395 0.46825,52.1121429 1.073,51.8304202 L8.62425,48.3533193 L18.253875,2.2787395 C18.6433125,0.856260504 20.9665625,0.0263445378 22.3679375,0.0263445378 C22.62475,0.0263445378 22.88575,0.057605042 23.14575,0.123844538 L59.84375,12.4056303 L59.223125,15.8801471" id="path420" fill="#3A556C" sketch:type="MSShapeGroup" transform="translate(29.963625, 27.631387) scale(1, -1) translate(-29.963625, -27.631387) "></path>
                <path d="M29.1071875,52.1740336 C29.1071875,47.7118487 25.51975,44.0942647 21.0945,44.0942647 C16.6689375,44.0942647 13.0818125,47.7118487 13.0818125,52.1740336 C13.0818125,56.6362815 16.6689375,60.2538655 21.0945,60.2538655 C25.51975,60.2538655 29.1071875,56.6362815 29.1071875,52.1740336" id="path422" fill="#3A556C" sketch:type="MSShapeGroup" transform="translate(21.081812, 52.161492) scale(1, -1) translate(-21.081812, -52.161492) "></path>
                <path d="M24.83375,52.1287815 C24.83375,50.0457983 23.1599375,48.3573529 21.0945,48.3573529 C19.0290625,48.3573529 17.355,50.0457983 17.355,52.1287815 C17.355,54.2118277 19.0290625,55.8994538 21.0945,55.8994538 C23.1599375,55.8994538 24.83375,54.2118277 24.83375,52.1287815 L24.83375,52.1287815 Z" id="path430" sketch:type="MSShapeGroup" transform="translate(21.105000, 52.138866) scale(1, -1) translate(-21.105000, -52.138866) "></path>
                <path d="M24.83375,52.1287815 C24.83375,50.0457983 23.1599375,48.3573529 21.0945,48.3573529 C19.0290625,48.3573529 17.355,50.0457983 17.355,52.1287815 C17.355,54.2118277 19.0290625,55.8994538 21.0945,55.8994538 C23.1599375,55.8994538 24.83375,54.2118277 24.83375,52.1287815" id="path438" fill="url(#linearGradient-1)" sketch:type="MSShapeGroup" transform="translate(21.105000, 52.138866) scale(1, -1) translate(-21.105000, -52.138866) "></path>
                <path d="M42.2990625,38.0438445 L41.983125,39.2632563 L51.7411875,41.8359454 L52.057625,40.6165336 L42.2990625,38.0438445" id="path440" fill="#E54F4C" sketch:type="MSShapeGroup" transform="translate(47.014375, 39.934601) scale(1, -1) translate(-47.014375, -39.934601) "></path>
                <path d="M35.6653125,7.87918485 C35.938,6.87645376 35.347875,5.83086552 34.35325,5.5560756 L19.3825625,1.4140588 C18.3881875,1.13863863 17.3510625,1.73359661 17.078375,2.73632771 L13.62475,15.427084 C13.3520625,16.4298151 13.942125,17.4754033 14.93675,17.7501933 L29.907,21.8934706 C30.901625,22.1682605 31.9385,21.5733025 32.2111875,20.5705714 L35.6653125,7.87918485" id="path442" fill="#EEC74A" sketch:type="MSShapeGroup" transform="translate(24.651926, 11.651357) scale(1, -1) translate(-24.651926, -11.651357) "></path>
                <path d="M20.1643125,2.63823529 L20.2185,2.67415966 L20.651875,3.52941176 L21.650125,3.00504202 L21.6755625,3.01197479 L22.2839375,3.96428571 L23.2805,3.44117647 L23.3059375,3.44684874 L23.9138125,4.39978992 L24.9094375,3.87478992 L24.9338125,3.88172269 L25.5405,4.83340336 L26.3371875,4.30714286 L26.38475,4.31029412 L25.46875,7.76785714 L19.327625,6.06176471 L20.1643125,2.63823529" id="path444" fill="#FFFFFF" sketch:type="MSShapeGroup" transform="translate(22.858875, 5.190756) scale(1, -1) translate(-22.858875, -5.190756) "></path>
                <path d="M30.7944375,11.8140756 L30.3408125,13.6216387 C31.7590625,14.3035714 30.755375,16.9329832 30.755375,16.9329832 L29.286125,16.5579832 L27.79275,16.1766807 C27.79275,16.1766807 28.1735625,13.3897059 29.7426875,13.4691176 L30.19675,11.6609244 C30.19675,11.6609244 30.0490625,10.9815126 29.4509375,10.8296218 L29.527375,10.5283613 L30.7224375,10.8334034 L31.91775,11.1378151 L31.8420625,11.4390756 C31.244125,11.2871849 30.7944375,11.8140756 30.7944375,11.8140756" id="path446" fill="#E54F4C" sketch:type="MSShapeGroup" transform="translate(29.855250, 13.742647) scale(1, -1) translate(-29.855250, -13.742647) "></path>
                <path d="M18.89125,20.5065126 L18.88625,20.5065126 L18.89125,20.5065126 L18.89125,20.5065126 M18.889375,20.5065126 C19.0436875,20.5065126 19.2006875,20.5375126 19.3561875,20.6015126 C19.2004375,20.5375126 19.0439375,20.5065126 18.889375,20.5065126 M19.371125,20.5707983 C19.377325,20.5717983 19.383225,20.5737983 19.389425,20.5757983 L19.389425,20.5757983 C19.383225,20.5737983 19.377325,20.5717983 19.371125,20.5707983 M17.083475,21.8848739 C17.081475,21.8908739 17.079975,21.8968739 17.078375,21.9028739 L17.078375,21.9028739 C17.079975,21.8968739 17.081475,21.8908739 17.083475,21.8848739" id="path448" fill="#BCBCBC" sketch:type="MSShapeGroup" transform="translate(18.265875, 21.231303) scale(1, -1) translate(-18.265875, -21.231303) "></path>
                <path d="M18.889375,8.15357143 L18.88625,8.15357143 C18.067875,8.15483193 17.31275,8.70252101 17.0815625,9.53193277 C17.0803125,9.53571429 17.079375,9.5394958 17.078375,9.54327731 L17.078375,9.54327731 L13.6985,21.9636555 L21.682875,8.85693277 L19.3825625,8.2210084 C19.3786875,8.2197479 19.375,8.21848739 19.371125,8.21785714 C19.3661875,8.21596639 19.3613125,8.21470588 19.3561875,8.21344538 C19.2006875,8.17310924 19.0436875,8.15357143 18.889375,8.15357143 L18.889375,8.15357143" id="path450" fill="#B09336" sketch:type="MSShapeGroup" transform="translate(17.698500, 15.054832) scale(1, -1) translate(-17.698500, -15.054832) "></path>
            </g>
        </g>
    </g>
</svg>