<?xml version="1.0" encoding="UTF-8" standalone="no"?>
<svg width="60px" height="61px" viewBox="0 0 60 61" version="1.1" xmlns="http://www.w3.org/2000/svg" xmlns:xlink="http://www.w3.org/1999/xlink" xmlns:sketch="http://www.bohemiancoding.com/sketch/ns">
    <!-- Generator: Sketch 3.2 (9961) - http://www.bohemiancoding.com/sketch -->
    <title>ico-work-10</title>
    <desc>Created with Sketch.</desc>
    <defs>
        <linearGradient x1="-316.5015%" y1="-528.729951%" x2="-309.390517%" y2="-537.41649%" id="linearGradient-1">
            <stop stop-color="#E6E6E6" offset="0%"></stop>
            <stop stop-color="#DBDBDB" offset="100%"></stop>
        </linearGradient>
        <linearGradient x1="-262.5015%" y1="-469.259833%" x2="-255.3904%" y2="-477.870933%" id="linearGradient-2">
            <stop stop-color="#E6E6E6" offset="0%"></stop>
            <stop stop-color="#EEC02D" offset="100%"></stop>
        </linearGradient>
        <linearGradient x1="-884.532175%" y1="-3004.36364%" x2="-866.093219%" y2="-3053.80459%" id="linearGradient-3">
            <stop stop-color="#B6B6B6" offset="0%"></stop>
            <stop stop-color="#ADADAD" offset="100%"></stop>
        </linearGradient>
        <linearGradient x1="-262.5015%" y1="-469.259833%" x2="-255.3904%" y2="-477.870933%" id="linearGradient-4">
            <stop stop-color="#F5CA3F" offset="0%"></stop>
            <stop stop-color="#EEC02D" offset="100%"></stop>
        </linearGradient>
    </defs>
    <g id="Welcome" stroke="none" stroke-width="1" fill="none" fill-rule="evenodd" sketch:type="MSPage">
        <g id="tangerine" sketch:type="MSArtboardGroup" transform="translate(-440.000000, -1799.000000)">
            <g id="ico-work-10" sketch:type="MSLayerGroup" transform="translate(440.000000, 1800.000000)">
                <path d="M37.749375,-0.13875 C29.0675,1.50125 22.5,9.12625 22.5,18.285 C22.5,28.64 30.895,37.035 41.25,37.035 C51.605,37.035 60,28.64 60,18.285 C60,9.640625 54.150625,2.363125 46.19375,0.19375 L42.04875,2.68125 C49.96125,3.09625 56.25,9.64375 56.25,17.66 C56.25,17.765 56.24875,17.86875 56.246875,17.9725 C56.24875,18.076875 56.25,18.180625 56.25,18.285 C56.25,26.569375 49.534375,33.285 41.25,33.285 C32.965625,33.285 26.25,26.569375 26.25,18.285 C26.25,18.180625 26.25125,18.076875 26.253125,17.9725 C26.25125,17.86875 26.25,17.765 26.25,17.66 C26.25,12.989375 28.385,8.8175 31.731875,6.06625 C32.51375,4.198125 33.760625,2.028125 35.625,0.785 C36.26,0.361875 36.984375,0.06375 37.749375,-0.13875 M41.25,5.785 C34.461875,5.785 28.92,11.22375 28.75375,17.9725 C28.92,24.72125 34.461875,30.16 41.25,30.16 C48.038125,30.16 53.58,24.72125 53.74625,17.9725 C53.58,11.22375 48.038125,5.785 41.25,5.785" id="path842" sketch:type="MSShapeGroup" transform="translate(41.250000, 18.455000) scale(1, -1) translate(-41.250000, -18.455000) "></path>
                <path d="M37.749375,-0.13875 C29.0675,1.50125 22.5,9.12625 22.5,18.285 C22.5,28.64 30.895,37.035 41.25,37.035 C51.605,37.035 60,28.64 60,18.285 C60,9.640625 54.150625,2.363125 46.19375,0.19375 L42.04875,2.68125 C49.96125,3.09625 56.25,9.64375 56.25,17.66 C56.25,17.765 56.24875,17.86875 56.246875,17.9725 C56.24875,18.076875 56.25,18.180625 56.25,18.285 C56.25,26.569375 49.534375,33.285 41.25,33.285 C32.965625,33.285 26.25,26.569375 26.25,18.285 C26.25,18.180625 26.25125,18.076875 26.253125,17.9725 C26.25125,17.86875 26.25,17.765 26.25,17.66 C26.25,12.989375 28.385,8.8175 31.731875,6.06625 C32.51375,4.198125 33.760625,2.028125 35.625,0.785 C36.26,0.361875 36.984375,0.06375 37.749375,-0.13875 M41.25,5.785 C34.461875,5.785 28.92,11.22375 28.75375,17.9725 C28.92,24.72125 34.461875,30.16 41.25,30.16 C48.038125,30.16 53.58,24.72125 53.74625,17.9725 C53.58,11.22375 48.038125,5.785 41.25,5.785" id="path850" fill="url(#linearGradient-1)" sketch:type="MSShapeGroup" transform="translate(41.250000, 18.455000) scale(1, -1) translate(-41.250000, -18.455000) "></path>
                <path d="M60,18.625 C60,8.27 51.605,-0.125 41.25,-0.125 C30.895,-0.125 22.5,8.27 22.5,18.625 C22.5,28.98 30.895,37.375 41.25,37.375 C51.605,37.375 60,28.98 60,18.625" id="path896-2" fill="url(#linearGradient-2)" sketch:type="MSShapeGroup" transform="translate(41.250000, 18.625000) scale(1, -1) translate(-41.250000, -18.625000) "></path>
                <path d="M41.25,34.25 C32.965625,34.25 26.25,27.534375 26.25,19.25 C26.25,10.965625 32.965625,4.25 41.25,4.25 C49.534375,4.25 56.25,10.965625 56.25,19.25 C56.25,27.534375 49.534375,34.25 41.25,34.25 M41.25,31.75 C48.1425,31.75 53.75,26.1425 53.75,19.25 C53.75,12.3575 48.1425,6.75 41.25,6.75 C34.3575,6.75 28.75,12.3575 28.75,19.25 C28.75,26.1425 34.3575,31.75 41.25,31.75" id="path852" fill="#EDEDED" sketch:type="MSShapeGroup" transform="translate(41.250000, 19.250000) scale(1, -1) translate(-41.250000, -19.250000) "></path>
                <path d="M41.25,33.625 C32.965625,33.625 26.25,26.909375 26.25,18.625 C26.25,10.340625 32.965625,3.625 41.25,3.625 C49.534375,3.625 56.25,10.340625 56.25,18.625 C56.25,26.909375 49.534375,33.625 41.25,33.625 M41.25,31.125 C48.1425,31.125 53.75,25.5175 53.75,18.625 C53.75,11.7325 48.1425,6.125 41.25,6.125 C34.3575,6.125 28.75,11.7325 28.75,18.625 C28.75,25.5175 34.3575,31.125 41.25,31.125" id="path854" fill="#AEB8B7" sketch:type="MSShapeGroup" transform="translate(41.250000, 18.625000) scale(1, -1) translate(-41.250000, -18.625000) "></path>
                <path d="M35.675,22.343125 L35.6375,22.343125 L33.3125,21.2375 L32.84375,23.374375 L36.068125,24.874375 L38.430625,24.874375 L38.430625,12.6875 L35.675,12.6875 L35.675,22.343125" id="path856" fill="#AEB8B7" sketch:type="MSShapeGroup" transform="translate(35.625000, 18.781250) scale(1, -1) translate(-35.625000, -18.781250) "></path>
                <path d="M43.249375,18.7375 C43.230625,15.94375 43.905625,14.6125 45.0125,14.6125 C46.118125,14.6125 46.718125,16 46.718125,18.775 C46.718125,21.475 46.136875,22.899375 44.993125,22.899375 C43.94375,22.899375 43.230625,21.56875 43.249375,18.7375 L43.249375,18.7375 Z M49.568125,18.8125 C49.568125,15.04375 48.049375,12.45625 44.936875,12.45625 C41.786875,12.45625 40.4,15.2875 40.380625,18.7375 C40.380625,22.261875 41.88125,25.055625 45.030625,25.055625 C48.293125,25.055625 49.568125,22.149375 49.568125,18.8125 L49.568125,18.8125 Z" id="path858" fill="#AEB8B7" sketch:type="MSShapeGroup" transform="translate(44.974375, 18.768750) scale(1, -1) translate(-44.974375, -18.768750) "></path>
                <path d="M40.985,36.7375 C39.911875,36.7375 38.7925,36.8375 37.749375,37.11375 C38.88375,36.899375 40.05375,36.7875 41.25,36.7875 C42.960625,36.7875 44.61875,37.016875 46.19375,37.44625 L46.25,37.4125 C46.25,37.4125 43.775,36.7375 40.985,36.7375" id="path860" fill="#CACACA" sketch:type="MSShapeGroup" transform="translate(41.999375, 37.081250) scale(1, -1) translate(-41.999375, -37.081250) "></path>
                <path d="M41.25,30.8125 C40.05375,30.8125 38.88375,30.924375 37.749375,31.13875 C36.984375,31.34125 36.26,31.639375 35.625,32.0625 C33.760625,33.305625 32.51375,35.475625 31.731875,37.34375 C34.32125,35.215 37.63625,33.9375 41.25,33.9375 C41.518125,33.9375 41.78375,33.944375 42.04875,33.95875 L46.19375,31.47125 C44.61875,31.041875 42.960625,30.8125 41.25,30.8125" id="path868" sketch:type="MSShapeGroup" transform="translate(38.950625, 34.093750) scale(1, -1) translate(-38.950625, -34.093750) "></path>
                <path d="M41.25,30.8125 C40.05375,30.8125 38.88375,30.924375 37.749375,31.13875 C36.984375,31.34125 36.26,31.639375 35.625,32.0625 C33.760625,33.305625 32.51375,35.475625 31.731875,37.34375 C34.32125,35.215 37.63625,33.9375 41.25,33.9375 C41.518125,33.9375 41.78375,33.944375 42.04875,33.95875 L46.19375,31.47125 C44.61875,31.041875 42.960625,30.8125 41.25,30.8125" id="path876" fill="url(#linearGradient-3)" sketch:type="MSShapeGroup" transform="translate(38.950625, 34.093750) scale(1, -1) translate(-38.950625, -34.093750) "></path>
                <path d="M41.25,29.9375 C37.63625,29.9375 34.32125,31.215 31.731875,33.34375 C31.596875,33.66625 31.475625,33.98 31.3675,34.278125 C33.9575,32.0075 37.33625,30.615 41.039375,30.56375 L42.04875,29.95875 C41.78375,29.944375 41.518125,29.9375 41.25,29.9375" id="path878" fill="#BBBBBB" sketch:type="MSShapeGroup" transform="translate(36.711250, 32.093750) scale(1, -1) translate(-36.711250, -32.093750) "></path>
                <path d="M41.039375,27.37375 C37.33625,27.425 33.9575,28.8175 31.3675,31.088125 C30.8425,32.53625 30.625,33.6225 30.625,33.6225 L41.039375,27.37375" id="path880" fill="#8A9291" sketch:type="MSShapeGroup" transform="translate(35.843750, 30.498750) scale(1, -1) translate(-35.843750, -30.498750) "></path>
                <path d="M37.5,41.125 C37.5,30.77 29.105,22.375 18.75,22.375 C8.395,22.375 0,30.77 0,41.125 C0,51.48 8.395,59.875 18.75,59.875 C29.105,59.875 37.5,51.48 37.5,41.125" id="path896" fill="url(#linearGradient-4)" sketch:type="MSShapeGroup" transform="translate(18.750000, 41.125000) scale(1, -1) translate(-18.750000, -41.125000) "></path>
                <path d="M18.75,56.75 C10.465625,56.75 3.75,50.034375 3.75,41.75 C3.75,33.465625 10.465625,26.75 18.75,26.75 C27.034375,26.75 33.75,33.465625 33.75,41.75 C33.75,50.034375 27.034375,56.75 18.75,56.75 L18.75,56.75 Z M18.75,54.25 C25.6425,54.25 31.25,48.6425 31.25,41.75 C31.25,34.8575 25.6425,29.25 18.75,29.25 C11.8575,29.25 6.25,34.8575 6.25,41.75 C6.25,48.6425 11.8575,54.25 18.75,54.25 L18.75,54.25 Z" id="path898" fill="#FFD75C" sketch:type="MSShapeGroup" transform="translate(18.750000, 41.750000) scale(1, -1) translate(-18.750000, -41.750000) "></path>
                <path d="M18.75,56.125 C10.465625,56.125 3.75,49.409375 3.75,41.125 C3.75,32.840625 10.465625,26.125 18.75,26.125 C27.034375,26.125 33.75,32.840625 33.75,41.125 C33.75,49.409375 27.034375,56.125 18.75,56.125 L18.75,56.125 Z M18.75,53.625 C25.6425,53.625 31.25,48.0175 31.25,41.125 C31.25,34.2325 25.6425,28.625 18.75,28.625 C11.8575,28.625 6.25,34.2325 6.25,41.125 C6.25,48.0175 11.8575,53.625 18.75,53.625 L18.75,53.625 Z" id="path900" fill="#E3AB00" sketch:type="MSShapeGroup" transform="translate(18.750000, 41.125000) scale(1, -1) translate(-18.750000, -41.125000) "></path>
                <path d="M23.508125,45.9625 L17.680625,45.9625 L17.356875,43.65 C17.680625,43.69625 17.9575,43.69625 18.3275,43.69625 C19.761875,43.69625 21.21875,43.3725 22.2825,42.609375 C23.415625,41.84625 24.109375,40.5975 24.109375,38.84 C24.109375,36.04125 21.704375,33.566875 17.6575,33.566875 C15.83,33.566875 14.30375,33.983125 13.47125,34.4225 L14.095625,37.05875 C14.76625,36.735 16.13125,36.31875 17.495625,36.31875 C18.951875,36.31875 20.501875,37.0125 20.501875,38.60875 C20.501875,40.158125 19.27625,41.10625 16.269375,41.10625 C15.436875,41.10625 14.85875,41.06 14.234375,40.9675 L15.22875,48.85375 L23.508125,48.85375 L23.508125,45.9625" id="path902" fill="#DBA500" sketch:type="MSShapeGroup" transform="translate(18.783750, 41.223125) scale(1, -1) translate(-18.783750, -41.223125) "></path>
                <path d="M22.318125,18.641875 L13.678125,21.7075 C13.03,21.936875 12.695,21.5975 12.933125,20.9525 L13.974375,18.133125 C7.41875,15.27625 3.125,8.698125 3.125,0.875 L9.375,0.875 C9.375,5.975 12.043125,10.275 16.149375,12.24625 L17.243125,9.284375 C17.48125,8.639375 17.956875,8.599375 18.3,9.195 L22.8725,17.140625 C23.215625,17.736875 22.96625,18.4125 22.318125,18.641875" id="path904" fill="#3A556C" sketch:type="MSShapeGroup" transform="translate(13.062500, 11.312500) scale(1, -1) translate(-13.062500, -11.312500) "></path>
                <path d="M57.24625,58.9334078 L50.99625,58.9334078 C50.99625,53.8334078 48.328125,49.5334078 44.221875,47.5621578 L43.128125,50.5240328 C42.889375,51.1690328 42.41375,51.2090328 42.070625,50.6127828 L37.49875,42.6677828 C37.155625,42.0715328 37.405625,41.3959078 38.053125,41.1665328 L46.693125,38.1009078 C47.340625,37.8715328 47.67625,38.2109078 47.4375,38.8559078 L46.39625,41.6752828 C52.9525,44.5321578 57.24625,51.1102828 57.24625,58.9334078" id="path906" fill="#DF413D" sketch:type="MSShapeGroup" transform="translate(47.282266, 48.466704) scale(1, -1) translate(-47.282266, -48.466704) "></path>
            </g>
        </g>
    </g>
</svg>