<?xml version="1.0" encoding="UTF-8" standalone="no"?>
<svg width="60px" height="61px" viewBox="0 0 60 61" version="1.1" xmlns="http://www.w3.org/2000/svg" xmlns:xlink="http://www.w3.org/1999/xlink" xmlns:sketch="http://www.bohemiancoding.com/sketch/ns">
    <!-- Generator: Sketch 3.2 (9961) - http://www.bohemiancoding.com/sketch -->
    <title>ico-work-31</title>
    <desc>Created with Sketch.</desc>
    <defs>
        <linearGradient x1="33.7033708%" y1="93.5451613%" x2="57.5339326%" y2="11.0062366%" id="linearGradient-1">
            <stop stop-color="#E6E6E6" offset="0%"></stop>
            <stop stop-color="#DBDBDB" offset="100%"></stop>
        </linearGradient>
        <linearGradient x1="0%" y1="50%" x2="100%" y2="50%" id="linearGradient-2">
            <stop stop-color="#F5CA3F" offset="0%"></stop>
            <stop stop-color="#EEC02D" offset="100%"></stop>
        </linearGradient>
        <linearGradient x1="0%" y1="50%" x2="100%" y2="50%" id="linearGradient-3">
            <stop stop-color="#F2F2F2" offset="0%"></stop>
            <stop stop-color="#EBEBEB" offset="100%"></stop>
        </linearGradient>
        <linearGradient x1="-145.85%" y1="228.55%" x2="-57.4783333%" y2="-319.744286%" id="linearGradient-4">
            <stop stop-color="#9E9E9E" offset="0%"></stop>
            <stop stop-color="#979797" offset="100%"></stop>
        </linearGradient>
        <linearGradient x1="37.15%" y1="50%" x2="100.0711%" y2="50%" id="linearGradient-5">
            <stop stop-color="#E6E6E6" offset="0%"></stop>
            <stop stop-color="#DBDBDB" offset="100%"></stop>
        </linearGradient>
    </defs>
    <g id="Welcome" stroke="none" stroke-width="1" fill="none" fill-rule="evenodd" sketch:type="MSPage">
        <g id="tangerine" sketch:type="MSArtboardGroup" transform="translate(-521.000000, -1996.000000)">
            <g id="ico-work-31" sketch:type="MSLayerGroup" transform="translate(521.000000, 1997.000000)">
                <path d="M60,1.125 L4.375,1.125 L4.375,22.338125 L4.375,59.25 L45,59.25 L60,44.25 L45,44.25 L47.143125,43 L37.5,43 L37.5,41.125 L50.356875,41.125 L60,35.5 L60,22.338125 L60,1.125" id="path522" sketch:type="MSShapeGroup" transform="translate(32.187500, 30.187500) scale(1, -1) translate(-32.187500, -30.187500) "></path>
                <path d="M60,1.125 L4.375,1.125 L4.375,59.25 L45,59.25 L60,44.25 L45,44.25 L47.143125,43 L37.5,43 L37.5,41.125 L50.356875,41.125 L60,35.5 L60,1.125" id="path530" fill="url(#linearGradient-1)" sketch:type="MSShapeGroup" transform="translate(32.187500, 30.187500) scale(1, -1) translate(-32.187500, -30.187500) "></path>
                <path d="M48.125,6.75 L11.875,6.75 L11.875,11.75 L48.125,11.75 L48.125,6.75 L48.125,6.75 Z" id="path538" sketch:type="MSShapeGroup" transform="translate(30.000000, 9.250000) scale(1, -1) translate(-30.000000, -9.250000) "></path>
                <path d="M11.875,6.75 L48.125,6.75 L48.125,11.75 L11.875,11.75 L11.875,6.75 L11.875,6.75 Z" id="path546" fill="url(#linearGradient-2)" sketch:type="MSShapeGroup" transform="translate(30.000000, 9.250000) scale(1, -1) translate(-30.000000, -9.250000) "></path>
                <path d="M11.875,38 L53.75,38 L53.75,39.875 L11.875,39.875 L11.875,38 L11.875,38 Z" id="path548" fill="#838A89" sketch:type="MSShapeGroup" transform="translate(32.812500, 38.937500) scale(1, -1) translate(-32.812500, -38.937500) "></path>
                <path d="M37.5,17.375 L53.75,17.375 L53.75,19.25 L37.5,19.25 L37.5,17.375 L37.5,17.375 Z" id="path550" fill="#AEB8B7" sketch:type="MSShapeGroup" transform="translate(45.625000, 18.312500) scale(1, -1) translate(-45.625000, -18.312500) "></path>
                <path d="M37.5,21.75 L53.75,21.75 L53.75,23.625 L37.5,23.625 L37.5,21.75 L37.5,21.75 Z" id="path552" fill="#AEB8B7" sketch:type="MSShapeGroup" transform="translate(45.625000, 22.687500) scale(1, -1) translate(-45.625000, -22.687500) "></path>
                <path d="M37.5,26.125 L53.75,26.125 L53.75,28 L37.5,28 L37.5,26.125 L37.5,26.125 Z" id="path554" fill="#AEB8B7" sketch:type="MSShapeGroup" transform="translate(45.625000, 27.062500) scale(1, -1) translate(-45.625000, -27.062500) "></path>
                <path d="M37.5,30.5 L45,30.5 L45,32.375 L37.5,32.375 L37.5,30.5 L37.5,30.5 Z" id="path556" fill="#AEB8B7" sketch:type="MSShapeGroup" transform="translate(41.250000, 31.437500) scale(1, -1) translate(-41.250000, -31.437500) "></path>
                <path d="M37.5,44.875 L53.75,44.875 L53.75,46.75 L37.5,46.75 L37.5,44.875 L37.5,44.875 Z" id="path558" fill="#AEB8B7" sketch:type="MSShapeGroup" transform="translate(45.625000, 45.812500) scale(1, -1) translate(-45.625000, -45.812500) "></path>
                <path d="M37.5,49.25 L45,49.25 L45,51.125 L37.5,51.125 L37.5,49.25 L37.5,49.25 Z" id="path560" fill="#AEB8B7" sketch:type="MSShapeGroup" transform="translate(41.250000, 50.187500) scale(1, -1) translate(-41.250000, -50.187500) "></path>
                <path d="M45,16.125 L60,1.125 L45,1.125 L45,16.125 L45,16.125 Z" id="path568" sketch:type="MSShapeGroup" transform="translate(52.500000, 8.625000) scale(1, -1) translate(-52.500000, -8.625000) "></path>
                <path d="M45,16.125 L60,1.125 L45,1.125 L45,16.125" id="path576" fill="url(#linearGradient-3)" sketch:type="MSShapeGroup" transform="translate(52.500000, 8.625000) scale(1, -1) translate(-52.500000, -8.625000) "></path>
                <path d="M60,16.125 L50.356875,21.75 L53.75,21.75 L53.75,23.625 L47.143125,23.625 L45,24.875 L60,24.875 L60,16.125" id="path584" sketch:type="MSShapeGroup" transform="translate(52.500000, 20.500000) scale(1, -1) translate(-52.500000, -20.500000) "></path>
                <path d="M60,16.125 L50.356875,21.75 L53.75,21.75 L53.75,23.625 L47.143125,23.625 L45,24.875 L60,24.875 L60,16.125" id="path592" fill="url(#linearGradient-4)" sketch:type="MSShapeGroup" transform="translate(52.500000, 20.500000) scale(1, -1) translate(-52.500000, -20.500000) "></path>
                <path d="M53.75,17.375 L50.356875,17.375 L47.143125,19.25 L53.75,19.25 L53.75,17.375" id="path594" fill="#777E7E" sketch:type="MSShapeGroup" transform="translate(50.455625, 18.312500) scale(1, -1) translate(-50.455625, -18.312500) "></path>
                <path d="M23.125,24.22625 L23.125,15.4375 L31.914375,15.4375 C31.914375,20.291875 27.979375,24.22625 23.125,24.22625" id="path596" fill="#DF413D" sketch:type="MSShapeGroup" transform="translate(27.531250, 19.843750) scale(1, -1) translate(-27.531250, -19.843750) "></path>
                <path d="M21.875,24.813125 L21.875,34.25 C17.020625,34.25 13.125,30.393125 13.125,25.53875 C13.125,20.685 17.06,16.75 21.914375,16.75 C24.1075,16.75 26.106875,17.560625 27.645625,18.889375 L21.875,24.813125" id="path598" fill="#4C96A1" sketch:type="MSShapeGroup" transform="translate(20.375000, 25.500000) scale(1, -1) translate(-20.375000, -25.500000) "></path>
                <path d="M23.125,31.776875 L29.339375,25.5625 C30.93,27.1525 31.914375,29.35 31.914375,31.776875 L23.125,31.776875" id="path600" fill="#F5773E" sketch:type="MSShapeGroup" transform="translate(27.531250, 28.656250) scale(1, -1) translate(-27.531250, -28.656250) "></path>
                <path d="M12.5,49.875 L15,49.875 L15,51.75 L12.5,51.75 L12.5,49.875 L12.5,49.875 Z" id="path602" fill="#AEB8B7" sketch:type="MSShapeGroup" transform="translate(13.750000, 50.812500) scale(1, -1) translate(-13.750000, -50.812500) "></path>
                <path d="M16.25,48.625 L18.75,48.625 L18.75,51.75 L16.25,51.75 L16.25,48.625 L16.25,48.625 Z" id="path604" fill="#AEB8B7" sketch:type="MSShapeGroup" transform="translate(17.500000, 50.187500) scale(1, -1) translate(-17.500000, -50.187500) "></path>
                <path d="M20,47.375 L22.5,47.375 L22.5,51.75 L20,51.75 L20,47.375 L20,47.375 Z" id="path606" fill="#AEB8B7" sketch:type="MSShapeGroup" transform="translate(21.250000, 49.562500) scale(1, -1) translate(-21.250000, -49.562500) "></path>
                <path d="M23.75,45.5 L26.25,45.5 L26.25,51.75 L23.75,51.75 L23.75,45.5 L23.75,45.5 Z" id="path608" fill="#AEB8B7" sketch:type="MSShapeGroup" transform="translate(25.000000, 48.625000) scale(1, -1) translate(-25.000000, -48.625000) "></path>
                <path d="M27.5,43.625 L30,43.625 L30,51.75 L27.5,51.75 L27.5,43.625 L27.5,43.625 Z" id="path610" fill="#AEB8B7" sketch:type="MSShapeGroup" transform="translate(28.750000, 47.687500) scale(1, -1) translate(-28.750000, -47.687500) "></path>
                <path d="M4.375,58.625 L60,58.625 L60,59.875 L4.375,59.875 L4.375,58.625 L4.375,58.625 Z" id="path612" fill="#AEB8B7" sketch:type="MSShapeGroup" transform="translate(32.187500, 59.250000) scale(1, -1) translate(-32.187500, -59.250000) "></path>
                <path d="M6.25,56.735 C6.25,57.745 5.40625,58.61 4.375,58.61 L1.875,58.61 C0.84375,58.61 0,57.784375 0,56.77375 L0,1.735 C0,0.725 0.84375,-0.10125 1.875,-0.10125 L4.375,-0.10125 C5.40625,-0.10125 6.25,0.725 6.25,1.735 L6.25,56.735 L6.25,56.735 Z" id="path620" sketch:type="MSShapeGroup" transform="translate(3.125000, 29.242500) scale(1, -1) translate(-3.125000, -29.242500) "></path>
                <path d="M6.25,56.735 C6.25,57.745 5.40625,58.61 4.375,58.61 L1.875,58.61 C0.84375,58.61 0,57.784375 0,56.77375 L0,1.735 C0,0.725 0.84375,-0.10125 1.875,-0.10125 L4.375,-0.10125 C5.40625,-0.10125 6.25,0.725 6.25,1.735 L6.25,56.735" id="path628" fill="url(#linearGradient-5)" sketch:type="MSShapeGroup" transform="translate(3.125000, 29.242500) scale(1, -1) translate(-3.125000, -29.242500) "></path>
                <path d="M4.375,-0.10125 C5.40625,-0.10125 6.25,0.725 6.25,1.735 L6.25,56.77375 C6.25,57.784375 5.40625,58.61 4.375,58.61 L4.375,-0.10125" id="path630" fill="#CFCFCF" sketch:type="MSShapeGroup" transform="translate(5.312500, 29.242500) scale(1, -1) translate(-5.312500, -29.242500) "></path>
                <path d="M4.375,56.75 L60,56.75 L60,58 L4.375,58 L4.375,56.75 L4.375,56.75 Z" id="path632" fill="#AEB8B7" sketch:type="MSShapeGroup" transform="translate(32.187500, 57.375000) scale(1, -1) translate(-32.187500, -57.375000) "></path>
                <path d="M1.875,56.125 C1.185625,56.125 0.625,56.685625 0.625,57.375 L0.625,58 C0.625,58.689375 1.185625,59.25 1.875,59.25 L4.375,59.25 C5.064375,59.25 5.625,58.689375 5.625,58 L5.625,57.375 C5.625,56.685625 5.064375,56.125 4.375,56.125 L1.875,56.125" id="path634" fill="#CFCFCF" sketch:type="MSShapeGroup" transform="translate(3.125000, 57.687500) scale(1, -1) translate(-3.125000, -57.687500) "></path>
                <path d="M4.375,59.875 L1.875,59.875 C0.84375,59.875 0,59.03125 0,58 L0,57.375 C0,56.34375 0.84375,55.5 1.875,55.5 L4.375,55.5 C5.40625,55.5 6.25,56.34375 6.25,57.375 L6.25,58 C6.25,59.03125 5.40625,59.875 4.375,59.875 L4.375,59.875 Z M4.375,58.625 C4.71375,58.625 5,58.33875 5,58 L5,57.375 C5,57.03625 4.71375,56.75 4.375,56.75 L1.875,56.75 C1.53625,56.75 1.25,57.03625 1.25,57.375 L1.25,58 C1.25,58.33875 1.53625,58.625 1.875,58.625 L4.375,58.625 L4.375,58.625 Z" id="path636" fill="#AEB8B7" sketch:type="MSShapeGroup" transform="translate(3.125000, 57.687500) scale(1, -1) translate(-3.125000, -57.687500) "></path>
                <path d="M4.375,58 L60,58 L60,58.625 L4.375,58.625 L4.375,58 L4.375,58 Z" id="path638" fill="#CFCFCF" sketch:type="MSShapeGroup" transform="translate(32.187500, 58.312500) scale(1, -1) translate(-32.187500, -58.312500) "></path>
            </g>
        </g>
    </g>
</svg>