<?xml version="1.0" encoding="UTF-8" standalone="no"?>
<svg width="60px" height="61px" viewBox="0 0 60 61" version="1.1" xmlns="http://www.w3.org/2000/svg" xmlns:xlink="http://www.w3.org/1999/xlink" xmlns:sketch="http://www.bohemiancoding.com/sketch/ns">
    <!-- Generator: Sketch 3.2 (9961) - http://www.bohemiancoding.com/sketch -->
    <title>ico-work-41</title>
    <desc>Created with Sketch.</desc>
    <defs>
        <linearGradient x1="-17.2528449%" y1="33.9207247%" x2="97.8456982%" y2="11.4022151%" id="linearGradient-1">
            <stop stop-color="#F5CA3F" offset="0%"></stop>
            <stop stop-color="#EEC02D" offset="100%"></stop>
        </linearGradient>
        <linearGradient x1="18.1393713%" y1="54.5433097%" x2="79.1215499%" y2="48.2879676%" id="linearGradient-2">
            <stop stop-color="#E6E6E6" offset="0%"></stop>
            <stop stop-color="#C9C9C9" offset="100%"></stop>
        </linearGradient>
        <linearGradient x1="0%" y1="49.9970817%" x2="100.00129%" y2="49.9970817%" id="linearGradient-3">
            <stop stop-color="#E6E6E6" offset="0%"></stop>
            <stop stop-color="#DBDBDB" offset="100%"></stop>
        </linearGradient>
        <linearGradient x1="-154.171585%" y1="209.335658%" x2="176.646545%" y2="64.4199109%" id="linearGradient-4">
            <stop stop-color="#C2A032" offset="0%"></stop>
            <stop stop-color="#BC9824" offset="100%"></stop>
        </linearGradient>
    </defs>
    <g id="Welcome" stroke="none" stroke-width="1" fill="none" fill-rule="evenodd" sketch:type="MSPage">
        <g id="tangerine" sketch:type="MSArtboardGroup" transform="translate(-519.000000, -2080.000000)">
            <g id="ico-work-41" sketch:type="MSLayerGroup" transform="translate(519.000000, 2081.000000)">
                <path d="M29.6857438,0.11875 L22.4518388,3.0825 C22.9203099,4.41 23.1016736,6.023125 23.1118388,7.378125 C22.2082438,8.02875 21.401219,8.970625 20.6025,10.193125 C19.4504752,11.945625 18.3202066,13.316875 17.4161157,15.591875 C16.8399174,15.6675 16.1897727,16.116875 15.8404339,16.7125 C14.4639669,19.0575 13.7528306,22.75 14.1995455,23.924375 C14.4445661,24.57375 15.1402066,24.7275 15.7181405,24.73875 C15.3828099,33.149375 19.4492355,38.17375 24.5984504,40.070625 C25.7509711,40.543125 25.6020868,40.596875 28.304876,41.293125 C29.3072727,41.55125 30.5743388,41.65125 31.5164256,41.65125 C31.972562,41.65125 32.3522107,41.6275 32.5890496,41.5875 C33.2480579,41.465 35.7044008,40.115 35.3119215,39.27125 C35.3215909,39.276875 35.8560124,39.4225 36.536343,39.4225 C37.5401653,39.4225 38.8617769,39.105 39.2869835,37.55 C39.4214876,37.425625 39.5423554,37.53375 39.367562,37.358125 C41.4619835,35.77375 44.1923554,30.966875 43.9469008,24.74375 C43.9809917,24.744375 44.0163223,24.745 44.0516529,24.745 C44.6404959,24.745 45.3762397,24.600625 45.6285124,23.931875 C46.0791322,22.75625 45.3663223,19.07125 43.9909091,16.72625 C43.6146694,16.08375 42.8882231,15.6275 42.2820248,15.61125 C41.4006198,13.33875 40.3004132,11.993125 39.1524793,10.244375 C38.2679752,8.8975 37.3765289,7.946875 36.352314,7.2875 C36.3847934,6.1425 36.5380165,4.92125 36.9380579,3.909375 L36.9068182,3.938125 L29.7237397,0.184375 L29.7464876,0.15 L29.6857438,0.11875 M25.5999174,5.94125 L30.678905,0.696875 L36.6278926,3.8125 C36.6278926,3.8125 35.9879132,6.305 36.1419421,7.150625 C36.1419421,7.150625 33.3088636,4.9575 29.8932025,4.9575 C27.9409711,4.9575 25.5999174,5.94125 25.5999174,5.94125" id="path92" sketch:type="MSShapeGroup" transform="translate(29.903288, 20.900000) scale(1, -1) translate(-29.903288, -20.900000) "></path>
                <path d="M29.6857438,0.11875 L22.4518388,3.0825 C22.9203099,4.41 23.1016736,6.023125 23.1118388,7.378125 C22.2082438,8.02875 21.401219,8.970625 20.6025,10.193125 C19.4504752,11.945625 18.3202066,13.316875 17.4161157,15.591875 C16.8399174,15.6675 16.1897727,16.116875 15.8404339,16.7125 C14.4639669,19.0575 13.7528306,22.75 14.1995455,23.924375 C14.4445661,24.57375 15.1402066,24.7275 15.7181405,24.73875 C15.3828099,33.149375 19.4492355,38.17375 24.5984504,40.070625 C25.7509711,40.543125 25.6020868,40.596875 28.304876,41.293125 C29.3072727,41.55125 30.5743388,41.65125 31.5164256,41.65125 C31.972562,41.65125 32.3522107,41.6275 32.5890496,41.5875 C33.2480579,41.465 35.7044008,40.115 35.3119215,39.27125 C35.3215909,39.276875 35.8560124,39.4225 36.536343,39.4225 C37.5401653,39.4225 38.8617769,39.105 39.2869835,37.55 C39.4214876,37.425625 39.5423554,37.53375 39.367562,37.358125 C41.4619835,35.77375 44.1923554,30.966875 43.9469008,24.74375 C43.9809917,24.744375 44.0163223,24.745 44.0516529,24.745 C44.6404959,24.745 45.3762397,24.600625 45.6285124,23.931875 C46.0791322,22.75625 45.3663223,19.07125 43.9909091,16.72625 C43.6146694,16.08375 42.8882231,15.6275 42.2820248,15.61125 C41.4006198,13.33875 40.3004132,11.993125 39.1524793,10.244375 C38.2679752,8.8975 37.3765289,7.946875 36.352314,7.2875 C36.3847934,6.1425 36.5380165,4.92125 36.9380579,3.909375 L36.9068182,3.938125 L29.7237397,0.184375 L29.7464876,0.15 L29.6857438,0.11875 M25.5999174,5.94125 L30.678905,0.696875 L36.6278926,3.8125 C36.6278926,3.8125 35.9879132,6.305 36.1419421,7.150625 C36.1419421,7.150625 33.3088636,4.9575 29.8932025,4.9575 C27.9409711,4.9575 25.5999174,5.94125 25.5999174,5.94125" id="path100" fill="url(#linearGradient-1)" sketch:type="MSShapeGroup" transform="translate(29.903288, 20.900000) scale(1, -1) translate(-29.903288, -20.900000) "></path>
                <path d="M20.5964256,57.074375 C21.4636983,57.401875 22.0467769,58.15125 22.4321901,59.103125 L29.6857438,56.13125 L36.9688017,59.849375 C37.3784504,58.853125 38.0342975,58.069375 39.0619835,57.7825 C42.9477273,56.699375 57.131405,52.41375 58.8867769,47.01125 C59.9386364,43.775 59.9386364,42.224375 59.9386364,42.224375 C59.9386364,39.893125 59.8971074,37.9375 57.386157,37.9375 L2.51157025,37.9375 C0.00142561983,37.9375 0.195371901,40.781875 0.289090909,42.095 C0.36464876,43.150625 0.805785124,45.229375 1.44985537,47.049375 C3.05900826,51.598125 14.3005165,54.70375 20.5964256,57.074375" id="path102" fill="#5C8094" sketch:type="MSShapeGroup" transform="translate(30.087579, 48.906250) scale(1, -1) translate(-30.087579, -48.906250) "></path>
                <path d="M29.6280992,55.480625 L29.6087603,55.785625 L36.742376,59.84625 C37.1525826,58.850625 38.1260331,58.256875 39.153719,57.97 C43.0400826,56.886875 57.1772727,52.60125 58.9326446,47.19875 C59.985124,43.9625 59.9615702,42.411875 59.9615702,42.411875 C59.9615702,40.080625 59.7929752,38.125 57.2820248,38.125 L29.6280992,38.125 L29.6280992,55.480625" id="path104" fill="#3A556C" sketch:type="MSShapeGroup" transform="translate(44.794711, 49.000000) scale(1, -1) translate(-44.794711, -49.000000) "></path>
                <path d="M29.6087603,59.49375 L20.5073554,57.733125 L26.0141529,41.284375 L33.5988843,41.284375 L38.4818182,55.8475 L37.4433471,59.828125 L29.6087603,59.49375 L29.6087603,59.49375 Z" id="path112" sketch:type="MSShapeGroup" transform="translate(29.494959, 50.565625) scale(1, -1) translate(-29.494959, -50.565625) "></path>
                <path d="M29.6087603,59.49375 L20.5073554,57.733125 L26.0141529,41.284375 L33.5988843,41.284375 L38.4818182,55.8475 L37.4433471,59.828125 L29.6087603,59.49375" id="path120" fill="url(#linearGradient-2)" sketch:type="MSShapeGroup" transform="translate(29.494959, 50.565625) scale(1, -1) translate(-29.494959, -50.565625) "></path>
                <path d="M27.768595,59.875 L25.2892562,49.25 L34.5867769,49.25 L31.4876033,59.875 L27.768595,59.875" id="path122" fill="#5BB9C9" sketch:type="MSShapeGroup" transform="translate(29.938017, 54.562500) scale(1, -1) translate(-29.938017, -54.562500) "></path>
                <path d="M29.6857438,49.25 L34.5867769,49.25 L31.4876033,59.875 L29.6857438,59.875 L29.6857438,49.25" id="path124" fill="#50A4B3" sketch:type="MSShapeGroup" transform="translate(32.134091, 54.562500) scale(1, -1) translate(-32.134091, -54.562500) "></path>
                <path d="M32.8853926,44.92125 C32.6846281,43.91 31.683719,43.083125 30.6609917,43.083125 L28.5952066,43.083125 C27.5724793,43.083125 26.5715702,43.91 26.3708058,44.92125 L25.653905,48.53625 C25.4532025,49.5475 26.1260331,50.374375 27.1487603,50.374375 L32.107438,50.374375 C33.1301653,50.374375 33.8029959,49.5475 33.6022934,48.53625 L32.8853926,44.92125" id="path126" fill="#5BB9C9" sketch:type="MSShapeGroup" transform="translate(29.616416, 46.739375) scale(1, -1) translate(-29.616416, -46.739375) "></path>
                <path d="M34.3785744,37.8825 L29.9820868,44.450625 L29.7464876,44.8025 L29.7237397,44.836875 L36.9068182,48.590625 L36.9380579,48.561875 L39.2950413,46.383125 L39.3340909,46.346875 L34.3785744,37.8825" id="path134" sketch:type="MSShapeGroup" transform="translate(34.527459, 43.226250) scale(1, -1) translate(-34.527459, -43.226250) "></path>
                <path d="M34.3785744,37.8825 L29.9820868,44.450625 L29.7464876,44.8025 L29.7237397,44.836875 L36.9068182,48.590625 L36.9380579,48.561875 L39.2950413,46.383125 L39.3340909,46.346875 L34.3785744,37.8825" id="path142" fill="url(#linearGradient-3)" sketch:type="MSShapeGroup" transform="translate(34.527459, 43.226250) scale(1, -1) translate(-34.527459, -43.226250) "></path>
                <path d="M29.6087603,45.065 L25.0204959,37.97625 L19.9390909,45.710625 L22.6767769,48.715 L29.6087603,45.065" id="path144" fill="#FFFFFF" sketch:type="MSShapeGroup" transform="translate(24.773802, 43.351250) scale(1, -1) translate(-24.773802, -43.351250) "></path>
                <path d="M30.678905,34.665625 L25.5999174,39.91 C25.5999174,39.91 27.9409711,38.92625 29.8932025,38.92625 C33.3088636,38.92625 36.1419421,41.119375 36.1419421,41.119375 C35.9879132,40.27375 36.6278926,37.78125 36.6278926,37.78125 L30.678905,34.665625" id="path152" sketch:type="MSShapeGroup" transform="translate(31.116446, 37.884375) scale(1, -1) translate(-31.116446, -37.884375) "></path>
                <path d="M30.678905,34.665625 L25.5999174,39.91 C25.5999174,39.91 27.9409711,38.92625 29.8932025,38.92625 C33.3088636,38.92625 36.1419421,41.119375 36.1419421,41.119375 C35.9879132,40.27375 36.6278926,37.78125 36.6278926,37.78125 L30.678905,34.665625" id="path160" fill="url(#linearGradient-4)" sketch:type="MSShapeGroup" transform="translate(31.116446, 37.884375) scale(1, -1) translate(-31.116446, -37.884375) "></path>
                <path d="M38.5171488,59.853125 L32.313719,39.310625 L36.9886364,39.310625 L40.9128099,47.13125 L38.0181818,49.539375 L41.9640496,49.45625 L42.3880165,58.215 L38.5171488,59.853125" id="path162" fill="#5C8094" sketch:type="MSShapeGroup" transform="translate(37.365372, 49.591875) scale(1, -1) translate(-37.365372, -49.591875) "></path>
                <path d="M20.8816736,59.87125 L27.1843388,39.873125 L21.7433678,39.873125 L17.6188017,47.761875 L21.1959298,50.54 L16.5672521,50.086875 L17.3986983,57.90125 L20.8816736,59.87125" id="path164" fill="#3E5A73" sketch:type="MSShapeGroup" transform="translate(21.866839, 49.873125) scale(1, -1) translate(-21.866839, -49.873125) "></path>
                <path d="M23.5389669,10.34 C23.5389669,10.34 27.8124174,7.726875 36.7099587,10.12875 C38.2512397,9.9875 41.6845041,8.503125 40.9134298,5.324375 C40.5632231,3.911875 42.0340909,-0.04375 42.0340909,-0.04375 C42.0340909,-0.04375 43.4070248,1.28875 43.9469008,1.29375 C43.9958678,2.499375 44.3429752,8.93375 39.6508264,13.94625 C39.7921488,14.084375 38.5642562,16.5475 35.9186777,16.313125 C35.4281405,16.94875 34.7482438,18.181875 32.0158884,18.39375 C29.2835331,18.605625 23.7493388,16.76875 22.3482025,15.638125 C21.3671281,15.355625 15.0430785,11.521875 15.7181405,1.28875 L17.4440083,0.23875 C17.4440083,0.23875 19.0555785,3.134375 19.2654545,4.83 C18.704938,6.808125 20.036157,10.905625 23.5389669,10.34" id="path166" fill="#F5773E" sketch:type="MSShapeGroup" transform="translate(29.831051, 9.175000) scale(1, -1) translate(-29.831051, -9.175000) "></path>
            </g>
        </g>
    </g>
</svg>