<?xml version="1.0" encoding="UTF-8" standalone="no"?>
<svg width="60px" height="61px" viewBox="0 0 60 61" version="1.1" xmlns="http://www.w3.org/2000/svg" xmlns:xlink="http://www.w3.org/1999/xlink" xmlns:sketch="http://www.bohemiancoding.com/sketch/ns">
    <!-- Generator: Sketch 3.2 (9961) - http://www.bohemiancoding.com/sketch -->
    <title>ico-work-11</title>
    <desc>Created with Sketch.</desc>
    <defs>
        <linearGradient x1="22.4748366%" y1="91.0920046%" x2="101.2145%" y2="29.2890154%" id="linearGradient-1">
            <stop stop-color="#47C7A7" offset="0%"></stop>
            <stop stop-color="#44BFA0" offset="100%"></stop>
        </linearGradient>
        <linearGradient x1="-22.0181416%" y1="123.450215%" x2="82.8452834%" y2="26.4600286%" id="linearGradient-2">
            <stop stop-color="#34937B" offset="0%"></stop>
            <stop stop-color="#328D76" offset="100%"></stop>
        </linearGradient>
        <linearGradient x1="-45.234054%" y1="160.94678%" x2="249.566732%" y2="-83.7531935%" id="linearGradient-3">
            <stop stop-color="#34937B" offset="0%"></stop>
            <stop stop-color="#328D76" offset="100%"></stop>
        </linearGradient>
    </defs>
    <g id="Welcome" stroke="none" stroke-width="1" fill="none" fill-rule="evenodd" sketch:type="MSPage">
        <g id="tangerine" sketch:type="MSArtboardGroup" transform="translate(-521.000000, -1799.000000)">
            <g id="ico-work-11" sketch:type="MSLayerGroup" transform="translate(521.000000, 1799.000000)">
                <path d="M30.016875,-0.0221848739 C29.58125,-0.0221848739 29.146875,0.121323529 28.80625,0.406890756 L0.7725,23.9561975 C0.241875,24.4017857 -0.11875,25.5862185 0.285625,26.3417647 C0.690625,27.0980672 1.1675,27.3715966 1.89375,27.3715966 L7.5,27.3715966 L7.5,58.2539496 C7.5,59.13 8.3975,60.1447059 9.375,60.1447059 L50.625,60.1447059 C51.60375,60.1447059 52.5,59.13 52.5,58.2539496 L52.5,35.2711765 L38.1275,45.7944958 L20.5475,21.7360084 C20.5475,21.7360084 33.253125,12.3280462 39.624375,7.45563025 L31.226875,0.406890756 C30.888125,0.121323529 30.453125,-0.0221848739 30.016875,-0.0221848739 M24.404375,45.5234874 L18.215625,42.0873529 L18.66375,34.3976471 L25.66,30.3273529 L32.208125,40.4581513 L24.404375,45.5234874" id="path550" sketch:type="MSShapeGroup" transform="translate(26.299671, 30.072353) scale(1, -1) translate(-26.299671, -30.072353) "></path>
                <path d="M30.016875,-0.0221848739 C29.58125,-0.0221848739 29.146875,0.121323529 28.80625,0.406890756 L0.7725,23.9561975 C0.241875,24.4017857 -0.11875,25.5862185 0.285625,26.3417647 C0.690625,27.0980672 1.1675,27.3715966 1.89375,27.3715966 L7.5,27.3715966 L7.5,58.2539496 C7.5,59.13 8.3975,60.1447059 9.375,60.1447059 L50.625,60.1447059 C51.60375,60.1447059 52.5,59.13 52.5,58.2539496 L52.5,35.2711765 L38.1275,45.7944958 L20.5475,21.7360084 C20.5475,21.7360084 33.253125,12.3280462 39.624375,7.45563025 L31.226875,0.406890756 C30.888125,0.121323529 30.453125,-0.0221848739 30.016875,-0.0221848739 M24.404375,45.5234874 L18.215625,42.0873529 L18.66375,34.3976471 L25.66,30.3273529 L32.208125,40.4581513 L24.404375,45.5234874" id="path558" fill="url(#linearGradient-1)" sketch:type="MSShapeGroup" transform="translate(26.299671, 30.072353) scale(1, -1) translate(-26.299671, -30.072353) "></path>
                <path d="M39.624375,14.3697479 C33.253125,19.2421639 20.5475,28.6501261 20.5475,28.6501261 L38.1275,52.7086134 L52.5,42.1852941 L52.5,34.2857143 L58.125,34.2857143 C58.85125,34.2857143 59.436875,33.8413235 59.701875,33.2352101 C59.830625,32.9420168 59.885,32.6514706 59.884375,32.3747899 C59.88375,31.6883824 59.54625,31.0923529 59.166875,30.7745168 L39.624375,14.3705042" id="path566" sketch:type="MSShapeGroup" transform="translate(40.203750, 33.529412) scale(1, -1) translate(-40.203750, -33.529412) "></path>
                <path d="M39.624375,14.3697479 C33.253125,19.2421639 20.5475,28.6501261 20.5475,28.6501261 L38.1275,52.7086134 L52.5,42.1852941 L52.5,34.2857143 L58.125,34.2857143 C58.85125,34.2857143 59.436875,33.8413235 59.701875,33.2352101 C59.830625,32.9420168 59.885,32.6514706 59.884375,32.3747899 C59.88375,31.6883824 59.54625,31.0923529 59.166875,30.7745168 L39.624375,14.3705042" id="path574" fill="url(#linearGradient-2)" sketch:type="MSShapeGroup" transform="translate(40.203750, 33.529412) scale(1, -1) translate(-40.203750, -33.529412) "></path>
                <path d="M25.66,14.6282773 L18.66375,18.6985714 L18.215625,26.3882773 L24.404375,29.8244118 L32.208125,24.7590756 L25.66,14.6282773" id="path582" sketch:type="MSShapeGroup" transform="translate(25.215625, 22.222815) scale(1, -1) translate(-25.215625, -22.222815) "></path>
                <path d="M25.66,14.6282773 L18.66375,18.6985714 L18.215625,26.3882773 L24.404375,29.8244118 L32.208125,24.7590756 L25.66,14.6282773" id="path590" fill="url(#linearGradient-3)" sketch:type="MSShapeGroup" transform="translate(25.215625, 22.222815) scale(1, -1) translate(-25.215625, -22.222815) "></path>
                <path d="M36.7825,17.797437 C38.219375,17.797437 39.32875,18.9154412 39.32875,20.3657143 C39.32875,21.8133403 38.219375,22.9327941 36.7825,22.9327941 C35.345625,22.9327941 34.235625,21.8133403 34.235625,20.3657143 C34.235625,18.9154412 35.345625,17.797437 36.7825,17.797437 L36.7825,17.797437 Z M36.7825,26.6871429 C40.210625,26.6871429 43.05125,23.8213235 43.05125,20.3657143 C43.05125,16.9082143 40.210625,14.0437815 36.7825,14.0437815 C33.354375,14.0437815 30.513125,16.9082143 30.513125,20.3657143 C30.513125,23.8213235 33.354375,26.6871429 36.7825,26.6871429 L36.7825,26.6871429 Z M35.280625,38.4073109 L38.251875,38.4073109 L23.39625,14.0437815 L20.425,14.0437815 L35.280625,38.4073109 L35.280625,38.4073109 Z M21.89375,29.5182353 C23.330625,29.5182353 24.440625,30.6381933 24.440625,32.0865126 C24.440625,33.5348319 23.330625,34.6541597 21.89375,34.6541597 C20.456875,34.6541597 19.3475,33.5348319 19.3475,32.0865126 C19.3475,30.6381933 20.456875,29.5182353 21.89375,29.5182353 L21.89375,29.5182353 Z M21.89375,38.4073109 C25.3225,38.4073109 28.1625,35.5428151 28.1625,32.0865126 C28.1625,28.6295798 25.3225,25.7644538 21.89375,25.7644538 C18.465625,25.7644538 15.625,28.6295798 15.625,32.0865126 C15.625,35.5428151 18.465625,38.4073109 21.89375,38.4073109 L21.89375,38.4073109 Z" id="path592" fill="#FFDC2E" sketch:type="MSShapeGroup" transform="translate(29.343750, 26.239160) scale(1, -1) translate(-29.343750, -26.239160) "></path>
            </g>
        </g>
    </g>
</svg>