<?xml version="1.0" encoding="UTF-8" standalone="no"?>
<svg width="60px" height="60px" viewBox="0 0 60 60" version="1.1" xmlns="http://www.w3.org/2000/svg" xmlns:xlink="http://www.w3.org/1999/xlink" xmlns:sketch="http://www.bohemiancoding.com/sketch/ns">
    <!-- Generator: Sketch 3.2 (9961) - http://www.bohemiancoding.com/sketch -->
    <title>ico-work-20</title>
    <desc>Created with Sketch.</desc>
    <defs>
        <linearGradient x1="0.000835701153%" y1="50.0050139%" x2="99.9991643%" y2="50.0050139%" id="linearGradient-1">
            <stop stop-color="#F7F7F7" offset="0%"></stop>
            <stop stop-color="#EBEBEB" offset="100%"></stop>
        </linearGradient>
    </defs>
    <g id="Welcome" stroke="none" stroke-width="1" fill="none" fill-rule="evenodd" sketch:type="MSPage">
        <g id="tangerine" sketch:type="MSArtboardGroup" transform="translate(-440.000000, -1894.000000)">
            <g id="ico-work-20" sketch:type="MSLayerGroup" transform="translate(440.000000, 1894.000000)">
                <path d="M25.9175,24.5519055 C25.912625,24.5691452 25.9076875,24.5873808 25.9030625,24.6046205 L20.85425,43.7090735 C20.845,43.7439265 20.8364375,43.7787794 20.828125,43.8136324 C20.8364375,43.7787794 20.845,43.7439265 20.85425,43.7090735 L25.9030625,24.6046205 C25.9076875,24.5873808 25.912625,24.5691452 25.9175,24.5519055 M20.8291875,43.8148771 C20.8279875,43.8208771 20.8268875,43.8258771 20.8256875,43.8308771 C20.8268875,43.8258771 20.8279875,43.8208771 20.8291875,43.8148771 M20.82595,43.827947 C20.82485,43.831947 20.82405,43.835947 20.82325,43.839947 C20.82405,43.835947 20.82485,43.831947 20.82595,43.827947 M20.8227125,43.8410168 C20.8220125,43.8440168 20.8216125,43.8460168 20.8208125,43.8490168 C20.8216125,43.8460168 20.8220125,43.8440168 20.8227125,43.8410168 M20.819325,43.8540867 C20.819025,43.8550867 20.818625,43.8560867 20.818625,43.8580867 C20.818625,43.8560867 20.819025,43.8550867 20.819325,43.8540867" id="path410" fill="#BCBCBC" sketch:type="MSShapeGroup" transform="translate(23.381125, 34.229820) scale(1, -1) translate(-23.381125, -34.229820) "></path>
                <path d="M59.223125,15.6816452 L24.6145,7.0369333 L12.7463125,49.9116523 C12.4778125,50.8781991 11.766625,51.6623902 10.827875,52.0258566 L2.5746875,54.3827868 C2.2878125,54.4817442 2.0920625,54.5576738 1.8210625,54.5576738 C0.8471875,54.5576738 0.057375,53.7716155 0.057375,52.8013346 C0.057375,52.0943178 0.46825,51.4607411 1.073,51.1825399 L8.62425,47.7489028 L18.253875,2.25025525 C18.6433125,0.845557248 20.9665625,0.0260152311 22.3679375,0.0260152311 C22.62475,0.0260152311 22.88575,0.056884979 23.14575,0.122296481 L59.84375,12.2505599 L59.223125,15.6816452" id="path420" fill="#3A556C" sketch:type="MSShapeGroup" transform="translate(29.963625, 27.285994) scale(1, -1) translate(-29.963625, -27.285994) "></path>
                <path d="M29.1071875,51.5218582 C29.1071875,47.1154506 25.51975,43.5430864 21.0945,43.5430864 C16.6689375,43.5430864 13.0818125,47.1154506 13.0818125,51.5218582 C13.0818125,55.928328 16.6689375,59.5006922 21.0945,59.5006922 C25.51975,59.5006922 29.1071875,55.928328 29.1071875,51.5218582" id="path422" fill="#3A556C" sketch:type="MSShapeGroup" transform="translate(21.081813, 51.509473) scale(1, -1) translate(-21.081813, -51.509473) "></path>
                <path d="M24.83375,51.4771717 C24.83375,49.4202258 23.1599375,47.752886 21.0945,47.752886 C19.0290625,47.752886 17.355,49.4202258 17.355,51.4771717 C17.355,53.5341799 19.0290625,55.2007106 21.0945,55.2007106 C23.1599375,55.2007106 24.83375,53.5341799 24.83375,51.4771717 L24.83375,51.4771717 Z" id="path430" sketch:type="MSShapeGroup" transform="translate(21.105000, 51.487130) scale(1, -1) translate(-21.105000, -51.487130) "></path>
                <path d="M24.83375,51.4771717 C24.83375,49.4202258 23.1599375,47.752886 21.0945,47.752886 C19.0290625,47.752886 17.355,49.4202258 17.355,51.4771717 C17.355,53.5341799 19.0290625,55.2007106 21.0945,55.2007106 C23.1599375,55.2007106 24.83375,53.5341799 24.83375,51.4771717" id="path438" fill="url(#linearGradient-1)" sketch:type="MSShapeGroup" transform="translate(21.105000, 51.487130) scale(1, -1) translate(-21.105000, -51.487130) "></path>
                <path d="M18.89125,20.2501812 L18.88625,20.2501812 L18.89125,20.2501812 L18.89125,20.2501812 M18.889375,20.2501812 C19.0436875,20.2501812 19.2006875,20.2811812 19.3561875,20.3451812 C19.2004375,20.2811812 19.0439375,20.2501812 18.889375,20.2501812 M19.371125,20.3136633 C19.377325,20.3146633 19.383225,20.3166633 19.389425,20.3186633 L19.389425,20.3186633 C19.383225,20.3166633 19.377325,20.3146633 19.371125,20.3136633 M17.083475,21.611313 C17.081475,21.617313 17.079975,21.623313 17.078375,21.629313 L17.078375,21.629313 C17.079975,21.623313 17.081475,21.617313 17.083475,21.611313" id="path448" fill="#BCBCBC" sketch:type="MSShapeGroup" transform="translate(18.265875, 20.965911) scale(1, -1) translate(-18.265875, -20.965911) "></path>
            </g>
        </g>
    </g>
</svg>