<?xml version="1.0" encoding="UTF-8" standalone="no"?>
<svg width="60px" height="60px" viewBox="0 0 60 60" version="1.1" xmlns="http://www.w3.org/2000/svg" xmlns:xlink="http://www.w3.org/1999/xlink" xmlns:sketch="http://www.bohemiancoding.com/sketch/ns">
    <!-- Generator: Sketch 3.2 (9961) - http://www.bohemiancoding.com/sketch -->
    <title>ico-work-30</title>
    <desc>Created with Sketch.</desc>
    <defs></defs>
    <g id="Welcome" stroke="none" stroke-width="1" fill="none" fill-rule="evenodd" sketch:type="MSPage">
        <g id="tangerine" sketch:type="MSArtboardGroup" transform="translate(-440.000000, -1997.000000)">
            <g id="ico-work-30" sketch:type="MSLayerGroup" transform="translate(440.000000, 1997.000000)">
                <path d="M60,17.7731092 C60,14.3067227 57.1875,11.4705882 53.75,11.4705882 L6.25,11.4705882 C2.8125,11.4705882 0,14.3067227 0,17.7731092 L0,53.7063025 C0,57.1726891 2.8125,60.0088235 6.25,60.0088235 L53.75,60.0088235 C57.1875,60.0088235 60,57.1726891 60,53.7063025 L60,17.7731092" id="path50" fill="#DF413D" sketch:type="MSShapeGroup" transform="translate(30.000000, 35.735294) scale(1, -1) translate(-30.000000, -35.735294) "></path>
                <path d="M60,6.42857143 C60,2.96218487 57.1875,0.12605042 53.75,0.12605042 L6.25,0.12605042 C2.8125,0.12605042 0,2.96218487 0,6.42857143 L0,42.3529412 C0,45.8193277 2.8125,48.6554622 6.25,48.6554622 L53.75,48.6554622 C57.1875,48.6554622 60,45.8193277 60,42.3529412 L60,6.42857143" id="path52" fill="#ECC640" sketch:type="MSShapeGroup" transform="translate(30.000000, 24.390756) scale(1, -1) translate(-30.000000, -24.390756) "></path>
                <path d="M60,6.42857143 C60,2.96218487 57.1875,0.12605042 53.75,0.12605042 L6.25,0.12605042 C2.8125,0.12605042 0,2.96218487 0,6.42857143 L0,39.8319328 C0,43.2983193 2.8125,46.1344538 6.25,46.1344538 L53.75,46.1344538 C57.1875,46.1344538 60,43.2983193 60,39.8319328 L60,6.42857143" id="path54" fill="#F5773E" sketch:type="MSShapeGroup" transform="translate(30.000000, 23.130252) scale(1, -1) translate(-30.000000, -23.130252) "></path>
                <path d="M28.75,48.6554622 L33.75,48.6554622 L33.75,60 L28.75,60 L28.75,48.6554622 L28.75,48.6554622 Z" id="path56" fill="#A5302D" sketch:type="MSShapeGroup" transform="translate(31.250000, 54.327731) scale(1, -1) translate(-31.250000, -54.327731) "></path>
                <path d="M28.75,46.1344538 L33.75,46.1344538 L33.75,48.6554622 L28.75,48.6554622 L28.75,46.1344538 L28.75,46.1344538 Z" id="path58" fill="#AE922F" sketch:type="MSShapeGroup" transform="translate(31.250000, 47.394958) scale(1, -1) translate(-31.250000, -47.394958) "></path>
                <path d="M33.75,0.12605042 L28.75,0.12605042 L28.75,17.3502101 C26.25,15.8464286 22.104375,12.7411765 20.695625,7.24537815 L16.665625,8.37037815 C17.723125,12.4978992 19.956875,15.5628151 22.29625,17.7731092 L0,17.7731092 L0,22.8151261 L13.91,22.8151261 C9.881875,27.8571429 10.57875,31.6903361 11.36125,33.3844538 C12.46,35.7636555 14.913125,37.1596639 17.933125,37.1596639 C20.343125,37.1596639 22.903125,36.2521008 25.16875,34.6027311 C26.641875,33.5294118 28.125,32.2676471 28.75,30.9485294 L28.75,46.1344538 L33.75,46.1344538 L33.75,29.5096639 C35,31.3386555 36.326875,33.147479 38.33125,34.6071429 C40.595625,36.2565126 43.90625,38.0029412 46.315625,38.0029412 C49.335625,38.0029412 52.37125,34.5901261 53.470625,32.2102941 C54.253125,30.5155462 54.646875,27.2268908 48.103125,22.8151261 L60,22.8151261 L60,17.7731092 L40.19625,17.7731092 C42.733125,15.8634454 45.251875,13.3329832 46.929375,10.0922269 L43.2175,8.02058824 C41.09,12.1304622 36.875,14.85 33.75,16.5037815 L33.75,0.12605042 M44.62625,31.2497899 C43.1725,31.2497899 41.400625,30.6630252 39.614375,29.712605 C36.5725,28.0947479 34.375,25.8712185 33.75,23.6161765 L33.75,22.8151261 L38.33875,22.8151261 C42.07375,23.4453782 45.375625,24.2319328 46.323125,25.4647059 C48.225625,27.9390756 49.57875,27.5861345 48.976875,28.887605 C48.594375,29.7157563 48.0675,30.6686975 46.70125,30.6686975 C46.141875,31.0689076 45.433125,31.2497899 44.62625,31.2497899 M18.815,31.8428571 C17.735,31.8428571 16.8,31.3493697 16.518125,30.7380252 C15.91625,29.4371849 17.470625,25.8271008 19.373125,23.3533613 C19.553125,23.1189076 19.745625,22.8151261 19.95375,22.8151261 L28.02,22.8151261 C27.544375,24.7058824 28.07375,26.6502101 24.929375,28.9405462 C23.36375,30.0806723 21.4675,31.1168067 20,31.6386555 C19.601875,31.7804622 19.199375,31.8428571 18.815,31.8428571" id="path60" fill="#B5582E" sketch:type="MSShapeGroup" transform="translate(30.000000, 23.130252) scale(1, -1) translate(-30.000000, -23.130252) "></path>
                <path d="M13.40375,47.5619748 C13.786875,48.3642857 14.83,48.8432773 16.195,48.8432773 C17.749375,48.8432773 19.468125,48.235084 21.0325,47.1308824 C24.311875,44.8159664 25.72875,41.1819328 26.325625,38.8487395 C20.959375,38.9294118 16.835625,40.0147059 15.48125,41.7220588 C13.58,44.1189076 12.803125,46.3014706 13.40375,47.5619748 L13.40375,47.5619748 Z M38.9975,47.1308824 C40.561875,48.235084 42.280625,48.8432773 43.835625,48.8432773 C45.200625,48.8432773 46.24375,48.3642857 46.626875,47.5619748 C47.226875,46.3014706 46.450625,44.1189076 44.549375,41.7220588 C43.195,40.0147059 39.07125,38.9294118 33.705,38.8487395 C34.301875,41.1819328 35.718125,44.8159664 38.9975,47.1308824 L38.9975,47.1308824 Z M60,37.8781513 L46.616875,37.8781513 C47.066875,38.239916 47.47625,38.6363445 47.826875,39.0781513 C51.90375,44.2159664 51.194375,47.7478992 50.409375,49.3953782 C49.310625,51.6995798 46.85375,53.0754202 43.835625,53.0754202 C41.4275,53.0754202 38.855,52.1955882 36.591875,50.5978992 C34.858125,49.3739496 33.5275,47.8978992 32.5,46.3752101 L32.5,59.987395 L27.5,59.987395 L27.5,46.4212185 C26.476875,47.927521 25.155,49.3865546 23.43875,50.5978992 C21.175625,52.1955882 18.603125,53.0754202 16.195,53.0754202 C13.176875,53.0754202 10.719375,51.6995798 9.62125,49.3953782 C8.83625,47.7478992 8.126875,44.2159664 12.203125,39.0781513 C12.554375,38.6363445 12.96375,38.239916 13.41375,37.8781513 L0,37.8781513 L0,32.8361345 L20.059375,32.8361345 C17.75625,30.7210084 15.7075,27.967437 14.7825,24.4726891 L18.838125,23.3823529 C20.06625,28.0273109 24.1725,31.0972689 27.326875,32.8361345 L27.5,32.8361345 L27.5,0.0630252101 L32.5,0.0630252101 L32.5,32.8361345 L33.039375,32.8361345 C35.616875,31.1445378 39.131875,28.2737395 41.3425,24.1336134 L45.03875,26.1397059 C43.6,28.8334034 41.725,31.0493697 39.829375,32.8361345 L60,32.8361345 L60,37.8781513 L60,37.8781513 Z" id="path62" fill="#FFFFFF" sketch:type="MSShapeGroup" transform="translate(30.000000, 30.031513) scale(1, -1) translate(-30.000000, -30.031513) "></path>
            </g>
        </g>
    </g>
</svg>