<?xml version="1.0" encoding="UTF-8" standalone="no"?>
<svg width="48px" height="60px" viewBox="0 0 48 60" version="1.1" xmlns="http://www.w3.org/2000/svg" xmlns:xlink="http://www.w3.org/1999/xlink" xmlns:sketch="http://www.bohemiancoding.com/sketch/ns">
    <!-- Generator: Sketch 3.2 (9961) - http://www.bohemiancoding.com/sketch -->
    <title>ico-work-40</title>
    <desc>Created with Sketch.</desc>
    <defs>
        <linearGradient x1="0%" y1="50%" x2="100%" y2="50%" id="linearGradient-1">
            <stop stop-color="#E6E6E6" offset="0%"></stop>
            <stop stop-color="#DBDBDB" offset="100%"></stop>
        </linearGradient>
        <linearGradient x1="0.00446927374%" y1="50%" x2="187.892737%" y2="50%" id="linearGradient-2">
            <stop stop-color="#F5CA3F" offset="0%"></stop>
            <stop stop-color="#EEC02D" offset="100%"></stop>
        </linearGradient>
        <linearGradient x1="0%" y1="50%" x2="100%" y2="50%" id="linearGradient-3">
            <stop stop-color="#F5CA3F" offset="0%"></stop>
            <stop stop-color="#EEC02D" offset="100%"></stop>
        </linearGradient>
        <linearGradient x1="7.4548746e-14%" y1="-22.0022309%" x2="100%" y2="-22.0022309%" id="linearGradient-4">
            <stop stop-color="#CECECE" offset="0%"></stop>
            <stop stop-color="#C4C4C4" offset="100%"></stop>
        </linearGradient>
        <linearGradient x1="-4.98451703%" y1="-47.7459874%" x2="100%" y2="-47.7459874%" id="linearGradient-5">
            <stop stop-color="#DBB538" offset="0%"></stop>
            <stop stop-color="#D5AC28" offset="100%"></stop>
        </linearGradient>
    </defs>
    <g id="Welcome" stroke="none" stroke-width="1" fill="none" fill-rule="evenodd" sketch:type="MSPage">
        <g id="tangerine" sketch:type="MSArtboardGroup" transform="translate(-448.000000, -2081.000000)">
            <g id="ico-work-40" sketch:type="MSLayerGroup" transform="translate(442.000000, 2081.000000)">
                <g id="Group" transform="translate(6.000000, 0.000000)" sketch:type="MSShapeGroup">
                    <path d="M42.75,8.85245902 L23.53125,8.85245902 L4.625,8.85245902 C4.625,8.85245902 7.03625,17.292418 14.639375,23.0637295 C17.1275,24.9547131 20.25,27.1893443 20.25,30.3688525 C20.25,33.4118852 17.1275,35.7829918 14.639375,37.6739754 C7.03625,43.4452869 4.625,51.8852459 4.625,51.8852459 C4.625,51.8852459 4.806875,51.2526639 5.223125,50.219877 L11.693125,45.7377049 L10.445,45.7377049 C11.265625,44.5272541 12.25,43.2657787 13.43125,42.0491803 C14.24875,41.2063525 15.15875,40.3862705 16.166875,39.6209016 C16.37625,39.4616803 16.591875,39.3 16.811875,39.1352459 C19.495,37.1243852 22.75,34.3702869 22.75,30.3688525 L22.75,21.0897541 C22.75,21.0897541 22.76,20.1584016 22.203125,19.7065574 C22.86875,19.7477459 24.429375,19.7643443 24.429375,19.7643443 L24.429375,19.7643443 C24.429375,19.7643443 23.991875,20.1694672 23.99375,20.8530738 C23.99375,20.8991803 23.995625,20.9459016 24,20.9938525 C24.01125,21.1155738 24.014375,22.1901639 24.014375,23.5715164 L24.014375,23.5831967 L24.014375,23.5954918 L24.014375,23.6077869 L24.014375,23.620082 C24.014375,26.3883197 24,30.3454918 24,30.3688525 L24,30.3688525 C24,32.4411885 24.956875,34.1790984 26.2525,35.6520492 L28.2775,34.2491803 C27.181875,33.0922131 26.3925,31.8055328 26.3925,30.3688525 C26.3925,27.1893443 29.935,24.9547131 32.423125,23.0637295 C40.02625,17.292418 42.75,8.85245902 42.75,8.85245902 M32.184375,37.4932377 C32.265,37.5540984 32.344375,37.6143443 32.423125,37.6739754 C32.344375,37.6143443 32.264375,37.5540984 32.184375,37.4932377" id="path734" transform="translate(23.687500, 30.368852) scale(1, -1) translate(-23.687500, -30.368852) "></path>
                    <path d="M42.75,8.85245902 L4.625,8.85245902 C4.625,8.85245902 7.03625,17.292418 14.639375,23.0637295 C17.1275,24.9547131 20.25,27.1893443 20.25,30.3688525 C20.25,33.4118852 17.1275,35.7829918 14.639375,37.6739754 C7.03625,43.4452869 4.625,51.8852459 4.625,51.8852459 C4.625,51.8852459 4.806875,51.2526639 5.223125,50.219877 L11.693125,45.7377049 L10.445,45.7377049 C11.265625,44.5272541 12.25,43.2657787 13.43125,42.0491803 C14.24875,41.2063525 15.15875,40.3862705 16.166875,39.6209016 C16.37625,39.4616803 16.591875,39.3 16.811875,39.1352459 C19.495,37.1243852 22.75,34.3702869 22.75,30.3688525 L22.75,21.0897541 C22.75,21.0897541 22.76,20.1584016 22.203125,19.7065574 C22.86875,19.7477459 24.429375,19.7643443 24.429375,19.7643443 L24.429375,19.7643443 C24.429375,19.7643443 23.991875,20.1694672 23.99375,20.8530738 C23.99375,20.8991803 23.995625,20.9459016 24,20.9938525 C24.01125,21.1155738 24.014375,22.1901639 24.014375,23.5715164 L24.014375,23.5831967 L24.014375,23.5954918 L24.014375,23.6077869 L24.014375,23.620082 C24.014375,26.3883197 24,30.3454918 24,30.3688525 L24,30.3688525 C24,32.4411885 24.956875,34.1790984 26.2525,35.6520492 L28.2775,34.2491803 C27.181875,33.0922131 26.3925,31.8055328 26.3925,30.3688525 C26.3925,27.1893443 29.935,24.9547131 32.423125,23.0637295 C40.02625,17.292418 42.75,8.85245902 42.75,8.85245902 M32.184375,37.4932377 C32.265,37.5540984 32.344375,37.6143443 32.423125,37.6739754 C32.344375,37.6143443 32.264375,37.5540984 32.184375,37.4932377" id="path742" fill="url(#linearGradient-1)" transform="translate(23.687500, 30.368852) scale(1, -1) translate(-23.687500, -30.368852) "></path>
                    <path d="M22.203125,15.0270492 C22.76,15.4788934 22.75,16.4102459 22.75,16.4102459 L22.75,25.6893443 C22.75,29.6907787 19.495,32.444877 16.811875,34.4557377 C16.591875,34.6204918 16.37625,34.7821721 16.166875,34.9413934 C15.15875,35.7067623 14.24875,36.5268443 13.43125,37.3696721 C12.25,38.5862705 11.265625,39.8477459 10.445,41.0581967 L11.693125,41.0581967 L24.410625,32.2487705 C23.561875,29.885041 23.375,27.5336066 23.375,27.5336066 L23.375,16.2 C23.1525,15.4911885 24.429375,15.0848361 24.429375,15.0848361 C24.429375,15.0848361 22.86875,15.0682377 22.203125,15.0270492" id="path750" transform="translate(17.445000, 28.029098) scale(1, -1) translate(-17.445000, -28.029098) "></path>
                    <path d="M22.203125,15.0270492 C22.76,15.4788934 22.75,16.4102459 22.75,16.4102459 L22.75,25.6893443 C22.75,29.6907787 19.495,32.444877 16.811875,34.4557377 C16.591875,34.6204918 16.37625,34.7821721 16.166875,34.9413934 C15.15875,35.7067623 14.24875,36.5268443 13.43125,37.3696721 C12.25,38.5862705 11.265625,39.8477459 10.445,41.0581967 L11.693125,41.0581967 L24.410625,32.2487705 C23.561875,29.885041 23.375,27.5336066 23.375,27.5336066 L23.375,16.2 C23.1525,15.4911885 24.429375,15.0848361 24.429375,15.0848361 C24.429375,15.0848361 22.86875,15.0682377 22.203125,15.0270492" id="path758" fill="url(#linearGradient-2)" transform="translate(17.445000, 28.029098) scale(1, -1) translate(-17.445000, -28.029098) "></path>
                    <path d="M47.125,55.5737705 C47.125,54.2213115 46,53.1147541 44.625,53.1147541 L2.75,53.1147541 C1.375,53.1147541 0.25,54.2213115 0.25,55.5737705 L0.25,57.4180328 C0.25,58.7704918 1.375,59.8770492 2.75,59.8770492 L44.625,59.8770492 C46,59.8770492 47.125,58.7704918 47.125,57.4180328 L47.125,55.5737705" id="path760" fill="#FF9447" transform="translate(23.687500, 56.495902) scale(1, -1) translate(-23.687500, -56.495902) "></path>
                    <path d="M44.625,0.860655738 L2.75,0.860655738 C1.375,0.860655738 0.25,1.96721311 0.25,3.31967213 L0.25,5.16393443 C0.25,6.51639344 1.375,7.62295082 2.75,7.62295082 L44.625,7.62295082 C46,7.62295082 47.125,6.51639344 47.125,5.16393443 L47.125,3.31967213 C47.125,1.96721311 46,0.860655738 44.625,0.860655738 Z" id="path762" fill="#D46735" transform="translate(23.687500, 4.241803) scale(1, -1) translate(-23.687500, -4.241803) "></path>
                    <path d="M4,51.2704918 L43.375,51.2704918 L43.375,53.1147541 L4,53.1147541 L4,51.2704918 L4,51.2704918 Z" id="path764" fill="#F5773E" transform="translate(23.687500, 52.192623) scale(1, -1) translate(-23.687500, -52.192623) "></path>
                    <path d="M0.25,57.4180328 L47.125,57.4180328 L47.125,59.8770492 L0.25,59.8770492 L0.25,57.4180328 L0.25,57.4180328 Z" id="path766" fill="#D46735" transform="translate(23.687500, 58.647541) scale(1, -1) translate(-23.687500, -58.647541) "></path>
                    <path d="M0.25,55.3278689 L47.125,55.3278689 L47.125,57.4286004 L0.25,57.4286004 L0.25,55.3278689 L0.25,55.3278689 Z" id="path768" fill="#F5773E" transform="translate(23.687500, 56.372951) scale(1, -1) translate(-23.687500, -56.372951) "></path>
                    <path d="M7.75,40.204918 L23.375,51.2704918 L39,40.204918 L7.75,40.204918 L7.75,40.204918 Z" id="path776" transform="translate(23.375000, 45.737705) scale(1, -1) translate(-23.375000, -45.737705) "></path>
                    <path d="M7.75,40.204918 L23.375,51.2704918 L39,40.204918 L7.75,40.204918" id="path784" fill="url(#linearGradient-3)" transform="translate(23.375000, 45.737705) scale(1, -1) translate(-23.375000, -45.737705) "></path>
                    <path d="M23.375,51.2704918 L39,40.204918 L29,40.204918 L23.375,51.2704918" id="path786" fill="#C99800" transform="translate(31.187500, 45.737705) scale(1, -1) translate(-31.187500, -45.737705) "></path>
                    <path d="M24,16.1987705 C24.033125,16.5657787 24,25.5737705 24,25.5737705 C24,29.5752049 27.5675,32.3293033 30.250625,34.3401639 C30.47,34.504918 30.68625,34.6665984 30.89375,34.8245902 C31.85,35.5506148 32.721875,36.3233607 33.515625,37.1157787 C34.7775,38.3766393 35.83625,39.6866803 36.720625,40.942623 L28.55,40.942623 C27.6125,39.1905738 25.871875,35.2383197 25.05375,33.635041 C23.650625,30.8883197 23.375,27.4180328 23.375,27.4180328 L23.375,16.0844262 C23.1525,15.3756148 24.429375,14.9692623 24.429375,14.9692623 C24.429375,14.9692623 23.931875,15.4303279 24,16.1987705" id="path788" fill="#E6B519" transform="translate(30.036466, 27.971311) scale(1, -1) translate(-30.036466, -27.971311) "></path>
                    <path d="M28.281875,23.2327869 L28.2775,23.2352459 C29.42875,24.452459 30.91875,25.5258197 32.184375,26.4793033 C30.918125,25.5258197 29.43125,24.4506148 28.281875,23.2327869" id="path790" fill="#E4E4E4" transform="translate(30.246250, 24.861885) scale(1, -1) translate(-30.246250, -24.861885) "></path>
                    <path d="M28.2775,8.84508197 L26.2525,10.2479508 C27.458125,11.6194672 28.9575,12.7616803 30.250625,13.7311475 C30.47,13.8959016 30.68625,14.057582 30.89375,14.2155738 C31.85,14.9415984 32.721875,15.7143443 33.515625,16.5067623 C34.7775,17.767623 35.83625,19.0776639 36.720625,20.3336066 L36.720625,20.3336066 L11.693125,20.3336066 L5.223125,24.8157787 C4.806875,25.8485656 4.625,26.4811475 4.625,26.4811475 L4.625,26.4811475 L23.53125,26.4811475 L42.75,26.4811475 C42.75,26.4811475 40.02625,18.0411885 32.423125,12.269877 L32.423125,12.269877 C32.344375,12.2102459 32.265,12.15 32.184375,12.0891393 C30.91875,11.1356557 29.42875,10.0622951 28.2775,8.84508197" id="path798" transform="translate(23.687500, 17.666803) scale(1, -1) translate(-23.687500, -17.666803) "></path>
                    <path d="M28.2775,8.84508197 L26.2525,10.2479508 C27.458125,11.6194672 28.9575,12.7616803 30.250625,13.7311475 C30.47,13.8959016 30.68625,14.057582 30.89375,14.2155738 C31.85,14.9415984 32.721875,15.7143443 33.515625,16.5067623 C34.7775,17.767623 35.83625,19.0776639 36.720625,20.3336066 L11.693125,20.3336066 L5.223125,24.8157787 C4.806875,25.8485656 4.625,26.4811475 4.625,26.4811475 L42.75,26.4811475 C42.75,26.4811475 40.02625,18.0411885 32.423125,12.269877 L32.423125,12.269877 C32.344375,12.2102459 32.265,12.15 32.184375,12.0891393 C30.91875,11.1356557 29.42875,10.0622951 28.2775,8.84508197" id="path806" fill="url(#linearGradient-4)" transform="translate(23.687500, 17.666803) scale(1, -1) translate(-23.687500, -17.666803) "></path>
                    <path d="M24.410625,15.0184426 L11.693125,23.8278689 L36.720625,23.8278689 L28.55,23.8278689 C27.6125,22.0758197 25.871875,18.1235656 25.05375,16.5202869 C24.805625,16.0346311 24.5925,15.5262295 24.410625,15.0184426" id="path814" transform="translate(24.193125, 19.413934) scale(1, -1) translate(-24.193125, -19.413934) "></path>
                    <path d="M24.410625,15.0184426 L11.693125,23.8278689 L36.720625,23.8278689 L28.55,23.8278689 C27.6125,22.0758197 25.871875,18.1235656 25.05375,16.5202869 C24.805625,16.0346311 24.5925,15.5262295 24.410625,15.0184426" id="path822" fill="url(#linearGradient-5)" transform="translate(24.193125, 19.413934) scale(1, -1) translate(-24.193125, -19.413934) "></path>
                    <path d="M26.2525,15.0036885 L24.410625,16.279918 C24.5925,16.7877049 24.805625,17.2961066 25.05375,17.7817623 C25.871875,19.385041 27.6125,23.3372951 28.55,25.0893443 L36.720625,25.0893443 C35.83625,23.8334016 34.7775,22.5233607 33.515625,21.2625 C32.721875,20.470082 31.85,19.6973361 30.89375,18.9713115 C30.68625,18.8133197 30.47,18.6516393 30.250625,18.4868852 C28.9575,17.517418 27.458125,16.3752049 26.2525,15.0036885" id="path824" fill="#CEA216" transform="translate(30.566875, 20.044672) scale(1, -1) translate(-30.566875, -20.044672) "></path>
                    <path d="M0.25,0.860655738 L47.125,0.860655738 L47.125,4.54918033 L0.25,4.54918033 L0.25,0.860655738 L0.25,0.860655738 Z" id="path828" fill="#F5773E" transform="translate(23.687500, 2.704918) scale(1, -1) translate(-23.687500, -2.704918) "></path>
                </g>
            </g>
        </g>
    </g>
</svg>