<?xml version="1.0" encoding="UTF-8" standalone="no"?>
<svg width="120px" height="121px" viewBox="0 0 120 121" version="1.1" xmlns="http://www.w3.org/2000/svg" xmlns:xlink="http://www.w3.org/1999/xlink" xmlns:sketch="http://www.bohemiancoding.com/sketch/ns">
    <!-- Generator: Sketch 3.2 (9961) - http://www.bohemiancoding.com/sketch -->
    <title>ico-contract</title>
    <desc>Created with Sketch.</desc>
    <defs>
        <linearGradient x1="0%" y1="50%" x2="100%" y2="50%" id="linearGradient-1">
            <stop stop-color="#E6E6E6" offset="0%"></stop>
            <stop stop-color="#DBDBDB" offset="100%"></stop>
        </linearGradient>
        <linearGradient x1="-25.7157201%" y1="110.565751%" x2="104.538547%" y2="110.565751%" id="linearGradient-2">
            <stop stop-color="#CECECE" offset="0%"></stop>
            <stop stop-color="#C4C4C4" offset="100%"></stop>
        </linearGradient>
        <linearGradient x1="22.4714516%" y1="96.644824%" x2="71.80438%" y2="11.7126795%" id="linearGradient-3">
            <stop stop-color="#F5CA3F" offset="0%"></stop>
            <stop stop-color="#EEBD21" offset="100%"></stop>
        </linearGradient>
        <linearGradient x1="-1395.17967%" y1="-426.789284%" x2="1409.37774%" y2="-426.789284%" id="linearGradient-4">
            <stop stop-color="#AAAAAA" offset="0%"></stop>
            <stop stop-color="#A2A2A2" offset="100%"></stop>
        </linearGradient>
        <linearGradient x1="-8.66242038%" y1="176.419339%" x2="130.155653%" y2="-277.75012%" id="linearGradient-5">
            <stop stop-color="#B5952E" offset="0%"></stop>
            <stop stop-color="#B08B18" offset="100%"></stop>
        </linearGradient>
        <linearGradient x1="-363.480651%" y1="1508.93531%" x2="373.907803%" y2="132.724108%" id="linearGradient-6">
            <stop stop-color="#B5952E" offset="0%"></stop>
            <stop stop-color="#B08B18" offset="100%"></stop>
        </linearGradient>
        <linearGradient x1="-7336.51316%" y1="9756.74157%" x2="24242.4342%" y2="9756.74157%" id="linearGradient-7">
            <stop stop-color="#AAAAAA" offset="0%"></stop>
            <stop stop-color="#A2A2A2" offset="100%"></stop>
        </linearGradient>
        <linearGradient x1="-12637.5%" y1="16088.5246%" x2="33516.3462%" y2="16088.5246%" id="linearGradient-8">
            <stop stop-color="#989898" offset="0%"></stop>
            <stop stop-color="#919191" offset="100%"></stop>
        </linearGradient>
        <linearGradient x1="52.6963691%" y1="645.104232%" x2="612.934282%" y2="-104.074542%" id="linearGradient-9">
            <stop stop-color="#B5952E" offset="0%"></stop>
            <stop stop-color="#B08B18" offset="100%"></stop>
        </linearGradient>
        <linearGradient x1="-50.7628058%" y1="685.734093%" x2="474.038522%" y2="-45.093206%" id="linearGradient-10">
            <stop stop-color="#B5952E" offset="0%"></stop>
            <stop stop-color="#B08B18" offset="100%"></stop>
        </linearGradient>
        <linearGradient x1="-150.034279%" y1="715.843045%" x2="369.92799%" y2="16.0643163%" id="linearGradient-11">
            <stop stop-color="#B5952E" offset="0%"></stop>
            <stop stop-color="#B08B18" offset="100%"></stop>
        </linearGradient>
        <linearGradient x1="-125.016311%" y1="22.3430929%" x2="769.75487%" y2="22.3430929%" id="linearGradient-12">
            <stop stop-color="#AAAAAA" offset="0%"></stop>
            <stop stop-color="#A2A2A2" offset="100%"></stop>
        </linearGradient>
        <linearGradient x1="89.3687992%" y1="108.153952%" x2="387.616319%" y2="-83.4295869%" id="linearGradient-13">
            <stop stop-color="#B5952E" offset="0%"></stop>
            <stop stop-color="#B08B18" offset="100%"></stop>
        </linearGradient>
        <linearGradient x1="-14526.975%" y1="1307.94824%" x2="3970.13487%" y2="1307.94824%" id="linearGradient-14">
            <stop stop-color="#989898" offset="0%"></stop>
            <stop stop-color="#919191" offset="100%"></stop>
        </linearGradient>
    </defs>
    <g id="Welcome" stroke="none" stroke-width="1" fill="none" fill-rule="evenodd" sketch:type="MSPage">
        <g id="tangerine" sketch:type="MSArtboardGroup" transform="translate(-42.000000, -1161.000000)">
            <g id="ico-contract" sketch:type="MSLayerGroup" transform="translate(42.000000, 1162.000000)">
                <path d="M60,-0.25 C26.8625,-0.25 0,26.6125 0,59.75 C0,92.8875 26.8625,119.75 60,119.75 C93.1375,119.75 120,92.8875 120,59.75 C120,51.33375 118.2675,43.32375 115.14,36.055 C115.37875,36.6725 115.605,37.2925 115.81875,37.91875 L97.93,54.02125 C101.38875,56.6675 106.01625,59.975 106.01625,59.975 L96.80625,88.6175 C96.80625,88.6175 89.73625,84.6225 87.575,84.6225 C87.53875,84.6225 87.50375,84.62375 87.47125,84.625 C85.44,84.7625 81.37875,87.29125 77.95625,87.96625 C74.53375,88.64 68.7975,90.1975 65.34375,91.20625 C64.90125,91.335 64.3525,91.3925 63.72,91.3925 C59.41375,91.3925 51.2825,88.735 47.25,88.05125 C42.6275,87.26625 39.96,86.38875 36.56125,83.37375 C36.11125,82.97375 35.69625,82.385 35.315,81.6625 C34.37875,81.83125 33.6325,81.995 33.1575,82.14875 C32.64,82.3175 31.53625,82.8175 30.1775,83.47125 L29.60125,83.75375 C29.60125,83.75375 29.6,83.7525 29.6,83.75125 C25.62625,85.68625 20.02625,88.6175 20.02625,88.6175 L9.99625,59.975 C9.99625,59.975 13.8,57.57625 16.79,54.84375 C16.78125,54.8175 16.77375,54.79375 16.76625,54.77125 C17.18375,54.58125 18.4975,53.1175 18.74125,52.84375 C18.81375,52.7575 18.88375,52.67125 18.9525,52.58625 C19.025,52.495 19.095,52.4025 19.16,52.30875 C19.36625,52.005 19.62875,51.55875 19.88,50.96125 C20.0775,50.47625 20.23625,49.96375 20.38125,49.42875 C20.44,49.19125 20.4925,48.94 20.5375,48.67625 C21.2175,44.75125 23.32375,41.835 23.32375,41.835 C23.32375,41.835 23.38625,41.855 23.5025,41.915 C24.505,40.67875 25.89375,39.44625 27.87875,38.26375 C28.0025,38.18875 28.13,38.115 28.25875,38.04125 L28.25875,38.04125 C28.2875,38.025 28.31625,38.00875 28.345,37.99125 L23.69125,36.2825 L62.5,-0.19875 C62.8175,-0.18625 63.135,-0.17 63.45125,-0.1525 C62.30875,-0.2175 61.15875,-0.25 60,-0.25 M63.46,-0.1525 C63.47125,-0.15125 63.485,-0.15 63.4975,-0.15 C63.48375,-0.15 63.47375,-0.15125 63.46,-0.1525 M64.945,72.38125 C64.615,72.6225 64.29125,72.86 63.97125,73.0925 L63.975,73.0925 L64.945,72.38125" id="path836" sketch:type="MSShapeGroup" transform="translate(60.000000, 59.750000) scale(1, -1) translate(-60.000000, -59.750000) "></path>
                <path d="M60,-0.25 C26.8625,-0.25 0,26.6125 0,59.75 C0,92.8875 26.8625,119.75 60,119.75 C93.1375,119.75 120,92.8875 120,59.75 C120,51.33375 118.2675,43.32375 115.14,36.055 C115.37875,36.6725 115.605,37.2925 115.81875,37.91875 L97.93,54.02125 C101.38875,56.6675 106.01625,59.975 106.01625,59.975 L96.80625,88.6175 C96.80625,88.6175 89.73625,84.6225 87.575,84.6225 C87.53875,84.6225 87.50375,84.62375 87.47125,84.625 C85.44,84.7625 81.37875,87.29125 77.95625,87.96625 C74.53375,88.64 68.7975,90.1975 65.34375,91.20625 C64.90125,91.335 64.3525,91.3925 63.72,91.3925 C59.41375,91.3925 51.2825,88.735 47.25,88.05125 C42.6275,87.26625 39.96,86.38875 36.56125,83.37375 C36.11125,82.97375 35.69625,82.385 35.315,81.6625 C34.37875,81.83125 33.6325,81.995 33.1575,82.14875 C32.64,82.3175 31.53625,82.8175 30.1775,83.47125 L29.60125,83.75375 C29.60125,83.75375 29.6,83.7525 29.6,83.75125 C25.62625,85.68625 20.02625,88.6175 20.02625,88.6175 L9.99625,59.975 C9.99625,59.975 13.8,57.57625 16.79,54.84375 C16.78125,54.8175 16.77375,54.79375 16.76625,54.77125 C17.18375,54.58125 18.4975,53.1175 18.74125,52.84375 C18.81375,52.7575 18.88375,52.67125 18.9525,52.58625 C19.025,52.495 19.095,52.4025 19.16,52.30875 C19.36625,52.005 19.62875,51.55875 19.88,50.96125 C20.0775,50.47625 20.23625,49.96375 20.38125,49.42875 C20.44,49.19125 20.4925,48.94 20.5375,48.67625 C21.2175,44.75125 23.32375,41.835 23.32375,41.835 C23.32375,41.835 23.38625,41.855 23.5025,41.915 C24.505,40.67875 25.89375,39.44625 27.87875,38.26375 C28.0025,38.18875 28.13,38.115 28.25875,38.04125 L28.25875,38.04125 C28.2875,38.025 28.31625,38.00875 28.345,37.99125 L23.69125,36.2825 L62.5,-0.19875 C62.8175,-0.18625 63.135,-0.17 63.45125,-0.1525 C62.30875,-0.2175 61.15875,-0.25 60,-0.25 M63.46,-0.1525 C63.47125,-0.15125 63.485,-0.15 63.4975,-0.15 C63.48375,-0.15 63.47375,-0.15125 63.46,-0.1525 M64.945,72.38125 C64.615,72.6225 64.29125,72.86 63.97125,73.0925 L63.975,73.0925 L64.945,72.38125" id="path844" fill="url(#linearGradient-1)" sketch:type="MSShapeGroup" transform="translate(60.000000, 59.750000) scale(1, -1) translate(-60.000000, -59.750000) "></path>
                <path d="M63.45125,83.4025 L63.46,83.4025 L63.45125,83.4025 M63.4975,83.405 C86.71,84.74125 106.3875,99.27125 115.14,119.61 C107.58875,100.1275 87.45,84.7775 63.4975,83.405" id="path846" fill="#E4E4E4" sketch:type="MSShapeGroup" transform="translate(89.326250, 101.527500) scale(1, -1) translate(-89.326250, -101.527500) "></path>
                <path d="M62.5,65.44875 L23.69125,101.93 L28.345,103.63875 C29.27875,103.105 30.86875,102.1775 32.8575,101.015 C32.94375,100.965 33.03,100.91375 33.1175,100.8625 L33.1175,100.8625 C42.125,95.595 58.83875,85.77375 60.68875,85.12625 C61.805,84.6525 62.79125,84.4475 63.65125,84.4475 C67.66125,84.4475 68.9675,88.88125 68.26875,91.12625 C69.06375,90.5575 70.155,90.295 71.32375,90.295 C73.4075,90.295 75.7425,91.1275 77.11125,92.54875 C79.245,94.765 78.20625,98.65875 78.20625,98.65875 C78.20625,98.65875 80.44,97.38375 83.15125,97.38375 C84.8425,97.38375 86.72,97.88 88.35875,99.49 C91.12875,102.215 88.9275,105.5975 88.9275,105.5975 C88.9275,105.5975 90.5975,104.92625 92.53875,104.92625 C94.14625,104.92625 95.93875,105.38625 97.125,107.06875 C99.92625,111.04125 97.57,114.0175 93.72125,116.92 C93.45625,117.12 93.04625,117.425 92.5125,117.82125 L94.24375,116.5525 C94.245,116.555 94.335,116.71125 94.8925,117.22875 C95.56125,117.825 96.6675,118.7025 97.93,119.66875 L115.81875,103.56625 C115.605,102.94 115.37875,102.32 115.14,101.7025 C106.3875,81.36375 86.71,66.83375 63.4975,65.4975 C63.485,65.4975 63.47125,65.49625 63.46,65.495 L63.45125,65.495 C63.135,65.4775 62.8175,65.46125 62.5,65.44875" id="path854" sketch:type="MSShapeGroup" transform="translate(69.753750, 92.573750) scale(1, -1) translate(-69.753750, -92.573750) "></path>
                <path d="M62.5,65.44875 L23.69125,101.93 L28.345,103.63875 C29.27875,103.105 30.86875,102.1775 32.8575,101.015 C32.94375,100.965 33.03,100.91375 33.1175,100.8625 L33.1175,100.8625 C42.125,95.595 58.83875,85.77375 60.68875,85.12625 C61.805,84.6525 62.79125,84.4475 63.65125,84.4475 C67.66125,84.4475 68.9675,88.88125 68.26875,91.12625 C69.06375,90.5575 70.155,90.295 71.32375,90.295 C73.4075,90.295 75.7425,91.1275 77.11125,92.54875 C79.245,94.765 78.20625,98.65875 78.20625,98.65875 C78.20625,98.65875 80.44,97.38375 83.15125,97.38375 C84.8425,97.38375 86.72,97.88 88.35875,99.49 C91.12875,102.215 88.9275,105.5975 88.9275,105.5975 C88.9275,105.5975 90.5975,104.92625 92.53875,104.92625 C94.14625,104.92625 95.93875,105.38625 97.125,107.06875 C99.92625,111.04125 97.57,114.0175 93.72125,116.92 C93.45625,117.12 93.04625,117.425 92.5125,117.82125 L94.24375,116.5525 C94.245,116.555 94.335,116.71125 94.8925,117.22875 C95.56125,117.825 96.6675,118.7025 97.93,119.66875 L115.81875,103.56625 C115.605,102.94 115.37875,102.32 115.14,101.7025 C106.3875,81.36375 86.71,66.83375 63.4975,65.4975 C63.485,65.4975 63.47125,65.49625 63.46,65.495 L63.45125,65.495 C63.135,65.4775 62.8175,65.46125 62.5,65.44875" id="path862" fill="url(#linearGradient-2)" sketch:type="MSShapeGroup" transform="translate(69.753750, 92.573750) scale(1, -1) translate(-69.753750, -92.573750) "></path>
                <path d="M63.65125,30.825 C62.79125,30.825 61.805,31.03 60.68875,31.50375 C58.83875,32.15125 42.125,41.9725 33.1175,47.24 L33.16625,47.3975 L33.40625,48.94875 C33.9375,51.28875 32.75125,54.55625 30.41375,55.08625 C30.21,55.13375 30.00875,55.155 29.80875,55.155 C28.09,55.155 26.5275,53.51625 25.75125,51.74875 C26.37375,51.25625 27.075,50.7675 27.87875,50.28875 C25.89375,51.47125 24.505,52.70375 23.5025,53.94 C23.8275,54.11125 24.5725,54.60625 25.51125,55.88625 C23.31375,57.38875 20.4875,68.85 20.4875,68.85 L18.78,64.825 L31.405,94.8975 L30.1775,95.49625 C31.53625,94.8425 32.64,94.3425 33.1575,94.17375 C33.6325,94.02 34.37875,93.85625 35.315,93.6875 C32.8175,88.955 31.78125,78.52 31.78125,78.52 C31.61375,77.94875 31.985,77.54125 32.65,77.29 C32.5975,77.23625 32.57125,77.2075 32.57125,77.2075 C32.57125,77.2075 35.93,75.26625 38.3825,75.26625 C40.835,75.26625 45.9125,77.83625 48.04625,85.195 L63.97125,85.1175 C64.29125,84.885 64.615,84.6475 64.945,84.40625 L92.5125,64.19875 C93.04625,63.8025 93.45625,63.4975 93.72125,63.2975 C97.57,60.395 99.92625,57.41875 97.125,53.44625 C95.93875,51.76375 94.14625,51.30375 92.53875,51.30375 C90.5975,51.30375 88.9275,51.975 88.9275,51.975 C88.9275,51.975 91.12875,48.5925 88.35875,45.8675 C86.72,44.2575 84.8425,43.76125 83.15125,43.76125 C80.44,43.76125 78.20625,45.03625 78.20625,45.03625 C78.20625,45.03625 79.245,41.1425 77.11125,38.92625 C75.7425,37.505 73.4075,36.6725 71.32375,36.6725 C70.155,36.6725 69.06375,36.935 68.26875,37.50375 C68.9675,35.25875 67.66125,30.825 63.65125,30.825 M54.36,37.5925 C53.3925,37.5925 52.2725,37.25375 51.3375,36.6325 C53.595,35.33625 55.64125,34.1725 57.24875,33.28375 C57.225,35.065 56.69,36.71 55.8225,37.24 C55.43,37.47875 54.92125,37.5925 54.36,37.5925 M47.46625,46.115 C46.06375,46.115 44.74375,45.28625 43.8975,43.89375 L42.42875,41.7975 C44.83375,40.39375 47.28625,38.96875 49.585,37.64125 L49.96125,38.4675 C50.8325,40.7475 51.51875,44.29 49.47,45.53125 C48.81125,45.93 48.13,46.115 47.46625,46.115 M39.29875,50.775 C37.5925,50.775 35.81875,49.46875 34.88875,47.9 L34.0675,46.685 C36.115,45.4875 38.4825,44.1 40.9475,42.66125 L41.63375,44.11125 C42.555,46.255 42.9275,49.13 40.865,50.35125 C40.36875,50.645 39.8375,50.775 39.29875,50.775 M32.8575,47.3925 C30.86875,48.555 29.27875,49.4825 28.345,50.01625 C28.31625,50.03375 28.2875,50.05 28.25875,50.06625 C29.17875,49.54125 30.80875,48.59125 32.8575,47.3925 M20.38125,61.45375 C20.23625,61.98875 20.0775,62.50125 19.88,62.98625 C20.0625,62.555 20.2375,62.045 20.38125,61.45375 M19.16,64.33375 C19.095,64.4275 19.025,64.52 18.9525,64.61125 C18.88375,64.69625 18.81375,64.7825 18.74125,64.86875 C18.76625,64.84 18.78,64.825 18.78,64.825 L18.78,64.825 C18.78,64.825 18.93625,64.66375 19.16,64.33375 M16.79,66.86875 C13.8,69.60125 9.99625,72 9.99625,72 L20.02625,100.6425 C20.02625,100.6425 25.62625,97.71125 29.6,95.77625 C29.4825,95.51875 17.87125,70.0425 16.79,66.86875" id="path870" sketch:type="MSShapeGroup" transform="translate(54.183750, 65.762500) scale(1, -1) translate(-54.183750, -65.762500) "></path>
                <path d="M63.65125,30.825 C62.79125,30.825 61.805,31.03 60.68875,31.50375 C58.83875,32.15125 42.125,41.9725 33.1175,47.24 L33.16625,47.3975 L33.40625,48.94875 C33.9375,51.28875 32.75125,54.55625 30.41375,55.08625 C30.21,55.13375 30.00875,55.155 29.80875,55.155 C28.09,55.155 26.5275,53.51625 25.75125,51.74875 C26.37375,51.25625 27.075,50.7675 27.87875,50.28875 C25.89375,51.47125 24.505,52.70375 23.5025,53.94 C23.8275,54.11125 24.5725,54.60625 25.51125,55.88625 C23.31375,57.38875 20.4875,68.85 20.4875,68.85 L18.78,64.825 L31.405,94.8975 L30.1775,95.49625 C31.53625,94.8425 32.64,94.3425 33.1575,94.17375 C33.6325,94.02 34.37875,93.85625 35.315,93.6875 C32.8175,88.955 31.78125,78.52 31.78125,78.52 C31.61375,77.94875 31.985,77.54125 32.65,77.29 C32.5975,77.23625 32.57125,77.2075 32.57125,77.2075 C32.57125,77.2075 35.93,75.26625 38.3825,75.26625 C40.835,75.26625 45.9125,77.83625 48.04625,85.195 L63.97125,85.1175 C64.29125,84.885 64.615,84.6475 64.945,84.40625 L92.5125,64.19875 C93.04625,63.8025 93.45625,63.4975 93.72125,63.2975 C97.57,60.395 99.92625,57.41875 97.125,53.44625 C95.93875,51.76375 94.14625,51.30375 92.53875,51.30375 C90.5975,51.30375 88.9275,51.975 88.9275,51.975 C88.9275,51.975 91.12875,48.5925 88.35875,45.8675 C86.72,44.2575 84.8425,43.76125 83.15125,43.76125 C80.44,43.76125 78.20625,45.03625 78.20625,45.03625 C78.20625,45.03625 79.245,41.1425 77.11125,38.92625 C75.7425,37.505 73.4075,36.6725 71.32375,36.6725 C70.155,36.6725 69.06375,36.935 68.26875,37.50375 C68.9675,35.25875 67.66125,30.825 63.65125,30.825 M54.36,37.5925 C53.3925,37.5925 52.2725,37.25375 51.3375,36.6325 C53.595,35.33625 55.64125,34.1725 57.24875,33.28375 C57.225,35.065 56.69,36.71 55.8225,37.24 C55.43,37.47875 54.92125,37.5925 54.36,37.5925 M47.46625,46.115 C46.06375,46.115 44.74375,45.28625 43.8975,43.89375 L42.42875,41.7975 C44.83375,40.39375 47.28625,38.96875 49.585,37.64125 L49.96125,38.4675 C50.8325,40.7475 51.51875,44.29 49.47,45.53125 C48.81125,45.93 48.13,46.115 47.46625,46.115 M39.29875,50.775 C37.5925,50.775 35.81875,49.46875 34.88875,47.9 L34.0675,46.685 C36.115,45.4875 38.4825,44.1 40.9475,42.66125 L41.63375,44.11125 C42.555,46.255 42.9275,49.13 40.865,50.35125 C40.36875,50.645 39.8375,50.775 39.29875,50.775 M32.8575,47.3925 C30.86875,48.555 29.27875,49.4825 28.345,50.01625 C28.31625,50.03375 28.2875,50.05 28.25875,50.06625 C29.17875,49.54125 30.80875,48.59125 32.8575,47.3925 M20.38125,61.45375 C20.23625,61.98875 20.0775,62.50125 19.88,62.98625 C20.0625,62.555 20.2375,62.045 20.38125,61.45375 M19.16,64.33375 C19.095,64.4275 19.025,64.52 18.9525,64.61125 C18.88375,64.69625 18.81375,64.7825 18.74125,64.86875 C18.76625,64.84 18.78,64.825 18.78,64.825 L18.78,64.825 C18.78,64.825 18.93625,64.66375 19.16,64.33375 M16.79,66.86875 C13.8,69.60125 9.99625,72 9.99625,72 L20.02625,100.6425 C20.02625,100.6425 25.62625,97.71125 29.6,95.77625 C29.4825,95.51875 17.87125,70.0425 16.79,66.86875" id="path878" fill="url(#linearGradient-3)" sketch:type="MSShapeGroup" transform="translate(54.183750, 65.762500) scale(1, -1) translate(-54.183750, -65.762500) "></path>
                <path d="M18.78,73.63 L20.4875,77.655 C20.4875,77.655 23.31375,66.19375 25.51125,64.69125 C24.24,62.95625 23.32375,62.665 23.32375,62.665 C23.32375,62.665 21.2175,65.58125 20.5375,69.50625 C20.05,72.325 18.78,73.63 18.78,73.63" id="path880" fill="#E6B315" sketch:type="MSShapeGroup" transform="translate(22.155000, 70.165000) scale(1, -1) translate(-22.155000, -70.165000) "></path>
                <path d="M63.975,43.2825 L63.97125,43.2825 C62.37625,44.45 60.92625,45.51 59.69625,46.40875 L59.71125,46.40875 L59.71125,46.40875 L63.975,43.2825" id="path888" sketch:type="MSShapeGroup" transform="translate(61.821250, 44.845000) scale(1, -1) translate(-61.821250, -44.845000) "></path>
                <path d="M63.975,43.2825 L63.97125,43.2825 C62.37625,44.45 60.92625,45.51 59.69625,46.40875 L59.71125,46.40875 L59.71125,46.40875 L63.975,43.2825" id="path896" fill="url(#linearGradient-4)" sketch:type="MSShapeGroup" transform="translate(61.821250, 44.845000) scale(1, -1) translate(-61.821250, -44.845000) "></path>
                <path d="M38.3825,43.25875 C35.93,43.25875 32.57125,45.2 32.57125,45.2 C32.57125,45.2 32.5975,45.22875 32.65,45.2825 C33.2,45.075 33.95,44.97375 34.7625,44.97375 C35.93375,44.97375 37.23375,45.185 38.245,45.58875 C42.5875,47.325 45.31625,56.18375 46.315,56.28125 C46.56875,56.30625 47.55875,56.315 48.8975,56.315 C52.71125,56.315 59.34,56.24 59.69625,56.23625 C60.92625,55.3375 62.37625,54.2775 63.97125,53.11 L48.04625,53.1875 C45.9125,45.82875 40.835,43.25875 38.3825,43.25875" id="path904" sketch:type="MSShapeGroup" transform="translate(48.258750, 49.758750) scale(1, -1) translate(-48.258750, -49.758750) "></path>
                <path d="M38.3825,43.25875 C35.93,43.25875 32.57125,45.2 32.57125,45.2 C32.57125,45.2 32.5975,45.22875 32.65,45.2825 C33.2,45.075 33.95,44.97375 34.7625,44.97375 C35.93375,44.97375 37.23375,45.185 38.245,45.58875 C42.5875,47.325 45.31625,56.18375 46.315,56.28125 C46.56875,56.30625 47.55875,56.315 48.8975,56.315 C52.71125,56.315 59.34,56.24 59.69625,56.23625 C60.92625,55.3375 62.37625,54.2775 63.97125,53.11 L48.04625,53.1875 C45.9125,45.82875 40.835,43.25875 38.3825,43.25875" id="path912" fill="url(#linearGradient-5)" sketch:type="MSShapeGroup" transform="translate(48.258750, 49.758750) scale(1, -1) translate(-48.258750, -49.758750) "></path>
                <path d="M57.24875,93.99125 C55.64125,94.88 53.595,96.04375 51.3375,97.34 C52.2725,97.96125 53.3925,98.3 54.36,98.3 C54.92125,98.3 55.43,98.18625 55.8225,97.9475 C56.69,97.4175 57.225,95.7725 57.24875,93.99125" id="path920" sketch:type="MSShapeGroup" transform="translate(54.275000, 96.116250) scale(1, -1) translate(-54.275000, -96.116250) "></path>
                <path d="M57.24875,93.99125 C55.64125,94.88 53.595,96.04375 51.3375,97.34 C52.2725,97.96125 53.3925,98.3 54.36,98.3 C54.92125,98.3 55.43,98.18625 55.8225,97.9475 C56.69,97.4175 57.225,95.7725 57.24875,93.99125" id="path928" fill="url(#linearGradient-6)" sketch:type="MSShapeGroup" transform="translate(54.275000, 96.116250) scale(1, -1) translate(-54.275000, -96.116250) "></path>
                <path id="path936" sketch:type="MSShapeGroup" transform="translate(28.066250, 81.333750) scale(1, -1) translate(-28.066250, -81.333750) " d="M28.25875,81.20875 L28.25875,81.20875 C28.13,81.2825 28.0025,81.35625 27.87875,81.43125 C28.0025,81.35625 28.13,81.2825 28.25875,81.20875 L28.25875,81.20875"></path>
                <path id="path944" fill="url(#linearGradient-7)" sketch:type="MSShapeGroup" transform="translate(28.066250, 81.333750) scale(1, -1) translate(-28.066250, -81.333750) " d="M28.25875,81.20875 L28.25875,81.20875 C28.13,81.2825 28.0025,81.35625 27.87875,81.43125 C28.0025,81.35625 28.13,81.2825 28.25875,81.20875 L28.25875,81.20875"></path>
                <path id="path952" sketch:type="MSShapeGroup" transform="translate(32.982500, 84.222500) scale(1, -1) translate(-32.982500, -84.222500) " d="M33.1175,84.16 C33.03,84.21125 32.94375,84.2625 32.8575,84.3125 C32.94375,84.2625 33.03,84.21125 33.1175,84.16 L33.1175,84.16"></path>
                <path id="path960" fill="url(#linearGradient-8)" sketch:type="MSShapeGroup" transform="translate(32.982500, 84.222500) scale(1, -1) translate(-32.982500, -84.222500) " d="M33.1175,84.16 C33.03,84.21125 32.94375,84.2625 32.8575,84.3125 C32.94375,84.2625 33.03,84.21125 33.1175,84.16 L33.1175,84.16"></path>
                <path d="M33.1175,76.41 C33.03,76.46125 32.94375,76.5125 32.8575,76.5625 C30.80875,77.76125 29.17875,78.71125 28.25875,79.23625 L28.25875,79.23625 C28.13,79.31 28.0025,79.38375 27.87875,79.45875 C27.075,79.9375 26.37375,80.42625 25.75125,80.91875 C26.5275,82.68625 28.09,84.325 29.80875,84.325 C30.00875,84.325 30.21,84.30375 30.41375,84.25625 C32.75125,83.72625 33.9375,80.45875 33.40625,78.11875 L33.16625,76.5675 L33.1175,76.41" id="path968" sketch:type="MSShapeGroup" transform="translate(29.626250, 80.347500) scale(1, -1) translate(-29.626250, -80.347500) "></path>
                <path d="M33.1175,76.41 C33.03,76.46125 32.94375,76.5125 32.8575,76.5625 C30.80875,77.76125 29.17875,78.71125 28.25875,79.23625 L28.25875,79.23625 C28.13,79.31 28.0025,79.38375 27.87875,79.45875 C27.075,79.9375 26.37375,80.42625 25.75125,80.91875 C26.5275,82.68625 28.09,84.325 29.80875,84.325 C30.00875,84.325 30.21,84.30375 30.41375,84.25625 C32.75125,83.72625 33.9375,80.45875 33.40625,78.11875 L33.16625,76.5675 L33.1175,76.41" id="path976" fill="url(#linearGradient-9)" sketch:type="MSShapeGroup" transform="translate(29.626250, 80.347500) scale(1, -1) translate(-29.626250, -80.347500) "></path>
                <path d="M40.9475,80.73875 C38.4825,82.1775 36.115,83.565 34.0675,84.7625 L34.88875,85.9775 C35.81875,87.54625 37.5925,88.8525 39.29875,88.8525 C39.8375,88.8525 40.36875,88.7225 40.865,88.42875 C42.9275,87.2075 42.555,84.3325 41.63375,82.18875 L40.9475,80.73875" id="path984" sketch:type="MSShapeGroup" transform="translate(38.192500, 84.801250) scale(1, -1) translate(-38.192500, -84.801250) "></path>
                <path d="M40.9475,80.73875 C38.4825,82.1775 36.115,83.565 34.0675,84.7625 L34.88875,85.9775 C35.81875,87.54625 37.5925,88.8525 39.29875,88.8525 C39.8375,88.8525 40.36875,88.7225 40.865,88.42875 C42.9275,87.2075 42.555,84.3325 41.63375,82.18875 L40.9475,80.73875" id="path992" fill="url(#linearGradient-10)" sketch:type="MSShapeGroup" transform="translate(38.192500, 84.801250) scale(1, -1) translate(-38.192500, -84.801250) "></path>
                <path d="M49.585,85.38375 C47.28625,86.71125 44.83375,88.13625 42.42875,89.54 L43.8975,91.63625 C44.74375,93.02875 46.06375,93.8575 47.46625,93.8575 C48.13,93.8575 48.81125,93.6725 49.47,93.27375 C51.51875,92.0325 50.8325,88.49 49.96125,86.21 L49.585,85.38375" id="path1000" sketch:type="MSShapeGroup" transform="translate(46.616250, 89.633750) scale(1, -1) translate(-46.616250, -89.633750) "></path>
                <path d="M49.585,85.38375 C47.28625,86.71125 44.83375,88.13625 42.42875,89.54 L43.8975,91.63625 C44.74375,93.02875 46.06375,93.8575 47.46625,93.8575 C48.13,93.8575 48.81125,93.6725 49.47,93.27375 C51.51875,92.0325 50.8325,88.49 49.96125,86.21 L49.585,85.38375" id="path1008" fill="url(#linearGradient-11)" sketch:type="MSShapeGroup" transform="translate(46.616250, 89.633750) scale(1, -1) translate(-46.616250, -89.633750) "></path>
                <path d="M49.9375,90.8556269 C49.23125,90.9068769 48.53125,91.1306269 47.895,91.5456269 C45.885,92.8493769 45.4275,95.1768769 46.73125,97.1893769 L47.1,97.8768769 C48.4075,99.8881269 51.495,100.713127 52.95375,99.8256269 C54.16375,99.0881269 54.745,96.1868769 54.16375,93.7618769 L54.015,93.3456269 C52.685,90.9306269 51.46625,90.7443769 49.9375,90.8556269" id="path1010" fill="#5BB9C9" sketch:type="MSShapeGroup" transform="translate(50.183984, 95.519063) scale(1, -1) translate(-50.183984, -95.519063) "></path>
                <path d="M26.15875,73.3053055 C25.9375,73.3203055 25.7225,73.3515555 25.50625,73.4015555 C23.16875,73.9328055 21.70125,76.2590555 22.2325,78.5978055 L22.485,79.7040555 C23.01375,82.0428055 25.20875,84.7565555 27.545,84.2190555 C29.8825,83.6903055 31.06875,80.4215555 30.53875,78.0815555 L30.2975,76.5303055 C29.81625,74.4090555 28.26375,73.1515555 26.15875,73.3053055" id="path1012" fill="#5BB9C9" sketch:type="MSShapeGroup" transform="translate(26.373788, 78.792653) scale(1, -1) translate(-26.373788, -78.792653) "></path>
                <path d="M33.41125,77.739062 C32.765,77.784062 32.3125,77.750312 31.71125,78.106562 C29.64875,79.326562 28.7725,82.216562 29.995,84.280312 L32.02,87.281562 C33.245,89.346562 35.93,90.956562 37.99625,89.732812 C40.06,88.512812 39.6875,85.636562 38.765,83.492812 L37.13625,80.046562 C36.27,78.580312 35.0025,77.622812 33.41125,77.739062" id="path1014" fill="#5BB9C9" sketch:type="MSShapeGroup" transform="translate(34.498427, 83.917031) scale(1, -1) translate(-34.498427, -83.917031) "></path>
                <path d="M41.7375,82.3763189 C41.07,82.4238189 40.41,82.6275689 39.8025,82.9950689 C37.7525,84.2400689 37.0975,86.9075689 38.34,88.9588189 L41.03,92.7963189 C42.275,94.8475689 44.55125,95.6750689 46.6025,94.4338189 C48.65125,93.1925689 47.965,89.6500689 47.0925,87.3700689 L45.7675,84.4550689 C44.8925,83.0125689 43.30875,82.2625689 41.7375,82.3763189" id="path1016" fill="#5BB9C9" sketch:type="MSShapeGroup" transform="translate(42.835907, 88.677534) scale(1, -1) translate(-42.835907, -88.677534) "></path>
                <path d="M49.9375,90.8556269 C49.23125,90.9068769 48.53125,91.1306269 47.895,91.5456269 C45.885,92.8493769 45.4275,95.1768769 46.73125,97.1893769 L47.1,97.8768769 C48.4075,99.8881269 51.495,100.713127 52.95375,99.8256269 C54.16375,99.0881269 54.745,96.1868769 54.16375,93.7618769 L54.015,93.3456269 C52.685,90.9306269 51.46625,90.7443769 49.9375,90.8556269" id="path1018" fill="#F57338" sketch:type="MSShapeGroup" transform="translate(50.183984, 95.519063) scale(1, -1) translate(-50.183984, -95.519063) "></path>
                <path d="M59.71125,53.40875 C59.71125,53.40875 47.3125,53.55125 46.315,53.45375 C45.31625,53.35625 42.5875,44.4975 38.245,42.76125 C35.685,41.7375 31.2775,41.95625 31.78125,43.685 C31.78125,43.685 33.1575,57.54625 36.56125,60.56375 C39.96,63.57875 42.6275,64.45625 47.25,65.24125 C51.875,66.02625 61.8875,69.40375 65.34375,68.39625 C68.7975,67.3875 74.53375,65.83 77.95625,65.15625 C81.37875,64.48125 85.44,61.9525 87.47125,61.815 C89.4975,61.6775 96.80625,65.8075 96.80625,65.8075 L106.01625,37.165 C106.01625,37.165 94.81375,29.15625 94.24375,28.095 L59.71125,53.40875" id="path1020" fill="#F57338" sketch:type="MSShapeGroup" transform="translate(68.866534, 48.345000) scale(1, -1) translate(-68.866534, -48.345000) "></path>
                <path d="M26.15875,73.3053055 C25.9375,73.3203055 25.7225,73.3515555 25.50625,73.4015555 C23.16875,73.9328055 21.70125,76.2590555 22.2325,78.5978055 L22.485,79.7040555 C23.01375,82.0428055 25.20875,84.7565555 27.545,84.2190555 C29.8825,83.6903055 31.06875,80.4215555 30.53875,78.0815555 L30.2975,76.5303055 C29.81625,74.4090555 28.26375,73.1515555 26.15875,73.3053055" id="path1022" fill="#F57338" sketch:type="MSShapeGroup" transform="translate(26.373788, 78.792653) scale(1, -1) translate(-26.373788, -78.792653) "></path>
                <path d="M33.41125,77.739062 C32.765,77.784062 32.3125,77.750312 31.71125,78.106562 C29.64875,79.326562 28.7725,82.216562 29.995,84.280312 L32.02,87.281562 C33.245,89.346562 35.93,90.956562 37.99625,89.732812 C40.06,88.512812 39.6875,85.636562 38.765,83.492812 L37.13625,80.046562 C36.27,78.580312 35.0025,77.622812 33.41125,77.739062" id="path1024" fill="#F57338" sketch:type="MSShapeGroup" transform="translate(34.498427, 83.917031) scale(1, -1) translate(-34.498427, -83.917031) "></path>
                <path d="M41.7375,82.3763189 C41.07,82.4238189 40.41,82.6275689 39.8025,82.9950689 C37.7525,84.2400689 37.0975,86.9075689 38.34,88.9588189 L41.03,92.7963189 C42.275,94.8475689 44.55125,95.6750689 46.6025,94.4338189 C48.65125,93.1925689 47.965,89.6500689 47.0925,87.3700689 L45.7675,84.4550689 C44.8925,83.0125689 43.30875,82.2625689 41.7375,82.3763189" id="path1026" fill="#F57338" sketch:type="MSShapeGroup" transform="translate(42.835907, 88.677534) scale(1, -1) translate(-42.835907, -88.677534) "></path>
                <path d="M56.51625,100.723543 C56.965,99.9460431 57.2325,98.7847931 57.24875,97.5485431 C56.62625,97.8922931 55.92125,98.2885431 55.18125,98.7072931 C56.1675,98.1160431 58.93125,96.4497931 59.9525,95.7210431 C63.10375,94.5035431 65.29875,95.4010431 65.29875,95.4010431 L56.51625,100.723543" id="path1028" fill="#E6B315" sketch:type="MSShapeGroup" transform="translate(60.243750, 97.894897) scale(1, -1) translate(-60.243750, -97.894897) "></path>
                <path d="M89.96375,58.95875 L102.805,28.995 L109.17625,31.72 L97.455,63.23875 L89.96375,58.95875" id="path1030" fill="#FFFFFF" sketch:type="MSShapeGroup" transform="translate(99.588750, 46.120000) scale(1, -1) translate(-99.588750, -46.120000) "></path>
                <path d="M18.74125,35.78125 C18.4975,36.055 17.18375,37.51875 16.76625,37.70875 C16.77375,37.73125 16.78125,37.755 16.79,37.78125 C17.50875,37.12375 18.18,36.4475 18.74125,35.78125 M30.1775,66.40875 C29.99,66.5 29.79625,66.5925 29.6,66.68875 C29.6,66.69 29.60125,66.69125 29.60125,66.69125 L30.1775,66.40875" id="path1038" sketch:type="MSShapeGroup" transform="translate(23.453750, 51.218750) scale(1, -1) translate(-23.453750, -51.218750) "></path>
                <path d="M18.74125,35.78125 C18.4975,36.055 17.18375,37.51875 16.76625,37.70875 C16.77375,37.73125 16.78125,37.755 16.79,37.78125 C17.50875,37.12375 18.18,36.4475 18.74125,35.78125 M30.1775,66.40875 C29.99,66.5 29.79625,66.5925 29.6,66.68875 C29.6,66.69 29.60125,66.69125 29.60125,66.69125 L30.1775,66.40875" id="path1046" fill="url(#linearGradient-12)" sketch:type="MSShapeGroup" transform="translate(23.453750, 51.218750) scale(1, -1) translate(-23.453750, -51.218750) "></path>
                <path d="M18.78,35.7 C18.78,35.7 18.76625,35.715 18.74125,35.74375 C18.18,36.41 17.50875,37.08625 16.79,37.74375 C17.87125,40.9175 29.4825,66.39375 29.6,66.65125 C29.79625,66.555 29.99,66.4625 30.1775,66.37125 L31.405,65.7725 L18.78,35.7" id="path1054" sketch:type="MSShapeGroup" transform="translate(24.102500, 51.200000) scale(1, -1) translate(-24.102500, -51.200000) "></path>
                <path d="M18.78,35.7 C18.78,35.7 18.76625,35.715 18.74125,35.74375 C18.18,36.41 17.50875,37.08625 16.79,37.74375 C17.87125,40.9175 29.4825,66.39375 29.6,66.65125 C29.79625,66.555 29.99,66.4625 30.1775,66.37125 L31.405,65.7725 L18.78,35.7" id="path1062" fill="url(#linearGradient-13)" sketch:type="MSShapeGroup" transform="translate(24.102500, 51.200000) scale(1, -1) translate(-24.102500, -51.200000) "></path>
                <path d="M30.03625,61.54 L16.34125,30.56375 L10.8225,32.74875 L22.545,65.82 L30.03625,61.54" id="path1064" fill="#FFFFFF" sketch:type="MSShapeGroup" transform="translate(20.447500, 48.188750) scale(1, -1) translate(-20.447500, -48.188750) "></path>
                <path d="M25.53375,59.0225 L13.47125,67.0075 C5.0525,56.67875 0,43.49875 0,29.135 C0,29.00625 0.00875,28.88 0.01,28.7525 L10.18625,21.8175 L25.53375,59.0225" id="path1066" fill="#3A556C" sketch:type="MSShapeGroup" transform="translate(12.750000, 44.442500) scale(1, -1) translate(-12.750000, -44.442500) "></path>
                <path d="M94.24375,67.97 C94.3125,68.1 94.5425,68.335 94.8925,68.64625 C94.335,68.12875 94.245,67.9725 94.24375,67.97" id="path1074" sketch:type="MSShapeGroup" transform="translate(94.556250, 68.282500) scale(1, -1) translate(-94.556250, -68.282500) "></path>
                <path d="M94.24375,67.97 C94.3125,68.1 94.5425,68.335 94.8925,68.64625 C94.335,68.12875 94.245,67.9725 94.24375,67.97" id="path1082" fill="url(#linearGradient-14)" sketch:type="MSShapeGroup" transform="translate(94.556250, 68.282500) scale(1, -1) translate(-94.556250, -68.282500) "></path>
                <path d="M94.24375,43.22 L92.5125,44.48875 L64.945,64.69625 L59.71125,68.53375 C59.71125,68.53375 80.93,59.70625 82.59125,59.485 C84.1425,58.4875 97.52625,46.0325 97.52625,46.0325 C97.52625,46.0325 95.9225,44.80625 95.455,44.4 C95.22875,44.20375 95.04375,44.03625 94.8925,43.89625 C94.5425,43.585 94.3125,43.35 94.24375,43.22 L94.24375,43.22" id="path1084" fill="#B55529" sketch:type="MSShapeGroup" transform="translate(78.648750, 55.907500) scale(1, -1) translate(-78.648750, -55.907500) "></path>
                <path d="M94.53125,67.1144687 C94.53125,67.1144687 92.07875,66.2832187 88.9275,67.4994687 C87.675,68.3932187 73.82125,77.5594687 73.82125,77.5594687 L74.0325,80.2569687 L94.53125,67.1144687" id="path1086" fill="#E6B315" sketch:type="MSShapeGroup" transform="translate(84.196250, 73.524734) scale(1, -1) translate(-84.196250, -73.524734) "></path>
                <path d="M84.6275,75.1977458 C84.6275,75.1977458 81.2375,74.4214958 78.22875,76.2739958 C76.97625,77.1677458 64.85,85.1302458 64.85,85.1302458 L65.22125,87.8289958 L84.6275,75.1977458" id="path1088" fill="#E6B315" sketch:type="MSShapeGroup" transform="translate(74.725000, 81.411373) scale(1, -1) translate(-74.725000, -81.411373) "></path>
                <path d="M73.63375,85.0722471 C73.63375,85.0722471 71.45125,83.9809971 68.13,85.4734971 C66.8775,86.3684971 57.445,92.4484971 57.445,92.4484971 L57.92125,94.9884971 L73.63375,85.0722471" id="path1090" fill="#E6B315" sketch:type="MSShapeGroup" transform="translate(65.570000, 89.812374) scale(1, -1) translate(-65.570000, -89.812374) "></path>
                <path d="M109.5225,20.9125 L119.93375,27.53625 C119.34875,41.3625 114.08125,53.97 105.67875,63.83125 L94.3,56.7225 L109.5225,20.9125" id="path1092" fill="#3A556C" sketch:type="MSShapeGroup" transform="translate(107.112500, 42.350000) scale(1, -1) translate(-107.112500, -42.350000) "></path>
            </g>
        </g>
    </g>
</svg>