<?xml version="1.0" encoding="UTF-8" standalone="no"?>
<svg width="267px" height="136px" viewBox="0 0 267 136" version="1.1" xmlns="http://www.w3.org/2000/svg" xmlns:xlink="http://www.w3.org/1999/xlink" xmlns:sketch="http://www.bohemiancoding.com/sketch/ns">
    <!-- Generator: Sketch 3.2 (9961) - http://www.bohemiancoding.com/sketch -->
    <title>ico-origin</title>
    <desc>Created with Sketch.</desc>
    <defs></defs>
    <g id="Welcome" stroke="none" stroke-width="1" fill="none" fill-rule="evenodd" sketch:type="MSPage">
        <g id="tangerine" sketch:type="MSArtboardGroup" transform="translate(-307.000000, -838.000000)" stroke="#646464">
            <g id="ico-origin" sketch:type="MSLayerGroup" transform="translate(308.000000, 838.000000)">
                <path d="M134.939171,89.5582236 L139.635589,92.4763221 C139.635585,92.4763258 143.340896,96.2523638 143.727517,96.7145128 C143.824172,96.830051 144.131676,96.9289328 144.541252,97.0155865 C144.950828,97.1022401 145.461705,97.1778328 145.959477,97.2356018 C146.955021,97.3511363 147.900818,97.4092982 147.900818,97.4092982 C148.101352,97.6975174 148.421375,97.9175624 148.807552,98.0925038 C149.19373,98.2674452 149.645014,98.3922546 150.132779,98.4977952 C151.108306,98.7088766 152.207952,98.8221359 153.085477,99.0188843 C153.505993,99.195445 155.24626,100.25545 156.328795,100.871645 C159.629872,100.4095 162.358723,99.9442198 164.838145,99.4820745 C164.838145,99.4820745 165.826654,98.8109637 166.860859,98.1851418 C167.377964,97.872229 167.901511,97.5731378 168.325584,97.3745589 C168.749656,97.17598 169.065914,97.0814225 169.162569,97.1777031 C169.355875,97.3702642 170.443785,97.8678083 171.545652,98.3588382 C172.647519,98.849868 173.762725,99.3280248 174.033358,99.4820745 C174.168674,99.5590975 174.348373,99.5732155 174.533224,99.551553 C174.718075,99.5298906 174.912401,99.4684122 175.091214,99.4010162 C175.448838,99.2662241 175.742203,99.0999426 175.742203,99.0999426 L178.218284,99.9452647 L178.218284,98.3240989 L180.148,97.2471816 L180.148,95.7881323 L178.520529,93.7848346 L177.590545,91.3994048 C177.590549,91.3994048 177.427274,90.4708047 177.195302,89.4887451 C177.079319,88.9977153 176.942168,88.4876131 176.811684,88.0760149 C176.6812,87.6644166 176.555678,87.3462309 176.439691,87.2306927 C175.975748,86.7685474 175.044715,85.2389747 175.044715,85.2389747 L174.347228,81.2323791 L175.591081,80.0744035 L178.218284,81.1513208 L178.834399,79.8428084 L177.055805,77.7584523 L177.055805,74.215047 L178.055537,69.988436 L178.985521,68.0546168 L177.823041,65.9818405 L176.276944,65.8197239 L175.044715,63.584831 L173.114999,62.9711039 L171.871146,63.5153524 L170.557544,62.9016254 L169.94143,59.2771618 L169.09282,57.3549223 L167.383975,55.5832196 L164.338279,52.8388174 L162.28069,53.4872838 L158.386384,53.4872838 L156.665914,54.3441857 L155.619682,55.9537718 L154.480452,56.8106737 L153.527219,56.6138179 L153.131976,56.3359037 L153.085477,56.5790786 C151.745199,57.2700843 150.44237,57.8328679 149.121422,58.3739408 C147.800473,58.9150137 146.458722,59.4306222 145.041118,60.0414256 C144.471526,60.3891037 143.882932,60.6808246 143.27415,60.9330669 C142.665367,61.1853091 142.036769,61.4033272 141.402558,61.6046927 C140.221709,61.9796211 139.010971,62.3197769 137.810496,62.7395088 L137.926744,62.9016254 L139.00785,63.8164261 L145.273614,63.8164261 L147.284704,65.7502453 L146.970835,67.8230217 L141.948923,69.2125924 L140.716695,72.7559977 L140.019207,74.2961053 L139.85646,78.4532377 C139.527833,79.0854627 139.208603,79.5967765 138.879977,80.0165047 C138.55135,80.4362329 138.220496,80.7639752 137.891869,81.0586827 C137.234616,81.6481016 136.572907,82.0772121 135.915654,82.6914283 C135.83591,83.8467915 135.868839,84.9984122 135.776157,86.1537754 C135.729817,86.7314588 135.654195,87.3130553 135.520411,87.8907388 C135.391958,88.4454109 135.199102,89.0032661 134.939171,89.5582236 L134.939171,89.5582236 Z" id="path4607" stroke-width="0.7" fill="#E6E6E6" sketch:type="MSShapeGroup"></path>
                <path d="M67.3758607,94.1669665 L75.8387117,94.3175033 L81.1744928,99.0999426 C81.7230901,98.9089711 82.2832379,98.7307503 82.8600881,98.5904333 C83.4369384,98.4501163 84.0332736,98.348359 84.6619314,98.3009394 C85.2905892,98.2535198 85.9457403,98.2595339 86.6497714,98.3472584 C87.3538025,98.4349829 88.1020227,98.6032396 88.9049817,98.8683474 C89.8328673,98.6752193 90.7554222,98.3675943 91.6833078,98.1735621 C92.1472506,98.0765478 92.6143405,98.0087997 93.0782832,97.9998657 C93.542226,97.9909317 94.0093159,98.0355425 94.4732587,98.1735621 L94.9382505,97.559835 L100.890146,97.2471816 L104.133464,95.093347 L104.133464,92.7773958 L101.820129,89.396107 L99.111552,89.5466439 L92.6132914,86.0842968 L86.5800226,81.8461062 L86.0452821,79.530155 L85.9639085,79.4375169 C85.4368272,79.4597426 84.9097534,79.4753355 84.3829363,79.6112132 C84.0285344,79.7026211 83.667857,79.8297093 83.3134551,79.9933452 C82.9590533,80.156981 82.6100007,80.3542779 82.2555988,80.6070723 L79.3145255,79.8428084 L79.2447768,78.2216425 C78.5275734,77.5429391 78.0797602,77.2341876 77.7103038,77.0173479 C77.3408473,76.8005082 77.0399195,76.6829838 76.6059482,76.3804613 L75.0598504,77.2257835 C74.8049605,77.0289203 74.5787476,76.9138638 74.3739875,76.8668111 C74.1692274,76.8197584 73.9899936,76.8335133 73.8276221,76.9131301 C73.6652507,76.9927469 73.5252324,77.1352798 73.3975047,77.3184216 C73.269777,77.5015633 73.1495934,77.7265255 73.0487609,77.9900474 C71.9619634,78.0129549 70.7884245,77.7878667 69.6775702,77.7468725 C69.1221431,77.7263773 68.5855574,77.760646 68.0849732,77.8858296 C67.8346812,77.9484196 67.5932128,78.0329462 67.3642359,78.152164 C67.1352591,78.2713818 66.915835,78.4260391 66.7132474,78.6153542 L66.3877531,80.097563 L65.2368984,81.1050018 L64.7137826,82.1587596 L66.3063795,84.5441893 L67.1084904,85.7253244 L67.4223599,91.0520122 L67.3758607,94.1669665 L67.3758607,94.1669665 Z" id="path4587" stroke-width="0.701" fill="#E6E6E6" sketch:type="MSShapeGroup"></path>
                <path d="M99.8439141,108.757459 L97.7979502,105.028778 L97.7979502,100.17686 L94.5662571,98.0577645 L94.4732587,98.1735621 C94.0093159,98.0355425 93.542226,97.9909317 93.0782832,97.9998657 C92.6143405,98.0087997 92.1472506,98.0765478 91.6833078,98.1735621 C90.7554222,98.3675943 89.8328673,98.6752193 88.9049817,98.8683474 C88.1020227,98.6032396 87.3538025,98.4349829 86.6497714,98.3472584 C85.9457403,98.2595339 85.2905892,98.2535198 84.6619314,98.3009394 C84.0332736,98.348359 83.4369384,98.4501163 82.8600881,98.5904333 C82.2832379,98.7307503 81.7230901,98.9089711 81.1744928,99.0999426 L75.8387117,94.3175033 L67.3758607,94.1669665 L67.3409863,96.1239453 L66.7829962,96.8418901 L66.4691267,97.7914301 L65.9925101,98.5904333 L65.0276521,101.60117 L63.4350551,103.743425 L61.8424581,103.743425 L60.1684876,106.290971 L57.4599103,111.131309 L58.7386378,111.050251 L60.1684876,111.768196 L62.0052053,113.030389 L64.5510354,112.636677 L65.1090256,113.586217 L67.1084904,114.142046 L68.3755931,115.740052 L69.4915735,116.214822 L70.5261803,115.184224 L71.8049077,113.991509 L72.758141,112.242966 L74.118242,111.525021 C74.118242,111.525021 74.996872,111.609436 75.3155959,111.768196 C75.6343571,111.926948 76.350199,112.32402 76.3502027,112.324024 L77.0593152,112.717736 L78.3380427,112.636677 L79.1401536,112.242966 L80.4072563,112.161907 C80.4072563,112.161907 81.3672226,112.161904 81.6859838,112.161907 C82.0047078,112.161907 82.9598196,112.315801 83.2785808,112.474561 C83.5973048,112.633309 84.0806879,113.192506 84.0806916,113.192506 L85.7546622,113.030389 L86.5451483,112.96091 L87.8238757,113.354622 L88.8584825,114.072567 L89.7303422,114.547337 L92.9271609,115.103165 L94.2756372,116.133764 C94.2756372,116.133764 95.6308428,116.13376 95.9496077,116.133764 C96.2683317,116.133764 96.5889714,115.577939 96.5889714,115.577935 L96.670345,114.223104 L97.4608311,113.516739 L98.4256891,112.717736 L98.4954379,111.443962 L98.9023057,109.938594 L99.8439141,108.757459 L99.8439141,108.757459 Z" id="path4592" stroke-width="0.701" fill="#F5773E" sketch:type="MSShapeGroup"></path>
                <path d="M103.889343,95.2554636 L104.063715,95.3249421 L113.340302,96.7145128 C114.927538,96.7480478 116.97146,96.5060957 118.536585,96.4250189 C119.319148,96.3844805 119.985581,96.3771065 120.408177,96.4713379 C120.619477,96.5184537 120.772917,96.5901185 120.849919,96.6913533 C120.926922,96.7925882 120.925125,96.9276693 120.838295,97.0966448 L125.476588,96.7839914 C125.817795,96.6861952 126.140094,96.512888 126.453071,96.2744821 C126.766047,96.0360762 127.075821,95.7309117 127.37143,95.4060004 C127.96265,94.7561778 128.528221,93.9928552 129.115149,93.3216443 C130.081699,92.9331389 131.043172,92.4645942 132.009723,91.8625951 C132.492998,91.5615955 132.979547,91.225501 133.462822,90.8551563 C133.946098,90.4848116 134.432646,90.0780379 134.915922,89.6277022 C135.193291,89.0500187 135.386627,88.4684222 135.520411,87.8907388 C135.654195,87.3130553 135.729817,86.7314588 135.776157,86.1537754 C135.868839,84.9984122 135.83591,83.8467915 135.915654,82.6914283 C136.572907,82.0772121 137.234616,81.6481016 137.891869,81.0586827 C138.220496,80.7639752 138.55135,80.4362329 138.879977,80.0165047 C139.208603,79.5967765 139.527833,79.0854627 139.85646,78.4532377 L140.019207,74.2961053 L140.716695,72.7559977 L141.948923,69.2125924 L146.970835,67.8230217 L147.284704,65.7502453 L145.273614,63.8164261 L139.00785,63.8164261 L137.926744,62.9016254 L137.810496,62.7395088 C137.72147,62.7706352 137.632017,62.788355 137.543125,62.8205671 C137.109686,62.8683424 136.725874,62.8265997 136.380646,62.727929 C136.035417,62.6292584 135.73129,62.4745232 135.439038,62.2878983 C134.854535,61.9146485 134.337424,61.4229813 133.753442,61.0488644 C132.935726,60.8534093 132.271651,60.7678488 131.719103,60.7477908 C131.166555,60.7277328 130.721338,60.7744705 130.335752,60.8520086 C129.564584,61.0070884 129.02885,61.2828274 128.336288,61.3615178 L124.24436,65.8197239 L116.897489,66.8966412 L115.583887,64.8238649 L116.432497,63.5153524 C115.98144,63.069719 115.535078,62.7426437 115.084021,62.4963339 C114.632964,62.2500242 114.174977,62.0864143 113.72392,61.9520854 C112.821806,61.6834276 111.917453,61.544226 111.015342,61.1994012 C109.584023,60.7785281 108.346568,60.3803364 107.341907,60.0066864 C106.337246,59.6330364 105.567424,59.2827423 105.063447,58.9645083 L103.133731,59.8214103 L99.4254215,56.1969467 L99.2626744,53.3483267 L99.2045504,53.3020077 L97.8793237,54.7378974 C97.6473523,56.4743865 96.9488193,59.3269417 96.7168442,60.6667325 L93.8571445,65.9007822 C93.4611054,66.675466 93.0456743,67.3798894 92.6249162,68.0314573 C92.2041582,68.6830251 91.7717902,69.2799365 91.3345639,69.849479 C90.4601115,70.9885638 89.563306,72.0110952 88.6724858,73.0686511 L88.6724858,79.9933452 L86.5102739,79.3796181 C86.3282872,79.3784694 86.1459844,79.4298391 85.9639085,79.4375169 L86.0452821,79.530155 L86.5800226,81.8461062 L92.6132914,86.0842968 L99.111552,89.5466439 L101.820129,89.396107 L104.133464,92.7773958 L104.133464,95.093347 L103.889343,95.2554636 L103.889343,95.2554636 Z" id="path4602" stroke-width="0.701" fill="#E6E6E6" sketch:type="MSShapeGroup"></path>
                <path d="M151.957872,130.735836 C152.021948,130.213769 152.104162,129.707328 152.236867,129.253627 C152.385158,128.746638 152.582854,128.296002 152.852981,127.910375 L152.852981,125.826019 L151.690501,123.591126 C151.464426,120.946625 151.420282,119.067759 151.388257,116.423257 L152.155493,115.508457 L150.144404,111.10815 L147.133582,110.031232 C146.943675,110.259993 146.723258,110.401295 146.494218,110.471263 C146.265178,110.541231 146.023799,110.541557 145.773481,110.517582 C145.272848,110.469632 144.752511,110.29747 144.273882,110.262827 L143.181151,109.568042 L144.889996,107.182612 L145.122492,104.947719 L143.960013,103.338133 L144.192508,101.948563 C144.787895,101.766262 145.412699,101.630295 145.994352,101.427474 C146.28518,101.326061 146.563256,101.209689 146.819712,101.056921 C147.076168,100.904154 147.315736,100.724451 147.5172,100.489513 L147.900818,99.3315377 L147.831069,97.3977184 C147.76625,97.3936646 146.919008,97.3469565 145.959477,97.2356018 C145.461705,97.1778328 144.950828,97.1022401 144.541252,97.0155865 C144.131676,96.9289328 143.824172,96.830051 143.727517,96.7145128 C143.340896,96.2523638 139.635585,92.4763258 139.635589,92.4763221 L134.939171,89.5582236 C134.928387,89.581246 134.92697,89.6046909 134.915922,89.6277022 C134.432646,90.0780379 133.946098,90.4848116 133.462822,90.8551563 C132.979547,91.225501 132.492998,91.5615955 132.009723,91.8625951 C131.043172,92.4645942 130.081699,92.9331389 129.115149,93.3216443 C128.528221,93.9928552 127.96265,94.7561778 127.37143,95.4060004 C127.075821,95.7309117 126.766047,96.0360762 126.453071,96.2744821 C126.140094,96.512888 125.817795,96.6861952 125.476588,96.7839914 L120.838295,97.0966448 C120.925125,96.9276693 120.926922,96.7925882 120.849919,96.6913533 C120.772917,96.5901185 120.619477,96.5184537 120.408177,96.4713379 C119.985581,96.3771065 119.319148,96.3844805 118.536585,96.4250189 C116.97146,96.5060957 114.927538,96.7480478 113.340302,96.7145128 L104.063715,95.3249421 L103.889343,95.2554636 L100.890146,97.2471816 L94.9382505,97.559835 L94.5662571,98.0577645 L97.7979502,100.17686 L97.7979502,105.028778 L99.8439141,108.757459 L99.8555389,108.745879 L101.366762,108.190051 L102.877986,108.039514 L104.877451,107.958456 L106.388674,108.352168 L108.934504,108.190051 L109.341372,109.382766 L108.702008,110.888134 L107.818524,112.161907 L108.620635,113.516739 L109.899362,114.466279 L110.771222,113.516739 C110.771222,113.516739 111.487082,112.405086 111.805829,112.405082 C112.124575,112.405082 111.968576,113.354622 111.968576,113.354622 L112.840435,114.304162 L114.119163,114.941049 L115.316517,116.608534 L116.188376,117.951785 L117.153234,119.1445 L119.303822,120.418273 C119.303822,120.418273 120.333552,121.449049 120.652298,122.0047 C120.971044,122.560339 122.163518,122.398408 122.163521,122.398412 L124.24436,122.873182 L124.162986,123.753243 L122.802885,124.471188 L121.373035,125.258611 L121.535782,126.208151 L122.640138,125.895498 L123.837492,126.370268 C123.837492,126.370268 124.159794,126.691333 124.558229,127.088213 C124.95666,127.485107 124.880539,127.326533 125.278966,127.644041 C125.677401,127.961552 125.36034,127.723591 125.36034,128.199869 C125.36034,128.676144 125.352085,128.909781 125.511462,129.624179 C125.670835,130.338571 125.918516,129.938526 126.47632,130.017891 C127.034128,130.097274 126.705624,129.867358 127.104059,129.867354 C127.502494,129.867354 127.510923,129.786292 127.510927,129.786296 C127.510927,129.786296 127.502673,129.304808 127.662049,128.987293 C127.821423,128.669781 128.067414,128.914461 128.545534,128.755698 C129.023653,128.596949 128.946022,128.674636 129.742888,128.674639 C130.539757,128.674639 130.221372,128.672964 130.858868,128.593581 C131.496361,128.514201 131.417048,128.590402 131.974848,128.987293 C132.532656,129.384169 132.126153,129.228978 132.683961,129.705238 C133.241765,130.181512 133.486072,130.180008 133.486072,130.180008 C133.486072,130.180008 134.197056,130.658324 134.834548,131.372722 C135.472041,132.087129 134.915925,131.693776 134.915922,132.090667 C134.915922,132.487558 134.832867,132.563948 134.753175,133.040207 C134.67349,133.516478 134.842981,133.2735 135.241416,133.352861 C135.639851,133.432244 135.550409,133.352864 135.869155,133.352861 C136.187901,133.352861 136.110088,133.352864 136.508519,133.352861 C136.90695,133.352861 136.668078,133.117916 137.066509,132.959149 C137.46494,132.800401 137.224387,132.479332 137.543125,132.241204 C137.861876,132.003058 138.182489,132.090671 138.182489,132.090667 L138.9846,131.928551 C138.9846,131.928551 139.537899,132.087484 140.41445,132.484379 C141.291004,132.88127 141.059051,132.636587 141.855925,132.715974 C142.65279,132.795354 142.327661,132.71597 142.646411,132.715974 C142.965157,132.715974 143.199706,132.719328 144.07626,132.878091 C144.952815,133.036843 144.634429,132.962499 145.192241,133.121266 C145.750045,133.280029 145.434859,133.119591 145.912978,133.040207 C146.391101,132.960824 146.547644,133.041882 147.424202,133.121266 C148.300756,133.200645 147.985752,133.121262 148.702929,133.121266 C149.420106,133.121266 149.016798,132.71597 149.016798,132.715974 C149.016798,132.715974 149.186297,132.246066 149.50504,131.928551 C149.823786,131.611039 149.973402,131.609176 150.132779,131.291664 C150.292152,130.974153 150.616136,130.73584 150.93489,130.735836 L151.957872,130.735836 L151.957872,130.735836 Z" id="path4612" stroke-width="0.701" fill="#E6E6E6" sketch:type="MSShapeGroup"></path>
                <path d="M184.193429,101.276937 C184.959881,102.035913 185.692604,102.835116 186.495139,103.558149 C186.914692,103.936138 187.361906,104.295829 187.83199,104.623486 C188.302075,104.951143 188.806304,105.24246 189.354838,105.491968 L191.052058,105.028778 L193.446766,102.330694 L191.749546,100.327397 L191.691422,100.257918 L190.273197,100.257918 L187.645993,97.3282399 C187.141808,97.4731703 186.706204,97.6459402 186.332392,97.8261694 C185.958579,98.0063986 185.642783,98.1918044 185.379158,98.3819977 C184.851913,98.7623843 184.528882,99.1327587 184.321302,99.4010162 L184.402676,101.253777 L184.193429,101.276937 L184.193429,101.276937 Z" id="path4622" stroke-width="0.7" fill="#E6E6E6" sketch:type="MSShapeGroup"></path>
                <path d="M195.074238,94.1669665 L190.900936,97.4787767 L193.597889,98.6367523 L193.52814,99.6326113 L191.819295,100.257918 L191.691422,100.257918 L191.749546,100.327397 L193.446766,102.330694 L191.052058,105.028778 L189.354838,105.491968 C188.806304,105.24246 188.302075,104.951143 187.83199,104.623486 C187.361906,104.295829 186.914692,103.936138 186.495139,103.558149 C185.692604,102.835116 184.959881,102.035913 184.193429,101.276937 L182.47296,101.485372 L181.380229,100.721108 C180.386694,100.673604 179.762779,100.5678 179.311015,100.443194 C178.859251,100.318589 178.580401,100.17361 178.288033,100.026323 L178.102036,99.8989457 L175.742203,99.0999426 C175.742203,99.0999426 175.448838,99.2662241 175.091214,99.4010162 C174.912401,99.4684122 174.718075,99.5298906 174.533224,99.551553 C174.348373,99.5732155 174.168674,99.5590975 174.033358,99.4820745 C173.762725,99.3280248 172.647519,98.849868 171.545652,98.3588382 C170.443785,97.8678083 169.355875,97.3702642 169.162569,97.1777031 C169.065914,97.0814225 168.749656,97.17598 168.325584,97.3745589 C167.901511,97.5731378 167.377964,97.872229 166.860859,98.1851418 C165.826654,98.8109637 164.838145,99.4820745 164.838145,99.4820745 C162.358723,99.9442198 159.629872,100.4095 156.328795,100.871645 C155.24626,100.25545 153.505993,99.195445 153.085477,99.0188843 C152.207952,98.8221359 151.108306,98.7088766 150.132779,98.4977952 C149.645014,98.3922546 149.19373,98.2674452 148.807552,98.0925038 C148.421375,97.9175624 148.101352,97.6975174 147.900818,97.4092982 C147.900818,97.4092982 147.833502,97.3978704 147.831069,97.3977184 L147.900818,99.3315377 L147.5172,100.489513 C147.315736,100.724451 147.076168,100.904154 146.819712,101.056921 C146.563256,101.209689 146.28518,101.326061 145.994352,101.427474 C145.412699,101.630295 144.787895,101.766262 144.192508,101.948563 L143.960013,103.338133 L145.122492,104.947719 L144.889996,107.182612 L143.181151,109.568042 L144.273882,110.262827 C144.752511,110.29747 145.272848,110.469632 145.773481,110.517582 C146.023799,110.541557 146.265178,110.541231 146.494218,110.471263 C146.723258,110.401295 146.943675,110.259993 147.133582,110.031232 L150.144404,111.10815 L152.155493,115.508457 L151.388257,116.423257 C151.420282,119.067759 151.464426,120.946625 151.690501,123.591126 L152.852981,125.826019 L152.852981,127.910375 C152.582854,128.296002 152.385158,128.746638 152.236867,129.253627 C152.104162,129.707328 152.021948,130.213769 151.957872,130.735836 L152.132244,130.735836 C152.690048,130.735836 152.841538,130.73584 153.399346,130.735836 C153.957154,130.735836 154.35932,130.654774 154.678074,130.654778 C154.99682,130.654778 156.119545,130.654774 156.119548,130.654778 C156.119548,130.654778 156.830528,130.257712 157.468025,130.098949 C158.105517,129.940197 158.185578,129.470274 158.584005,129.311526 C158.98244,129.152763 159.618608,129.311526 159.618612,129.311526 L160.897339,129.705238 L162.327189,129.624179 L163.605917,128.755698 C163.605917,128.755698 163.765286,128.042607 163.605917,127.725099 C163.446544,127.407588 164.082537,126.845038 164.082533,126.845038 L164.884644,126.845038 C164.884644,126.845038 165.358065,127.002293 165.756504,127.319808 C166.154939,127.637319 166.077121,127.558129 166.395868,127.875636 C166.714614,128.193148 166.552049,128.034577 166.791111,128.431464 C167.030168,128.828359 167.588523,128.74915 168.465081,128.987293 C169.341632,129.225421 169.185818,128.987296 169.185818,128.987293 C169.185818,128.987293 169.259127,128.351899 169.976305,127.875636 C170.693486,127.399362 170.301988,127.882176 170.859789,127.644041 C171.417597,127.405898 171.412902,127.725096 171.731649,127.725099 C172.050395,127.725099 171.728457,127.72192 172.126892,128.118811 C172.525323,128.515706 172.446003,128.674828 173.242872,129.230468 C174.039738,129.786111 174.038782,129.392588 175.393459,129.392584 C176.748133,129.392584 175.87682,129.22711 176.19557,129.068351 C176.514316,128.909603 176.35344,128.833384 176.672187,128.674639 C176.990933,128.515876 176.675557,128.358436 176.834934,127.644041 C176.994307,126.929639 177.788163,127.794582 177.788167,127.794578 C177.788167,127.794578 177.95091,128.439861 177.950914,128.836756 C177.950914,129.233647 178.42265,129.387726 178.7414,129.705238 C179.060147,130.022749 179.706262,129.462063 179.706258,129.462063 L180.415371,128.836756 L180.740865,127.481924 L181.449978,127.088213 L182.810079,127.088213 C182.810079,127.088213 183.921186,127.87564 184.239928,127.875636 C184.558675,127.875636 185.037162,127.87564 185.355909,127.875636 C185.674655,127.875636 187.19263,127.87564 187.192626,127.875636 C187.192626,127.875636 188.388474,127.87564 188.866597,127.875636 C189.344716,127.875636 190.145496,127.873965 190.703315,127.794578 C191.261119,127.715198 191.179924,127.169275 191.179931,127.169271 C191.179931,127.169271 190.620256,126.606725 190.540567,126.28921 C190.460879,125.971698 189.901204,125.582841 189.901204,125.582844 L188.947971,125.027016 L189.81983,123.91536 L190.703315,123.834301 L192.051791,124.8649 L194.039631,125.027016 L195.643853,123.984838 C195.643853,123.984838 196.914322,123.04016 197.073702,122.722645 C197.233076,122.405133 198.27106,122.398408 198.271056,122.398412 L199.945027,120.730927 C199.945027,120.730927 200.743957,120.103945 201.142381,120.024562 C201.540816,119.945178 201.212137,119.306613 201.21213,119.306617 L202.014241,118.66973 L202.409484,118.357077 L203.130221,118.032844 L203.525464,117.395957 L204.966939,116.214822 L206.001545,115.415819 L206.361914,115.218963 L206.792031,115.184224 L207.117526,114.466279 C207.117526,114.466279 207.590437,114.420075 208.035884,114.38522 L207.826638,112.879852 L209.919101,111.189208 L207.361646,108.491125 L205.896922,109.18591 L204.036955,107.495266 L204.501947,105.179314 L203.339467,103.176017 L204.734443,102.874943 L202.421108,99.8642064 L199.712531,97.0966448 L199.561409,95.2438838 L196.457588,94.6301567 L195.074238,94.1669665 L195.074238,94.1669665 Z" id="path4617" stroke-width="0.701" fill="#E6E6E6" sketch:type="MSShapeGroup"></path>
                <path d="M207.768514,55.5484803 L207.675516,55.6295386 L205.815549,60.2035422 L206.908279,61.2920393 L205.920172,61.9405056 L205.815549,63.584831 L203.73471,63.9090641 L203.73471,65.6460275 C203.858662,65.7515312 203.950124,65.8344904 204.02533,65.9471012 C204.100536,66.059712 204.163849,66.201074 204.234576,66.4450307 C204.376031,66.9329479 204.554532,67.8128018 204.943689,69.5715648 L202.862851,71.3085282 C202.314023,71.3162357 201.888373,71.4047347 201.549249,71.5517031 C201.210125,71.6986715 200.958159,71.914092 200.758763,72.1538504 C200.559367,72.3936088 200.411786,72.6667724 200.282146,72.9528536 C200.152506,73.2389347 200.040012,73.5353987 199.910153,73.8213353 C199.910149,73.8213353 199.552987,75.2069225 199.142916,76.7046945 C198.732845,78.2024665 198.268891,79.8123823 198.050185,80.2480998 C197.612788,81.1195274 196.515712,82.8651247 196.515712,82.8651247 L196.736583,84.8221034 L197.829314,86.0148183 L199.805529,85.0421188 L200.782012,86.0148183 L200.235647,87.2191129 L200.131024,88.6318432 L202.758227,90.3803863 L202.758227,91.7931165 L201.77012,92.2331473 L196.411089,87.7633615 C195.923432,87.7584442 195.440904,87.7656922 194.992864,87.879159 C194.768842,87.9358906 194.555656,88.0118389 194.3535,88.1339136 C194.151344,88.2559884 193.9562,88.4205988 193.783885,88.6318432 C194.053666,88.9776795 194.182409,89.3586109 194.434874,89.7087605 C194.561106,89.8838353 194.718917,90.0568201 194.946365,90.20669 C195.173813,90.3565598 195.465694,90.4816842 195.864724,90.5888219 L194.992864,92.0131319 C195.375601,92.1396495 195.760986,92.1626942 196.143719,92.1173497 C196.526452,92.0720052 196.900216,91.9561224 197.282949,91.7931165 L198.166433,92.3373651 L198.491928,93.7500953 L197.271324,94.7922733 L199.561409,95.2438838 L199.712531,97.0966448 L202.421108,99.8642064 L204.734443,102.874943 L203.339467,103.176017 L204.501947,105.179314 L204.036955,107.495266 L205.896922,109.18591 L207.361646,108.491125 L209.919101,111.189208 L207.826638,112.879852 L208.035884,114.38522 C208.740671,114.330075 209.586617,114.287947 209.977225,114.38522 C210.614718,114.543972 210.460597,114.461421 210.779336,114.778932 C211.098083,115.096443 211.255942,115.022103 211.255953,115.022107 L213.174044,116.133764 L214.52252,115.496877 L215.719874,115.80953 L216.440612,116.365359 L217.707714,117.72019 C217.707714,117.72019 218.98832,117.720186 219.625805,117.72019 C220.263298,117.72019 220.904544,118.588668 220.904533,118.588672 C220.904533,118.588672 222.180258,119.228916 223.136494,119.387675 C224.092733,119.546423 224.168084,119.306613 225.124334,119.306617 C226.080573,119.306617 225.996387,119.544934 226.554183,119.862445 C227.111991,120.179956 226.554191,120.811981 226.554183,120.811985 C226.554183,120.811985 225.127529,121.452229 224.729091,121.610988 C224.33066,121.769736 224.56634,122.641583 224.566343,122.641586 L225.205707,123.591126 L228.077032,125.652323 C228.077032,125.652323 228.150515,125.73841 229.425508,125.976556 C230.700493,126.214688 229.980306,126.449825 230.378741,126.926096 C230.777176,127.402356 231.333846,127.319804 231.971338,127.319808 C232.608831,127.319808 232.695624,127.323172 233.412813,127.481924 C234.129994,127.640684 234.363051,128.191658 235.319279,128.350406 C236.275522,128.509169 236.274558,128.598624 237.469866,128.836756 C238.665163,129.074884 238.272171,128.836756 238.829967,128.836756 C239.387775,128.836756 239.789941,128.906231 240.108695,128.906234 C240.427441,128.906234 241.065291,127.724914 241.224675,127.169271 C241.384048,126.613628 242.257775,126.76398 242.735899,126.76398 C243.214018,126.76398 244.009746,127.23875 244.328496,127.23875 C244.647242,127.23875 245.841586,126.68629 246.479083,126.845038 C247.116575,127.003797 246.874333,127.87564 246.874326,127.875636 C246.874326,127.875636 247.431003,127.96342 248.466923,128.280928 C249.50285,128.598439 248.629662,128.906231 248.62967,128.906234 C248.62967,128.906234 248.87061,129.070022 249.269034,129.149409 C249.667465,129.228789 249.662774,129.467288 250.140893,130.261066 C250.619013,131.054837 250.303652,130.897949 250.30364,130.897952 C250.30364,130.897952 250.858439,131.05016 251.256874,131.129548 C251.655305,131.208927 251.496114,131.53166 251.814864,131.928551 C252.13361,132.325427 252.539169,132.163514 253.256338,132.322262 C253.973519,132.481026 254.208073,132.322262 254.686188,132.322262 C255.164308,132.322262 255.244182,132.797032 255.244178,132.797032 L255.558048,133.758152 C255.558048,133.758152 256.285529,134.54894 256.604279,134.707692 C256.92303,134.866455 257.638886,134.788754 257.638886,134.78875 L258.115503,134.151864 L258.347999,133.596036 C258.347999,133.596036 258.34801,132.882949 258.347999,132.565437 C258.347999,132.24793 258.673497,131.847496 258.673493,131.847492 L259.789473,131.210606 C260.057134,131.35889 259.848505,131.312119 260.800831,131.673796 L261.661065,131.430621 L262.416677,130.098949 L262.614299,128.778857 L263.090915,126.972415 L262.986292,125.455467 L263.753529,124.795421 L263.939525,124.320651 L264.032524,122.803703 L264.985757,122.421571 L264.985757,121.472031 L263.753529,120.811985 L263.567532,119.862445 L262.800295,119.098181 L261.463444,118.056003 L260.510211,116.735911 L258.801366,115.879009 L257.941131,115.311601 L256.708903,115.114745 L254.709438,114.547337 L253.849203,113.319883 L253.000593,112.370343 L252.430978,112.277705 L251.373122,112.185067 L250.140893,111.420803 L248.908665,110.471263 L248.618045,109.429085 L248.141428,109.625941 L247.75781,108.479545 L247.664812,106.395189 L247.002199,105.735143 L246.711579,104.496109 L246.141964,104.496109 L245.862969,104.970879 L245.281729,106.013057 L244.712114,105.642505 L244.433119,104.692965 L244.0495,103.361293 L243.665882,101.936983 L243.863504,100.049483 L243.863504,98.1504026 L244.909735,97.2008626 L246.048965,97.1082245 L247.955432,97.4787767 L248.908665,97.2935006 L249.664277,95.8691906 L250.803507,94.5490985 L251.849738,93.5069204 L252.802971,91.6078404 L253.279588,90.5656624 L253.093591,89.4192666 L252.326355,88.7592205 L251.570743,87.9023185 L250.32689,87.5317663 L248.525047,87.6244044 L247.188195,87.1496344 L246.61858,86.1074563 L245.281729,84.9726403 L244.0495,84.3010144 L242.712649,84.6831464 L241.189801,85.0652783 L239.097338,85.0652783 L238.620721,84.0231003 L238.434724,83.0735603 L237.865109,83.0735603 L237.004875,83.5483303 L236.14464,83.5483303 L235.389028,82.5987903 L234.145175,83.6409683 L233.203566,83.5483303 L233.005945,82.1240203 L232.529328,80.8965662 L231.2971,79.0901242 L229.204637,78.9974862 L227.484167,78.8006303 L226.15894,77.7584523 L225.391704,76.5309982 L223.299241,75.5814582 L220.916158,74.7245562 L220.439541,73.404464 L221.485773,70.5558441 L222.346008,68.2862119 L223.008621,66.7576841 L223.485238,64.58069 L224.345472,62.4963339 L225.112709,60.5046159 L224.252474,59.0803059 L222.822624,58.1307659 L221.009156,57.6559959 L219.300311,56.9033118 L215.870997,56.2432657 L213.11592,56.8106737 L210.163222,57.5633579 L209.023992,57.7602137 C209.023992,57.7602137 208.354117,56.6203507 208.163757,56.3359037 C208.031662,56.1385291 207.892686,55.817642 207.768514,55.5484803 L207.768514,55.5484803 Z" id="path2418" stroke-width="0.701" fill="#E6E6E6" sketch:type="MSShapeGroup"></path>
                <path d="M191.319429,45.6246295 L189.889579,45.9951817 L188.750349,46.8520836 L188.459729,48.2763936 L187.506496,50.6502436 L187.413498,52.8272377 L186.460264,53.1051518 L185.890649,51.6924216 L185.704653,50.5460257 L184.274803,48.6585255 L181.89172,46.7594455 L178.660027,45.9025436 L175.986324,45.9951817 L174.18448,46.6668075 L172.847629,47.5121297 L171.045786,48.5543077 L167.232853,48.5543077 L166.27962,49.5038477 L165.233388,50.7428816 L164.384778,52.8272377 L162.268522,53.2683467 L163.074665,56.3931466 L165.08869,56.3851798 C165.433818,57.232918 165.028717,58.1781336 166.994316,58.8153277 C166.763263,60.2162855 166.214867,61.5118694 165.333361,62.6968508 L166.800284,65.716703 L168.527695,66.2350684 L167.429998,68.5599796 L168.123331,70.5770248 L167.289745,73.4059981 L164.368072,76.7225811 L164.845112,77.8355901 L163.95411,78.8864947 L164.260867,81.3691981 L163.716295,83.1847593 L164.935622,82.1268328 L165.451871,84.3895542 L166.86616,83.4491335 L169.229513,83.130151 L171.289906,83.2667921 L172.435118,83.6309931 L173.303667,84.5157457 L173.670754,84.7306623 L173.726225,86.4383854 L176.195555,90.3993067 C175.705506,91.2975511 174.597754,91.7855869 173.796874,92.4774116 C173.726716,92.9741998 173.813912,93.450552 173.568474,94.0072845 C173.198132,94.8472966 172.523377,95.7917749 172.455756,96.4218507 C172.422388,96.7325995 172.455012,96.9895997 172.585853,97.1665198 C174.625639,97.512434 176.503729,98.412068 178.218284,99.9452722 L178.102036,99.8989531 L178.288033,100.02633 C178.580401,100.173618 178.859251,100.318596 179.311015,100.443202 C179.762779,100.567807 180.386694,100.673611 181.380229,100.721116 L182.47296,101.48538 L184.402676,101.253785 L184.321302,99.4010236 C184.528882,99.1327661 184.851913,98.7623917 185.379158,98.3820051 C185.642783,98.1918118 185.958579,98.006406 186.332392,97.8261768 C186.706204,97.6459476 187.141808,97.4731777 187.645993,97.3282473 L190.273197,100.257926 L191.819295,100.257926 L193.52814,99.6326187 L193.597889,98.6367597 L190.900936,97.4787841 L195.074238,94.1669739 L196.457588,94.6301642 L197.271324,94.7922807 L198.491928,93.7501027 L198.166433,92.3373725 L197.282949,91.7931239 C196.900216,91.9561299 196.526452,92.0720126 196.143719,92.1173571 C195.760986,92.1627016 195.375601,92.1396644 194.992864,92.0131393 L195.864724,90.5888293 C195.465694,90.4816916 195.173813,90.3565672 194.946365,90.2066974 C194.718917,90.0568275 194.561106,89.8838427 194.434874,89.7087679 C194.182409,89.3586183 194.053666,88.9776869 193.783885,88.6318506 C193.9562,88.4206062 194.151344,88.2559958 194.3535,88.1339211 C194.555656,88.0118463 194.768842,87.935898 194.992864,87.8791664 C195.440904,87.7656996 195.923432,87.7584516 196.411089,87.7633689 L201.77012,92.2331547 L202.758227,91.7931239 L202.758227,90.3803937 L200.131024,88.6318506 L200.235647,87.2191203 L200.782012,86.0148257 L199.805529,85.0421262 L197.829314,86.0148257 L196.736583,84.8221108 L196.515712,82.8651321 C196.515712,82.8651321 197.612788,81.1195348 198.050185,80.2481072 C198.268891,79.8123897 198.732845,78.2024739 199.142916,76.7047019 C199.552987,75.20693 199.910149,73.8213427 199.910153,73.8213427 C200.040012,73.5354061 200.152506,73.2389421 200.282146,72.952861 C200.411786,72.6667799 200.559367,72.3936162 200.758763,72.1538578 C200.958159,71.9140994 201.210125,71.6986789 201.549249,71.5517105 C201.888373,71.4047421 202.314023,71.3162431 202.862851,71.3085356 L204.943689,69.5715722 C204.554532,67.8128092 204.376031,66.9329553 204.234576,66.4450381 C204.163849,66.2010814 204.100536,66.0597194 204.02533,65.9471086 C203.950124,65.8344978 203.858662,65.7515386 203.73471,65.646035 L203.73471,63.9090716 L205.815549,63.5848384 L205.920172,61.940513 L206.908279,61.2920467 L205.815549,60.2035496 L207.675516,55.629546 L207.768514,55.5484877 C207.713734,55.4297406 207.594142,55.2010951 207.594142,55.2010951 L205.885297,53.3020151 L203.595213,50.4533951 L201.595748,48.4616771 L200.0729,48.0795451 L198.93367,48.4616771 L197.596818,49.1333029 L195.980972,48.751171 L194.458124,47.3268536 L192.935275,45.9951817 L191.319429,45.6246295 L191.319429,45.6246295 Z" id="path4597" stroke-width="0.7" fill="#E6E6E6" sketch:type="MSShapeGroup"></path>
                <path d="M99.2045504,53.3020077 L99.2626744,53.3483267 L99.4254215,56.1969467 L103.133731,59.8214103 L105.063447,58.9645083 C105.567424,59.2827423 106.337246,59.6330364 107.341907,60.0066864 C108.346568,60.3803364 109.584023,60.7785281 111.015342,61.1994012 C111.917453,61.544226 112.821806,61.6834276 113.72392,61.9520854 C114.174977,62.0864143 114.632964,62.2500242 115.084021,62.4963339 C115.535078,62.7426437 115.98144,63.069719 116.432497,63.5153524 L115.583887,64.8238649 L116.897489,66.8966412 L124.24436,65.8197239 L128.336288,61.3615178 C129.02885,61.2828274 129.564584,61.0070884 130.335752,60.8520086 C130.721338,60.7744705 131.166555,60.7277328 131.719103,60.7477908 C132.271651,60.7678488 132.935726,60.8534093 133.753442,61.0488644 C134.337424,61.4229813 134.854535,61.9146485 135.439038,62.2878983 C135.73129,62.4745232 136.035417,62.6292584 136.380646,62.727929 C136.725874,62.8265997 137.109686,62.8683424 137.543125,62.8205671 C138.830673,62.3539715 140.134138,62.0074236 141.402558,61.6046927 C142.036769,61.4033272 142.665367,61.1853091 143.27415,60.9330669 C143.882932,60.6808246 144.471526,60.3891037 145.041118,60.0414256 C146.458722,59.4306222 147.800473,58.9150137 149.121422,58.3739408 C150.44237,57.8328679 151.745199,57.2700843 153.085477,56.5790786 L153.131976,56.3359037 L152.294991,55.7684957 L150.574521,54.6220999 L147.982192,54.3905047 L146.308221,54.2168084 L145.750231,52.8619769 L145.750231,51.7503204 L147.505575,49.6891238 L149.098172,48.4269304 L149.179546,47.3847524 L148.94705,46.6783873 L147.505575,45.7288473 L146.238472,45.3235558 L143.925138,45.2424975 L142.727784,44.4550741 L141.297934,43.2623592 C141.297934,43.2623592 140.895943,42.5475937 140.577197,42.1507027 C140.258447,41.7538153 139.065977,40.8769295 139.065974,40.8769295 L137.147882,40.5642761 L133.486072,39.3715612 L131.974848,38.6536164 L130.452,38.8967912 C130.452,38.8967912 129.898891,38.1870652 129.580141,38.0283095 C129.261394,37.8695539 128.618467,37.3103647 128.22004,37.3103647 L126.069452,37.3103647 L124.476855,37.3103647 L123.128379,35.9555332 L122.175146,35.2260086 L122.082148,35.3186466 L118.757456,37.7851347 L118.908579,39.4063005 L117.281107,41.32854 C117.228243,40.9914005 117.161909,40.699183 117.071861,40.4484785 C116.981812,40.197774 116.874585,39.9851586 116.746367,39.8231717 C116.618148,39.6611848 116.460371,39.5467694 116.293,39.475779 C116.125629,39.4047886 115.942511,39.3840155 115.735009,39.4063005 L114.502781,40.4021595 C114.502781,40.4021595 109.084574,37.6300438 108.620635,37.3219444 C108.504647,37.2449214 108.262483,37.2613147 107.958021,37.3335242 C107.65356,37.4057337 107.294623,37.534545 106.946664,37.6693371 C106.25075,37.9389212 105.609813,38.2483249 105.609813,38.2483249 C104.760217,38.0106898 104.082013,37.8537572 103.528974,37.7503954 C102.975935,37.6470336 102.545993,37.5951451 102.180498,37.5766991 C101.449505,37.5398106 100.97865,37.6279612 100.34378,37.6345978 L96.2518524,37.7851347 L95.1707464,38.7925734 C94.9769341,39.1252404 94.7219103,39.3304485 94.4267595,39.4410398 C94.1316087,39.5516311 93.7982617,39.5666644 93.4270271,39.5105183 C93.0557925,39.4543722 92.6517444,39.3306745 92.2296732,39.1631256 C91.807602,38.9955767 91.3637245,38.7845954 90.9160713,38.5609783 L90.6835754,42.3359788 L99.6579174,48.7974826 L99.6579174,52.8040782 L99.2045504,53.3020077 L99.2045504,53.3020077 Z" id="path4582" stroke-width="0.7" fill="#E6E6E6" sketch:type="MSShapeGroup"></path>
                <path d="M66.7132474,78.6153542 C66.915835,78.4260391 67.1352591,78.2713818 67.3642359,78.152164 C67.5932128,78.0329462 67.8346812,77.9484196 68.0849732,77.8858296 C68.5855574,77.760646 69.1221431,77.7263773 69.6775702,77.7468725 C70.7884245,77.7878667 71.9619634,78.0129549 73.0487609,77.9900474 C73.1495934,77.7265255 73.269777,77.5015633 73.3975047,77.3184216 C73.5252324,77.1352798 73.6652507,76.9927469 73.8276221,76.9131301 C73.9899936,76.8335133 74.1692274,76.8197584 74.3739875,76.8668111 C74.5787476,76.9138638 74.8049605,77.0289203 75.0598504,77.2257835 L76.6059482,76.3804613 C77.0399195,76.6829838 77.3408473,76.8005082 77.7103038,77.0173479 C78.0797602,77.2341876 78.5275734,77.5429391 79.2447768,78.2216425 L79.3145255,79.8428084 L82.2555988,80.6070723 C82.6100007,80.3542779 82.9590533,80.156981 83.3134551,79.9933452 C83.667857,79.8297093 84.0285344,79.7026211 84.3829363,79.6112132 C85.0917401,79.4283976 85.8014701,79.3751456 86.5102739,79.3796181 L88.6724858,79.9933452 L88.6724858,73.0686511 C89.563306,72.0110952 90.4601115,70.9885638 91.3345639,69.849479 C91.7717902,69.2799365 92.2041582,68.6830251 92.6249162,68.0314573 C93.0456743,67.3798894 93.4611054,66.675466 93.8571445,65.9007822 L96.7168442,60.6667325 C96.9488193,59.3269417 97.6473523,56.4743865 97.8793237,54.7378974 L99.6579174,52.8040782 L99.6579174,48.7974826 L90.6835754,42.3359788 L90.9160713,38.5609783 C91.3637245,38.7845954 91.807602,38.9955767 92.2296732,39.1631256 C92.6517444,39.3306745 93.0557925,39.4543722 93.4270271,39.5105183 C93.7982617,39.5666644 94.1316087,39.5516311 94.4267595,39.4410398 C94.7219103,39.3304485 94.9769341,39.1252404 95.1707464,38.7925734 L96.2518524,37.7851347 L100.34378,37.6345978 C100.97865,37.6279612 101.449505,37.5398106 102.180498,37.5766991 C102.545993,37.5951451 102.975935,37.6470336 103.528974,37.7503954 C104.082013,37.8537572 104.760217,38.0106898 105.609813,38.2483249 C105.609813,38.2483249 106.25075,37.9389212 106.946664,37.6693371 C107.294623,37.534545 107.65356,37.4057337 107.958021,37.3335242 C108.262483,37.2613147 108.504647,37.2449214 108.620635,37.3219444 C109.084574,37.6300438 114.502781,40.4021595 114.502781,40.4021595 L115.735009,39.4063005 C115.942511,39.3840155 116.125629,39.4047886 116.293,39.475779 C116.460371,39.5467694 116.618148,39.6611848 116.746367,39.8231717 C116.874585,39.9851586 116.981812,40.197774 117.071861,40.4484785 C117.161909,40.699183 117.228243,40.9914005 117.281107,41.32854 L118.908579,39.4063005 L118.757456,37.7851347 L122.082148,35.3186466 L122.175146,35.2260086 L122.093772,35.1681098 L120.815045,34.4501649 C120.815045,34.4501661 121.13548,34.2118487 120.896419,33.8943367 C120.657357,33.5768264 119.861812,33.3385076 119.861812,33.3385084 C119.861812,33.3385095 119.780434,32.7875369 119.780438,32.4700267 C119.780438,32.1525164 118.983204,31.7520811 118.664458,31.7520818 C118.345712,31.7520829 117.629847,31.3516449 117.629851,31.0341369 C117.629851,30.716623 116.909114,30.4088301 116.909114,30.4088301 L117.862347,28.8918821 L117.222983,27.9423421 L115.630386,27.1433389 C115.630386,27.14334 114.35485,27.460851 113.956416,27.1433389 C113.557985,26.8258287 112.689309,26.0365451 112.689313,25.7190289 C112.689313,25.4015187 111.415459,24.3757772 111.096716,24.3757772 C110.77797,24.3757784 109.900869,24.4452558 109.422746,24.4452558 C108.944641,24.4452569 108.386294,24.2119809 107.748775,24.1326024 C107.11129,24.0532275 104.95882,24.2136603 104.958824,24.2136607 L103.435976,25.1632007 C103.435976,25.1632018 102.728374,26.2003384 102.250247,25.9622038 C101.772124,25.7240696 100.732294,24.8471874 100.413529,24.6884307 C100.094805,24.5296761 98.1001948,23.6578327 98.1001948,23.6578324 L95.310244,21.0408075 L92.0436765,20.7165744 L89.0212297,20.7165744 L84.4759347,20.6355161 L83.3599543,21.9903475 L82.8484633,22.3261604 L83.0693344,23.1483231 L83.1739576,24.5842129 L79.3377751,29.8298423 L77.0360657,30.9762382 L73.4905031,31.4625879 L72.2350252,32.7016218 L72.6186434,34.4154257 L73.4905031,36.9977113 L73.8741213,38.0514691 L74.7343562,38.6188771 L74.5367347,39.6726349 L72.8162649,40.5295368 L72.3396483,41.7685707 L72.5256451,42.8223285 L73.2928816,43.7718685 L73.1068848,47.211056 L74.3507379,48.2648138 L74.6413578,49.4112097 L74.7343562,52.7577591 L72.9092633,53.3251672 L70.8981737,54.946333 L68.5034659,57.2391247 L65.7251398,59.5319164 L63.7024254,60.0066864 L62.8421905,60.5856742 L62.7491922,62.20684 L61.5983374,63.1679598 L59.2966279,63.6427298 L59.3896263,63.7353678 L59.18038,64.3375151 L59.122256,64.2911961 L59.1338808,64.3722544 L60.087114,66.1207975 L60.9705985,67.8693407 L61.8424581,70.3358287 L62.4818219,72.6286204 L62.7956914,76.5194184 L62.2377012,78.1869033 L63.3536815,78.7427315 L64.1674172,80.2133606 L64.5510354,79.0669647 L65.1903992,77.7931916 L66.7829962,78.2679616 L66.7132474,78.6153542 L66.7132474,78.6153542 Z" id="path4259" stroke-width="0.701" fill="#E6E6E6" sketch:type="MSShapeGroup"></path>
                <path d="M59.122256,64.2911961 L59.18038,64.3375151 L59.3896263,63.7353678 L59.2966279,63.6427298 L61.5983374,63.1679598 L62.7491922,62.20684 L62.8421905,60.5856742 L63.7024254,60.0066864 L65.7251398,59.5319164 L68.5034659,57.2391247 L70.8981737,54.946333 L72.9092633,53.3251672 L74.7343562,52.7577591 L74.6413578,49.4112097 L74.3507379,48.2648138 L73.1068848,47.211056 L73.2928816,43.7718685 L72.5256451,42.8223285 L72.3396483,41.7685707 L72.8162649,40.5295368 L74.5367347,39.6726349 L74.7343562,38.6188771 L73.8741213,38.0514691 L73.4905031,36.9977113 L72.6186434,34.4154257 L72.2350252,32.7016218 L73.4905031,31.4625879 L77.0360657,30.9762382 L79.3377751,29.8298423 L83.1739576,24.5842129 L83.0693344,23.1483231 L82.8484633,22.3261604 L82.1626004,22.7777709 L80.7327506,23.1830624 L78.9774065,23.1830624 L77.698679,22.5461758 L76.5129499,21.9903475 C76.5129499,21.9903475 76.5077271,21.5966351 75.710839,21.5966358 C74.9139918,21.5966358 73.0022617,21.6661151 73.0022617,21.6661143 C73.0022617,21.6661143 72.4457818,22.142567 71.9676549,22.2219426 C71.4895317,22.3013223 70.0527256,21.9903475 69.6543206,21.9903475 C69.2558784,21.9903475 68.2244745,21.3534606 68.2244708,21.3534609 C68.2244708,21.3534609 67.664602,20.7993109 67.0271169,20.8786909 C66.3895945,20.9580669 65.1904029,21.3534606 65.1903992,21.3534609 C65.1903992,21.3534609 63.6010014,20.95975 63.2025592,20.9597492 C62.8041542,20.9597492 61.9238317,21.0408075 61.9238317,21.0408075 L60.6683538,20.5197185 L60.5869802,20.3228627 L60.6451042,20.0796878 L59.7732446,18.4932612 L57.6226574,17.2310678 L55.9486869,16.8257764 L54.9954537,15.088813 L54.5188371,13.9771564 L52.9959889,13.8960981 L51.566139,14.5329847 L49.4969255,14.2898098 L46.7883481,12.1475549 L45.1957512,11.5917266 L42.8010433,12.3096715 L40.8132033,11.9043801 L38.2557484,10.7927235 L36.4306555,9.05576009 L35.3146751,8.09464034 L33.1524632,6.67033036 L31.4901175,5.95238549 L29.8858957,5.31549891 L28.2119252,4.5280755 L27.5028127,2.86059064 L25.3522255,2.46687894 L24.3873675,3.64801405 L23.2016384,4.6091338 L21.4462943,4.75967062 L19.2957071,4.05330551 L16.8196257,2.94164894 L13.9483013,1.50575919 L10.6817338,0.394102621 L7.57791342,0.79939408 L4.95070967,1.11204749 L3.59060862,2.53635748 L2.32350592,4.20384234 L2.07938522,5.63973208 L1.04477843,7.30721694 L0.242667555,10.3179535 L1.27727434,11.4296101 L2.71874897,11.3485518 L3.83472932,12.1475549 L5.03208324,13.0160366 L6.06669003,13.8150398 L7.33379272,13.8150398 L8.61252021,14.6024632 L9.25188395,15.8762364 L10.2051172,17.3816046 L10.2051172,18.7364361 L10.7631074,20.6355161 L11.4024711,21.5966358 L12.2743307,22.6272341 L12.599825,23.9704858 L13.2391888,23.1020041 L14.2737955,22.7082924 L15.3084023,22.9398875 L16.4243827,23.8894275 L17.7728589,24.9316055 L20.2489404,25.0821424 L21.6787902,26.6685689 L23.2016384,27.4675721 L24.9453577,26.9928021 L26.6193282,26.9928021 L29.6533998,27.6991672 L31.0018761,27.6991672 L32.6758466,28.3360538 L33.7104534,29.7719435 L33.7104534,30.5593669 L34.5939378,31.5204867 L35.3146751,32.6205635 L35.7912917,33.6627415 L36.9770209,33.4195667 L38.3371219,32.8637384 L40.0110925,33.500625 L39.697223,34.3691067 L40.7318298,35.3997049 L41.2084464,36.6734781 L41.8478101,38.5841378 L41.7664366,40.1705644 L43.5217807,42.4633561 L44.7075098,43.6560709 L45.6723678,43.1813009 L46.8580969,43.3434175 L48.2995715,43.8181875 L49.7294214,44.9298441 L51.6475126,45.173019 L53.0773624,45.7288473 L54.1119692,45.8793841 L55.146576,46.5162707 L56.4253035,48.4269304 L57.0646672,50.962897 L57.4599103,53.2672684 L58.5758906,56.6832964 L58.6572642,61.9984044 L59.122256,64.2911961 L59.122256,64.2911961 Z" id="path4492" stroke-width="0.701" fill="#E6E6E6" sketch:type="MSShapeGroup"></path>
                <path d="M134.939171,89.5582236 L139.635589,92.4763221 C139.635585,92.4763258 143.340896,96.2523638 143.727517,96.7145128 C143.824172,96.830051 144.131676,96.9289328 144.541252,97.0155865 C144.950828,97.1022401 145.461705,97.1778328 145.959477,97.2356018 C146.955021,97.3511363 147.900818,97.4092982 147.900818,97.4092982 C148.101352,97.6975174 148.421375,97.9175624 148.807552,98.0925038 C149.19373,98.2674452 149.645014,98.3922546 150.132779,98.4977952 C151.108306,98.7088766 152.207952,98.8221359 153.085477,99.0188843 C153.505993,99.195445 155.24626,100.25545 156.328795,100.871645 C159.629872,100.4095 162.358723,99.9442198 164.838145,99.4820745 C164.838145,99.4820745 165.826654,98.8109637 166.860859,98.1851418 C167.377964,97.872229 167.901511,97.5731378 168.325584,97.3745589 C168.749656,97.17598 169.065914,97.0814225 169.162569,97.1777031 C169.355875,97.3702642 170.443785,97.8678083 171.545652,98.3588382 C172.647519,98.849868 173.762725,99.3280248 174.033358,99.4820745 C174.168674,99.5590975 174.348373,99.5732155 174.533224,99.551553 C174.718075,99.5298757 174.912401,99.4684122 175.091214,99.4010162 C175.448838,99.2662241 175.742203,99.0999426 175.742203,99.0999426 L178.218284,99.9452647 C174.890643,97.1943853 174.506947,97.8104728 172.761315,97.2594172 C171.602087,96.893471 174.289431,93.5691917 173.745707,92.6386203 C173.629723,92.1475905 176.367238,90.8929749 176.236753,90.4813766 C176.106269,90.0697783 174.140961,87.2316895 174.024973,87.1161513 C173.561031,86.654006 173.722372,84.7235403 173.722372,84.7235403 C172.871935,84.5357629 173.176895,83.9891614 172.294638,83.5963279 C171.223963,83.1196014 170.297934,83.3035435 169.41545,83.0756613 L166.898472,83.4158134 L165.4313,84.4962584 L164.974164,82.1434595 L163.7507,83.1980288 L164.215123,81.3687423 L163.968726,78.8701644 L164.856488,77.7884818 L164.324708,76.6727455 L167.292468,73.4063242 L168.05225,70.7121875 L167.342152,68.5596016 L168.374914,66.188112 L166.736082,65.7363682 L165.341969,62.7133923 C166.253561,61.4235779 166.721767,60.1337673 167.023063,58.8439566 C166.184125,58.5041047 165.326491,58.2108089 165.084245,56.3850056 L163.073427,56.275048 L162.28069,53.4872838 L158.386384,53.4872838 L156.665914,54.3441857 L155.619682,55.9537718 L154.480452,56.8106737 L153.527219,56.6138179 L153.131976,56.3359037 L153.085477,56.5790786 C151.745199,57.2700843 150.44237,57.8328679 149.121422,58.3739408 C147.800473,58.9150137 146.458722,59.4306222 145.041118,60.0414256 C144.471526,60.3891037 143.882932,60.6808246 143.27415,60.9330669 C142.665367,61.1853091 142.036769,61.4033272 141.402558,61.6046927 C140.221709,61.9796211 139.010971,62.3197769 137.810496,62.7395088 L137.926744,62.9016254 L139.00785,63.8164261 L145.273614,63.8164261 L147.284704,65.7502453 L146.970835,67.8230217 L141.948923,69.2125924 L140.716695,72.7559977 L140.019207,74.2961053 L139.85646,78.4532377 C139.527833,79.0854627 139.208603,79.5967765 138.879977,80.0165047 C138.55135,80.4362329 138.220496,80.7639752 137.891869,81.0586827 C137.234616,81.6481016 136.572907,82.0772121 135.915654,82.6914283 C135.83591,83.8467915 135.868839,84.9984122 135.776157,86.1537754 C135.729817,86.7314588 135.654195,87.3130553 135.520411,87.8907388 C135.391958,88.4454109 135.199102,89.0032661 134.939171,89.5582236 L134.939171,89.5582236 Z" id="path4391" stroke-width="0.7" fill="#E6E6E6" sketch:type="MSShapeGroup"></path>
            </g>
        </g>
    </g>
</svg>