<?xml version="1.0" encoding="UTF-8" standalone="no"?>
<svg width="121px" height="123px" viewBox="0 0 121 123" version="1.1" xmlns="http://www.w3.org/2000/svg" xmlns:xlink="http://www.w3.org/1999/xlink" xmlns:sketch="http://www.bohemiancoding.com/sketch/ns">
    <!-- Generator: Sketch 3.2 (9961) - http://www.bohemiancoding.com/sketch -->
    <title>ico-delivery</title>
    <desc>Created with Sketch.</desc>
    <defs>
        <linearGradient x1="-17.5167695%" y1="34.1012271%" x2="97.8578344%" y2="11.7151053%" id="linearGradient-1">
            <stop stop-color="#F5CA3F" offset="0%"></stop>
            <stop stop-color="#EEC02D" offset="100%"></stop>
        </linearGradient>
        <linearGradient x1="-154.929182%" y1="212.816564%" x2="176.680531%" y2="67.5479628%" id="linearGradient-2">
            <stop stop-color="#C2A032" offset="0%"></stop>
            <stop stop-color="#BC9824" offset="100%"></stop>
        </linearGradient>
        <linearGradient x1="-28.7768071%" y1="-1.68818532%" x2="98.9853737%" y2="-67.1386371%" id="linearGradient-3">
            <stop stop-color="#B5952E" offset="0%"></stop>
            <stop stop-color="#B08E21" offset="100%"></stop>
        </linearGradient>
    </defs>
    <g id="Welcome" stroke="none" stroke-width="1" fill="none" fill-rule="evenodd" sketch:type="MSPage">
        <g id="tangerine" sketch:type="MSArtboardGroup" transform="translate(-681.000000, -1153.000000)">
            <g id="ico-delivery" sketch:type="MSLayerGroup" transform="translate(682.000000, 1153.000000)">
                <path d="M58.7125,2.79975 L44.24,8.6805 C45.2575,11.17475 45.5875,14.363125 45.60875,17.25575 C43.78625,18.557 42.15875,20.44075 40.5475,22.885625 C38.225,26.3905 35.94625,29.13325 34.1225,33.68325 C32.96,33.8345 31.64875,34.73325 30.945,35.9245 C28.16875,40.6145 26.735,47.9995 27.635,50.34825 C28.13,51.647 29.5325,51.9545 30.69875,51.977 C30.0225,68.79825 38.2225,78.847 48.6075,82.64075 C50.93125,83.58575 54.8625,85.0195 60.3125,86.41075 C60.72,86.5145 61.125,86.557 61.5225,86.557 C62.45625,86.557 63.345,86.3195 64.105,86.082 C64.865,85.84325 65.49625,85.60575 65.91625,85.60575 C66.2125,85.60575 66.40375,85.72325 66.4625,86.042 C67.79125,85.79825 71.9475,83.3495 70.2125,81.042 C70.23125,81.05075 71.18375,81.24325 72.4625,81.24325 C74.7175,81.24325 77.9875,80.64325 78.94,77.372 C78.7225,77.642 78.03875,78.31075 77.25,78.407 C83.765,73.16825 88.12125,64.43325 87.62625,51.987 C87.695,51.98825 87.76625,51.9895 87.8375,51.9895 C89.02625,51.9895 90.50875,51.70075 91.0175,50.36325 C91.92625,48.012 90.48875,40.642 87.715,35.952 C86.95625,34.667 85.49125,33.7545 84.26875,33.722 C82.49125,29.177125 80.2725,26.48575 77.9575,22.988125 C76.17375,20.294375 74.37625,18.3935 72.31125,17.074625 C72.37625,14.7855 72.685,12.342125 73.49125,10.31825 L73.42875,10.375875 L60.6375,3.746 L58.71125,2.814375 L58.7125,2.79975 M50.62625,14.38225 L60.86875,3.8935 L72.86625,10.124375 C72.86625,10.124375 71.57625,15.10975 71.88625,16.800625 C71.88625,16.800625 66.1725,12.4145 59.285,12.4145 C55.3475,12.4145 50.62625,14.38225 50.62625,14.38225 M60.285,39.59825 C66.7425,39.59825 74.61375,38.16825 77.9875,31.872 C78.02375,31.853375 78.12875,31.845625 78.2825,31.845625 C79.28375,31.845625 82.36625,32.179625 82.36625,32.179625 L83.32625,34.3695 C83.32625,34.3695 87.1325,34.587 88.5075,39.12325 C89.25375,41.58575 91.2825,46.41825 90.18875,49.40075 C89.41625,51.51075 86.27875,51.67825 85.3025,51.67825 C85.1175,51.67825 85.01,51.672 85.01,51.672 C85.01,51.672 67.9175,60.49325 58.40375,60.49325 C57.64125,60.49325 56.92875,60.437 56.2775,60.3145 C47.4825,58.667 32.78125,51.52075 32.78125,51.52075 L50.50625,38.60575 C50.50625,38.60575 54.905,39.59825 60.285,39.59825 M40.49875,4.60975 C40.51125,4.614625 40.52375,4.618 40.53625,4.623375 C40.5425,4.625875 40.55,4.62925 40.5575,4.63225 C40.55,4.62925 40.54375,4.625875 40.53625,4.623375 C40.52375,4.618 40.51125,4.614625 40.49875,4.60975 M40.56875,4.635625 C40.5725,4.637125 40.575,4.638125 40.57875,4.6395 C40.575,4.638125 40.5725,4.637125 40.56875,4.635625 M40.5925,4.644375 C40.595,4.645875 40.5975,4.646875 40.6,4.648375 C40.5975,4.646875 40.595,4.645875 40.5925,4.644375 M40.615,4.65325 C40.61625,4.654625 40.61875,4.655625 40.62,4.655625 C40.61875,4.655625 40.61625,4.654625 40.615,4.65325 M40.6375,4.662 C40.6375,4.6635 40.63875,4.6635 40.63875,4.6635 C40.63875,4.6635 40.6375,4.6635 40.6375,4.662 M79.00875,77.25825 C79.0025,77.25825 78.9875,77.2695 78.9625,77.292 C78.955,77.3195 78.9475,77.34575 78.94,77.372 C78.99625,77.302 79.02125,77.25825 79.00875,77.25825" id="path70" sketch:type="MSShapeGroup" transform="translate(59.304607, 44.674750) scale(1, -1) translate(-59.304607, -44.674750) "></path>
                <path d="M58.7125,2.79975 L44.24,8.6805 C45.2575,11.17475 45.5875,14.363125 45.60875,17.25575 C43.78625,18.557 42.15875,20.44075 40.5475,22.885625 C38.225,26.3905 35.94625,29.13325 34.1225,33.68325 C32.96,33.8345 31.64875,34.73325 30.945,35.9245 C28.16875,40.6145 26.735,47.9995 27.635,50.34825 C28.13,51.647 29.5325,51.9545 30.69875,51.977 C30.0225,68.79825 38.2225,78.847 48.6075,82.64075 C50.93125,83.58575 54.8625,85.0195 60.3125,86.41075 C60.72,86.5145 61.125,86.557 61.5225,86.557 C62.45625,86.557 63.345,86.3195 64.105,86.082 C64.865,85.84325 65.49625,85.60575 65.91625,85.60575 C66.2125,85.60575 66.40375,85.72325 66.4625,86.042 C67.79125,85.79825 71.9475,83.3495 70.2125,81.042 C70.23125,81.05075 71.18375,81.24325 72.4625,81.24325 C74.7175,81.24325 77.9875,80.64325 78.94,77.372 C78.7225,77.642 78.03875,78.31075 77.25,78.407 C83.765,73.16825 88.12125,64.43325 87.62625,51.987 C87.695,51.98825 87.76625,51.9895 87.8375,51.9895 C89.02625,51.9895 90.50875,51.70075 91.0175,50.36325 C91.92625,48.012 90.48875,40.642 87.715,35.952 C86.95625,34.667 85.49125,33.7545 84.26875,33.722 C82.49125,29.177125 80.2725,26.48575 77.9575,22.988125 C76.17375,20.294375 74.37625,18.3935 72.31125,17.074625 C72.37625,14.7855 72.685,12.342125 73.49125,10.31825 L73.42875,10.375875 L60.6375,3.746 L58.71125,2.814375 L58.7125,2.79975 M50.62625,14.38225 L60.86875,3.8935 L72.86625,10.124375 C72.86625,10.124375 71.57625,15.10975 71.88625,16.800625 C71.88625,16.800625 66.1725,12.4145 59.285,12.4145 C55.3475,12.4145 50.62625,14.38225 50.62625,14.38225 M60.285,39.59825 C66.7425,39.59825 74.61375,38.16825 77.9875,31.872 C78.02375,31.853375 78.12875,31.845625 78.2825,31.845625 C79.28375,31.845625 82.36625,32.179625 82.36625,32.179625 L83.32625,34.3695 C83.32625,34.3695 87.1325,34.587 88.5075,39.12325 C89.25375,41.58575 91.2825,46.41825 90.18875,49.40075 C89.41625,51.51075 86.27875,51.67825 85.3025,51.67825 C85.1175,51.67825 85.01,51.672 85.01,51.672 C85.01,51.672 67.9175,60.49325 58.40375,60.49325 C57.64125,60.49325 56.92875,60.437 56.2775,60.3145 C47.4825,58.667 32.78125,51.52075 32.78125,51.52075 L50.50625,38.60575 C50.50625,38.60575 54.905,39.59825 60.285,39.59825 M40.49875,4.60975 C40.51125,4.614625 40.52375,4.618 40.53625,4.623375 C40.5425,4.625875 40.55,4.62925 40.5575,4.63225 C40.55,4.62925 40.54375,4.625875 40.53625,4.623375 C40.52375,4.618 40.51125,4.614625 40.49875,4.60975 M40.56875,4.635625 C40.5725,4.637125 40.575,4.638125 40.57875,4.6395 C40.575,4.638125 40.5725,4.637125 40.56875,4.635625 M40.5925,4.644375 C40.595,4.645875 40.5975,4.646875 40.6,4.648375 C40.5975,4.646875 40.595,4.645875 40.5925,4.644375 M40.615,4.65325 C40.61625,4.654625 40.61875,4.655625 40.62,4.655625 C40.61875,4.655625 40.61625,4.654625 40.615,4.65325 M40.6375,4.662 C40.6375,4.6635 40.63875,4.6635 40.63875,4.6635 C40.63875,4.6635 40.6375,4.6635 40.6375,4.662 M79.00875,77.25825 C79.0025,77.25825 78.9875,77.2695 78.9625,77.292 C78.955,77.3195 78.9475,77.34575 78.94,77.372 C78.99625,77.302 79.02125,77.25825 79.00875,77.25825" id="path78" fill="url(#linearGradient-1)" sketch:type="MSShapeGroup" transform="translate(59.304607, 44.674750) scale(1, -1) translate(-59.304607, -44.674750) "></path>
                <path d="M40.53625,117.398875 C42.285,118.05375 43.46125,119.55275 44.23875,121.456 L58.86625,115.51275 L73.55375,122.94875 C74.38,120.956 75.7025,119.388625 77.775,118.815 C85.61125,116.649875 114.215,108.077625 117.755,97.2725 C119.87625,90.79975 119.87625,87.69875 119.87625,87.69875 C119.87625,83.036125 119.7925,79.125 114.72875,79.125 L4.065,79.125 C-0.9975,79.125 -0.28875,83.036125 -0.28875,87.69875 C-0.28875,89.816375 0.0225,90.461375 1.92375,97.348625 C4.5,106.65775 27.83875,112.65775 40.53625,117.398875" id="path80" fill="#44BFA0" sketch:type="MSShapeGroup" transform="translate(59.802335, 101.062500) scale(1, -1) translate(-59.802335, -101.062500) "></path>
                <path d="M58.75,115.203625 L58.71125,115.589875 L73.92375,122.94875 C74.75125,120.956 75.8875,119.388625 77.96,118.815 C85.7975,116.649875 114.3075,108.077625 117.8475,97.2725 C119.97,90.79975 119.9225,87.69875 119.9225,87.69875 C119.9225,83.036125 119.5825,79.125 114.51875,79.125 L58.75,79.125 L58.75,115.203625" id="path82" fill="#40B394" sketch:type="MSShapeGroup" transform="translate(89.336250, 101.062500) scale(1, -1) translate(-89.336250, -101.062500) "></path>
                <path d="M73.42875,100.431625 L58.9425,92.92375 L68.33,79.015125 L78.32375,95.943875 L73.42875,100.431625" id="path84" fill="#3A556C" sketch:type="MSShapeGroup" transform="translate(68.630000, 89.702625) scale(1, -1) translate(-68.630000, -89.702625) "></path>
                <path d="M58.71125,93.380375 L49.4575,79.202625 L39.21,94.671375 L44.73125,100.680125 L58.71125,93.380375" id="path86" fill="#3A556C" sketch:type="MSShapeGroup" transform="translate(48.960000, 89.952625) scale(1, -1) translate(-48.960000, -89.952625) "></path>
                <path d="M60.86875,72.581 L50.62625,83.06975 C50.62625,83.06975 55.3475,81.102 59.285,81.102 C66.1725,81.102 71.88625,85.488125 71.88625,85.488125 C71.57625,83.79725 72.86625,78.811875 72.86625,78.811875 L60.86875,72.581" id="path94" sketch:type="MSShapeGroup" transform="translate(61.751250, 79.018500) scale(1, -1) translate(-61.751250, -79.018500) "></path>
                <path d="M60.86875,72.581 L50.62625,83.06975 C50.62625,83.06975 55.3475,81.102 59.285,81.102 C66.1725,81.102 71.88625,85.488125 71.88625,85.488125 C71.57625,83.79725 72.86625,78.811875 72.86625,78.811875 L60.86875,72.581" id="path102" fill="url(#linearGradient-2)" sketch:type="MSShapeGroup" transform="translate(61.751250, 79.018500) scale(1, -1) translate(-61.751250, -79.018500) "></path>
                <path d="M78.2825,28.878875 C78.12875,28.878875 78.02375,28.886625 77.9875,28.90525 C74.61375,35.2015 66.7425,36.6315 60.285,36.6315 C54.905,36.6315 50.50625,35.639 50.50625,35.639 L32.78125,48.554 C32.78125,48.554 47.4825,55.70025 56.2775,57.34775 C56.92875,57.47025 57.64125,57.5265 58.40375,57.5265 C67.9175,57.5265 85.01,48.70525 85.01,48.70525 C85.01,48.70525 85.1175,48.7115 85.3025,48.7115 C86.27875,48.7115 89.41625,48.544 90.18875,46.434 C91.2825,43.4515 89.25375,38.619 88.5075,36.1565 C87.1325,31.62025 83.32625,31.40275 83.32625,31.40275 L82.36625,29.212875 C82.36625,29.212875 79.28375,28.878875 78.2825,28.878875" id="path110" sketch:type="MSShapeGroup" transform="translate(61.656250, 43.191375) scale(1, -1) translate(-61.656250, -43.191375) "></path>
                <path d="M78.2825,28.878875 C78.12875,28.878875 78.02375,28.886625 77.9875,28.90525 C74.61375,35.2015 66.7425,36.6315 60.285,36.6315 C54.905,36.6315 50.50625,35.639 50.50625,35.639 L32.78125,48.554 C32.78125,48.554 47.4825,55.70025 56.2775,57.34775 C56.92875,57.47025 57.64125,57.5265 58.40375,57.5265 C67.9175,57.5265 85.01,48.70525 85.01,48.70525 C85.01,48.70525 85.1175,48.7115 85.3025,48.7115 C86.27875,48.7115 89.41625,48.544 90.18875,46.434 C91.2825,43.4515 89.25375,38.619 88.5075,36.1565 C87.1325,31.62025 83.32625,31.40275 83.32625,31.40275 L82.36625,29.212875 C82.36625,29.212875 79.28375,28.878875 78.2825,28.878875" id="path118" fill="url(#linearGradient-3)" sketch:type="MSShapeGroup" transform="translate(61.656250, 43.191375) scale(1, -1) translate(-61.656250, -43.191375) "></path>
                <path d="M31.96,0.365 L29.4975,0.365 C29.4975,0.365 28.21625,32.38625 58.9575,37.51125 L62.8,37.51125 C62.8,37.51125 91.13,32.855 88.48,0.51875 C87.75875,0.43875 86.10375,0.65375 86.10375,0.65375 C86.10375,0.65375 57.57875,18.2975 31.96,0.365" id="path120" fill="#589CA7" sketch:type="MSShapeGroup" transform="translate(59.052415, 18.927500) scale(1, -1) translate(-59.052415, -18.927500) "></path>
                <path d="M58.9575,37.51125 L60.87125,37.51125 L60.87125,8.2925 C52.00625,8.88125 41.79,7.2475 31.96,0.365 L29.4975,0.365 C29.4975,0.365 28.21625,32.38625 58.9575,37.51125" id="path122" fill="#66BDCC" sketch:type="MSShapeGroup" transform="translate(45.177415, 18.927500) scale(1, -1) translate(-45.177415, -18.927500) "></path>
                <path d="M86.1525,28.29125 L76.125,24.8675 C76.125,24.8675 72.2825,33.8325 59.4725,33.8325 C46.66375,33.8325 41.54,24.8675 41.54,24.8675 L32.05875,27.995 C32.05875,27.995 56.6025,56.15625 86.1525,28.29125" id="path124" fill="#3A556C" sketch:type="MSShapeGroup" transform="translate(59.121250, 32.742500) scale(1, -1) translate(-59.121250, -32.742500) "></path>
                <path d="M19.00875,108.319875 L41.50875,108.319875 L41.50875,117.082088 L19.00875,117.082088 L19.00875,108.319875 L19.00875,108.319875 Z" id="path126" fill="#FFFFFF" sketch:type="MSShapeGroup" transform="translate(30.258750, 112.694875) scale(1, -1) translate(-30.258750, -112.694875) "></path>
            </g>
        </g>
    </g>
</svg>