<?xml version="1.0" encoding="UTF-8" standalone="no"?>
<svg width="120px" height="121px" viewBox="0 0 120 121" version="1.1" xmlns="http://www.w3.org/2000/svg" xmlns:xlink="http://www.w3.org/1999/xlink" xmlns:sketch="http://www.bohemiancoding.com/sketch/ns">
    <!-- Generator: Sketch 3.2 (9961) - http://www.bohemiancoding.com/sketch -->
    <title>ico-prepayment</title>
    <desc>Created with Sketch.</desc>
    <defs>
        <linearGradient x1="-181.967303%" y1="-544.348333%" x2="-171.066449%" y2="-544.348333%" id="linearGradient-1">
            <stop stop-color="#E6E6E6" offset="0%"></stop>
            <stop stop-color="#DBDBDB" offset="100%"></stop>
        </linearGradient>
        <linearGradient x1="-358.2%" y1="-392.173913%" x2="-348.2%" y2="-392.173913%" id="linearGradient-2">
            <stop stop-color="#F5CA3F" offset="0%"></stop>
            <stop stop-color="#EEC02D" offset="100%"></stop>
        </linearGradient>
        <linearGradient x1="-2474.1573%" y1="-1034.04255%" x2="-2417.97753%" y2="-1034.04255%" id="linearGradient-3">
            <stop stop-color="#C2A032" offset="0%"></stop>
            <stop stop-color="#BC9824" offset="100%"></stop>
        </linearGradient>
        <linearGradient x1="-1530.37037%" y1="-1718.80342%" x2="-1493.33333%" y2="-1718.80342%" id="linearGradient-4">
            <stop stop-color="#C2A032" offset="0%"></stop>
            <stop stop-color="#BC9824" offset="100%"></stop>
        </linearGradient>
    </defs>
    <g id="Welcome" stroke="none" stroke-width="1" fill="none" fill-rule="evenodd" sketch:type="MSPage">
        <g id="tangerine" sketch:type="MSArtboardGroup" transform="translate(-363.000000, -1161.000000)">
            <g id="ico-prepayment" sketch:type="MSLayerGroup" transform="translate(362.000000, 1162.000000)">
                <path d="M121,59.75 C121,26.6125 94.1375,-0.25 61,-0.25 C27.8625,-0.25 1,26.6125 1,59.75 C1,92.8875 27.8625,119.75 61,119.75 C94.1375,119.75 121,92.8875 121,59.75" id="path528" sketch:type="MSShapeGroup" transform="translate(61.000000, 59.750000) scale(1, -1) translate(-61.000000, -59.750000) "></path>
                <path d="M121,59.75 C121,26.6125 94.1375,-0.25 61,-0.25 C27.8625,-0.25 1,26.6125 1,59.75 C1,92.8875 27.8625,119.75 61,119.75 C94.1375,119.75 121,92.8875 121,59.75" id="path530" fill="#3A556C" sketch:type="MSShapeGroup" transform="translate(61.000000, 59.750000) scale(1, -1) translate(-61.000000, -59.750000) "></path>
                <path d="M72.00375,64.07 L70.715,61.63625 C70.3425,61.0675 70.01875,60.46875 69.74375,59.8475 L50.94125,17.1625 C48.19,10.91875 51.0225,3.6275 57.2675,0.87625 C58.8875,0.16375 60.5775,-0.175 62.24125,-0.175 C66.98875,-0.175 71.515,2.5775 73.5525,7.2025 L91.94375,48.95125 L95.21125,54.12375 C88.3625,58.85625 80.5775,62.605 72.00375,64.07" id="path532" fill="#D6A581" sketch:type="MSShapeGroup" transform="translate(72.576993, 31.950000) scale(1, -1) translate(-72.576993, -31.950000) "></path>
                <path d="M121,59.75 C121,26.6125 94.1375,-0.25 61,-0.25 C27.8625,-0.25 1,26.6125 1,59.75 C1,92.8875 27.8625,119.75 61,119.75 C94.1375,119.75 121,92.8875 121,59.75" id="path540" sketch:type="MSShapeGroup" transform="translate(61.000000, 59.750000) scale(1, -1) translate(-61.000000, -59.750000) "></path>
                <path d="M0.36375,122.2625 C10.49,98.80125 33.8225,82.375 61,82.375 C88.17625,82.375 111.51,98.80125 121.63625,122.2625 L58.28,122.2625 L0.36375,122.2625 L0.36375,122.2625 Z" id="path546" sketch:type="MSShapeGroup" transform="translate(60.988750, 102.312500) scale(1, -1) translate(-60.988750, -102.312500) "></path>
                <path d="M57.25,82.25 L57.25,82.375 L55.625,82.375 L55.625,82.5 L54.25,82.5 L54.25,82.625 L53.25,82.625 L53.25,82.75 L52.375,82.75 L52.375,82.875 L51.5,82.875 L51.5,83 L50.75,83 L50.75,83.125 L50.125,83.125 L50.125,83.25 L49.375,83.25 L49.375,83.375 L48.75,83.375 L48.75,83.5 L48.125,83.5 L48.125,83.625 L47.625,83.625 L47.625,83.75 L47.125,83.75 L47.125,83.875 L46.5,83.875 L46.5,84 L46,84 L46,84.125 L45.5,84.125 L45.5,84.25 L45.125,84.25 L45.125,84.375 L44.625,84.375 L44.625,84.5 L44.25,84.5 L44.25,84.625 L43.75,84.625 L43.75,84.75 L43.375,84.75 L43.375,84.875 L43,84.875 L43,85 L42.625,85 L42.625,85.125 L42.25,85.125 L42.25,85.25 L41.875,85.25 L41.875,85.375 L41.5,85.375 L41.5,85.5 L41.125,85.5 L41.125,85.625 L40.75,85.625 L40.75,85.75 L40.375,85.75 L40.375,85.875 L40,85.875 L40,86 L39.75,86 L39.75,86.125 L39.375,86.125 L39.375,86.25 L39.125,86.25 L39.125,86.375 L38.75,86.375 L38.75,86.5 L38.5,86.5 L38.5,86.625 L38.125,86.625 L38.125,86.75 L37.75,86.75 L37.75,86.875 L37.5,86.875 L37.5,87 L37.25,87 L37.25,87.125 L37,87.125 L37,87.25 L36.625,87.25 L36.625,87.375 L36.375,87.375 L36.375,87.5 L36.125,87.5 L36.125,87.625 L35.875,87.625 L35.875,87.75 L35.625,87.75 L35.625,87.875 L35.25,87.875 L35.25,88 L35,88 L35,88.125 L34.75,88.125 L34.75,88.25 L34.5,88.25 L34.5,88.375 L34.25,88.375 L34.25,88.5 L34,88.5 L34,88.625 L33.75,88.625 L33.75,88.75 L33.5,88.75 L33.5,88.875 L33.25,88.875 L33.25,89 L33,89 L33,89.125 L32.75,89.125 L32.75,89.25 L32.625,89.25 L32.625,89.375 L32.375,89.375 L32.375,89.5 L32.125,89.5 L32.125,89.625 L31.875,89.625 L31.875,89.75 L31.625,89.75 L31.625,89.875 L31.5,89.875 L31.5,90 L31.25,90 L31.25,90.125 L31,90.125 L31,90.25 L30.75,90.25 L30.75,90.375 L30.625,90.375 L30.625,90.5 L30.375,90.5 L30.375,90.625 L30.125,90.625 L30.125,90.75 L29.875,90.75 L29.875,90.875 L29.75,90.875 L29.75,91 L29.5,91 L29.5,91.125 L29.375,91.125 L29.375,91.25 L29.125,91.25 L29.125,91.375 L29,91.375 L29,91.5 L28.75,91.5 L28.75,91.625 L28.5,91.625 L28.5,91.75 L28.375,91.75 L28.375,91.875 L28.125,91.875 L28.125,92 L28,92 L28,92.125 L27.75,92.125 L27.75,92.25 L27.625,92.25 L27.625,92.375 L27.375,92.375 L27.375,92.5 L27.25,92.5 L27.25,92.625 L27,92.625 L27,92.75 L26.875,92.75 L26.875,92.875 L26.625,92.875 L26.625,93 L26.5,93 L26.5,93.125 L26.375,93.125 L26.375,93.25 L26.125,93.25 L26.125,93.375 L26,93.375 L26,93.5 L25.75,93.5 L25.75,93.625 L25.625,93.625 L25.625,93.75 L25.5,93.75 L25.5,93.875 L25.25,93.875 L25.25,94 L25.125,94 L25.125,94.125 L24.875,94.125 L24.875,94.25 L24.75,94.25 L24.75,94.375 L24.625,94.375 L24.625,94.5 L24.5,94.5 L24.5,94.625 L24.25,94.625 L24.25,94.75 L24.125,94.75 L24.125,94.875 L24,94.875 L24,95 L23.875,95 L23.875,95.125 L23.625,95.125 L23.625,95.25 L23.5,95.25 L23.5,95.375 L23.375,95.375 L23.375,95.5 L23.125,95.5 L23.125,95.625 L23,95.625 L23,95.75 L22.875,95.75 L22.875,95.875 L22.75,95.875 L22.75,96 L22.625,96 L22.625,96.125 L22.375,96.125 L22.375,96.25 L22.25,96.25 L22.25,96.375 L22.125,96.375 L22.125,96.5 L22,96.5 L22,96.625 L21.875,96.625 L21.875,96.75 L21.75,96.75 L21.75,96.875 L21.5,96.875 L21.5,97 L21.375,97 L21.375,97.125 L21.25,97.125 L21.25,97.25 L21.125,97.25 L21.125,97.375 L21,97.375 L21,97.5 L20.875,97.5 L20.875,97.625 L20.75,97.625 L20.75,97.75 L20.5,97.75 L20.5,97.875 L20.375,97.875 L20.375,98 L20.25,98 L20.25,98.125 L20.125,98.125 L20.125,98.25 L20,98.25 L20,98.375 L19.875,98.375 L19.875,98.5 L19.75,98.5 L19.75,98.625 L19.625,98.625 L19.625,98.75 L19.5,98.75 L19.5,98.875 L19.375,98.875 L19.375,99 L19.25,99 L19.25,99.125 L19.125,99.125 L19.125,99.25 L19,99.25 L19,99.375 L18.875,99.375 L18.875,99.5 L18.75,99.5 L18.75,99.625 L18.625,99.625 L18.625,99.75 L18.5,99.75 L18.5,99.875 L18.375,99.875 L18.375,100 L18.25,100 L18.25,100.125 L18.125,100.125 L18.125,100.25 L18,100.25 L18,100.375 L17.875,100.375 L17.875,100.5 L17.75,100.5 L17.75,100.625 L17.625,100.625 L17.625,100.75 L17.5,100.75 L17.5,100.875 L17.375,100.875 L17.375,101 L17.25,101 L17.25,101.125 L17.125,101.125 L17.125,101.25 L17,101.25 L17,101.375 L16.875,101.375 L16.875,101.5 L16.75,101.5 L16.75,101.625 L16.625,101.625 L16.625,101.75 L16.5,101.75 L16.5,102 L16.375,102 L16.375,102.125 L16.25,102.125 L16.25,102.25 L16.125,102.25 L16.125,102.375 L16,102.375 L16,102.5 L15.875,102.5 L15.875,102.625 L15.75,102.625 L15.75,102.75 L15.625,102.75 L15.625,103 L15.5,103 L15.5,103.125 L15.375,103.125 L15.375,103.25 L15.25,103.25 L15.25,103.375 L15.125,103.375 L15.125,103.5 L15,103.5 L15,103.625 L14.875,103.625 L14.875,103.875 L14.75,103.875 L14.75,104 L14.625,104 L14.625,104.125 L14.5,104.125 L14.5,104.25 L14.375,104.25 L14.375,104.375 L14.25,104.375 L14.25,104.625 L14.125,104.625 L14.125,104.75 L14,104.75 L14,104.875 L13.875,104.875 L13.875,105.125 L13.75,105.125 L13.75,105.25 L13.625,105.25 L13.625,105.375 L13.5,105.375 L13.5,105.5 L13.375,105.5 L13.375,105.75 L13.25,105.75 L13.25,105.875 L13.125,105.875 L13.125,106 L13,106 L13,106.125 L12.875,106.125 L12.875,106.375 L12.75,106.375 L12.75,106.5 L12.625,106.5 L12.625,106.75 L12.5,106.75 L12.5,106.875 L12.375,106.875 L12.375,107 L12.25,107 L12.25,107.25 L12.125,107.25 L12.125,107.375 L12,107.375 L12,107.625 L11.875,107.625 L11.875,107.75 L11.75,107.75 L11.75,107.875 L11.625,107.875 L11.625,108.125 L11.5,108.125 L11.5,108.25 L11.375,108.25 L11.375,108.5 L11.25,108.5 L11.25,108.625 L11.125,108.625 L11.125,108.875 L11,108.875 L11,109 L10.875,109 L10.875,109.25 L10.75,109.25 L10.75,109.375 L10.625,109.375 L10.625,109.625 L10.5,109.625 L10.5,109.75 L10.375,109.75 L10.375,110 L10.25,110 L10.25,110.25 L10.125,110.25 L10.125,110.375 L10,110.375 L10,110.625 L9.875,110.625 L9.875,110.75 L9.75,110.75 L9.75,111 L9.625,111 L9.625,111.125 L9.5,111.125 L9.5,111.375 L9.375,111.375 L9.375,111.625 L9.25,111.625 L9.25,111.875 L9.125,111.875 L9.125,112 L9,112 L9,112.25 L8.875,112.25 L8.875,112.5 L8.75,112.5 L8.75,112.75 L8.625,112.75 L8.625,112.875 L8.5,112.875 L8.5,113.125 L8.375,113.125 L8.375,113.375 L8.25,113.375 L8.25,113.625 L8.125,113.625 L8.125,113.875 L8,113.875 L8,114 L7.875,114 L7.875,114.25 L7.75,114.25 L7.75,114.5 L7.625,114.5 L7.625,114.75 L7.5,114.75 L7.5,115 L7.375,115 L7.375,115.25 L7.25,115.25 L7.25,115.5 L7.125,115.5 L7.125,115.75 L7,115.75 L7,116 L6.875,116 L6.875,116.25 L6.75,116.25 L6.75,116.5 L6.625,116.5 L6.625,116.875 L6.5,116.875 L6.5,117.125 L6.375,117.125 L6.375,117.375 L6.25,117.375 L6.25,117.625 L6.125,117.625 L6.125,117.875 L6,117.875 L6,118.25 L5.875,118.25 L5.875,118.5 L5.75,118.5 L5.75,118.75 L5.625,118.75 L5.625,119 L5.5,119 L5.5,119.375 L5.375,119.375 L5.375,119.75 L116.625,119.75 L116.625,119.375 L116.5,119.375 L116.5,119 L116.375,119 L116.375,118.75 L116.25,118.75 L116.25,118.5 L116.125,118.5 L116.125,118.25 L116,118.25 L116,117.875 L115.875,117.875 L115.875,117.625 L115.75,117.625 L115.75,117.375 L115.625,117.375 L115.625,117.125 L115.5,117.125 L115.5,116.875 L115.375,116.875 L115.375,116.5 L115.25,116.5 L115.25,116.25 L115.125,116.25 L115.125,116 L115,116 L115,115.75 L114.875,115.75 L114.875,115.5 L114.75,115.5 L114.75,115.25 L114.625,115.25 L114.625,115 L114.5,115 L114.5,114.75 L114.375,114.75 L114.375,114.5 L114.25,114.5 L114.25,114.25 L114.125,114.25 L114.125,114 L114,114 L114,113.875 L113.875,113.875 L113.875,113.625 L113.75,113.625 L113.75,113.375 L113.625,113.375 L113.625,113.125 L113.5,113.125 L113.5,112.875 L113.375,112.875 L113.375,112.75 L113.25,112.75 L113.25,112.5 L113.125,112.5 L113.125,112.25 L113,112.25 L113,112 L112.875,112 L112.875,111.875 L112.75,111.875 L112.75,111.625 L112.625,111.625 L112.625,111.375 L112.5,111.375 L112.5,111.125 L112.375,111.125 L112.375,111 L112.25,111 L112.25,110.75 L112.125,110.75 L112.125,110.625 L112,110.625 L112,110.375 L111.875,110.375 L111.875,110.25 L111.75,110.25 L111.75,110 L111.625,110 L111.625,109.75 L111.5,109.75 L111.5,109.625 L111.375,109.625 L111.375,109.375 L111.25,109.375 L111.25,109.25 L111.125,109.25 L111.125,109 L111,109 L111,108.875 L110.875,108.875 L110.875,108.625 L110.75,108.625 L110.75,108.5 L110.625,108.5 L110.625,108.25 L110.5,108.25 L110.5,108.125 L110.375,108.125 L110.375,107.875 L110.25,107.875 L110.25,107.75 L110.125,107.75 L110.125,107.625 L110,107.625 L110,107.375 L109.875,107.375 L109.875,107.25 L109.75,107.25 L109.75,107 L109.625,107 L109.625,106.875 L109.5,106.875 L109.5,106.75 L109.375,106.75 L109.375,106.5 L109.25,106.5 L109.25,106.375 L109.125,106.375 L109.125,106.125 L109,106.125 L109,106 L108.875,106 L108.875,105.875 L108.75,105.875 L108.75,105.75 L108.625,105.75 L108.625,105.5 L108.5,105.5 L108.5,105.375 L108.375,105.375 L108.375,105.25 L108.25,105.25 L108.25,105.125 L108.125,105.125 L108.125,104.875 L108,104.875 L108,104.75 L107.875,104.75 L107.875,104.625 L107.75,104.625 L107.75,104.375 L107.625,104.375 L107.625,104.25 L107.5,104.25 L107.5,104.125 L107.375,104.125 L107.375,104 L107.25,104 L107.25,103.875 L107.125,103.875 L107.125,103.625 L107,103.625 L107,103.5 L106.875,103.5 L106.875,103.375 L106.75,103.375 L106.75,103.25 L106.625,103.25 L106.625,103.125 L106.5,103.125 L106.5,103 L106.375,103 L106.375,102.75 L106.25,102.75 L106.25,102.625 L106.125,102.625 L106.125,102.5 L106,102.5 L106,102.375 L105.875,102.375 L105.875,102.25 L105.75,102.25 L105.75,102.125 L105.625,102.125 L105.625,102 L105.5,102 L105.5,101.75 L105.375,101.75 L105.375,101.625 L105.25,101.625 L105.25,101.5 L105.125,101.5 L105.125,101.375 L105,101.375 L105,101.25 L104.875,101.25 L104.875,101.125 L104.75,101.125 L104.75,101 L104.625,101 L104.625,100.875 L104.5,100.875 L104.5,100.75 L104.375,100.75 L104.375,100.625 L104.25,100.625 L104.25,100.5 L104.125,100.5 L104.125,100.375 L104,100.375 L104,100.25 L103.875,100.25 L103.875,100.125 L103.75,100.125 L103.75,100 L103.625,100 L103.625,99.875 L103.5,99.875 L103.5,99.75 L103.375,99.75 L103.375,99.625 L103.25,99.625 L103.25,99.5 L103.125,99.5 L103.125,99.375 L103,99.375 L103,99.25 L102.875,99.25 L102.875,99.125 L102.75,99.125 L102.75,99 L102.625,99 L102.625,98.875 L102.5,98.875 L102.5,98.75 L102.375,98.75 L102.375,98.625 L102.25,98.625 L102.25,98.5 L102.125,98.5 L102.125,98.375 L102,98.375 L102,98.25 L101.875,98.25 L101.875,98.125 L101.75,98.125 L101.75,98 L101.625,98 L101.625,97.875 L101.5,97.875 L101.5,97.75 L101.25,97.75 L101.25,97.625 L101.125,97.625 L101.125,97.5 L101,97.5 L101,97.375 L100.875,97.375 L100.875,97.25 L100.75,97.25 L100.75,97.125 L100.625,97.125 L100.625,97 L100.5,97 L100.5,96.875 L100.25,96.875 L100.25,96.75 L100.125,96.75 L100.125,96.625 L100,96.625 L100,96.5 L99.875,96.5 L99.875,96.375 L99.75,96.375 L99.75,96.25 L99.625,96.25 L99.625,96.125 L99.375,96.125 L99.375,96 L99.25,96 L99.25,95.875 L99.125,95.875 L99.125,95.75 L99,95.75 L99,95.625 L98.875,95.625 L98.875,95.5 L98.625,95.5 L98.625,95.375 L98.5,95.375 L98.5,95.25 L98.375,95.25 L98.375,95.125 L98.125,95.125 L98.125,95 L98,95 L98,94.875 L97.875,94.875 L97.875,94.75 L97.75,94.75 L97.75,94.625 L97.5,94.625 L97.5,94.5 L97.375,94.5 L97.375,94.375 L97.25,94.375 L97.25,94.25 L97.125,94.25 L97.125,94.125 L96.875,94.125 L96.875,94 L96.75,94 L96.75,93.875 L96.5,93.875 L96.5,93.75 L96.375,93.75 L96.375,93.625 L96.25,93.625 L96.25,93.5 L96,93.5 L96,93.375 L95.875,93.375 L95.875,93.25 L95.625,93.25 L95.625,93.125 L95.5,93.125 L95.5,93 L95.375,93 L95.375,92.875 L95.125,92.875 L95.125,92.75 L95,92.75 L95,92.625 L94.75,92.625 L94.75,92.5 L94.625,92.5 L94.625,92.375 L94.375,92.375 L94.375,92.25 L94.25,92.25 L94.25,92.125 L94,92.125 L94,92 L93.875,92 L93.875,91.875 L93.625,91.875 L93.625,91.75 L93.5,91.75 L93.5,91.625 L93.25,91.625 L93.25,91.5 L93,91.5 L93,91.375 L92.875,91.375 L92.875,91.25 L92.625,91.25 L92.625,91.125 L92.5,91.125 L92.5,91 L92.25,91 L92.25,90.875 L92.125,90.875 L92.125,90.75 L91.875,90.75 L91.875,90.625 L91.625,90.625 L91.625,90.5 L91.375,90.5 L91.375,90.375 L91.25,90.375 L91.25,90.25 L91,90.25 L91,90.125 L90.75,90.125 L90.75,90 L90.5,90 L90.5,89.875 L90.375,89.875 L90.375,89.75 L90.125,89.75 L90.125,89.625 L89.875,89.625 L89.875,89.5 L89.625,89.5 L89.625,89.375 L89.375,89.375 L89.375,89.25 L89.25,89.25 L89.25,89.125 L89,89.125 L89,89 L88.75,89 L88.75,88.875 L88.5,88.875 L88.5,88.75 L88.25,88.75 L88.25,88.625 L88,88.625 L88,88.5 L87.75,88.5 L87.75,88.375 L87.5,88.375 L87.5,88.25 L87.25,88.25 L87.25,88.125 L87,88.125 L87,88 L86.75,88 L86.75,87.875 L86.375,87.875 L86.375,87.75 L86.125,87.75 L86.125,87.625 L85.875,87.625 L85.875,87.5 L85.625,87.5 L85.625,87.375 L85.375,87.375 L85.375,87.25 L85,87.25 L85,87.125 L84.75,87.125 L84.75,87 L84.5,87 L84.5,86.875 L84.25,86.875 L84.25,86.75 L83.875,86.75 L83.875,86.625 L83.5,86.625 L83.5,86.5 L83.25,86.5 L83.25,86.375 L82.875,86.375 L82.875,86.25 L82.625,86.25 L82.625,86.125 L82.25,86.125 L82.25,86 L82,86 L82,85.875 L81.625,85.875 L81.625,85.75 L81.25,85.75 L81.25,85.625 L80.875,85.625 L80.875,85.5 L80.5,85.5 L80.5,85.375 L80.125,85.375 L80.125,85.25 L79.75,85.25 L79.75,85.125 L79.375,85.125 L79.375,85 L79,85 L79,84.875 L78.625,84.875 L78.625,84.75 L78.25,84.75 L78.25,84.625 L77.75,84.625 L77.75,84.5 L77.375,84.5 L77.375,84.375 L76.875,84.375 L76.875,84.25 L76.5,84.25 L76.5,84.125 L76,84.125 L76,84 L75.5,84 L75.5,83.875 L74.875,83.875 L74.875,83.75 L74.375,83.75 L74.375,83.625 L73.875,83.625 L73.875,83.5 L73.25,83.5 L73.25,83.375 L72.625,83.375 L72.625,83.25 L71.875,83.25 L71.875,83.125 L71.25,83.125 L71.25,83 L70.5,83 L70.5,82.875 L69.625,82.875 L69.625,82.75 L68.75,82.75 L68.75,82.625 L67.75,82.625 L67.75,82.5 L66.375,82.5 L66.375,82.375 L64.75,82.375 L64.75,82.25" id="path554" fill="url(#linearGradient-1)" sketch:type="MSShapeGroup" transform="translate(61.000000, 101.000000) scale(1, -1) translate(-61.000000, -101.000000) "></path>
                <path d="M121,59.75 C121,26.6125 94.1375,-0.25 61,-0.25 C27.8625,-0.25 1,26.6125 1,59.75 C1,92.8875 27.8625,119.75 61,119.75 C94.1375,119.75 121,92.8875 121,59.75" id="path562" sketch:type="MSShapeGroup" transform="translate(61.000000, 59.750000) scale(1, -1) translate(-61.000000, -59.750000) "></path>
                <path d="M93.5,91.625 C93.5,89.90625 91.8125,88.5 89.75,88.5 L32.25,88.5 C30.1875,88.5 28.5,89.90625 28.5,91.625 C28.5,93.34375 30.1875,94.75 32.25,94.75 L89.75,94.75 C91.8125,94.75 93.5,93.34375 93.5,91.625" id="path564" fill="#838A89" sketch:type="MSShapeGroup" transform="translate(61.000000, 91.625000) scale(1, -1) translate(-61.000000, -91.625000) "></path>
                <path d="M121,59.75 C121,26.6125 94.1375,-0.25 61,-0.25 C27.8625,-0.25 1,26.6125 1,59.75 C1,92.8875 27.8625,119.75 61,119.75 C94.1375,119.75 121,92.8875 121,59.75" id="path572" sketch:type="MSShapeGroup" transform="translate(61.000000, 59.750000) scale(1, -1) translate(-61.000000, -59.750000) "></path>
                <path d="M77.9475,37.25 L68.83,37.25 C78.1875,40.33375 85.1025,48.79375 85.91875,58.97375 L91,54.77875 C91.79125,57.5025 92.235,60.375 92.25,63.3525 C92.19875,52.4025 86.5125,42.79125 77.9475,37.25 M67.76,37.25 L44.0525,37.25 C35.45,42.81625 29.75,52.48875 29.75,63.5 C29.75,78.655 40.53875,91.29125 54.855,94.14625 C56.84125,94.5425 58.89625,94.75 61,94.75 C67.90625,94.75 74.28875,92.51 79.46125,88.71625 C87.12375,83.0975 92.13,74.07125 92.2475,63.87 C92.18875,68.9975 90.88875,73.825 88.6425,78.075 C87.38875,78.19625 85.8875,78.2475 84.25625,78.2475 C83.285,78.2475 82.26625,78.23 81.225,78.1975 C76.68,84.44125 69.315,88.5 61,88.5 C47.1925,88.5 36,77.3075 36,63.5 C36,63.08125 36.01,62.66375 36.03125,62.25 C36.01,61.83625 36,61.41875 36,61 C36,49.96375 43.15125,40.5975 53.0725,37.2825 L67.76,37.25 M61,43.5 C50.3925,43.5 41.68625,51.8025 41.03875,62.25 C41.68625,72.6975 50.3925,81 61,81 C65.08125,81 68.88125,79.77125 72.04875,77.66375 C67.59625,77.30875 64.18,76.925 64.18,76.925 L80.8875,63.12875 C80.91875,62.8375 80.94375,62.54375 80.96125,62.25 C80.31375,51.8025 71.6075,43.5 61,43.5 M92.25,63.35875 L92.25,63.385 L92.25,63.35875 M92.25,63.43125 L92.25,63.4425 L92.25,63.43125 M92.25,63.5 L92.25,63.5575 L92.25,63.5 L92.25,63.5 M92.25,63.57375 L92.25,63.615 L92.25,63.57375 M92.25,63.63375 L92.25,63.67625 L92.25,63.63375 M92.25,63.69 C92.24875,63.70875 92.24875,63.72625 92.24875,63.745 C92.24875,63.72625 92.24875,63.70875 92.25,63.69 M92.24875,63.7475 C92.24875,63.7875 92.24875,63.82875 92.2475,63.87 C92.24875,63.82875 92.24875,63.7875 92.24875,63.7475" id="path578" sketch:type="MSShapeGroup" transform="translate(61.062500, 66.000000) scale(1, -1) translate(-61.062500, -66.000000) "></path>
                <path d="M43.875,37.25 L43.875,37.375 L43.625,37.375 L43.625,37.5 L43.5,37.5 L43.5,37.625 L43.375,37.625 L43.375,37.75 L43.125,37.75 L43.125,37.875 L43,37.875 L43,38 L42.75,38 L42.75,38.125 L42.625,38.125 L42.625,38.25 L42.5,38.25 L42.5,38.375 L42.25,38.375 L42.25,38.5 L42.125,38.5 L42.125,38.625 L42,38.625 L42,38.75 L41.75,38.75 L41.75,38.875 L41.625,38.875 L41.625,39 L41.5,39 L41.5,39.125 L41.25,39.125 L41.25,39.25 L41.125,39.25 L41.125,39.375 L41,39.375 L41,39.5 L40.75,39.5 L40.75,39.625 L40.625,39.625 L40.625,39.75 L40.5,39.75 L40.5,39.875 L40.375,39.875 L40.375,40 L40.25,40 L40.25,40.125 L40.125,40.125 L40.125,40.25 L40,40.25 L40,40.375 L39.875,40.375 L39.875,40.5 L39.75,40.5 L39.75,40.625 L39.625,40.625 L39.625,40.75 L39.5,40.75 L39.5,40.875 L39.375,40.875 L39.375,41 L39.25,41 L39.25,41.125 L39.125,41.125 L39.125,41.25 L39,41.25 L39,41.375 L38.875,41.375 L38.875,41.5 L38.625,41.5 L38.625,41.625 L38.5,41.625 L38.5,41.75 L38.375,41.75 L38.375,41.875 L38.25,41.875 L38.25,42 L38.125,42 L38.125,42.125 L38,42.125 L38,42.375 L37.875,42.375 L37.875,42.5 L37.75,42.5 L37.75,42.625 L37.625,42.625 L37.625,42.75 L37.5,42.75 L37.5,42.875 L37.375,42.875 L37.375,43.125 L37.25,43.125 L37.25,43.25 L37.125,43.25 L37.125,43.375 L37,43.375 L37,43.5 L36.875,43.5 L36.875,43.625 L36.75,43.625 L36.75,43.875 L36.625,43.875 L36.625,44 L36.5,44 L36.5,44.125 L36.375,44.125 L36.375,44.25 L36.25,44.25 L36.25,44.375 L36.125,44.375 L36.125,44.625 L36,44.625 L36,44.75 L35.875,44.75 L35.875,44.875 L35.75,44.875 L35.75,45 L35.625,45 L35.625,45.25 L35.5,45.25 L35.5,45.375 L35.375,45.375 L35.375,45.625 L35.25,45.625 L35.25,45.75 L35.125,45.75 L35.125,46 L35,46 L35,46.25 L34.875,46.25 L34.875,46.375 L34.75,46.375 L34.75,46.625 L34.625,46.625 L34.625,46.75 L34.5,46.75 L34.5,47 L34.375,47 L34.375,47.125 L34.25,47.125 L34.25,47.375 L34.125,47.375 L34.125,47.625 L34,47.625 L34,47.75 L33.875,47.75 L33.875,48 L33.75,48 L33.75,48.125 L33.625,48.125 L33.625,48.375 L33.5,48.375 L33.5,48.625 L33.375,48.625 L33.375,48.875 L33.25,48.875 L33.25,49.125 L33.125,49.125 L33.125,49.375 L33,49.375 L33,49.625 L32.875,49.625 L32.875,50 L32.75,50 L32.75,50.25 L32.625,50.25 L32.625,50.5 L32.5,50.5 L32.5,50.75 L32.375,50.75 L32.375,51 L32.25,51 L32.25,51.25 L32.125,51.25 L32.125,51.5 L32,51.5 L32,51.75 L31.875,51.75 L31.875,52.125 L31.75,52.125 L31.75,52.5 L31.625,52.5 L31.625,52.875 L31.5,52.875 L31.5,53.25 L31.375,53.25 L31.375,53.625 L31.25,53.625 L31.25,54 L31.125,54 L31.125,54.375 L31,54.375 L31,54.75 L30.875,54.75 L30.875,55.125 L30.75,55.125 L30.75,55.625 L30.625,55.625 L30.625,56.25 L30.5,56.25 L30.5,56.875 L30.375,56.875 L30.375,57.5 L30.25,57.5 L30.25,58.125 L30.125,58.125 L30.125,58.75 L30,58.75 L30,59.625 L29.875,59.625 L29.875,61.5 L29.75,61.5 L29.75,66.375 L29.875,66.375 L29.875,67.25 L30,67.25 L30,68.25 L30.125,68.25 L30.125,69.125 L30.25,69.125 L30.25,69.75 L30.375,69.75 L30.375,70.25 L30.5,70.25 L30.5,70.875 L30.625,70.875 L30.625,71.375 L30.75,71.375 L30.75,71.875 L30.875,71.875 L30.875,72.25 L31,72.25 L31,72.625 L31.125,72.625 L31.125,73 L31.25,73 L31.25,73.5 L31.375,73.5 L31.375,73.875 L31.5,73.875 L31.5,74.25 L31.625,74.25 L31.625,74.5 L31.75,74.5 L31.75,74.875 L31.875,74.875 L31.875,75.125 L32,75.125 L32,75.5 L32.125,75.5 L32.125,75.75 L32.25,75.75 L32.25,76 L32.375,76 L32.375,76.375 L32.5,76.375 L32.5,76.625 L32.625,76.625 L32.625,76.875 L32.75,76.875 L32.75,77.125 L32.875,77.125 L32.875,77.375 L33,77.375 L33,77.625 L33.125,77.625 L33.125,77.875 L33.25,77.875 L33.25,78.125 L33.375,78.125 L33.375,78.375 L33.5,78.375 L33.5,78.625 L33.625,78.625 L33.625,78.875 L33.75,78.875 L33.75,79.125 L33.875,79.125 L33.875,79.25 L34,79.25 L34,79.5 L34.125,79.5 L34.125,79.625 L34.25,79.625 L34.25,79.875 L34.375,79.875 L34.375,80.125 L34.5,80.125 L34.5,80.25 L34.625,80.25 L34.625,80.5 L34.75,80.5 L34.75,80.625 L34.875,80.625 L34.875,80.875 L35,80.875 L35,81.125 L35.125,81.125 L35.125,81.25 L35.25,81.25 L35.25,81.5 L35.375,81.5 L35.375,81.625 L35.5,81.625 L35.5,81.75 L35.625,81.75 L35.625,82 L35.75,82 L35.75,82.125 L35.875,82.125 L35.875,82.25 L36,82.25 L36,82.375 L36.125,82.375 L36.125,82.625 L36.25,82.625 L36.25,82.75 L36.375,82.75 L36.375,82.875 L36.5,82.875 L36.5,83.125 L36.625,83.125 L36.625,83.25 L36.75,83.25 L36.75,83.375 L36.875,83.375 L36.875,83.625 L37,83.625 L37,83.75 L37.125,83.75 L37.125,83.875 L37.25,83.875 L37.25,84 L37.375,84 L37.375,84.125 L37.5,84.125 L37.5,84.25 L37.625,84.25 L37.625,84.375 L37.75,84.375 L37.75,84.5 L37.875,84.5 L37.875,84.625 L38,84.625 L38,84.875 L38.125,84.875 L38.125,85 L38.25,85 L38.25,85.125 L38.375,85.125 L38.375,85.25 L38.5,85.25 L38.5,85.375 L38.625,85.375 L38.625,85.5 L38.75,85.5 L38.75,85.625 L38.875,85.625 L38.875,85.75 L39,85.75 L39,85.875 L39.125,85.875 L39.125,86 L39.25,86 L39.25,86.125 L39.375,86.125 L39.375,86.25 L39.5,86.25 L39.5,86.375 L39.625,86.375 L39.625,86.5 L39.875,86.5 L39.875,86.625 L40,86.625 L40,86.75 L40.125,86.75 L40.125,86.875 L40.25,86.875 L40.25,87 L40.375,87 L40.375,87.125 L40.5,87.125 L40.5,87.25 L40.625,87.25 L40.625,87.375 L40.75,87.375 L40.75,87.5 L41,87.5 L41,87.625 L41.125,87.625 L41.125,87.75 L41.25,87.75 L41.25,87.875 L41.375,87.875 L41.375,88 L41.625,88 L41.625,88.125 L41.75,88.125 L41.75,88.25 L41.875,88.25 L41.875,88.375 L42,88.375 L42,88.5 L42.25,88.5 L42.25,88.625 L42.375,88.625 L42.375,88.75 L42.5,88.75 L42.5,88.875 L42.75,88.875 L42.75,89 L42.875,89 L42.875,89.125 L43.125,89.125 L43.125,89.25 L43.25,89.25 L43.25,89.375 L43.5,89.375 L43.5,89.5 L43.625,89.5 L43.625,89.625 L43.875,89.625 L43.875,89.75 L44,89.75 L44,89.875 L44.25,89.875 L44.25,90 L44.375,90 L44.375,90.125 L44.625,90.125 L44.625,90.25 L44.75,90.25 L44.75,90.375 L45,90.375 L45,90.5 L45.25,90.5 L45.25,90.625 L45.5,90.625 L45.5,90.75 L45.625,90.75 L45.625,90.875 L45.875,90.875 L45.875,91 L46.125,91 L46.125,91.125 L46.375,91.125 L46.375,91.25 L46.625,91.25 L46.625,91.375 L46.875,91.375 L46.875,91.5 L47,91.5 L47,91.625 L47.375,91.625 L47.375,91.75 L47.625,91.75 L47.625,91.875 L47.875,91.875 L47.875,92 L48.125,92 L48.125,92.125 L48.5,92.125 L48.5,92.25 L48.75,92.25 L48.75,92.375 L49,92.375 L49,92.5 L49.25,92.5 L49.25,92.625 L49.625,92.625 L49.625,92.75 L50,92.75 L50,92.875 L50.375,92.875 L50.375,93 L50.625,93 L50.625,93.125 L51,93.125 L51,93.25 L51.375,93.25 L51.375,93.375 L51.75,93.375 L51.75,93.5 L52.125,93.5 L52.125,93.625 L52.625,93.625 L52.625,93.75 L53.125,93.75 L53.125,93.875 L53.625,93.875 L53.625,94 L54.25,94 L54.25,94.125 L54.75,94.125 L54.75,94.25 L55.5,94.25 L55.5,94.375 L56.375,94.375 L56.375,94.5 L57.125,94.5 L57.125,94.625 L58.375,94.625 L58.375,94.75 L63.75,94.75 L63.75,94.625 L64.875,94.625 L64.875,94.5 L65.875,94.5 L65.875,94.375 L66.625,94.375 L66.625,94.25 L67.125,94.25 L67.125,94.125 L67.75,94.125 L67.75,94 L68.375,94 L68.375,93.875 L68.875,93.875 L68.875,93.75 L69.375,93.75 L69.375,93.625 L69.75,93.625 L69.75,93.5 L70.125,93.5 L70.125,93.375 L70.625,93.375 L70.625,93.25 L71,93.25 L71,93.125 L71.375,93.125 L71.375,93 L71.625,93 L71.625,92.875 L72,92.875 L72,92.75 L72.375,92.75 L72.375,92.625 L72.625,92.625 L72.625,92.5 L73,92.5 L73,92.375 L73.375,92.375 L73.375,92.25 L73.625,92.25 L73.625,92.125 L73.875,92.125 L73.875,92 L74.125,92 L74.125,91.875 L74.375,91.875 L74.375,91.75 L74.625,91.75 L74.625,91.625 L74.875,91.625 L74.875,91.5 L75.125,91.5 L75.125,91.375 L75.5,91.375 L75.5,91.25 L75.625,91.25 L75.625,91.125 L75.875,91.125 L75.875,91 L76.125,91 L76.125,90.875 L76.375,90.875 L76.375,90.75 L76.5,90.75 L76.5,90.625 L76.75,90.625 L76.75,90.5 L77,90.5 L77,90.375 L77.25,90.375 L77.25,90.25 L77.375,90.25 L77.375,90.125 L77.625,90.125 L77.625,90 L77.75,90 L77.75,89.875 L78,89.875 L78,89.75 L78.125,89.75 L78.125,89.625 L78.375,89.625 L78.375,89.5 L78.5,89.5 L78.5,89.375 L78.75,89.375 L78.75,89.25 L78.875,89.25 L78.875,89.125 L79.125,89.125 L79.125,89 L79.25,89 L79.25,88.875 L79.5,88.875 L79.5,88.75 L79.625,88.75 L79.625,88.625 L79.75,88.625 L79.75,88.5 L80,88.5 L80,88.375 L80.125,88.375 L80.125,88.25 L80.25,88.25 L80.25,88.125 L80.375,88.125 L80.375,88 L80.5,88 L80.5,87.875 L80.75,87.875 L80.75,87.75 L80.875,87.75 L80.875,87.625 L81,87.625 L81,87.5 L81.125,87.5 L81.125,87.375 L81.25,87.375 L81.25,87.25 L81.5,87.25 L81.5,87.125 L81.625,87.125 L81.625,87 L81.75,87 L81.75,86.875 L81.875,86.875 L81.875,86.75 L82,86.75 L82,86.625 L82.25,86.625 L82.25,86.5 L82.375,86.5 L82.375,86.375 L82.5,86.375 L82.5,86.25 L82.625,86.25 L82.625,86.125 L82.75,86.125 L82.75,86 L82.875,86 L82.875,85.875 L83,85.875 L83,85.75 L83.125,85.75 L83.125,85.625 L83.25,85.625 L83.25,85.375 L83.375,85.375 L83.375,85.25 L83.5,85.25 L83.5,85.125 L83.625,85.125 L83.625,85 L83.75,85 L83.75,84.875 L83.875,84.875 L83.875,84.75 L84,84.75 L84,84.625 L84.125,84.625 L84.125,84.5 L84.25,84.5 L84.25,84.375 L84.375,84.375 L84.375,84.25 L84.5,84.25 L84.5,84.125 L84.625,84.125 L84.625,84 L84.75,84 L84.75,83.875 L84.875,83.875 L84.875,83.75 L85,83.75 L85,83.5 L85.125,83.5 L85.125,83.375 L85.25,83.375 L85.25,83.25 L85.375,83.25 L85.375,83 L85.5,83 L85.5,82.875 L85.625,82.875 L85.625,82.75 L85.75,82.75 L85.75,82.5 L85.875,82.5 L85.875,82.375 L86,82.375 L86,82.25 L86.125,82.25 L86.125,82.125 L86.25,82.125 L86.25,81.875 L86.375,81.875 L86.375,81.75 L86.5,81.75 L86.5,81.625 L86.625,81.625 L86.625,81.375 L86.75,81.375 L86.75,81.25 L86.875,81.25 L86.875,81.125 L87,81.125 L87,80.875 L87.125,80.875 L87.125,80.625 L87.25,80.625 L87.25,80.5 L87.375,80.5 L87.375,80.25 L87.5,80.25 L87.5,80 L87.625,80 L87.625,79.875 L87.75,79.875 L87.75,79.625 L87.875,79.625 L87.875,79.375 L88,79.375 L88,79.25 L88.125,79.25 L88.125,79 L88.25,79 L88.25,78.75 L88.375,78.75 L88.375,78.625 L88.5,78.625 L88.5,78.375 L88.625,78.375 L88.625,78.125 L88.75,78.125 L88.75,77.875 L88.875,77.875 L88.875,77.625 L89,77.625 L89,77.375 L89.125,77.375 L89.125,77.125 L89.25,77.125 L89.25,76.875 L89.375,76.875 L89.375,76.5 L89.5,76.5 L89.5,76.25 L89.625,76.25 L89.625,76 L89.75,76 L89.75,75.75 L89.875,75.75 L89.875,75.5 L90,75.5 L90,75.125 L90.125,75.125 L90.125,74.875 L90.25,74.875 L90.25,74.5 L90.375,74.5 L90.375,74.125 L90.5,74.125 L90.5,73.75 L90.625,73.75 L90.625,73.375 L90.75,73.375 L90.75,73 L90.875,73 L90.875,72.625 L91,72.625 L91,72.25 L91.125,72.25 L91.125,71.75 L91.25,71.75 L91.25,71.375 L91.375,71.375 L91.375,70.875 L91.5,70.875 L91.5,70.125 L91.625,70.125 L91.625,69.5 L91.75,69.5 L91.75,68.875 L91.875,68.875 L91.875,68.25 L92,68.25 L92,67.375 L92.125,67.375 L92.125,65.625 L92.25,65.625 L92.25,63.625 L92.125,63.625 L92.125,65.5 L92,65.5 L92,67.25 L91.875,67.25 L91.875,68.125 L91.75,68.125 L91.75,68.75 L91.625,68.75 L91.625,69.375 L91.5,69.375 L91.5,70 L91.375,70 L91.375,70.625 L91.25,70.625 L91.25,71.25 L91.125,71.25 L91.125,71.625 L91,71.625 L91,72.125 L90.875,72.125 L90.875,72.5 L90.75,72.5 L90.75,72.875 L90.625,72.875 L90.625,73.25 L90.5,73.25 L90.5,73.625 L90.375,73.625 L90.375,74 L90.25,74 L90.25,74.375 L90.125,74.375 L90.125,74.75 L90,74.75 L90,75 L89.875,75 L89.875,75.375 L89.75,75.375 L89.75,75.625 L89.625,75.625 L89.625,75.875 L89.5,75.875 L89.5,76.125 L89.375,76.125 L89.375,76.375 L89.25,76.375 L89.25,76.625 L89.125,76.625 L89.125,77 L89,77 L89,77.25 L88.875,77.25 L88.875,77.5 L88.75,77.5 L88.75,77.75 L88.625,77.75 L88.625,78 L87.75,78 L87.75,78.125 L81.125,78.125 L81.125,78.25 L81,78.25 L81,78.375 L80.875,78.375 L80.875,78.625 L80.75,78.625 L80.75,78.75 L80.625,78.75 L80.625,78.875 L80.5,78.875 L80.5,79 L80.375,79 L80.375,79.125 L80.25,79.125 L80.25,79.375 L80.125,79.375 L80.125,79.5 L80,79.5 L80,79.625 L79.875,79.625 L79.875,79.75 L79.75,79.75 L79.75,79.875 L79.625,79.875 L79.625,80.125 L79.5,80.125 L79.5,80.25 L79.375,80.25 L79.375,80.375 L79.25,80.375 L79.25,80.5 L79.125,80.5 L79.125,80.625 L79,80.625 L79,80.75 L78.875,80.75 L78.875,80.875 L78.75,80.875 L78.75,81 L78.625,81 L78.625,81.125 L78.5,81.125 L78.5,81.25 L78.375,81.25 L78.375,81.375 L78.25,81.375 L78.25,81.5 L78.125,81.5 L78.125,81.625 L78,81.625 L78,81.75 L77.875,81.75 L77.875,81.875 L77.75,81.875 L77.75,82 L77.625,82 L77.625,82.125 L77.5,82.125 L77.5,82.25 L77.375,82.25 L77.375,82.375 L77.125,82.375 L77.125,82.5 L77,82.5 L77,82.625 L76.875,82.625 L76.875,82.75 L76.75,82.75 L76.75,82.875 L76.5,82.875 L76.5,83 L76.375,83 L76.375,83.125 L76.25,83.125 L76.25,83.25 L76,83.25 L76,83.375 L75.875,83.375 L75.875,83.5 L75.75,83.5 L75.75,83.625 L75.5,83.625 L75.5,83.75 L75.375,83.75 L75.375,83.875 L75.25,83.875 L75.25,84 L75,84 L75,84.125 L74.875,84.125 L74.875,84.25 L74.625,84.25 L74.625,84.375 L74.5,84.375 L74.5,84.5 L74.25,84.5 L74.25,84.625 L74,84.625 L74,84.75 L73.875,84.75 L73.875,84.875 L73.625,84.875 L73.625,85 L73.375,85 L73.375,85.125 L73.25,85.125 L73.25,85.25 L73,85.25 L73,85.375 L72.75,85.375 L72.75,85.5 L72.625,85.5 L72.625,85.625 L72.375,85.625 L72.375,85.75 L72,85.75 L72,85.875 L71.75,85.875 L71.75,86 L71.5,86 L71.5,86.125 L71.25,86.125 L71.25,86.25 L70.875,86.25 L70.875,86.375 L70.625,86.375 L70.625,86.5 L70.375,86.5 L70.375,86.625 L70.125,86.625 L70.125,86.75 L69.875,86.75 L69.875,86.875 L69.375,86.875 L69.375,87 L69,87 L69,87.125 L68.625,87.125 L68.625,87.25 L68.25,87.25 L68.25,87.375 L67.875,87.375 L67.875,87.5 L67.375,87.5 L67.375,87.625 L67,87.625 L67,87.75 L66.375,87.75 L66.375,87.875 L65.75,87.875 L65.75,88 L65,88 L65,88.125 L64.375,88.125 L64.375,88.25 L63,88.25 L63,88.375 L58.625,88.375 L58.625,88.25 L57.75,88.25 L57.75,88.125 L56.875,88.125 L56.875,88 L56.125,88 L56.125,87.875 L55.625,87.875 L55.625,87.75 L55.125,87.75 L55.125,87.625 L54.625,87.625 L54.625,87.5 L54.125,87.5 L54.125,87.375 L53.625,87.375 L53.625,87.25 L53.25,87.25 L53.25,87.125 L53,87.125 L53,87 L52.625,87 L52.625,86.875 L52.25,86.875 L52.25,86.75 L51.875,86.75 L51.875,86.625 L51.625,86.625 L51.625,86.5 L51.25,86.5 L51.25,86.375 L51,86.375 L51,86.25 L50.75,86.25 L50.75,86.125 L50.5,86.125 L50.5,86 L50.25,86 L50.25,85.875 L50,85.875 L50,85.75 L49.75,85.75 L49.75,85.625 L49.5,85.625 L49.5,85.5 L49.125,85.5 L49.125,85.375 L49,85.375 L49,85.25 L48.75,85.25 L48.75,85.125 L48.5,85.125 L48.5,85 L48.375,85 L48.375,84.875 L48.125,84.875 L48.125,84.75 L48,84.75 L48,84.625 L47.75,84.625 L47.75,84.5 L47.5,84.5 L47.5,84.375 L47.375,84.375 L47.375,84.25 L47.125,84.25 L47.125,84.125 L47,84.125 L47,84 L46.75,84 L46.75,83.875 L46.625,83.875 L46.625,83.75 L46.5,83.75 L46.5,83.625 L46.25,83.625 L46.25,83.5 L46.125,83.5 L46.125,83.375 L46,83.375 L46,83.25 L45.75,83.25 L45.75,83.125 L45.625,83.125 L45.625,83 L45.5,83 L45.5,82.875 L45.25,82.875 L45.25,82.75 L45.125,82.75 L45.125,82.625 L45,82.625 L45,82.5 L44.875,82.5 L44.875,82.375 L44.75,82.375 L44.75,82.25 L44.625,82.25 L44.625,82.125 L44.375,82.125 L44.375,82 L44.25,82 L44.25,81.875 L44.125,81.875 L44.125,81.75 L44,81.75 L44,81.625 L43.875,81.625 L43.875,81.5 L43.75,81.5 L43.75,81.375 L43.625,81.375 L43.625,81.25 L43.5,81.25 L43.5,81.125 L43.375,81.125 L43.375,81 L43.25,81 L43.25,80.875 L43.125,80.875 L43.125,80.75 L43,80.75 L43,80.625 L42.875,80.625 L42.875,80.5 L42.75,80.5 L42.75,80.375 L42.625,80.375 L42.625,80.25 L42.5,80.25 L42.5,80.125 L42.375,80.125 L42.375,79.875 L42.25,79.875 L42.25,79.75 L42.125,79.75 L42.125,79.625 L42,79.625 L42,79.5 L41.875,79.5 L41.875,79.375 L41.75,79.375 L41.75,79.25 L41.625,79.25 L41.625,79 L41.5,79 L41.5,78.875 L41.375,78.875 L41.375,78.75 L41.25,78.75 L41.25,78.5 L41.125,78.5 L41.125,78.375 L41,78.375 L41,78.25 L40.875,78.25 L40.875,78 L40.75,78 L40.75,77.875 L40.625,77.875 L40.625,77.75 L40.5,77.75 L40.5,77.5 L40.375,77.5 L40.375,77.375 L40.25,77.375 L40.25,77.125 L40.125,77.125 L40.125,77 L40,77 L40,76.75 L39.875,76.75 L39.875,76.5 L39.75,76.5 L39.75,76.375 L39.625,76.375 L39.625,76.125 L39.5,76.125 L39.5,76 L39.375,76 L39.375,75.75 L39.25,75.75 L39.25,75.5 L39.125,75.5 L39.125,75.375 L39,75.375 L39,75 L38.875,75 L38.875,74.75 L38.75,74.75 L38.75,74.5 L38.625,74.5 L38.625,74.25 L38.5,74.25 L38.5,74 L38.375,74 L38.375,73.75 L38.25,73.75 L38.25,73.5 L38.125,73.5 L38.125,73.25 L38,73.25 L38,72.875 L37.875,72.875 L37.875,72.625 L37.75,72.625 L37.75,72.25 L37.625,72.25 L37.625,71.875 L37.5,71.875 L37.5,71.5 L37.375,71.5 L37.375,71.25 L37.25,71.25 L37.25,70.875 L37.125,70.875 L37.125,70.375 L37,70.375 L37,69.875 L36.875,69.875 L36.875,69.375 L36.75,69.375 L36.75,68.875 L36.625,68.875 L36.625,68.375 L36.5,68.375 L36.5,67.625 L36.375,67.625 L36.375,66.75 L36.25,66.75 L36.25,65.875 L36.125,65.875 L36.125,58.625 L36.25,58.625 L36.25,57.625 L36.375,57.625 L36.375,56.75 L36.5,56.75 L36.5,56.125 L36.625,56.125 L36.625,55.5 L36.75,55.5 L36.75,55 L36.875,55 L36.875,54.5 L37,54.5 L37,54.125 L37.125,54.125 L37.125,53.625 L37.25,53.625 L37.25,53.25 L37.375,53.25 L37.375,52.875 L37.5,52.875 L37.5,52.5 L37.625,52.5 L37.625,52.25 L37.75,52.25 L37.75,51.875 L37.875,51.875 L37.875,51.625 L38,51.625 L38,51.25 L38.125,51.25 L38.125,51 L38.25,51 L38.25,50.75 L38.375,50.75 L38.375,50.5 L38.5,50.5 L38.5,50.25 L38.625,50.25 L38.625,49.875 L38.75,49.875 L38.75,49.625 L38.875,49.625 L38.875,49.375 L39,49.375 L39,49.25 L39.125,49.25 L39.125,49 L39.25,49 L39.25,48.75 L39.375,48.75 L39.375,48.5 L39.5,48.5 L39.5,48.375 L39.625,48.375 L39.625,48.125 L39.75,48.125 L39.75,47.875 L39.875,47.875 L39.875,47.75 L40,47.75 L40,47.5 L40.125,47.5 L40.125,47.375 L40.25,47.375 L40.25,47.125 L40.375,47.125 L40.375,47 L40.5,47 L40.5,46.75 L40.625,46.75 L40.625,46.625 L40.75,46.625 L40.75,46.375 L40.875,46.375 L40.875,46.25 L41,46.25 L41,46.125 L41.125,46.125 L41.125,45.875 L41.25,45.875 L41.25,45.75 L41.375,45.75 L41.375,45.625 L41.5,45.625 L41.5,45.5 L41.625,45.5 L41.625,45.25 L41.75,45.25 L41.75,45.125 L41.875,45.125 L41.875,45 L42,45 L42,44.875 L42.125,44.875 L42.125,44.625 L42.25,44.625 L42.25,44.5 L42.375,44.5 L42.375,44.375 L42.5,44.375 L42.5,44.25 L42.625,44.25 L42.625,44.125 L42.75,44.125 L42.75,44 L42.875,44 L42.875,43.875 L43,43.875 L43,43.75 L43.125,43.75 L43.125,43.625 L43.25,43.625 L43.25,43.5 L43.375,43.5 L43.375,43.375 L43.5,43.375 L43.5,43.25 L43.625,43.25 L43.625,43.125 L43.75,43.125 L43.75,43 L43.875,43 L43.875,42.875 L44,42.875 L44,42.75 L44.125,42.75 L44.125,42.625 L44.25,42.625 L44.25,42.5 L44.375,42.5 L44.375,42.375 L44.5,42.375 L44.5,42.25 L44.625,42.25 L44.625,42.125 L44.875,42.125 L44.875,42 L45,42 L45,41.875 L45.125,41.875 L45.125,41.75 L45.25,41.75 L45.25,41.625 L45.5,41.625 L45.5,41.5 L45.625,41.5 L45.625,41.375 L45.75,41.375 L45.75,41.25 L45.875,41.25 L45.875,41.125 L46.125,41.125 L46.125,41 L46.25,41 L46.25,40.875 L46.375,40.875 L46.375,40.75 L46.625,40.75 L46.625,40.625 L46.75,40.625 L46.75,40.5 L47,40.5 L47,40.375 L47.125,40.375 L47.125,40.25 L47.375,40.25 L47.375,40.125 L47.5,40.125 L47.5,40 L47.75,40 L47.75,39.875 L47.875,39.875 L47.875,39.75 L48.125,39.75 L48.125,39.625 L48.375,39.625 L48.375,39.5 L48.5,39.5 L48.5,39.375 L48.75,39.375 L48.75,39.25 L49,39.25 L49,39.125 L49.25,39.125 L49.25,39 L49.375,39 L49.375,38.875 L49.625,38.875 L49.625,38.75 L49.875,38.75 L49.875,38.625 L50.25,38.625 L50.25,38.5 L50.5,38.5 L50.5,38.375 L50.75,38.375 L50.75,38.25 L51,38.25 L51,38.125 L51.25,38.125 L51.25,38 L51.625,38 L51.625,37.875 L51.875,37.875 L51.875,37.75 L52.25,37.75 L52.25,37.625 L52.5,37.625 L52.5,37.5 L52.875,37.5 L52.875,37.375 L67.875,37.375 L67.875,37.25 L43.875,37.25 L43.875,37.25 Z M68.75,37.25 L68.75,37.375 L69.125,37.375 L69.125,37.5 L69.5,37.5 L69.5,37.625 L69.75,37.625 L69.75,37.75 L70.125,37.75 L70.125,37.875 L70.5,37.875 L70.5,38 L70.75,38 L70.75,38.125 L71,38.125 L71,38.25 L71.25,38.25 L71.25,38.375 L71.5,38.375 L71.5,38.5 L71.875,38.5 L71.875,38.625 L72.125,38.625 L72.125,38.75 L72.375,38.75 L72.375,38.875 L72.625,38.875 L72.625,39 L72.75,39 L72.75,39.125 L73,39.125 L73,39.25 L73.25,39.25 L73.25,39.375 L73.5,39.375 L73.5,39.5 L73.75,39.5 L73.75,39.625 L73.875,39.625 L73.875,39.75 L74.125,39.75 L74.125,39.875 L74.25,39.875 L74.25,40 L74.5,40 L74.5,40.125 L74.625,40.125 L74.625,40.25 L74.875,40.25 L74.875,40.375 L75,40.375 L75,40.5 L75.25,40.5 L75.25,40.625 L75.375,40.625 L75.375,40.75 L75.625,40.75 L75.625,40.875 L75.75,40.875 L75.75,41 L75.875,41 L75.875,41.125 L76.125,41.125 L76.125,41.25 L76.25,41.25 L76.25,41.375 L76.375,41.375 L76.375,41.5 L76.625,41.5 L76.625,41.625 L76.75,41.625 L76.75,41.75 L76.875,41.75 L76.875,41.875 L77,41.875 L77,42 L77.125,42 L77.125,42.125 L77.25,42.125 L77.25,42.25 L77.5,42.25 L77.5,42.375 L77.625,42.375 L77.625,42.5 L77.75,42.5 L77.75,42.625 L77.875,42.625 L77.875,42.75 L78,42.75 L78,42.875 L78.125,42.875 L78.125,43 L78.25,43 L78.25,43.125 L78.375,43.125 L78.375,43.25 L78.5,43.25 L78.5,43.375 L78.625,43.375 L78.625,43.5 L78.75,43.5 L78.75,43.625 L78.875,43.625 L78.875,43.75 L79,43.75 L79,43.875 L79.125,43.875 L79.125,44 L79.25,44 L79.25,44.125 L79.375,44.125 L79.375,44.25 L79.5,44.25 L79.5,44.375 L79.625,44.375 L79.625,44.5 L79.75,44.5 L79.75,44.75 L79.875,44.75 L79.875,44.875 L80,44.875 L80,45 L80.125,45 L80.125,45.125 L80.25,45.125 L80.25,45.25 L80.375,45.25 L80.375,45.375 L80.5,45.375 L80.5,45.625 L80.625,45.625 L80.625,45.75 L80.75,45.75 L80.75,45.875 L80.875,45.875 L80.875,46.125 L81,46.125 L81,46.25 L81.125,46.25 L81.125,46.375 L81.25,46.375 L81.25,46.625 L81.375,46.625 L81.375,46.75 L81.5,46.75 L81.5,46.875 L81.625,46.875 L81.625,47.125 L81.75,47.125 L81.75,47.375 L81.875,47.375 L81.875,47.5 L82,47.5 L82,47.75 L82.125,47.75 L82.125,47.875 L82.25,47.875 L82.25,48.125 L82.375,48.125 L82.375,48.25 L82.5,48.25 L82.5,48.5 L82.625,48.5 L82.625,48.75 L82.75,48.75 L82.75,49 L82.875,49 L82.875,49.25 L83,49.25 L83,49.5 L83.125,49.5 L83.125,49.625 L83.25,49.625 L83.25,49.875 L83.375,49.875 L83.375,50.125 L83.5,50.125 L83.5,50.5 L83.625,50.5 L83.625,50.75 L83.75,50.75 L83.75,51 L83.875,51 L83.875,51.25 L84,51.25 L84,51.625 L84.125,51.625 L84.125,51.875 L84.25,51.875 L84.25,52.25 L84.375,52.25 L84.375,52.5 L84.5,52.5 L84.5,52.875 L84.625,52.875 L84.625,53.25 L84.75,53.25 L84.75,53.625 L84.875,53.625 L84.875,54.125 L85,54.125 L85,54.5 L85.125,54.5 L85.125,55 L85.25,55 L85.25,55.5 L85.375,55.5 L85.375,56.125 L85.5,56.125 L85.5,56.75 L85.625,56.75 L85.625,57.625 L85.75,57.625 L85.75,58.625 L85.875,58.625 L85.875,59 L86.125,59 L86.125,58.875 L86.25,58.875 L86.25,58.75 L86.375,58.75 L86.375,58.625 L86.5,58.625 L86.5,58.5 L86.75,58.5 L86.75,58.375 L86.875,58.375 L86.875,58.25 L87,58.25 L87,58.125 L87.125,58.125 L87.125,58 L87.25,58 L87.25,57.875 L87.5,57.875 L87.5,57.75 L87.625,57.75 L87.625,57.625 L87.75,57.625 L87.75,57.5 L87.875,57.5 L87.875,57.375 L88.125,57.375 L88.125,57.25 L88.25,57.25 L88.25,57.125 L88.375,57.125 L88.375,57 L88.5,57 L88.5,56.875 L88.625,56.875 L88.625,56.75 L88.875,56.75 L88.875,56.625 L89,56.625 L89,56.5 L89.125,56.5 L89.125,56.375 L89.25,56.375 L89.25,56.25 L89.375,56.25 L89.375,56.125 L89.625,56.125 L89.625,56 L89.75,56 L89.75,55.875 L89.875,55.875 L89.875,55.75 L90,55.75 L90,55.625 L90.25,55.625 L90.25,55.5 L90.375,55.5 L90.375,55.375 L90.5,55.375 L90.5,55.25 L90.625,55.25 L90.625,55.125 L90.75,55.125 L90.75,55 L91,55 L91,55.375 L91.125,55.375 L91.125,56 L91.25,56 L91.25,56.5 L91.375,56.5 L91.375,57.125 L91.5,57.125 L91.5,57.75 L91.625,57.75 L91.625,58.25 L91.75,58.25 L91.75,58.875 L91.875,58.875 L91.875,60.125 L92,60.125 L92,61.75 L92.125,61.75 L92.125,63.375 L92.25,63.375 L92.25,61.5 L92.125,61.5 L92.125,59.625 L92,59.625 L92,58.75 L91.875,58.75 L91.875,58.125 L91.75,58.125 L91.75,57.5 L91.625,57.5 L91.625,56.875 L91.5,56.875 L91.5,56.25 L91.375,56.25 L91.375,55.625 L91.25,55.625 L91.25,55.125 L91.125,55.125 L91.125,54.75 L91,54.75 L91,54.375 L90.875,54.375 L90.875,54 L90.75,54 L90.75,53.625 L90.625,53.625 L90.625,53.25 L90.5,53.25 L90.5,52.875 L90.375,52.875 L90.375,52.5 L90.25,52.5 L90.25,52.125 L90.125,52.125 L90.125,51.75 L90,51.75 L90,51.5 L89.875,51.5 L89.875,51.25 L89.75,51.25 L89.75,51 L89.625,51 L89.625,50.75 L89.5,50.75 L89.5,50.5 L89.375,50.5 L89.375,50.25 L89.25,50.25 L89.25,50 L89.125,50 L89.125,49.625 L89,49.625 L89,49.375 L88.875,49.375 L88.875,49.125 L88.75,49.125 L88.75,48.875 L88.625,48.875 L88.625,48.625 L88.5,48.625 L88.5,48.375 L88.375,48.375 L88.375,48.125 L88.25,48.125 L88.25,48 L88.125,48 L88.125,47.75 L88,47.75 L88,47.625 L87.875,47.625 L87.875,47.375 L87.75,47.375 L87.75,47.125 L87.625,47.125 L87.625,47 L87.5,47 L87.5,46.75 L87.375,46.75 L87.375,46.625 L87.25,46.625 L87.25,46.375 L87.125,46.375 L87.125,46.25 L87,46.25 L87,46 L86.875,46 L86.875,45.875 L86.75,45.875 L86.75,45.625 L86.625,45.625 L86.625,45.375 L86.5,45.375 L86.5,45.25 L86.375,45.25 L86.375,45 L86.25,45 L86.25,44.875 L86.125,44.875 L86.125,44.75 L86,44.75 L86,44.625 L85.875,44.625 L85.875,44.375 L85.75,44.375 L85.75,44.25 L85.625,44.25 L85.625,44.125 L85.5,44.125 L85.5,44 L85.375,44 L85.375,43.875 L85.25,43.875 L85.25,43.625 L85.125,43.625 L85.125,43.5 L85,43.5 L85,43.375 L84.875,43.375 L84.875,43.25 L84.75,43.25 L84.75,43.125 L84.625,43.125 L84.625,42.875 L84.5,42.875 L84.5,42.75 L84.375,42.75 L84.375,42.625 L84.25,42.625 L84.25,42.5 L84.125,42.5 L84.125,42.375 L84,42.375 L84,42.125 L83.875,42.125 L83.875,42 L83.75,42 L83.75,41.875 L83.625,41.875 L83.625,41.75 L83.5,41.75 L83.5,41.625 L83.375,41.625 L83.375,41.5 L83.125,41.5 L83.125,41.375 L83,41.375 L83,41.25 L82.875,41.25 L82.875,41.125 L82.75,41.125 L82.75,41 L82.625,41 L82.625,40.875 L82.5,40.875 L82.5,40.75 L82.375,40.75 L82.375,40.625 L82.25,40.625 L82.25,40.5 L82.125,40.5 L82.125,40.375 L82,40.375 L82,40.25 L81.875,40.25 L81.875,40.125 L81.75,40.125 L81.75,40 L81.625,40 L81.625,39.875 L81.5,39.875 L81.5,39.75 L81.375,39.75 L81.375,39.625 L81.25,39.625 L81.25,39.5 L81.125,39.5 L81.125,39.375 L80.875,39.375 L80.875,39.25 L80.75,39.25 L80.75,39.125 L80.5,39.125 L80.5,39 L80.375,39 L80.375,38.875 L80.25,38.875 L80.25,38.75 L80,38.75 L80,38.625 L79.875,38.625 L79.875,38.5 L79.75,38.5 L79.75,38.375 L79.5,38.375 L79.5,38.25 L79.375,38.25 L79.375,38.125 L79.25,38.125 L79.25,38 L79,38 L79,37.875 L78.875,37.875 L78.875,37.75 L78.75,37.75 L78.75,37.625 L78.5,37.625 L78.5,37.5 L78.375,37.5 L78.375,37.375 L78.125,37.375 L78.125,37.25 L68.75,37.25 L68.75,37.25 Z M58.75,43.5 L58.75,43.625 L57.875,43.625 L57.875,43.75 L57.125,43.75 L57.125,43.875 L56.625,43.875 L56.625,44 L56,44 L56,44.125 L55.5,44.125 L55.5,44.25 L55.125,44.25 L55.125,44.375 L54.75,44.375 L54.75,44.5 L54.375,44.5 L54.375,44.625 L54,44.625 L54,44.75 L53.625,44.75 L53.625,44.875 L53.375,44.875 L53.375,45 L53.125,45 L53.125,45.125 L52.75,45.125 L52.75,45.25 L52.5,45.25 L52.5,45.375 L52.25,45.375 L52.25,45.5 L52,45.5 L52,45.625 L51.75,45.625 L51.75,45.75 L51.5,45.75 L51.5,45.875 L51.25,45.875 L51.25,46 L51.125,46 L51.125,46.125 L50.875,46.125 L50.875,46.25 L50.625,46.25 L50.625,46.375 L50.5,46.375 L50.5,46.5 L50.25,46.5 L50.25,46.625 L50,46.625 L50,46.75 L49.875,46.75 L49.875,46.875 L49.625,46.875 L49.625,47 L49.5,47 L49.5,47.125 L49.375,47.125 L49.375,47.25 L49.125,47.25 L49.125,47.375 L49,47.375 L49,47.5 L48.75,47.5 L48.75,47.625 L48.625,47.625 L48.625,47.75 L48.5,47.75 L48.5,47.875 L48.375,47.875 L48.375,48 L48.25,48 L48.25,48.125 L48,48.125 L48,48.25 L47.875,48.25 L47.875,48.375 L47.75,48.375 L47.75,48.5 L47.625,48.5 L47.625,48.625 L47.5,48.625 L47.5,48.75 L47.375,48.75 L47.375,48.875 L47.125,48.875 L47.125,49 L47,49 L47,49.25 L46.875,49.25 L46.875,49.375 L46.75,49.375 L46.75,49.5 L46.625,49.5 L46.625,49.625 L46.5,49.625 L46.5,49.75 L46.375,49.75 L46.375,49.875 L46.25,49.875 L46.25,50 L46.125,50 L46.125,50.125 L46,50.125 L46,50.25 L45.875,50.25 L45.875,50.375 L45.75,50.375 L45.75,50.5 L45.625,50.5 L45.625,50.75 L45.5,50.75 L45.5,50.875 L45.375,50.875 L45.375,51 L45.25,51 L45.25,51.125 L45.125,51.125 L45.125,51.25 L45,51.25 L45,51.5 L44.875,51.5 L44.875,51.625 L44.75,51.625 L44.75,51.75 L44.625,51.75 L44.625,52 L44.5,52 L44.5,52.125 L44.375,52.125 L44.375,52.375 L44.25,52.375 L44.25,52.5 L44.125,52.5 L44.125,52.75 L44,52.75 L44,52.875 L43.875,52.875 L43.875,53.125 L43.75,53.125 L43.75,53.375 L43.625,53.375 L43.625,53.625 L43.5,53.625 L43.5,53.75 L43.375,53.75 L43.375,54 L43.25,54 L43.25,54.25 L43.125,54.25 L43.125,54.5 L43,54.5 L43,54.75 L42.875,54.75 L42.875,55 L42.75,55 L42.75,55.25 L42.625,55.25 L42.625,55.625 L42.5,55.625 L42.5,55.875 L42.375,55.875 L42.375,56.25 L42.25,56.25 L42.25,56.5 L42.125,56.5 L42.125,56.875 L42,56.875 L42,57.25 L41.875,57.25 L41.875,57.625 L41.75,57.625 L41.75,58 L41.625,58 L41.625,58.5 L41.5,58.5 L41.5,59.125 L41.375,59.125 L41.375,59.625 L41.25,59.625 L41.25,60.25 L41.125,60.25 L41.125,61.375 L41,61.375 L41,63.125 L41.125,63.125 L41.125,64.25 L41.25,64.25 L41.25,64.875 L41.375,64.875 L41.375,65.375 L41.5,65.375 L41.5,66 L41.625,66 L41.625,66.5 L41.75,66.5 L41.75,66.875 L41.875,66.875 L41.875,67.25 L42,67.25 L42,67.625 L42.125,67.625 L42.125,68 L42.25,68 L42.25,68.25 L42.375,68.25 L42.375,68.625 L42.5,68.625 L42.5,68.875 L42.625,68.875 L42.625,69.25 L42.75,69.25 L42.75,69.5 L42.875,69.5 L42.875,69.75 L43,69.75 L43,70 L43.125,70 L43.125,70.25 L43.25,70.25 L43.25,70.5 L43.375,70.5 L43.375,70.75 L43.5,70.75 L43.5,70.875 L43.625,70.875 L43.625,71.125 L43.75,71.125 L43.75,71.375 L43.875,71.375 L43.875,71.625 L44,71.625 L44,71.75 L44.125,71.75 L44.125,72 L44.25,72 L44.25,72.125 L44.375,72.125 L44.375,72.375 L44.5,72.375 L44.5,72.5 L44.625,72.5 L44.625,72.75 L44.75,72.75 L44.75,72.875 L44.875,72.875 L44.875,73 L45,73 L45,73.25 L45.125,73.25 L45.125,73.375 L45.25,73.375 L45.25,73.5 L45.375,73.5 L45.375,73.625 L45.5,73.625 L45.5,73.75 L45.625,73.75 L45.625,74 L45.75,74 L45.75,74.125 L45.875,74.125 L45.875,74.25 L46,74.25 L46,74.375 L46.125,74.375 L46.125,74.5 L46.25,74.5 L46.25,74.625 L46.375,74.625 L46.375,74.75 L46.5,74.75 L46.5,74.875 L46.625,74.875 L46.625,75 L46.75,75 L46.75,75.125 L46.875,75.125 L46.875,75.25 L47,75.25 L47,75.5 L47.125,75.5 L47.125,75.625 L47.375,75.625 L47.375,75.75 L47.5,75.75 L47.5,75.875 L47.625,75.875 L47.625,76 L47.75,76 L47.75,76.125 L47.875,76.125 L47.875,76.25 L48,76.25 L48,76.375 L48.25,76.375 L48.25,76.5 L48.375,76.5 L48.375,76.625 L48.5,76.625 L48.5,76.75 L48.625,76.75 L48.625,76.875 L48.75,76.875 L48.75,77 L49,77 L49,77.125 L49.125,77.125 L49.125,77.25 L49.375,77.25 L49.375,77.375 L49.5,77.375 L49.5,77.5 L49.625,77.5 L49.625,77.625 L49.875,77.625 L49.875,77.75 L50,77.75 L50,77.875 L50.25,77.875 L50.25,78 L50.5,78 L50.5,78.125 L50.625,78.125 L50.625,78.25 L50.875,78.25 L50.875,78.375 L51.125,78.375 L51.125,78.5 L51.25,78.5 L51.25,78.625 L51.5,78.625 L51.5,78.75 L51.75,78.75 L51.75,78.875 L52,78.875 L52,79 L52.25,79 L52.25,79.125 L52.5,79.125 L52.5,79.25 L52.75,79.25 L52.75,79.375 L53.125,79.375 L53.125,79.5 L53.375,79.5 L53.375,79.625 L53.625,79.625 L53.625,79.75 L54,79.75 L54,79.875 L54.375,79.875 L54.375,80 L54.75,80 L54.75,80.125 L55.125,80.125 L55.125,80.25 L55.5,80.25 L55.5,80.375 L56,80.375 L56,80.5 L56.625,80.5 L56.625,80.625 L57.125,80.625 L57.125,80.75 L57.875,80.75 L57.875,80.875 L58.75,80.875 L58.75,81 L62.75,81 L62.75,80.875 L64.125,80.875 L64.125,80.75 L64.75,80.75 L64.75,80.625 L65.25,80.625 L65.25,80.5 L65.875,80.5 L65.875,80.375 L66.375,80.375 L66.375,80.25 L66.875,80.25 L66.875,80.125 L67.25,80.125 L67.25,80 L67.625,80 L67.625,79.875 L67.875,79.875 L67.875,79.75 L68.25,79.75 L68.25,79.625 L68.5,79.625 L68.5,79.5 L68.875,79.5 L68.875,79.375 L69.125,79.375 L69.125,79.25 L69.5,79.25 L69.5,79.125 L69.75,79.125 L69.75,79 L70,79 L70,78.875 L70.25,78.875 L70.25,78.75 L70.375,78.75 L70.375,78.625 L70.625,78.625 L70.625,78.5 L70.875,78.5 L70.875,78.375 L71.125,78.375 L71.125,78.25 L71.25,78.25 L71.25,78.125 L71.5,78.125 L71.5,78 L71.75,78 L71.75,77.875 L72,77.875 L72,77.75 L72.125,77.75 L72.125,77.625 L71.625,77.625 L71.625,77.5 L70.125,77.5 L70.125,77.375 L68.75,77.375 L68.75,77.25 L67.375,77.25 L67.375,77.125 L66.125,77.125 L66.125,77 L64.875,77 L64.875,76.875 L64.5,76.875 L64.5,76.75 L64.625,76.75 L64.625,76.625 L64.75,76.625 L64.75,76.5 L64.875,76.5 L64.875,76.375 L65,76.375 L65,76.25 L65.25,76.25 L65.25,76.125 L65.375,76.125 L65.375,76 L65.5,76 L65.5,75.875 L65.625,75.875 L65.625,75.75 L65.875,75.75 L65.875,75.625 L66,75.625 L66,75.5 L66.125,75.5 L66.125,75.375 L66.25,75.375 L66.25,75.25 L66.375,75.25 L66.375,75.125 L66.625,75.125 L66.625,75 L66.75,75 L66.75,74.875 L66.875,74.875 L66.875,74.75 L67,74.75 L67,74.625 L67.125,74.625 L67.125,74.5 L67.375,74.5 L67.375,74.375 L67.5,74.375 L67.5,74.25 L67.625,74.25 L67.625,74.125 L67.75,74.125 L67.75,74 L67.875,74 L67.875,73.875 L68.125,73.875 L68.125,73.75 L68.25,73.75 L68.25,73.625 L68.375,73.625 L68.375,73.5 L68.5,73.5 L68.5,73.375 L68.75,73.375 L68.75,73.25 L68.875,73.25 L68.875,73.125 L69,73.125 L69,73 L69.125,73 L69.125,72.875 L69.25,72.875 L69.25,72.75 L69.5,72.75 L69.5,72.625 L69.625,72.625 L69.625,72.5 L69.75,72.5 L69.75,72.375 L69.875,72.375 L69.875,72.25 L70,72.25 L70,72.125 L70.25,72.125 L70.25,72 L70.375,72 L70.375,71.875 L70.5,71.875 L70.5,71.75 L70.625,71.75 L70.625,71.625 L70.75,71.625 L70.75,71.5 L71,71.5 L71,71.375 L71.125,71.375 L71.125,71.25 L71.25,71.25 L71.25,71.125 L71.375,71.125 L71.375,71 L71.625,71 L71.625,70.875 L71.75,70.875 L71.75,70.75 L71.875,70.75 L71.875,70.625 L72,70.625 L72,70.5 L72.125,70.5 L72.125,70.375 L72.375,70.375 L72.375,70.25 L72.5,70.25 L72.5,70.125 L72.625,70.125 L72.625,70 L72.75,70 L72.75,69.875 L72.875,69.875 L72.875,69.75 L73.125,69.75 L73.125,69.625 L73.25,69.625 L73.25,69.5 L73.375,69.5 L73.375,69.375 L73.5,69.375 L73.5,69.25 L73.75,69.25 L73.75,69.125 L73.875,69.125 L73.875,69 L74,69 L74,68.875 L74.125,68.875 L74.125,68.75 L74.25,68.75 L74.25,68.625 L74.5,68.625 L74.5,68.5 L74.625,68.5 L74.625,68.375 L74.75,68.375 L74.75,68.25 L74.875,68.25 L74.875,68.125 L75,68.125 L75,68 L75.25,68 L75.25,67.875 L75.375,67.875 L75.375,67.75 L75.5,67.75 L75.5,67.625 L75.625,67.625 L75.625,67.5 L75.75,67.5 L75.75,67.375 L76,67.375 L76,67.25 L76.125,67.25 L76.125,67.125 L76.25,67.125 L76.25,67 L76.375,67 L76.375,66.875 L76.625,66.875 L76.625,66.75 L76.75,66.75 L76.75,66.625 L76.875,66.625 L76.875,66.5 L77,66.5 L77,66.375 L77.125,66.375 L77.125,66.25 L77.375,66.25 L77.375,66.125 L77.5,66.125 L77.5,66 L77.625,66 L77.625,65.875 L77.75,65.875 L77.75,65.75 L77.875,65.75 L77.875,65.625 L78.125,65.625 L78.125,65.5 L78.25,65.5 L78.25,65.375 L78.375,65.375 L78.375,65.25 L78.5,65.25 L78.5,65.125 L78.625,65.125 L78.625,65 L78.875,65 L78.875,64.875 L79,64.875 L79,64.75 L79.125,64.75 L79.125,64.625 L79.25,64.625 L79.25,64.5 L79.5,64.5 L79.5,64.375 L79.625,64.375 L79.625,64.25 L79.75,64.25 L79.75,64.125 L79.875,64.125 L79.875,64 L80,64 L80,63.875 L80.25,63.875 L80.25,63.75 L80.375,63.75 L80.375,63.625 L80.5,63.625 L80.5,63.5 L80.625,63.5 L80.625,63.375 L80.75,63.375 L80.75,63.25 L81,63.25 L81,61.375 L80.875,61.375 L80.875,60.25 L80.75,60.25 L80.75,59.625 L80.625,59.625 L80.625,59.125 L80.5,59.125 L80.5,58.5 L80.375,58.5 L80.375,58 L80.25,58 L80.25,57.625 L80.125,57.625 L80.125,57.25 L80,57.25 L80,56.875 L79.875,56.875 L79.875,56.5 L79.75,56.5 L79.75,56.25 L79.625,56.25 L79.625,55.875 L79.5,55.875 L79.5,55.625 L79.375,55.625 L79.375,55.25 L79.25,55.25 L79.25,55 L79.125,55 L79.125,54.75 L79,54.75 L79,54.5 L78.875,54.5 L78.875,54.25 L78.75,54.25 L78.75,54 L78.625,54 L78.625,53.75 L78.5,53.75 L78.5,53.625 L78.375,53.625 L78.375,53.375 L78.25,53.375 L78.25,53.125 L78.125,53.125 L78.125,52.875 L78,52.875 L78,52.75 L77.875,52.75 L77.875,52.5 L77.75,52.5 L77.75,52.375 L77.625,52.375 L77.625,52.125 L77.5,52.125 L77.5,52 L77.375,52 L77.375,51.75 L77.25,51.75 L77.25,51.625 L77.125,51.625 L77.125,51.5 L77,51.5 L77,51.25 L76.875,51.25 L76.875,51.125 L76.75,51.125 L76.75,51 L76.625,51 L76.625,50.875 L76.5,50.875 L76.5,50.75 L76.375,50.75 L76.375,50.5 L76.25,50.5 L76.25,50.375 L76.125,50.375 L76.125,50.25 L76,50.25 L76,50.125 L75.875,50.125 L75.875,50 L75.75,50 L75.75,49.875 L75.625,49.875 L75.625,49.75 L75.5,49.75 L75.5,49.625 L75.375,49.625 L75.375,49.5 L75.25,49.5 L75.25,49.375 L75.125,49.375 L75.125,49.25 L75,49.25 L75,49 L74.875,49 L74.875,48.875 L74.625,48.875 L74.625,48.75 L74.5,48.75 L74.5,48.625 L74.375,48.625 L74.375,48.5 L74.25,48.5 L74.25,48.375 L74.125,48.375 L74.125,48.25 L74,48.25 L74,48.125 L73.75,48.125 L73.75,48 L73.625,48 L73.625,47.875 L73.5,47.875 L73.5,47.75 L73.375,47.75 L73.375,47.625 L73.25,47.625 L73.25,47.5 L73,47.5 L73,47.375 L72.875,47.375 L72.875,47.25 L72.625,47.25 L72.625,47.125 L72.5,47.125 L72.5,47 L72.375,47 L72.375,46.875 L72.125,46.875 L72.125,46.75 L72,46.75 L72,46.625 L71.75,46.625 L71.75,46.5 L71.5,46.5 L71.5,46.375 L71.375,46.375 L71.375,46.25 L71.125,46.25 L71.125,46.125 L70.875,46.125 L70.875,46 L70.75,46 L70.75,45.875 L70.5,45.875 L70.5,45.75 L70.25,45.75 L70.25,45.625 L70,45.625 L70,45.5 L69.75,45.5 L69.75,45.375 L69.5,45.375 L69.5,45.25 L69.25,45.25 L69.25,45.125 L68.875,45.125 L68.875,45 L68.625,45 L68.625,44.875 L68.375,44.875 L68.375,44.75 L68,44.75 L68,44.625 L67.625,44.625 L67.625,44.5 L67.25,44.5 L67.25,44.375 L66.875,44.375 L66.875,44.25 L66.5,44.25 L66.5,44.125 L66,44.125 L66,44 L65.375,44 L65.375,43.875 L64.875,43.875 L64.875,43.75 L64.125,43.75 L64.125,43.625 L63.25,43.625 L63.25,43.5 L58.75,43.5 Z" id="path586" fill="url(#linearGradient-2)" sketch:type="MSShapeGroup" transform="translate(61.000000, 66.000000) scale(1, -1) translate(-61.000000, -66.000000) "></path>
                <path d="M121,59.75 C121,26.6125 94.1375,-0.25 61,-0.25 C27.8625,-0.25 1,26.6125 1,59.75 C1,92.8875 27.8625,119.75 61,119.75 C94.1375,119.75 121,92.8875 121,59.75" id="path594" sketch:type="MSShapeGroup" transform="translate(61.000000, 59.750000) scale(1, -1) translate(-61.000000, -59.750000) "></path>
                <path d="M68.8225,46.0025 C78.7975,49.28625 86,58.68 86,69.755 C86,83.5625 74.8075,94.755 61,94.755 C47.1925,94.755 36,83.5625 36,69.755 C36,58.71875 43.15125,49.3525 53.0725,46.0375 L68.8225,46.0025 M61,89.755 C72.0275,89.755 81,80.7825 81,69.755 C81,58.7275 72.0275,49.755 61,49.755 C49.9725,49.755 41,58.7275 41,69.755 C41,80.7825 49.9725,89.755 61,89.755" id="path596" fill="#FFD75C" sketch:type="MSShapeGroup" transform="translate(61.000000, 70.377500) scale(1, -1) translate(-61.000000, -70.377500) "></path>
                <path d="M61,93.5 C47.1925,93.5 36,82.3075 36,68.5 C36,54.6925 47.1925,43.5 61,43.5 C74.8075,43.5 86,54.6925 86,68.5 C86,82.3075 74.8075,93.5 61,93.5 M61,88.5 C72.0275,88.5 81,79.5275 81,68.5 C81,57.4725 72.0275,48.5 61,48.5 C49.9725,48.5 41,57.4725 41,68.5 C41,79.5275 49.9725,88.5 61,88.5" id="path598" fill="#E3AB00" sketch:type="MSShapeGroup" transform="translate(61.000000, 68.500000) scale(1, -1) translate(-61.000000, -68.500000) "></path>
                <path id="path606" sketch:type="MSShapeGroup" transform="translate(92.187500, 68.250000) scale(1, -1) translate(-92.187500, -68.250000) " d="M92.125,68.125 L92.25,68.125 L92.25,68.375 L92.125,68.375 L92.125,68.125 L92.125,68.125 Z"></path>
                <path id="path608" fill="#2E4356" sketch:type="MSShapeGroup" transform="translate(92.310000, 68.397500) scale(1, -1) translate(-92.310000, -68.397500) " d="M92.2475,68.1475 L92.249875,68.1475 L92.249875,68.665075 L92.2475,68.665075 L92.2475,68.1475 L92.2475,68.1475 Z"></path>
                <path d="M121,59.75 C121,26.6125 94.1375,-0.25 61,-0.25 C27.8625,-0.25 1,26.6125 1,59.75 C1,92.8875 27.8625,119.75 61,119.75 C94.1375,119.75 121,92.8875 121,59.75" id="path616" sketch:type="MSShapeGroup" transform="translate(61.000000, 59.750000) scale(1, -1) translate(-61.000000, -59.750000) "></path>
                <path d="M91,53.72125 L85.91875,57.91625 C85.9725,58.585 86,59.26 86,59.9425 C86,60.36125 85.99,60.77875 85.96875,61.1925 C85.99,61.60625 86,62.02375 86,62.4425 C86,67.935 84.22875,73.015 81.225,77.14 C82.26625,77.1725 83.285,77.19 84.25625,77.19 C85.8875,77.19 87.38875,77.13875 88.6425,77.0175 C90.88875,72.7675 92.18875,67.94 92.2475,62.8125 L92.2475,62.8125 C92.24875,62.77125 92.24875,62.73 92.24875,62.69 L92.24875,62.6875 C92.24875,62.66875 92.24875,62.65125 92.25,62.6325 L92.25,62.61875 L92.25,62.57625 L92.25,62.5575 L92.25,62.51625 L92.25,62.5 L92.25,62.4425 L92.25,62.385 L92.25,62.37375 L92.25,62.3275 L92.25,62.30125 L92.25,62.295 C92.235,59.3175 91.79125,56.445 91,53.72125" id="path622" sketch:type="MSShapeGroup" transform="translate(86.725000, 65.471250) scale(1, -1) translate(-86.725000, -65.471250) "></path>
                <path d="M90.875,53.75 L90.875,53.875 L90.625,53.875 L90.625,54 L90.5,54 L90.5,54.125 L90.375,54.125 L90.375,54.25 L90.25,54.25 L90.25,54.375 L90.125,54.375 L90.125,54.5 L89.875,54.5 L89.875,54.625 L89.75,54.625 L89.75,54.75 L89.625,54.75 L89.625,54.875 L89.5,54.875 L89.5,55 L89.25,55 L89.25,55.125 L89.125,55.125 L89.125,55.25 L89,55.25 L89,55.375 L88.875,55.375 L88.875,55.5 L88.75,55.5 L88.75,55.625 L88.5,55.625 L88.5,55.75 L88.375,55.75 L88.375,55.875 L88.25,55.875 L88.25,56 L88.125,56 L88.125,56.125 L88,56.125 L88,56.25 L87.75,56.25 L87.75,56.375 L87.625,56.375 L87.625,56.5 L87.5,56.5 L87.5,56.625 L87.375,56.625 L87.375,56.75 L87.25,56.75 L87.25,56.875 L87,56.875 L87,57 L86.875,57 L86.875,57.125 L86.75,57.125 L86.75,57.25 L86.625,57.25 L86.625,57.375 L86.375,57.375 L86.375,57.5 L86.25,57.5 L86.25,57.625 L86.125,57.625 L86.125,57.75 L86,57.75 L86,57.875 L85.875,57.875 L85.875,64.875 L85.75,64.875 L85.75,65.875 L85.625,65.875 L85.625,66.75 L85.5,66.75 L85.5,67.375 L85.375,67.375 L85.375,68 L85.25,68 L85.25,68.5 L85.125,68.5 L85.125,69 L85,69 L85,69.375 L84.875,69.375 L84.875,69.875 L84.75,69.875 L84.75,70.25 L84.625,70.25 L84.625,70.625 L84.5,70.625 L84.5,70.875 L84.375,70.875 L84.375,71.25 L84.25,71.25 L84.25,71.625 L84.125,71.625 L84.125,71.875 L84,71.875 L84,72.25 L83.875,72.25 L83.875,72.5 L83.75,72.5 L83.75,72.75 L83.625,72.75 L83.625,73 L83.5,73 L83.5,73.25 L83.375,73.25 L83.375,73.625 L83.25,73.625 L83.25,73.875 L83.125,73.875 L83.125,74.125 L83,74.125 L83,74.25 L82.875,74.25 L82.875,74.5 L82.75,74.5 L82.75,74.75 L82.625,74.75 L82.625,75 L82.5,75 L82.5,75.125 L82.375,75.125 L82.375,75.375 L82.25,75.375 L82.25,75.625 L82.125,75.625 L82.125,75.75 L82,75.75 L82,76 L81.875,76 L81.875,76.125 L81.75,76.125 L81.75,76.375 L81.625,76.375 L81.625,76.5 L81.5,76.5 L81.5,76.75 L81.375,76.75 L81.375,76.875 L81.25,76.875 L81.25,77.125 L81.125,77.125 L81.125,77.25 L87.875,77.25 L87.875,77.125 L88.75,77.125 L88.75,76.875 L88.875,76.875 L88.875,76.625 L89,76.625 L89,76.375 L89.125,76.375 L89.125,76.125 L89.25,76.125 L89.25,75.75 L89.375,75.75 L89.375,75.5 L89.5,75.5 L89.5,75.25 L89.625,75.25 L89.625,75 L89.75,75 L89.75,74.75 L89.875,74.75 L89.875,74.5 L90,74.5 L90,74.125 L90.125,74.125 L90.125,73.875 L90.25,73.875 L90.25,73.5 L90.375,73.5 L90.375,73.125 L90.5,73.125 L90.5,72.75 L90.625,72.75 L90.625,72.375 L90.75,72.375 L90.75,72 L90.875,72 L90.875,71.625 L91,71.625 L91,71.25 L91.125,71.25 L91.125,70.75 L91.25,70.75 L91.25,70.375 L91.375,70.375 L91.375,69.75 L91.5,69.75 L91.5,69.125 L91.625,69.125 L91.625,68.5 L91.75,68.5 L91.75,67.875 L91.875,67.875 L91.875,67.25 L92,67.25 L92,66.375 L92.125,66.375 L92.125,64.625 L92.25,64.625 L92.25,60.625 L92.125,60.625 L92.125,59 L92,59 L92,57.75 L91.875,57.75 L91.875,57.125 L91.75,57.125 L91.75,56.625 L91.625,56.625 L91.625,56 L91.5,56 L91.5,55.375 L91.375,55.375 L91.375,54.875 L91.25,54.875 L91.25,54.25 L91.125,54.25 L91.125,53.75" id="path630" fill="url(#linearGradient-3)" sketch:type="MSShapeGroup" transform="translate(86.687500, 65.500000) scale(1, -1) translate(-86.687500, -65.500000) "></path>
                <path d="M121,59.75 C121,26.6125 94.1375,-0.25 61,-0.25 C27.8625,-0.25 1,26.6125 1,59.75 C1,92.8875 27.8625,119.75 61,119.75 C94.1375,119.75 121,92.8875 121,59.75" id="path638" sketch:type="MSShapeGroup" transform="translate(61.000000, 59.750000) scale(1, -1) translate(-61.000000, -59.750000) "></path>
                <path id="path640" fill="#CAAA49" sketch:type="MSShapeGroup" transform="translate(85.821250, 71.401250) scale(1, -1) translate(-85.821250, -71.401250) " d="M85.91875,69.77625 L85.63375,70.0125 C85.805,71.0075 85.91875,72.02125 85.96875,73.0525 C85.99,72.63875 86,72.22125 86,71.8025 C86,71.12 85.9725,70.445 85.91875,69.77625"></path>
                <path d="M121,59.75 C121,26.6125 94.1375,-0.25 61,-0.25 C27.8625,-0.25 1,26.6125 1,59.75 C1,92.8875 27.8625,119.75 61,119.75 C94.1375,119.75 121,92.8875 121,59.75" id="path648" sketch:type="MSShapeGroup" transform="translate(61.000000, 59.750000) scale(1, -1) translate(-61.000000, -59.750000) "></path>
                <path d="M80.8875,54.37125 L64.18,68.1675 C64.18,68.1675 67.59625,68.55125 72.04875,68.90625 C76.8825,65.69125 80.24375,60.43 80.8875,54.37125" id="path654" sketch:type="MSShapeGroup" transform="translate(72.555000, 61.621250) scale(1, -1) translate(-72.555000, -61.621250) "></path>
                <path d="M80.625,54.25 L80.625,54.375 L80.5,54.375 L80.5,54.5 L80.375,54.5 L80.375,54.625 L80.25,54.625 L80.25,54.75 L80.125,54.75 L80.125,54.875 L79.875,54.875 L79.875,55 L79.75,55 L79.75,55.125 L79.625,55.125 L79.625,55.25 L79.5,55.25 L79.5,55.375 L79.375,55.375 L79.375,55.5 L79.125,55.5 L79.125,55.625 L79,55.625 L79,55.75 L78.875,55.75 L78.875,55.875 L78.75,55.875 L78.75,56 L78.5,56 L78.5,56.125 L78.375,56.125 L78.375,56.25 L78.25,56.25 L78.25,56.375 L78.125,56.375 L78.125,56.5 L78,56.5 L78,56.625 L77.75,56.625 L77.75,56.75 L77.625,56.75 L77.625,56.875 L77.5,56.875 L77.5,57 L77.375,57 L77.375,57.125 L77.25,57.125 L77.25,57.25 L77,57.25 L77,57.375 L76.875,57.375 L76.875,57.5 L76.75,57.5 L76.75,57.625 L76.625,57.625 L76.625,57.75 L76.5,57.75 L76.5,57.875 L76.25,57.875 L76.25,58 L76.125,58 L76.125,58.125 L76,58.125 L76,58.25 L75.875,58.25 L75.875,58.375 L75.625,58.375 L75.625,58.5 L75.5,58.5 L75.5,58.625 L75.375,58.625 L75.375,58.75 L75.25,58.75 L75.25,58.875 L75.125,58.875 L75.125,59 L74.875,59 L74.875,59.125 L74.75,59.125 L74.75,59.25 L74.625,59.25 L74.625,59.375 L74.5,59.375 L74.5,59.5 L74.375,59.5 L74.375,59.625 L74.125,59.625 L74.125,59.75 L74,59.75 L74,59.875 L73.875,59.875 L73.875,60 L73.75,60 L73.75,60.125 L73.625,60.125 L73.625,60.25 L73.375,60.25 L73.375,60.375 L73.25,60.375 L73.25,60.5 L73.125,60.5 L73.125,60.625 L73,60.625 L73,60.75 L72.75,60.75 L72.75,60.875 L72.625,60.875 L72.625,61 L72.5,61 L72.5,61.125 L72.375,61.125 L72.375,61.25 L72.25,61.25 L72.25,61.375 L72,61.375 L72,61.5 L71.875,61.5 L71.875,61.625 L71.75,61.625 L71.75,61.75 L71.625,61.75 L71.625,61.875 L71.5,61.875 L71.5,62 L71.25,62 L71.25,62.125 L71.125,62.125 L71.125,62.25 L71,62.25 L71,62.375 L70.875,62.375 L70.875,62.5 L70.75,62.5 L70.75,62.625 L70.5,62.625 L70.5,62.75 L70.375,62.75 L70.375,62.875 L70.25,62.875 L70.25,63 L70.125,63 L70.125,63.125 L69.875,63.125 L69.875,63.25 L69.75,63.25 L69.75,63.375 L69.625,63.375 L69.625,63.5 L69.5,63.5 L69.5,63.625 L69.375,63.625 L69.375,63.75 L69.125,63.75 L69.125,63.875 L69,63.875 L69,64 L68.875,64 L68.875,64.125 L68.75,64.125 L68.75,64.25 L68.625,64.25 L68.625,64.375 L68.375,64.375 L68.375,64.5 L68.25,64.5 L68.25,64.625 L68.125,64.625 L68.125,64.75 L68,64.75 L68,64.875 L67.75,64.875 L67.75,65 L67.625,65 L67.625,65.125 L67.5,65.125 L67.5,65.25 L67.375,65.25 L67.375,65.375 L67.25,65.375 L67.25,65.5 L67,65.5 L67,65.625 L66.875,65.625 L66.875,65.75 L66.75,65.75 L66.75,65.875 L66.625,65.875 L66.625,66 L66.5,66 L66.5,66.125 L66.25,66.125 L66.25,66.25 L66.125,66.25 L66.125,66.375 L66,66.375 L66,66.5 L65.875,66.5 L65.875,66.625 L65.75,66.625 L65.75,66.75 L65.5,66.75 L65.5,66.875 L65.375,66.875 L65.375,67 L65.25,67 L65.25,67.125 L65.125,67.125 L65.125,67.25 L64.875,67.25 L64.875,67.375 L64.75,67.375 L64.75,67.5 L64.625,67.5 L64.625,67.625 L64.5,67.625 L64.5,67.75 L64.375,67.75 L64.375,67.875 L64.125,67.875 L64.125,68.125 L64.875,68.125 L64.875,68.25 L66,68.25 L66,68.375 L67.25,68.375 L67.25,68.5 L68.625,68.5 L68.625,68.625 L70,68.625 L70,68.75 L71.5,68.75 L71.5,68.875 L72.125,68.875 L72.125,68.75 L72.375,68.75 L72.375,68.625 L72.5,68.625 L72.5,68.5 L72.625,68.5 L72.625,68.375 L72.875,68.375 L72.875,68.25 L73,68.25 L73,68.125 L73.125,68.125 L73.125,68 L73.375,68 L73.375,67.875 L73.5,67.875 L73.5,67.75 L73.625,67.75 L73.625,67.625 L73.875,67.625 L73.875,67.5 L74,67.5 L74,67.375 L74.125,67.375 L74.125,67.25 L74.25,67.25 L74.25,67.125 L74.375,67.125 L74.375,67 L74.5,67 L74.5,66.875 L74.625,66.875 L74.625,66.75 L74.75,66.75 L74.75,66.625 L74.875,66.625 L74.875,66.5 L75,66.5 L75,66.375 L75.125,66.375 L75.125,66.25 L75.375,66.25 L75.375,66.125 L75.5,66.125 L75.5,65.875 L75.625,65.875 L75.625,65.75 L75.75,65.75 L75.75,65.625 L75.875,65.625 L75.875,65.5 L76,65.5 L76,65.375 L76.125,65.375 L76.125,65.25 L76.25,65.25 L76.25,65.125 L76.375,65.125 L76.375,64.875 L76.5,64.875 L76.5,64.75 L76.625,64.75 L76.625,64.625 L76.75,64.625 L76.75,64.5 L76.875,64.5 L76.875,64.375 L77,64.375 L77,64.125 L77.125,64.125 L77.125,64 L77.25,64 L77.25,63.75 L77.375,63.75 L77.375,63.625 L77.5,63.625 L77.5,63.375 L77.625,63.375 L77.625,63.25 L77.75,63.25 L77.75,63.125 L77.875,63.125 L77.875,62.875 L78,62.875 L78,62.75 L78.125,62.75 L78.125,62.5 L78.25,62.5 L78.25,62.25 L78.375,62.25 L78.375,62 L78.5,62 L78.5,61.75 L78.625,61.75 L78.625,61.625 L78.75,61.625 L78.75,61.375 L78.875,61.375 L78.875,61.125 L79,61.125 L79,60.875 L79.125,60.875 L79.125,60.625 L79.25,60.625 L79.25,60.375 L79.375,60.375 L79.375,60 L79.5,60 L79.5,59.75 L79.625,59.75 L79.625,59.375 L79.75,59.375 L79.75,59.125 L79.875,59.125 L79.875,58.75 L80,58.75 L80,58.375 L80.125,58.375 L80.125,58 L80.25,58 L80.25,57.5 L80.375,57.5 L80.375,57.125 L80.5,57.125 L80.5,56.625 L80.625,56.625 L80.625,55.875 L80.75,55.875 L80.75,55.125 L80.875,55.125 L80.875,54.375 L81,54.375 L81,54.25" id="path662" fill="url(#linearGradient-4)" sketch:type="MSShapeGroup" transform="translate(72.562500, 61.562500) scale(1, -1) translate(-72.562500, -61.562500) "></path>
                <path d="M121,59.75 C121,26.6125 94.1375,-0.25 61,-0.25 C27.8625,-0.25 1,26.6125 1,59.75 C1,92.8875 27.8625,119.75 61,119.75 C94.1375,119.75 121,92.8875 121,59.75" id="path670" sketch:type="MSShapeGroup" transform="translate(61.000000, 59.750000) scale(1, -1) translate(-61.000000, -59.750000) "></path>
                <path d="M80.995,54.085 L80.8875,54.17375 C80.24375,60.2325 76.8825,65.49375 72.04875,68.70875 C72.96125,68.78125 73.915,68.8525 74.8925,68.91875 C78.65625,65.28 81,60.18125 81,54.545 C81,54.39125 80.99875,54.2375 80.995,54.085" id="path672" fill="#CAAA49" sketch:type="MSShapeGroup" transform="translate(76.548750, 61.522500) scale(1, -1) translate(-76.548750, -61.522500) "></path>
                <path d="M85.63375,53.79 L80.995,57.62 C80.99875,57.7725 81,57.92625 81,58.08 C81,63.71625 78.65625,68.815 74.8925,72.45375 C76.965,72.595 79.14,72.71375 81.225,72.7775 C84.22875,68.6525 86,63.5725 86,58.08 C86,57.66125 85.99,57.24375 85.96875,56.83 C85.91875,55.79875 85.805,54.785 85.63375,53.79" id="path674" fill="#B48700" sketch:type="MSShapeGroup" transform="translate(80.455000, 63.290000) scale(1, -1) translate(-80.455000, -63.290000) "></path>
                <path d="M67.72125,76.0275 L59.53,76.0275 L59.075,72.7775 C59.53,72.84375 59.92,72.84375 60.44,72.84375 C62.455,72.84375 64.50375,72.3875 65.9975,71.315 C67.59,70.2425 68.56625,68.4875 68.56625,66.01875 C68.56625,62.085 65.18625,58.6075 59.4975,58.6075 C56.93,58.6075 54.785,59.1925 53.615,59.81 L54.4925,63.51625 C55.435,63.06 57.3525,62.47625 59.27,62.47625 C61.3175,62.47625 63.495,63.45 63.495,65.69375 C63.495,67.87 61.7725,69.2025 57.5475,69.2025 C56.3775,69.2025 55.565,69.13875 54.6875,69.0075 L56.085,80.09 L67.72125,80.09 L67.72125,76.0275" id="path676" fill="#DBA500" sketch:type="MSShapeGroup" transform="translate(61.115000, 69.357500) scale(1, -1) translate(-61.115000, -69.357500) "></path>
                <path d="M88.2125,60.08125 L64.0925,37.03875 C56.8275,30.11875 56.54625,18.61875 63.46625,11.3525 C67.0375,7.60375 71.82625,5.715 76.625,5.715 C81.12625,5.715 85.635,7.3775 89.1525,10.72625 L114.55125,34.8475 C108.90625,45.64875 99.29625,54.51625 88.2125,60.08125" id="path678" fill="#FFC599" sketch:type="MSShapeGroup" transform="translate(86.517058, 32.902500) scale(1, -1) translate(-86.517058, -32.902500) "></path>
                <path d="M63.2625,42.88625 L75.755,54.70625 C75.755,54.70625 86.78125,50.53625 90.57125,39.16 C88.67625,37.265 79.3875,28.3075 79.3875,28.3075 C79.3875,28.3075 66.5125,29.1375 63.2625,42.88625" id="path680" fill="#FFEFE3" sketch:type="MSShapeGroup" transform="translate(76.887500, 41.495000) scale(1, -1) translate(-76.887500, -41.495000) "></path>
            </g>
        </g>
    </g>
</svg>