<?xml version="1.0" encoding="UTF-8" standalone="no"?>
<svg width="47px" height="47px" viewBox="0 0 47 47" version="1.1" xmlns="http://www.w3.org/2000/svg" xmlns:xlink="http://www.w3.org/1999/xlink" xmlns:sketch="http://www.bohemiancoding.com/sketch/ns">
    <!-- Generator: Sketch 3.2 (9961) - http://www.bohemiancoding.com/sketch -->
    <title>ico_cashback</title>
    <desc>Created with Sketch.</desc>
    <defs>
        <linearGradient x1="-886.363636%" y1="-987.647059%" x2="-876.363636%" y2="-987.647059%" id="linearGradient-1">
            <stop stop-color="#F5CA3F" offset="0%"></stop>
            <stop stop-color="#EEC02D" offset="100%"></stop>
        </linearGradient>
        <linearGradient x1="-886.363636%" y1="-1030%" x2="-876.363636%" y2="-1030%" id="linearGradient-2">
            <stop stop-color="#F5CA3F" offset="0%"></stop>
            <stop stop-color="#EEC02D" offset="100%"></stop>
        </linearGradient>
        <linearGradient x1="-886.363636%" y1="-1072.35294%" x2="-876.363636%" y2="-1072.35294%" id="linearGradient-3">
            <stop stop-color="#F5CA3F" offset="0%"></stop>
            <stop stop-color="#EEC02D" offset="100%"></stop>
        </linearGradient>
        <linearGradient x1="-886.363636%" y1="-1114.70588%" x2="-876.363636%" y2="-1114.70588%" id="linearGradient-4">
            <stop stop-color="#FFD242" offset="0%"></stop>
            <stop stop-color="#FFCE30" offset="100%"></stop>
        </linearGradient>
        <linearGradient x1="-984.545455%" y1="-1011.47059%" x2="-974.545455%" y2="-1011.47059%" id="linearGradient-5">
            <stop stop-color="#FFD242" offset="0%"></stop>
            <stop stop-color="#FFCE30" offset="100%"></stop>
        </linearGradient>
    </defs>
    <g id="Welcome" stroke="none" stroke-width="1" fill="none" fill-rule="evenodd" sketch:type="MSPage">
        <g id="tangerine" sketch:type="MSArtboardGroup" transform="translate(-362.000000, -454.000000)">
            <g id="ico_cashback" sketch:type="MSLayerGroup" transform="translate(362.000000, 455.000000)">
                <path d="M47,29.1521739 C47,28.076087 46.11875,27.1956522 45.0416667,27.1956522 L1.95833333,27.1956522 C0.88125,27.1956522 0,28.076087 0,29.1521739 L0,33.0652174 C0,34.1413043 0.88125,35.0217391 1.95833333,35.0217391 L45.0416667,35.0217391 C46.11875,35.0217391 47,34.1413043 47,33.0652174 L47,29.1521739" id="path682" fill="#399E83" sketch:type="MSShapeGroup" transform="translate(23.500000, 31.108696) scale(1, -1) translate(-23.500000, -31.108696) "></path>
                <path d="M47,28.173913 C47,27.0978261 46.11875,26.2173913 45.0416667,26.2173913 L1.95833333,26.2173913 C0.88125,26.2173913 0,27.0978261 0,28.173913 L0,30.6195652 C0,31.6956522 0.88125,32.576087 1.95833333,32.576087 L45.0416667,32.576087 C46.11875,32.576087 47,31.6956522 47,30.6195652 L47,28.173913" id="path684" fill="#42B89A" sketch:type="MSShapeGroup" transform="translate(23.500000, 29.396739) scale(1, -1) translate(-23.500000, -29.396739) "></path>
                <path d="M47,24.2608696 C47,23.1847826 46.11875,22.3043478 45.0416667,22.3043478 L1.95833333,22.3043478 C0.88125,22.3043478 0,23.1847826 0,24.2608696 L0,28.173913 C0,29.25 0.88125,30.1304348 1.95833333,30.1304348 L45.0416667,30.1304348 C46.11875,30.1304348 47,29.25 47,28.173913 L47,24.2608696" id="path686" fill="#399E83" sketch:type="MSShapeGroup" transform="translate(23.500000, 26.217391) scale(1, -1) translate(-23.500000, -26.217391) "></path>
                <path d="M47,23.2826087 C47,22.2065217 46.11875,21.326087 45.0416667,21.326087 L1.95833333,21.326087 C0.88125,21.326087 0,22.2065217 0,23.2826087 L0,25.7282609 C0,26.8043478 0.88125,27.6847826 1.95833333,27.6847826 L45.0416667,27.6847826 C46.11875,27.6847826 47,26.8043478 47,25.7282609 L47,23.2826087" id="path688" fill="#42B89A" sketch:type="MSShapeGroup" transform="translate(23.500000, 24.505435) scale(1, -1) translate(-23.500000, -24.505435) "></path>
                <path d="M47,19.3695652 C47,18.2934783 46.11875,17.4130435 45.0416667,17.4130435 L1.95833333,17.4130435 C0.88125,17.4130435 0,18.2934783 0,19.3695652 L0,23.2826087 C0,24.3586957 0.88125,25.2391304 1.95833333,25.2391304 L45.0416667,25.2391304 C46.11875,25.2391304 47,24.3586957 47,23.2826087 L47,19.3695652" id="path690" fill="#399E83" sketch:type="MSShapeGroup" transform="translate(23.500000, 21.326087) scale(1, -1) translate(-23.500000, -21.326087) "></path>
                <path d="M47,18.3913043 C47,17.3152174 46.11875,16.4347826 45.0416667,16.4347826 L1.95833333,16.4347826 C0.88125,16.4347826 0,17.3152174 0,18.3913043 L0,20.8369565 C0,21.9130435 0.88125,22.7934783 1.95833333,22.7934783 L45.0416667,22.7934783 C46.11875,22.7934783 47,21.9130435 47,20.8369565 L47,18.3913043" id="path692" fill="#42B89A" sketch:type="MSShapeGroup" transform="translate(23.500000, 19.614130) scale(1, -1) translate(-23.500000, -19.614130) "></path>
                <path d="M47,16.0923913 C47,15.0163043 46.11875,14.1358696 45.0416667,14.1358696 L1.95833333,14.1358696 C0.88125,14.1358696 0,15.0163043 0,16.0923913 L0,18.3746739 C0,19.45125 0.88125,20.3316848 1.95833333,20.3316848 L45.0416667,20.3316848 C46.11875,20.3316848 47,19.45125 47,18.3746739 L47,16.0923913" id="path694" fill="#399E83" sketch:type="MSShapeGroup" transform="translate(23.500000, 17.241848) scale(1, -1) translate(-23.500000, -17.241848) "></path>
                <path id="path696" fill="#E4E4E4" sketch:type="MSShapeGroup" transform="translate(45.072510, 34.997283) scale(1, -1) translate(-45.072510, -34.997283) "></path>
                <path d="M45.0416667,31.8913043 L44.5520833,31.8913043 L44.5520833,34.3369565 L45.0416667,34.3369565 C45.62525,34.3369565 46.1510625,34.5952174 46.5104167,35.002663 L46.5104167,32.5697283 C46.154,32.1613043 45.6365104,31.8957065 45.0558646,31.8913043 L45.055375,31.8913043 L45.0499896,31.8913043 L45.0480312,31.8913043 L45.0416667,31.8913043 L45.0416667,31.8913043" id="path698" fill="#338E75" sketch:type="MSShapeGroup" transform="translate(45.531250, 33.456522) scale(1, -1) translate(-45.531250, -33.456522) "></path>
                <path d="M45.0416667,29.4456522 L44.5520833,29.4456522 L44.5520833,31.8913043 L45.0416667,31.8913043 C45.62525,31.8913043 46.1510625,32.1495652 46.5104167,32.5570109 L46.5104167,30.1113587 C46.1510625,29.703913 45.62525,29.4456522 45.0416667,29.4456522" id="path700" fill="#3BA58A" sketch:type="MSShapeGroup" transform="translate(45.531250, 31.010870) scale(1, -1) translate(-45.531250, -31.010870) "></path>
                <path d="M45.0416667,27 L44.5520833,27 L44.5520833,29.4456522 L45.0416667,29.4456522 C45.62525,29.4456522 46.1510625,29.703913 46.5104167,30.1113587 L46.5104167,27.6657065 C46.1510625,27.2582609 45.62525,27 45.0416667,27" id="path702" fill="#338E75" sketch:type="MSShapeGroup" transform="translate(45.531250, 28.565217) scale(1, -1) translate(-45.531250, -28.565217) "></path>
                <path d="M45.0416667,24.5543478 L44.5520833,24.5543478 L44.5520833,27 L45.0416667,27 C45.62525,27 46.1510625,27.2582609 46.5104167,27.6657065 L46.5104167,25.2200543 C46.1510625,24.8126087 45.62525,24.5543478 45.0416667,24.5543478" id="path704" fill="#3BA58A" sketch:type="MSShapeGroup" transform="translate(45.531250, 26.119565) scale(1, -1) translate(-45.531250, -26.119565) "></path>
                <path d="M45.0416667,22.1086957 L44.5520833,22.1086957 L44.5520833,24.5543478 L45.0416667,24.5543478 C45.62525,24.5543478 46.1510625,24.8126087 46.5104167,25.2200543 L46.5104167,22.7744022 C46.1510625,22.3669565 45.62525,22.1086957 45.0416667,22.1086957" id="path706" fill="#338E75" sketch:type="MSShapeGroup" transform="translate(45.531250, 23.673913) scale(1, -1) translate(-45.531250, -23.673913) "></path>
                <path d="M45.0416667,19.6630435 L44.5520833,19.6630435 L44.5520833,22.1086957 L45.0416667,22.1086957 C45.62525,22.1086957 46.1510625,22.3669565 46.5104167,22.7744022 L46.5104167,20.32875 C46.1510625,19.9213043 45.62525,19.6630435 45.0416667,19.6630435" id="path708" fill="#3BA58A" sketch:type="MSShapeGroup" transform="translate(45.531250, 21.228261) scale(1, -1) translate(-45.531250, -21.228261) "></path>
                <path d="M45.0416667,15.4565217 L44.5520833,15.4565217 L44.5520833,20.3478261 L46.5104167,20.3478261 L46.5104167,16.1222283 C46.1510625,15.7147826 45.62525,15.4565217 45.0416667,15.4565217" id="path710" fill="#338E75" sketch:type="MSShapeGroup" transform="translate(45.531250, 17.902174) scale(1, -1) translate(-45.531250, -17.902174) "></path>
                <path d="M47,1.76086957 C47,0.684782609 46.11875,-0.195652174 45.0416667,-0.195652174 L1.95833333,-0.195652174 C0.88125,-0.195652174 0,0.684782609 0,1.76086957 L0,15.9456522 C0,17.0217391 0.88125,17.9021739 1.95833333,17.9021739 L45.0416667,17.9021739 C46.11875,17.9021739 47,17.0217391 47,15.9456522 L47,1.76086957" id="path712" fill="#4ACFAD" sketch:type="MSShapeGroup" transform="translate(23.500000, 8.853261) scale(1, -1) translate(-23.500000, -8.853261) "></path>
                <path d="M30.5989583,32.576087 L19.5833333,32.576087 L19.4770937,35.0217391 L34.3995938,35.0217391 L35.25,34.5326087 L32.3125,34.125163 C32.3125,34.125163 31.9046771,32.576087 30.5989583,32.576087" id="path714" fill="#2A7561" sketch:type="MSShapeGroup" transform="translate(27.359385, 33.798913) scale(1, -1) translate(-27.359385, -33.798913) "></path>
                <path d="M34.3995938,30.1304348 L19.4770938,30.1304348 L19.3703646,32.576087 L30.1480521,32.576087 L34.3995938,30.1304348" id="path716" fill="#318872" sketch:type="MSShapeGroup" transform="translate(26.885469, 31.353261) scale(1, -1) translate(-26.885469, -31.353261) "></path>
                <path d="M30.1480521,27.6847826 L19.3703646,27.6847826 L19.264125,30.1304348 L25.8965104,30.1304348 L30.1480521,27.6847826" id="path718" fill="#2A7561" sketch:type="MSShapeGroup" transform="translate(24.698500, 28.907609) scale(1, -1) translate(-24.698500, -28.907609) "></path>
                <path d="M25.8965104,25.2391304 L19.264125,25.2391304 L19.1573958,27.6847826 L21.6444792,27.6847826 L25.8965104,25.2391304" id="path720" fill="#318872" sketch:type="MSShapeGroup" transform="translate(22.535521, 26.461957) scale(1, -1) translate(-22.535521, -26.461957) "></path>
                <path d="M21.6444792,23.7717391 L19.1573958,23.7717391 L19.09375,25.2391304 L21.6444792,23.7717391" id="path722" fill="#2A7561" sketch:type="MSShapeGroup" transform="translate(20.366667, 24.505435) scale(1, -1) translate(-20.366667, -24.505435) "></path>
                <path d="M21.2865937,43.0923913 C19.8589688,44.2658152 17.33125,45.048913 14.4427083,45.048913 C11.5541667,45.048913 9.0269375,44.2658152 7.59882292,43.0923913 L6.36458333,43.0923913 L6.36458333,40.6467391 L6.38857292,40.6467391 C6.6358125,38.4652174 10.1417187,36.7336957 14.4427083,36.7336957 C18.7436979,36.7336957 22.2496042,38.4652174 22.4968438,40.6467391 L22.5208333,40.6467391 L22.5208333,43.0923913 L21.2865937,43.0923913" id="path724" fill="#E3AB00" sketch:type="MSShapeGroup" transform="translate(14.442708, 40.891304) scale(1, -1) translate(-14.442708, -40.891304) "></path>
                <path d="M21.2865937,41.1358696 C19.8589688,42.3092935 17.33125,43.0923913 14.4427083,43.0923913 C11.5541667,43.0923913 9.0269375,42.3092935 7.59882292,41.1358696 L6.36458333,41.1358696 L6.36458333,38.6902174 L6.38857292,38.6902174 C6.6358125,36.5086957 10.1417187,34.7771739 14.4427083,34.7771739 C18.7436979,34.7771739 22.2496042,36.5086957 22.4968438,38.6902174 L22.5208333,38.6902174 L22.5208333,41.1358696 L21.2865937,41.1358696 L21.2865937,41.1358696 Z" id="path732" sketch:type="MSShapeGroup" transform="translate(14.442708, 38.934783) scale(1, -1) translate(-14.442708, -38.934783) "></path>
                <path d="M21.2865937,41.1358696 C19.8589688,42.3092935 17.33125,43.0923913 14.4427083,43.0923913 C11.5541667,43.0923913 9.0269375,42.3092935 7.59882292,41.1358696 L6.36458333,41.1358696 L6.36458333,38.6902174 L6.38857292,38.6902174 C6.6358125,36.5086957 10.1417187,34.7771739 14.4427083,34.7771739 C18.7436979,34.7771739 22.2496042,36.5086957 22.4968438,38.6902174 L22.5208333,38.6902174 L22.5208333,41.1358696 L21.2865937,41.1358696" id="path740" fill="url(#linearGradient-1)" sketch:type="MSShapeGroup" transform="translate(14.442708, 38.934783) scale(1, -1) translate(-14.442708, -38.934783) "></path>
                <path d="M21.2865937,39.1793478 C19.8589688,40.3527717 17.33125,41.1358696 14.4427083,41.1358696 C11.5541667,41.1358696 9.0269375,40.3527717 7.59882292,39.1793478 L6.36458333,39.1793478 L6.36458333,36.7336957 L6.38857292,36.7336957 C6.6358125,34.5521739 10.1417187,32.8206522 14.4427083,32.8206522 C18.7436979,32.8206522 22.2496042,34.5521739 22.4968438,36.7336957 L22.5208333,36.7336957 L22.5208333,39.1793478 L21.2865937,39.1793478" id="path742" fill="#E3AB00" sketch:type="MSShapeGroup" transform="translate(14.442708, 36.978261) scale(1, -1) translate(-14.442708, -36.978261) "></path>
                <path d="M21.2865937,37.2228261 C19.8589688,38.39625 17.33125,39.1793478 14.4427083,39.1793478 C11.5541667,39.1793478 9.0269375,38.39625 7.59882292,37.2228261 L6.36458333,37.2228261 L6.36458333,34.7771739 L6.38857292,34.7771739 C6.6358125,32.5956522 10.1417187,30.8641304 14.4427083,30.8641304 C18.7436979,30.8641304 22.2496042,32.5956522 22.4968438,34.7771739 L22.5208333,34.7771739 L22.5208333,37.2228261 L21.2865937,37.2228261 L21.2865937,37.2228261 Z" id="path750" sketch:type="MSShapeGroup" transform="translate(14.442708, 35.021739) scale(1, -1) translate(-14.442708, -35.021739) "></path>
                <path d="M21.2865937,37.2228261 C19.8589688,38.39625 17.33125,39.1793478 14.4427083,39.1793478 C11.5541667,39.1793478 9.0269375,38.39625 7.59882292,37.2228261 L6.36458333,37.2228261 L6.36458333,34.7771739 L6.38857292,34.7771739 C6.6358125,32.5956522 10.1417187,30.8641304 14.4427083,30.8641304 C18.7436979,30.8641304 22.2496042,32.5956522 22.4968438,34.7771739 L22.5208333,34.7771739 L22.5208333,37.2228261 L21.2865937,37.2228261" id="path758" fill="url(#linearGradient-2)" sketch:type="MSShapeGroup" transform="translate(14.442708, 35.021739) scale(1, -1) translate(-14.442708, -35.021739) "></path>
                <path d="M21.2865937,35.2663043 C19.8589688,36.4397283 17.33125,37.2228261 14.4427083,37.2228261 C11.5541667,37.2228261 9.0269375,36.4397283 7.59882292,35.2663043 L6.36458333,35.2663043 L6.36458333,32.8206522 L6.38857292,32.8206522 C6.6358125,30.6391304 10.1417187,28.9076087 14.4427083,28.9076087 C18.7436979,28.9076087 22.2496042,30.6391304 22.4968438,32.8206522 L22.5208333,32.8206522 L22.5208333,35.2663043 L21.2865937,35.2663043" id="path760" fill="#E3AB00" sketch:type="MSShapeGroup" transform="translate(14.442708, 33.065217) scale(1, -1) translate(-14.442708, -33.065217) "></path>
                <path d="M21.2865937,33.3097826 C19.8589688,34.4832065 17.33125,35.2663043 14.4427083,35.2663043 C11.5541667,35.2663043 9.0269375,34.4832065 7.59882292,33.3097826 L6.36458333,33.3097826 L6.36458333,30.8641304 L6.38857292,30.8641304 C6.6358125,28.6826087 10.1417187,26.951087 14.4427083,26.951087 C18.7436979,26.951087 22.2496042,28.6826087 22.4968438,30.8641304 L22.5208333,30.8641304 L22.5208333,33.3097826 L21.2865937,33.3097826 L21.2865937,33.3097826 Z" id="path768" sketch:type="MSShapeGroup" transform="translate(14.442708, 31.108696) scale(1, -1) translate(-14.442708, -31.108696) "></path>
                <path d="M21.2865937,33.3097826 C19.8589688,34.4832065 17.33125,35.2663043 14.4427083,35.2663043 C11.5541667,35.2663043 9.0269375,34.4832065 7.59882292,33.3097826 L6.36458333,33.3097826 L6.36458333,30.8641304 L6.38857292,30.8641304 C6.6358125,28.6826087 10.1417187,26.951087 14.4427083,26.951087 C18.7436979,26.951087 22.2496042,28.6826087 22.4968438,30.8641304 L22.5208333,30.8641304 L22.5208333,33.3097826 L21.2865937,33.3097826" id="path776" fill="url(#linearGradient-3)" sketch:type="MSShapeGroup" transform="translate(14.442708, 31.108696) scale(1, -1) translate(-14.442708, -31.108696) "></path>
                <path d="M21.2865937,31.3532609 C19.8589688,32.5266848 17.33125,33.3097826 14.4427083,33.3097826 C11.5541667,33.3097826 9.0269375,32.5266848 7.59882292,31.3532609 L6.36458333,31.3532609 L6.36458333,28.9076087 L6.38857292,28.9076087 C6.6358125,26.726087 10.1417187,24.9945652 14.4427083,24.9945652 C18.7436979,24.9945652 22.2496042,26.726087 22.4968438,28.9076087 L22.5208333,28.9076087 L22.5208333,31.3532609 L21.2865937,31.3532609" id="path778" fill="#E3AB00" sketch:type="MSShapeGroup" transform="translate(14.442708, 29.152174) scale(1, -1) translate(-14.442708, -29.152174) "></path>
                <path d="M22.5208333,27.1956522 C22.5208333,24.8996739 18.9037917,23.0380435 14.4427083,23.0380435 C9.981625,23.0380435 6.36458333,24.8996739 6.36458333,27.1956522 C6.36458333,29.4916304 9.981625,31.3532609 14.4427083,31.3532609 C18.9037917,31.3532609 22.5208333,29.4916304 22.5208333,27.1956522 L22.5208333,27.1956522 Z" id="path786" sketch:type="MSShapeGroup" transform="translate(14.442708, 27.195652) scale(1, -1) translate(-14.442708, -27.195652) "></path>
                <path d="M22.5208333,27.1956522 C22.5208333,24.8996739 18.9037917,23.0380435 14.4427083,23.0380435 C9.981625,23.0380435 6.36458333,24.8996739 6.36458333,27.1956522 C6.36458333,29.4916304 9.981625,31.3532609 14.4427083,31.3532609 C18.9037917,31.3532609 22.5208333,29.4916304 22.5208333,27.1956522" id="path794" fill="url(#linearGradient-4)" sketch:type="MSShapeGroup" transform="translate(14.442708, 27.195652) scale(1, -1) translate(-14.442708, -27.195652) "></path>
                <path d="M14.4427083,30.3344022 C11.0631146,30.3344022 8.32291667,28.9247283 8.32291667,27.1848913 C8.32291667,25.4450543 11.0631146,24.0353804 14.4427083,24.0353804 C17.8223021,24.0353804 20.5625,25.4450543 20.5625,27.1848913 C20.5625,28.9247283 17.8223021,30.3344022 14.4427083,30.3344022 L14.4427083,30.3344022 Z M14.4427083,29.8452717 C17.8105521,29.8452717 20.0729167,28.469837 20.0729167,27.1848913 C20.0729167,25.8999457 17.8105521,24.5245109 14.4427083,24.5245109 C11.0748646,24.5245109 8.8125,25.8999457 8.8125,27.1848913 C8.8125,28.469837 11.0748646,29.8452717 14.4427083,29.8452717 L14.4427083,29.8452717 Z" id="path796" fill="#E3AB00" sketch:type="MSShapeGroup" transform="translate(14.442708, 27.190272) scale(1, -1) translate(-14.442708, -27.190272) "></path>
                <path d="M12.2190208,27.9141848 L12.2067812,27.9141848 L11.4190417,27.7097283 L11.2604167,28.1044565 L12.3521875,28.3817935 L13.1526563,28.3817935 L13.1526563,26.1303261 L12.2190208,26.1303261 L12.2190208,27.9141848" id="path798" fill="#E3AB00" sketch:type="MSShapeGroup" transform="translate(12.215104, 27.255326) scale(1, -1) translate(-12.215104, -27.255326) "></path>
                <path d="M15.1663125,27.2308696 C15.1599479,26.714837 15.3885833,26.4688043 15.762625,26.4688043 C16.1376458,26.4688043 16.3408229,26.7255978 16.3408229,27.2377174 C16.3408229,27.7361413 16.1440104,27.9997826 15.75675,27.9997826 C15.4008229,27.9997826 15.1599479,27.75375 15.1663125,27.2308696 L15.1663125,27.2308696 Z M17.3062813,27.2445652 C17.3062813,26.5490217 16.7917292,26.0706522 15.7376563,26.0706522 C14.6708542,26.0706522 14.2008542,26.5935326 14.1944896,27.2308696 C14.1944896,27.8819022 14.7021875,28.3979348 15.7694792,28.3979348 C16.8744688,28.3979348 17.3062813,27.8613587 17.3062813,27.2445652 L17.3062813,27.2445652 Z" id="path800" fill="#E3AB00" sketch:type="MSShapeGroup" transform="translate(15.761156, 27.244565) scale(1, -1) translate(-15.761156, -27.244565) "></path>
                <path d="M16.6566042,4.20652174 L8.524625,4.20652174 C7.98559375,5.04097826 6.71071875,6.65217391 4.89583333,6.65217391 L4.89583333,11.0543478 C6.71071875,11.0543478 7.98559375,12.6655435 8.524625,13.5 L16.6570937,13.5 C17.1941667,14.2596196 17.8575521,14.9219022 18.6188542,15.4565217 L3.91666667,15.4565217 C3.378125,15.4565217 2.9375,15.0163043 2.9375,14.4782609 L2.9375,3.22826087 C2.9375,2.69021739 3.378125,2.25 3.91666667,2.25 L18.6188542,2.25 C17.8575521,2.78461957 17.1936771,3.44690217 16.6566042,4.20652174" id="path802" fill="#3CA88C" sketch:type="MSShapeGroup" transform="translate(10.770833, 8.853261) scale(1, -1) translate(-10.770833, -8.853261) "></path>
                <path d="M43.0833333,15.4565217 L27.8915625,15.4565217 C28.6528646,14.9219022 29.31625,14.2596196 29.8533229,13.5 L38.475375,13.5 C39.0144063,12.6655435 40.2892813,11.0543478 42.1041667,11.0543478 L42.1041667,6.65217391 C40.2892812,6.65217391 39.0144063,5.04097826 38.475375,4.20652174 L29.8538125,4.20652174 C29.3167396,3.44690217 28.6528646,2.78461957 27.8915625,2.25 L43.0833333,2.25 C43.621875,2.25 44.0625,2.69021739 44.0625,3.22826087 L44.0625,14.4782609 C44.0625,15.0163043 43.621875,15.4565217 43.0833333,15.4565217" id="path804" fill="#3CA88C" sketch:type="MSShapeGroup" transform="translate(35.969687, 8.853261) scale(1, -1) translate(-35.969687, -8.853261) "></path>
                <path d="M38.9115937,40.8913043 C37.4839687,42.0647283 34.95625,42.8478261 32.0677083,42.8478261 C29.1791667,42.8478261 26.6519375,42.0647283 25.2238229,40.8913043 L23.9895833,40.8913043 L23.9895833,38.4456522 L24.0135729,38.4456522 C24.2608125,36.2641304 27.7667187,34.5326087 32.0677083,34.5326087 C36.3686979,34.5326087 39.8746042,36.2641304 40.1218437,38.4456522 L40.1458333,38.4456522 L40.1458333,40.8913043 L38.9115937,40.8913043" id="path806" fill="#E3AB00" sketch:type="MSShapeGroup" transform="translate(32.067708, 38.690217) scale(1, -1) translate(-32.067708, -38.690217) "></path>
                <path d="M40.1458333,36.7336957 C40.1458333,34.4377174 36.5287917,32.576087 32.0677083,32.576087 C27.606625,32.576087 23.9895833,34.4377174 23.9895833,36.7336957 C23.9895833,39.0296739 27.606625,40.8913043 32.0677083,40.8913043 C36.5287917,40.8913043 40.1458333,39.0296739 40.1458333,36.7336957 L40.1458333,36.7336957 Z" id="path814" sketch:type="MSShapeGroup" transform="translate(32.067708, 36.733696) scale(1, -1) translate(-32.067708, -36.733696) "></path>
                <path d="M40.1458333,36.7336957 C40.1458333,34.4377174 36.5287917,32.576087 32.0677083,32.576087 C27.606625,32.576087 23.9895833,34.4377174 23.9895833,36.7336957 C23.9895833,39.0296739 27.606625,40.8913043 32.0677083,40.8913043 C36.5287917,40.8913043 40.1458333,39.0296739 40.1458333,36.7336957" id="path822" fill="url(#linearGradient-5)" sketch:type="MSShapeGroup" transform="translate(32.067708, 36.733696) scale(1, -1) translate(-32.067708, -36.733696) "></path>
                <path d="M32.0677083,39.9027717 C28.6881146,39.9027717 25.9479167,38.4926087 25.9479167,36.7527717 C25.9479167,35.0134239 28.6881146,33.6032609 32.0677083,33.6032609 C35.4473021,33.6032609 38.1875,35.0134239 38.1875,36.7527717 C38.1875,38.4926087 35.4473021,39.9027717 32.0677083,39.9027717 L32.0677083,39.9027717 Z M32.0677083,39.4136413 C35.4355521,39.4136413 37.6979167,38.0377174 37.6979167,36.7527717 C37.6979167,35.4678261 35.4355521,34.0923913 32.0677083,34.0923913 C28.6998646,34.0923913 26.4375,35.4678261 26.4375,36.7527717 C26.4375,38.0377174 28.6998646,39.4136413 32.0677083,39.4136413 L32.0677083,39.4136413 Z" id="path824" fill="#E3AB00" sketch:type="MSShapeGroup" transform="translate(32.067708, 36.758152) scale(1, -1) translate(-32.067708, -36.758152) "></path>
                <path d="M29.8440208,37.481087 L29.8317812,37.481087 L29.0440417,37.2766304 L28.8854167,37.6718478 L29.9771875,37.9486957 L30.7776563,37.9486957 L30.7776563,35.6977174 L29.8440208,35.6977174 L29.8440208,37.481087" id="path826" fill="#E3AB00" sketch:type="MSShapeGroup" transform="translate(29.840104, 36.822717) scale(1, -1) translate(-29.840104, -36.822717) "></path>
                <path d="M32.7913125,36.7992391 C32.7849479,36.2832065 33.0135833,36.0371739 33.387625,36.0371739 C33.7626458,36.0371739 33.9658229,36.2934783 33.9658229,36.8055978 C33.9658229,37.3045109 33.7690104,37.5681522 33.38175,37.5681522 C33.0258229,37.5681522 32.7849479,37.3221196 32.7913125,36.7992391 L32.7913125,36.7992391 Z M34.9312813,36.8129348 C34.9312813,36.1169022 34.4167292,35.6385326 33.3626563,35.6385326 C32.2958542,35.6385326 31.8258542,36.1619022 31.8194896,36.7992391 C31.8194896,37.4502717 32.3271875,37.9658152 33.3944792,37.9658152 C34.4994688,37.9658152 34.9312813,37.4297283 34.9312813,36.8129348 L34.9312813,36.8129348 Z" id="path828" fill="#E3AB00" sketch:type="MSShapeGroup" transform="translate(33.386156, 36.812446) scale(1, -1) translate(-33.386156, -36.812446) "></path>
                <path d="M29.9189271,8.86402174 C29.9189271,5.18722826 26.9363854,2.20646739 23.2552083,2.20646739 C19.5740312,2.20646739 16.5914896,5.18722826 16.5914896,8.86402174 C16.5914896,12.5408152 19.5740312,15.5215761 23.2552083,15.5215761 C26.9363854,15.5215761 29.9189271,12.5408152 29.9189271,8.86402174" id="path830" fill="#39A186" sketch:type="MSShapeGroup" transform="translate(23.249823, 8.858641) scale(1, -1) translate(-23.249823, -8.858641) "></path>
                <path d="M23.2552083,16.923913 C18.7931458,16.923913 15.1770833,13.3102174 15.1770833,8.85326087 C15.1770833,4.39581522 18.7931458,0.782608696 23.2552083,0.782608696 C27.7172708,0.782608696 31.3333333,4.39581522 31.3333333,8.85326087 C31.3333333,13.3102174 27.7172708,16.923913 23.2552083,16.923913 L23.2552083,16.923913 Z M23.2552083,15.4565217 C26.8996667,15.4565217 29.8645833,12.4943478 29.8645833,8.85326087 C29.8645833,5.21217391 26.8996667,2.25 23.2552083,2.25 C19.61075,2.25 16.6458333,5.21217391 16.6458333,8.85326087 C16.6458333,12.4943478 19.61075,15.4565217 23.2552083,15.4565217 L23.2552083,15.4565217 Z" id="path832" fill="#4ACFAD" sketch:type="MSShapeGroup" transform="translate(23.255208, 8.853261) scale(1, -1) translate(-23.255208, -8.853261) "></path>
                <path d="M27.22475,4.74309783 C27.0289167,5.43032609 25.7936979,5.8788587 24.8257917,6.22956522 C24.5173542,6.34108696 24.4419583,6.78521739 24.4385313,7.16184783 C24.5775729,7.25771739 24.7014375,7.39711957 24.8243229,7.5776087 C25.0015521,7.8363587 25.1758437,8.0388587 25.3143958,8.3748913 C25.4030104,8.3861413 25.503375,8.45266304 25.5567396,8.54021739 C25.7682396,8.88652174 25.8774167,9.43190217 25.8093646,9.60505435 C25.7711771,9.70092391 25.6644479,9.72391304 25.5753437,9.72538043 C25.6272396,10.9677717 25.0015521,11.7097826 24.2098958,11.9895652 C24.0331562,12.0590217 23.7335312,12.165163 23.317875,12.2673913 C23.0892396,12.3246196 22.9115208,12.438587 22.8919375,12.5432609 C22.7905938,12.5256522 22.5257292,12.198913 22.6574271,12.0286957 C22.6603646,12.0291848 22.0048125,12.0575543 21.8951458,11.6696739 C21.8745833,11.6515761 21.943125,11.6672283 22.0268438,11.6770109 C21.5304063,11.2901087 21.1979792,10.6449457 21.2356771,9.7263587 C21.1431458,9.72831522 21.0183021,9.71119565 20.9766875,9.60652174 C20.9081458,9.4323913 21.0178125,8.88847826 21.2288229,8.54217391 C21.2865938,8.44728261 21.3982188,8.38027174 21.4912396,8.37733696 C21.6273438,8.04228261 21.7967396,7.84320652 21.9729896,7.58494565 C22.1086042,7.3863587 22.2456875,7.24597826 22.4038229,7.14815217 C22.3930521,6.80722826 22.307375,6.41934783 21.9866979,6.33375 C21.3894063,6.17380435 19.6611771,5.54038043 19.3914167,4.74309783 L19.881,4.30434783 C19.881,4.30434783 21.3458333,4.81940217 23.3702604,4.81940217 C25.4260208,4.81940217 26.6950208,4.30434783 26.6950208,4.30434783 L27.22475,4.74309783" id="path834" fill="#4ACFAD" sketch:type="MSShapeGroup" transform="translate(23.308083, 8.413043) scale(1, -1) translate(-23.308083, -8.413043) "></path>
            </g>
        </g>
    </g>
</svg>