<?xml version="1.0" encoding="UTF-8" standalone="no"?>
<svg width="120px" height="120px" viewBox="0 0 120 120" version="1.1" xmlns="http://www.w3.org/2000/svg" xmlns:xlink="http://www.w3.org/1999/xlink" xmlns:sketch="http://www.bohemiancoding.com/sketch/ns">
    <!-- Generator: Sketch 3.2 (9961) - http://www.bohemiancoding.com/sketch -->
    <title>ico-price</title>
    <desc>Created with Sketch.</desc>
    <defs>
        <linearGradient x1="0%" y1="50%" x2="100%" y2="50%" id="linearGradient-1">
            <stop stop-color="#F5CA3F" offset="0%"></stop>
            <stop stop-color="#EEC02D" offset="100%"></stop>
        </linearGradient>
        <linearGradient x1="-41.3962213%" y1="57.5%" x2="103.481454%" y2="57.5%" id="linearGradient-2">
            <stop stop-color="#F5CA3F" offset="0%"></stop>
            <stop stop-color="#EEC02D" offset="100%"></stop>
        </linearGradient>
    </defs>
    <g id="Welcome" stroke="none" stroke-width="1" fill="none" fill-rule="evenodd" sketch:type="MSPage">
        <g id="tangerine" sketch:type="MSArtboardGroup" transform="translate(-42.000000, -831.000000)">
            <g id="ico-price" sketch:type="MSLayerGroup" transform="translate(42.000000, 832.000000)">
                <path d="M57.5,84 L98.75,107.75 L93.75,75.25 L57.5,84 L57.5,84 Z" id="path688" sketch:type="MSShapeGroup" transform="translate(78.125000, 91.500000) scale(1, -1) translate(-78.125000, -91.500000) "></path>
                <path d="M57.5,84 L98.75,107.75 L93.75,75.25 L57.5,84" id="path696" fill="url(#linearGradient-1)" sketch:type="MSShapeGroup" transform="translate(78.125000, 91.500000) scale(1, -1) translate(-78.125000, -91.500000) "></path>
                <path d="M62.5,90.25 L103.75,114 L98.75,81.5 L62.5,90.25" id="path698" fill="#BD9924" sketch:type="MSShapeGroup" transform="translate(83.125000, 97.750000) scale(1, -1) translate(-83.125000, -97.750000) "></path>
                <path d="M52.75875,75.25 L48.368625,75.25 C47.294875,75.25 46.359375,75.9925 46.276375,76.925 L45.631375,84.23625 L52.75875,75.25 M36.703625,75.25 L30.870125,75.25 C29.797375,75.25 28.776375,75.9925 28.588375,76.925 L24.330125,98.04 C24.085,99.2575 24.8965,100.25 26.1445,100.25 L32.921875,100.25 L32.931125,100.25 L35.65825,96.81125 L38.4155,76.925 C38.544,75.9925 37.777375,75.25 36.703625,75.25" id="path706" sketch:type="MSShapeGroup" transform="translate(38.536454, 87.750000) scale(1, -1) translate(-38.536454, -87.750000) "></path>
                <path d="M52.75875,75.25 L48.368625,75.25 C47.294875,75.25 46.359375,75.9925 46.276375,76.925 L45.631375,84.23625 L52.75875,75.25 M36.703625,75.25 L30.870125,75.25 C29.797375,75.25 28.776375,75.9925 28.588375,76.925 L24.330125,98.04 C24.085,99.2575 24.8965,100.25 26.1445,100.25 L32.921875,100.25 L32.931125,100.25 L35.65825,96.81125 L38.4155,76.925 C38.544,75.9925 37.777375,75.25 36.703625,75.25" id="path714" fill="url(#linearGradient-2)" sketch:type="MSShapeGroup" transform="translate(38.536454, 87.750000) scale(1, -1) translate(-38.536454, -87.750000) "></path>
                <path d="M95.73775,108.04 L91.4765,86.925 C91.291,85.9925 90.269,85.25 89.19625,85.25 L83.36375,85.25 C82.2905,85.25 81.523875,85.9925 81.650875,86.925 L84.579625,108.04 C84.746625,109.2575 85.898,110.25 87.144,110.25 L93.922875,110.25 C95.170375,110.25 95.981,109.2575 95.73775,108.04 M73.7895,86.925 C73.7065,85.9925 72.7715,85.25 71.69975,85.25 L65.86625,85.25 C64.792,85.25 63.94,85.9925 63.964375,86.925 L64.4975,108.04 C64.526875,109.2575 65.5635,110.25 66.812,110.25 L73.589375,110.25 C74.838375,110.25 75.76125,109.2575 75.65375,108.04 L73.7895,86.925 M54.200625,85.25 L48.368625,85.25 C47.294875,85.25 46.359375,85.9925 46.276375,86.925 L44.414,108.04 C44.306125,109.2575 45.23,110.25 46.477,110.25 L53.255375,110.25 C54.5025,110.25 55.5395,109.2575 55.57075,108.04 L56.102,86.925 C56.126,85.9925 55.275375,85.25 54.200625,85.25 M36.703625,85.25 L30.870125,85.25 C29.797375,85.25 28.776375,85.9925 28.588375,86.925 L24.330125,108.04 C24.085,109.2575 24.8965,110.25 26.1445,110.25 L32.921875,110.25 C34.169875,110.25 35.319375,109.2575 35.48775,108.04 L38.4155,86.925 C38.544,85.9925 37.777375,85.25 36.703625,85.25 M5,119 L19.338875,71.34375 C19.849125,68.64375 22.380875,66.5 25.005375,66.5 L95.0615,66.5 C97.685,66.5 100.21775,68.64375 100.727,71.34375 L115,119 L5,119" id="path716" fill="#F5773E" sketch:type="MSShapeGroup" transform="translate(60.000000, 92.750000) scale(1, -1) translate(-60.000000, -92.750000) "></path>
                <path d="M120,47.75 C120,43.625 116.625,40.25 112.5,40.25 L7.5,40.25 C3.3755,40.25 0,43.625 0,47.75 L0,60.25 C0,64.375 3.3755,67.75 7.5,67.75 L112.5,67.75 C116.625,67.75 120,64.375 120,60.25 L120,47.75" id="path718" fill="#F5773E" sketch:type="MSShapeGroup" transform="translate(60.000000, 54.000000) scale(1, -1) translate(-60.000000, -54.000000) "></path>
                <path d="M58.057125,12.742289 C58.236875,8.75853899 55.151875,5.38228899 51.1675,5.20228899 C47.183125,5.02353899 43.806625,8.10728899 43.6275,12.091039 C43.44725,16.076039 46.53125,19.453539 50.516625,19.632289 C54.501,19.812289 57.8765,16.727289 58.057125,12.742289" id="path720" fill="#DF413D" sketch:type="MSShapeGroup" transform="translate(50.869985, 12.444894) scale(1, -1) translate(-50.869985, -12.444894) "></path>
                <path d="M17.86475,40.245 C17.733375,40.245 17.603,40.2525 17.473125,40.26625 C16.247125,40.395 15.110375,41.125 14.514125,42.3075 C13.5815,44.1575 14.32425,46.4125 16.173875,47.345 L34.06,56.365 L50.71675,56.365 L19.55125,40.6475 C19.00925,40.375 18.432625,40.245 17.86475,40.245" id="path722" fill="#C25E31" sketch:type="MSShapeGroup" transform="translate(32.424035, 48.307500) scale(1, -1) translate(-32.424035, -48.307500) "></path>
                <path d="M102.360375,40.25 C102.119125,40.25 101.875,40.27375 101.629375,40.3225 C99.597625,40.72375 98.275875,42.69625 98.67725,44.7275 L100.978,56.375 L108.6225,56.375 L106.035,43.275 C105.89,42.5425 105.54125,41.90125 105.05875,41.40125 C104.36525,40.68125 103.395,40.25 102.360375,40.25" id="path724" fill="#C25E31" sketch:type="MSShapeGroup" transform="translate(103.605441, 48.312500) scale(1, -1) translate(-103.605441, -48.312500) "></path>
                <path d="M53.63375,54.38125 C52.065,55.735 49.69675,55.56 48.34475,53.99125 L14.660625,14.95 C13.307625,13.38125 13.481875,11.01375 15.04975,9.66125 C15.75875,9.05 16.630875,8.75 17.498,8.75 C18.55075,8.75 19.597625,9.19 20.339375,10.05 L54.0235,49.09125 C55.3765,50.66 55.202125,53.0275 53.63375,54.38125" id="path726" fill="#DBDBDB" sketch:type="MSShapeGroup" transform="translate(34.312187, 32.000000) scale(1, -1) translate(-34.312187, -32.000000) "></path>
                <path d="M77.9355,13.9370477 C81.71825,12.6720477 83.75825,8.57829774 82.492625,4.79579774 C81.226125,1.01454774 77.13375,-1.02670226 73.352,0.23954774 C69.569375,1.50454774 67.52875,5.59704774 68.794875,9.38079774 C70.061,13.1632977 74.153375,15.2032977 77.9355,13.9370477" id="path728" fill="#DF413D" sketch:type="MSShapeGroup" transform="translate(75.669483, 7.114149) scale(1, -1) translate(-75.669483, -7.114149) "></path>
                <path d="M104.506875,8.71125 L79.01075,53.37125 C77.984875,55.16875 75.693875,55.79375 73.8945,54.76875 C72.09625,53.74125 71.47025,51.45125 72.497125,49.6525 L97.993125,4.9925 C98.685,3.78 99.951125,3.10125 101.253375,3.10125 C101.88325,3.10125 102.5225,3.26 103.108875,3.595 C104.90775,4.6225 105.53375,6.9125 104.506875,8.71125" id="path730" fill="#DBDBDB" sketch:type="MSShapeGroup" transform="translate(88.503172, 29.163750) scale(1, -1) translate(-88.503172, -29.163750) "></path>
                <path d="M113.87875,67.75 L113.87875,67.75 L114.62625,70.25 L114.62875,70.25 L113.87875,67.75" id="path732" fill="#CACACA" sketch:type="MSShapeGroup" transform="translate(114.253750, 69.000000) scale(1, -1) translate(-114.253750, -69.000000) "></path>
                <path d="M113.87875,67.75 L6.163625,67.75 L5.410125,70.25 L114.62875,70.25 L113.8775,67.75" id="path734" fill="#C25E31" sketch:type="MSShapeGroup" transform="translate(60.035125, 69.000000) scale(1, -1) translate(-60.035125, -69.000000) "></path>
            </g>
        </g>
    </g>
</svg>