<?xml version="1.0" encoding="UTF-8" standalone="no"?>
<svg width="120px" height="120px" viewBox="0 0 120 120" version="1.1" xmlns="http://www.w3.org/2000/svg" xmlns:xlink="http://www.w3.org/1999/xlink" xmlns:sketch="http://www.bohemiancoding.com/sketch/ns">
    <!-- Generator: Sketch 3.2 (9961) - http://www.bohemiancoding.com/sketch -->
    <title>ico-weight</title>
    <desc>Created with Sketch.</desc>
    <defs>
        <linearGradient x1="0.000835701153%" y1="50.0050139%" x2="99.9991643%" y2="50.0050139%" id="linearGradient-1">
            <stop stop-color="#F7F7F7" offset="0%"></stop>
            <stop stop-color="#EBEBEB" offset="100%"></stop>
        </linearGradient>
    </defs>
    <g id="Welcome" stroke="none" stroke-width="1" fill="none" fill-rule="evenodd" sketch:type="MSPage">
        <g id="tangerine" sketch:type="MSArtboardGroup" transform="translate(-682.000000, -850.000000)">
            <g id="ico-weight" sketch:type="MSLayerGroup" transform="translate(682.000000, 850.000000)">
                <path d="M112.46875,49.7255009 C113.51875,45.7352509 111.11375,41.6117509 107.125,40.5628759 L60.96725,28.4163759 C56.9785,27.3666259 52.856,29.7713759 51.806125,33.7601259 L41.7085,72.1302509 C40.65875,76.1202509 43.064,80.2440009 47.05275,81.2940009 L93.21,93.4390009 C97.19875,94.4890009 101.32125,92.0840009 102.371125,88.0952509 L112.46875,49.7255009" id="path408" fill="#EEC74A" sketch:type="MSShapeGroup" transform="translate(77.087283, 60.920125) scale(1, -1) translate(-77.087283, -60.920125) "></path>
                <path d="M51.835,49.311 C51.82525,49.345625 51.815375,49.38225 51.806125,49.416875 L41.7085,87.787 C41.69,87.857 41.672875,87.927 41.65625,87.997 C41.672875,87.927 41.69,87.857 41.7085,87.787 L51.806125,49.416875 C51.815375,49.38225 51.82525,49.345625 51.835,49.311 M41.65575,87.9995 C41.65425,88.007 41.652875,88.01325 41.651375,88.0195 C41.652875,88.01325 41.65425,88.007 41.65575,87.9995 M41.649875,88.02575 C41.6485,88.03075 41.6475,88.03575 41.6465,88.04075 C41.6475,88.03575 41.6485,88.03075 41.649875,88.02575 M41.644,88.052 C41.643125,88.05575 41.642625,88.05825 41.641625,88.062 C41.642625,88.05825 41.643125,88.05575 41.644,88.052 M41.638125,88.07825 C41.63775,88.0795 41.63725,88.08075 41.63725,88.08325 C41.63725,88.08075 41.63775,88.0795 41.638125,88.07825" id="path410" fill="#BCBCBC" sketch:type="MSShapeGroup" transform="translate(46.762250, 68.748500) scale(1, -1) translate(-46.762250, -68.748500) "></path>
                <path d="M57.28025,44.201125 C54.732375,44.831 52.584,46.781125 51.835,49.46625 C51.82525,49.500875 51.815375,49.5375 51.806125,49.572125 L41.7085,87.94225 C41.69,88.01225 41.672875,88.08225 41.65625,88.15225 C41.65625,88.1535 41.65575,88.15475 41.65575,88.15475 C41.65425,88.16225 41.652875,88.1685 41.651375,88.17475 C41.650875,88.17725 41.650375,88.1785 41.649875,88.181 C41.6485,88.186 41.6475,88.191 41.6465,88.196 C41.6455,88.19975 41.6445,88.2035 41.644,88.20725 C41.643125,88.211 41.642625,88.2135 41.641625,88.21725 C41.640125,88.22225 41.639125,88.22725 41.638125,88.2335 C41.63775,88.23475 41.63725,88.236 41.63725,88.2385 C41.234375,90.066 41.55125,91.9035 42.3975,93.44725 L71.09125,47.665 L57.28025,44.201125" id="path412" fill="#B09336" sketch:type="MSShapeGroup" transform="translate(56.276196, 68.826125) scale(1, -1) translate(-56.276196, -68.826125) "></path>
                <path d="M62.639125,31.77875 L62.817375,31.895 L64.25775,34.64125 L67.486875,32.9125 L67.57075,32.93375 L69.584,35.98875 L72.809125,34.265 L72.892125,34.2825 L74.902375,37.3375 L78.125,35.60875 L78.204625,35.63 L80.212375,38.68125 L82.787125,36.955 L82.940375,36.9625 L79.8965,48.12 L59.88725,42.6725 L62.639125,31.77875" id="path414" fill="#FFFFFF" sketch:type="MSShapeGroup" transform="translate(71.387250, 39.966250) scale(1, -1) translate(-71.387250, -39.966250) "></path>
                <path d="M81.82225,77.846625 L79.17975,65.96675 L81.82225,66.623875 L83.46925,60.023875 L88.7515,61.344125 L87.099625,67.94425 L89.74125,68.606375 L81.82225,77.846625" id="path416" fill="#E54F4C" sketch:type="MSShapeGroup" transform="translate(84.429750, 68.961375) scale(1, -1) translate(-84.429750, -68.961375) "></path>
                <path d="M95.51275,74.004875 L92.8725,62.1225 L95.51275,62.78125 L97.162125,56.181125 L102.441375,57.500875 L100.7925,64.0995 L103.434125,64.762125 L95.51275,74.004875" id="path418" fill="#E54F4C" sketch:type="MSShapeGroup" transform="translate(98.122500, 65.118625) scale(1, -1) translate(-98.122500, -65.118625) "></path>
                <path d="M118.44625,31.495625 L49.229,14.13325 L25.492625,100.2445 C24.955625,102.18575 23.53325,103.76075 21.65575,104.49075 L5.149375,109.2245 C4.575625,109.42325 4.184125,109.57575 3.642125,109.57575 C1.694375,109.57575 0.11475,107.997 0.11475,106.04825 C0.11475,104.62825 0.9365,103.35575 2.146,102.797 L17.2485,95.90075 L36.50775,4.5195 C37.286625,1.69825 41.933125,0.05225 44.735875,0.05225 C45.2495,0.05225 45.7715,0.11425 46.2915,0.245625 L119.6875,24.6045 L118.44625,31.495625" id="path420" fill="#3A556C" sketch:type="MSShapeGroup" transform="translate(59.927250, 54.802250) scale(1, -1) translate(-59.927250, -54.802250) "></path>
                <path d="M58.214375,103.4785 C58.214375,94.6285 51.0395,87.453625 42.189,87.453625 C33.337875,87.453625 26.163625,94.6285 26.163625,103.4785 C26.163625,112.328625 33.337875,119.5035 42.189,119.5035 C51.0395,119.5035 58.214375,112.328625 58.214375,103.4785" id="path422" fill="#3A556C" sketch:type="MSShapeGroup" transform="translate(42.163625, 103.453625) scale(1, -1) translate(-42.163625, -103.453625) "></path>
                <path d="M49.6675,103.38875 C49.6675,99.2575 46.319875,95.90875 42.189,95.90875 C38.058125,95.90875 34.71,99.2575 34.71,103.38875 C34.71,107.520125 38.058125,110.86725 42.189,110.86725 C46.319875,110.86725 49.6675,107.520125 49.6675,103.38875 L49.6675,103.38875 Z" id="path430" sketch:type="MSShapeGroup" transform="translate(42.210000, 103.408750) scale(1, -1) translate(-42.210000, -103.408750) "></path>
                <path d="M49.6675,103.38875 C49.6675,99.2575 46.319875,95.90875 42.189,95.90875 C38.058125,95.90875 34.71,99.2575 34.71,103.38875 C34.71,107.520125 38.058125,110.86725 42.189,110.86725 C46.319875,110.86725 49.6675,107.520125 49.6675,103.38875" id="path438" fill="url(#linearGradient-1)" sketch:type="MSShapeGroup" transform="translate(42.210000, 103.408750) scale(1, -1) translate(-42.210000, -103.408750) "></path>
                <path d="M84.598125,75.453625 L83.96625,77.872125 L103.482375,82.974625 L104.11525,80.556125 L84.598125,75.453625" id="path440" fill="#E54F4C" sketch:type="MSShapeGroup" transform="translate(94.028750, 79.203625) scale(1, -1) translate(-94.028750, -79.203625) "></path>
                <path d="M71.330625,15.6270499 C71.876,13.6382999 70.69575,11.5645499 68.7065,11.0195499 L38.765125,2.80454995 C36.776375,2.25829995 34.702125,3.43829995 34.15675,5.42704995 L27.2495,30.5970499 C26.704125,32.5857999 27.88425,34.6595499 29.8735,35.2045499 L59.814,43.4220499 C61.80325,43.9670499 63.877,42.7870499 64.422375,40.7982999 L71.330625,15.6270499" id="path442" fill="#EEC74A" sketch:type="MSShapeGroup" transform="translate(49.303853, 23.108525) scale(1, -1) translate(-49.303853, -23.108525) "></path>
                <path d="M40.328625,5.2325 L40.437,5.30375 L41.30375,7 L43.30025,5.96 L43.351125,5.97375 L44.567875,7.8625 L46.561,6.825 L46.611875,6.83625 L47.827625,8.72625 L49.818875,7.685 L49.867625,7.69875 L51.081,9.58625 L52.674375,8.5425 L52.7695,8.54875 L50.9375,15.40625 L38.65525,12.0225 L40.328625,5.2325" id="path444" fill="#FFFFFF" sketch:type="MSShapeGroup" transform="translate(45.717750, 10.295000) scale(1, -1) translate(-45.717750, -10.295000) "></path>
                <path d="M61.588875,23.43125 L60.681625,27.01625 C63.518125,28.36875 61.51075,33.58375 61.51075,33.58375 L58.57225,32.84 L55.5855,32.08375 C55.5855,32.08375 56.347125,26.55625 59.485375,26.71375 L60.3935,23.1275 C60.3935,23.1275 60.098125,21.78 58.901875,21.47875 L59.05475,20.88125 L61.444875,21.48625 L63.8355,22.09 L63.684125,22.6875 C62.48825,22.38625 61.588875,23.43125 61.588875,23.43125" id="path446" fill="#E54F4C" sketch:type="MSShapeGroup" transform="translate(59.710500, 27.256250) scale(1, -1) translate(-59.710500, -27.256250) "></path>
                <path d="M37.77875,40.67125 L37.7725,40.67125 L37.77875,40.67125 L37.77875,40.67125 M37.77875,40.67125 C38.087375,40.67125 38.401375,40.71 38.712375,40.79 C38.400875,40.71 38.087875,40.67125 37.77875,40.67125 M38.74225,40.79875 C38.75,40.8 38.757375,40.8025 38.765125,40.805 L38.765125,40.805 C38.757375,40.8025 38.75,40.8 38.74225,40.79875 M34.163125,43.405 C34.160625,43.4125 34.15875,43.42 34.15675,43.4275 L34.15675,43.4275 C34.15875,43.42 34.160625,43.4125 34.163125,43.405" id="path448" fill="#BCBCBC" sketch:type="MSShapeGroup" transform="translate(36.531750, 42.108750) scale(1, -1) translate(-36.531750, -42.108750) "></path>
                <path d="M37.77875,16.17125 L37.7725,16.17125 C36.13575,16.17375 34.6255,17.26 34.163125,18.905 C34.160625,18.9125 34.15875,18.92 34.15675,18.9275 L34.15675,18.9275 L27.397,43.56125 L43.36575,17.56625 L38.765125,16.305 C38.757375,16.3025 38.75,16.3 38.74225,16.29875 C38.732375,16.295 38.722625,16.2925 38.712375,16.29 C38.401375,16.21 38.087375,16.17125 37.77875,16.17125 L37.77875,16.17125" id="path450" fill="#B09336" sketch:type="MSShapeGroup" transform="translate(35.397000, 29.858750) scale(1, -1) translate(-35.397000, -29.858750) "></path>
            </g>
        </g>
    </g>
</svg>