<?xml version="1.0" encoding="UTF-8" standalone="no"?>
<svg width="129px" height="75px" viewBox="0 0 129 75" version="1.1" xmlns="http://www.w3.org/2000/svg" xmlns:xlink="http://www.w3.org/1999/xlink" xmlns:sketch="http://www.bohemiancoding.com/sketch/ns">
    <!-- Generator: Sketch 3.2 (9961) - http://www.bohemiancoding.com/sketch -->
    <title>img-russia</title>
    <desc>Created with Sketch.</desc>
    <defs></defs>
    <g id="Welcome" stroke="none" stroke-width="1" fill="none" fill-rule="evenodd" sketch:type="MSPage">
        <g id="tangerine" sketch:type="MSArtboardGroup" transform="translate(-359.000000, -254.000000)" fill="#8F8F8F">
            <path d="M419.335152,328.7864 C418.854545,328.7318 418.76,328.6616 418.531515,328.1546 L418.405455,327.8816 L417.601818,327.8738 C417.121212,327.8738 416.727273,327.8348 416.624848,327.7802 C416.530303,327.7256 416.089091,327.1718 415.647879,326.5556 L414.836364,325.4246 L413.56,325.4246 C412.094545,325.4246 412.102424,325.4246 411.952727,324.8006 C411.897576,324.5822 411.826667,324.3872 411.787273,324.3716 C411.755758,324.3482 411.606061,324.4808 411.464242,324.6602 C411.141212,325.0736 411.086061,325.1126 410.928485,325.0346 C410.857576,324.9956 410.432121,323.9426 409.943636,322.5776 L409.07697,320.1908 L408.501818,319.5122 C408.005455,318.9272 407.934545,318.8024 407.973939,318.6152 C407.997576,318.4982 407.997576,318.4046 407.966061,318.4046 C407.934545,318.4046 407.446061,318.545 406.886667,318.7244 C405.917576,319.0286 405.815152,319.0442 405.224242,318.9974 C404.436364,318.9428 404.341818,318.8648 404.467879,318.3968 C404.554545,318.0692 404.554545,318.0536 404.333939,317.8742 C403.908485,317.531 403.687879,317.453 403.286061,317.5076 C403.026061,317.5388 402.892121,317.5232 402.83697,317.453 C402.789697,317.3984 402.710909,316.907 402.655758,316.3766 C402.600606,315.8384 402.521818,315.3392 402.482424,315.269 C402.44303,315.191 402.080606,315.0272 401.631515,314.8868 L400.851515,314.6372 L400.394545,314.8322 L399.937576,315.035 L398.716364,314.9102 C397.818182,314.8244 397.400606,314.8088 397.109091,314.8712 C396.581212,314.9804 394.130909,314.6138 393.319394,314.3096 C392.815152,314.1224 392.76,314.1146 392.673333,314.2316 C392.578788,314.3642 392.586667,314.4344 392.878182,315.2378 C393.106667,315.8696 393.090909,316.0646 392.838788,316.0646 C392.728485,316.0646 392.5,315.9944 392.334545,315.9086 C392.161212,315.8228 391.901212,315.7526 391.743636,315.7526 C391.483636,315.7526 391.467879,315.7682 391.389091,316.0802 C391.207879,316.8056 391.215758,316.7978 390.829697,316.8446 C390.640606,316.8602 390.48303,316.9226 390.498788,316.9694 C390.506667,317.0162 390.687879,317.3204 390.908485,317.648 C391.129091,317.9756 391.310303,318.3032 391.310303,318.3812 C391.310303,318.5762 390.546061,319.4186 390.372727,319.4186 C390.301818,319.4186 390.065455,319.2938 389.852727,319.1456 C389.411515,318.8336 389.261818,318.8102 389.064848,319.0286 C388.844242,319.2626 388.710303,319.2236 388.213939,318.7712 C387.812121,318.4124 387.749091,318.3188 387.678182,317.9444 C387.638788,317.7182 387.583636,317.4998 387.552121,317.453 C387.504848,317.375 387.126667,317.3984 386.756364,317.5076 C386.575152,317.5622 386.567273,317.5544 386.007879,316.8914 L385.818788,316.6574 L385.133333,316.8212 C384.337576,317.0006 384.203636,316.9538 384.046061,316.4546 C383.959394,316.1504 383.951515,316.1426 383.59697,316.1582 L383.242424,316.1816 L383.132121,315.6356 C382.840606,314.1302 382.911515,314.2862 382.478182,314.099 C382.084242,313.9352 382.03697,313.8728 381.989697,313.3736 C381.973939,313.1552 381.950303,313.1396 381.698182,313.1552 C381.540606,313.1708 381.343636,313.1942 381.249091,313.2176 C381.020606,313.2644 380.831515,313.0694 380.831515,312.7886 C380.831515,312.6638 380.792121,312.5546 380.744848,312.539 C380.697576,312.5234 380.193333,312.5858 379.618182,312.6794 C379.050909,312.773 378.389091,312.8744 378.152727,312.9134 C377.735152,312.9758 377.719394,312.9914 377.593333,313.3112 C377.412121,313.8104 377.309697,313.8806 376.892121,313.8026 C376.474545,313.7246 376.395758,313.631 376.269697,313.0616 C376.214545,312.8276 376.135758,312.6092 376.096364,312.5858 C376.05697,312.5624 375.765455,312.6794 375.450303,312.8432 C374.906667,313.124 374.875152,313.1552 374.851515,313.436 C374.835758,313.709 374.788485,313.7636 374.276364,314.0834 C373.97697,314.2784 373.709091,314.4812 373.693333,314.5358 C373.669697,314.5904 373.685455,314.7308 373.732727,314.84 C373.795758,315.0038 373.787879,315.1208 373.701212,315.3314 C373.52,315.7526 373.551515,315.854 373.929697,316.1426 C374.142424,316.2908 374.315758,316.5014 374.355152,316.6418 C374.457576,316.9616 374.536364,318.4202 374.465455,318.5294 C374.433939,318.5762 374.3,318.662 374.173939,318.7244 C374.04,318.7868 373.937576,318.8726 373.945455,318.9194 C373.953333,318.9584 373.984848,319.0754 374.008485,319.1846 C374.10303,319.598 374.024242,319.6136 372.669091,319.4654 L371.424242,319.3328 L371.014545,319.6136 C370.786061,319.7618 370.360606,319.9958 370.061212,320.1206 L369.525455,320.3468 L369.517576,321.1892 C369.509697,321.6494 369.501818,322.0706 369.493939,322.1252 C369.486061,322.172 369.304848,322.445 369.092121,322.7258 L368.698182,323.2328 L368.698182,324.512 C368.698182,325.4402 368.666667,325.8146 368.595758,325.8692 C368.461818,325.9784 367.429697,326.2046 367.051515,326.2046 C366.594545,326.2046 366.492121,326.0174 366.492121,325.2218 L366.492121,324.5822 L366.058788,323.9348 C365.617576,323.264 365.562424,323.0924 365.704242,322.7336 C365.759394,322.5698 365.743636,322.4606 365.609697,322.2032 C365.389091,321.7586 365.081818,321.3686 364.963636,321.3686 C364.908485,321.3686 364.68,321.314 364.467273,321.2516 C364.010303,321.119 364.018182,321.1268 363.687273,319.9646 C363.498182,319.2782 363.450909,319.1924 363.088485,318.8726 C362.852121,318.662 362.481818,318.1706 362.166667,317.6636 C361.701818,316.9148 361.607273,316.8056 361.331515,316.712 C361.158182,316.6496 360.969091,316.5638 360.921818,316.5092 C360.866667,316.4546 360.803636,315.9944 360.772121,315.3626 C360.740606,314.7776 360.669697,314.1692 360.606667,313.9976 C360.244242,312.9836 360.110303,312.5078 360.015758,311.9696 L359.921212,311.3612 L360.133939,311.1818 C360.433333,310.9244 360.653939,310.94 360.906061,311.2442 L361.118788,311.4938 L361.433939,311.2442 C361.733333,311.0024 361.780606,310.9946 362.190303,311.0414 L362.631515,311.0882 L362.631515,310.6982 C362.631515,310.16 362.726061,310.0976 363.364242,310.2068 C364.002424,310.316 363.986667,310.316 363.884242,310.1288 C363.766061,309.9104 363.844848,309.7154 364.167879,309.4346 C364.624848,309.0446 365.223636,309.1148 365.798788,309.6374 C365.964242,309.7856 366.137576,309.9026 366.17697,309.887 C366.208485,309.8714 366.413333,309.6374 366.618182,309.3644 C366.949091,308.9276 367.059394,308.8418 367.437576,308.717 C367.673939,308.639 367.870909,308.5766 367.878788,308.5766 C367.918182,308.5688 368.067879,308.0618 368.067879,307.9292 C368.067879,307.8434 367.910303,307.5236 367.713333,307.2194 C367.390303,306.7046 367.358788,306.6032 367.287879,305.9012 C367.240606,305.4878 367.185455,305.1134 367.161818,305.0666 C367.138182,305.0276 366.933333,304.9106 366.704848,304.8092 C366.358182,304.6532 366.247879,304.544 365.995758,304.1306 C365.830303,303.8576 365.704242,303.6002 365.704242,303.5534 C365.704242,303.5144 365.775152,303.2414 365.869697,302.945 L366.04303,302.4146 L365.861818,301.8452 C365.767273,301.5332 365.696364,301.2056 365.712121,301.1198 C365.727879,301.0418 365.885455,300.8936 366.058788,300.8078 C366.295152,300.683 366.405455,300.566 366.507879,300.3008 C366.728485,299.7236 366.704848,299.6846 366.224242,299.6846 C365.727879,299.6846 365.641212,299.6066 365.609697,299.1386 C365.586061,298.811 365.562424,298.772 365.247273,298.6316 C364.87697,298.46 364.798182,298.3352 364.924242,298.109 C365.192121,297.602 366.04303,296.4086 366.129697,296.4086 C366.271515,296.4086 366.389697,296.5568 366.452727,296.822 C366.515758,297.0716 366.728485,297.2042 367.012121,297.173 C367.21697,297.1496 367.21697,297.134 367.232727,296.5256 C367.240606,296.0498 367.303636,295.6988 367.500606,295.0826 C367.752727,294.3182 367.8,294.2324 368.272727,293.7488 C368.548485,293.468 368.77697,293.1638 368.77697,293.078 C368.77697,293 368.58,292.454 368.335758,291.8768 C367.768485,290.5274 367.792121,290.621 368.004848,290.3792 C368.107273,290.2544 368.414545,289.7786 368.690303,289.3028 C369.241818,288.3512 369.454545,288.1406 369.848485,288.1406 C370.07697,288.1406 370.147879,288.086 370.439394,287.6648 C370.762424,287.2202 370.801818,287.189 371.369091,287.0174 C371.7,286.916 372.164848,286.7834 372.41697,286.7288 C372.866061,286.6352 372.873939,286.6352 373.543636,286.9316 C373.913939,287.0876 374.229091,287.2046 374.252727,287.189 C374.268485,287.1656 374.213333,286.9316 374.126667,286.6664 C373.97697,286.2374 373.969091,286.1672 374.071515,286.0112 C374.158182,285.8786 374.166061,285.8006 374.10303,285.6992 C373.929697,285.434 374.134545,285.3872 375.40303,285.4028 C376.403636,285.4106 376.821212,285.3794 377.798182,285.2078 C378.444242,285.0986 379.011515,284.9738 379.050909,284.9348 C379.090303,284.8958 379.184848,284.4902 379.263636,284.03 C379.342424,283.5698 379.43697,283.1642 379.476364,283.1252 C379.515758,283.0862 379.720606,283.016 379.933333,282.9614 C380.311515,282.8678 380.319394,282.8522 380.713333,282.1424 C381.091515,281.4404 381.12303,281.4014 381.713939,281.0504 C382.36,280.6604 382.714545,280.2548 383.266061,279.2564 L383.549697,278.7494 L384.211515,278.6012 C384.581818,278.5232 384.89697,278.4452 384.912727,278.4296 C384.928485,278.414 385.015152,278.0708 385.093939,277.673 C385.172727,277.2752 385.259394,276.8852 385.28303,276.8072 C385.338182,276.6434 385.645455,276.4796 386.338788,276.2456 C386.84303,276.0818 386.890303,276.074 387.961818,276.1754 C388.568485,276.23 389.135758,276.2768 389.230303,276.2768 C389.529697,276.2846 389.655758,276.4874 389.655758,276.971 C389.655758,277.439 389.561212,277.6106 389.31697,277.6106 C389.112121,277.6106 389.167273,277.7666 389.70303,278.804 C390.120606,279.6152 390.136364,279.6776 390.238788,280.637 C390.301818,281.183 390.42,281.8304 390.514545,282.0878 C390.601212,282.3374 390.672121,282.6728 390.672121,282.8288 C390.672121,283.3592 390.380606,284.9504 390.270303,285.0596 C390.152121,285.1766 389.025455,285.4886 388.710303,285.4886 C388.300606,285.4886 387.339394,285.044 387.063636,284.732 C386.346667,283.9208 385.866061,282.9068 385.661212,281.7836 C385.535152,281.0582 385.464242,280.949 385.290909,281.2142 C385.172727,281.3858 385.172727,281.4794 385.275152,282.2126 C385.346061,282.665 385.393333,283.094 385.393333,283.1642 C385.401212,283.2422 385.196364,283.445 384.936364,283.6322 C384.684242,283.8194 384.250909,284.2406 383.975152,284.576 L383.478788,285.1922 L383.66,286.058 C383.912121,287.2748 383.998788,287.3996 384.369091,287.0174 C384.518788,286.8536 384.526667,286.799 384.455758,286.6586 C384.353333,286.4792 384.408485,285.6914 384.534545,285.356 C384.613333,285.1454 385.424848,284.8568 385.558788,284.9894 C385.606061,285.0362 385.67697,285.4184 385.724242,285.8396 C385.80303,286.5494 385.834545,286.6352 386.094545,286.9394 C386.449091,287.3684 386.559394,287.4074 386.669697,287.1422 C387.10303,286.1126 387.071515,286.1516 387.575758,286.019 C387.906667,285.9332 388.27697,285.9098 388.867879,285.9332 C390.049697,285.9722 389.986667,285.9488 390.238788,286.5728 C390.48303,287.2046 390.553939,287.228 391.034545,286.9004 L391.349697,286.682 L391.318182,286.1204 L391.294545,285.5666 L391.790909,285.3326 C392.468485,285.0284 392.807273,284.615 392.878182,284.0144 C392.941212,283.4294 393.098788,283.406 393.689697,283.8818 C394.115152,284.2328 394.186061,284.3576 394.446061,285.1454 C394.532727,285.4184 394.430303,285.6836 394.083636,286.0658 C393.870909,286.3076 393.847273,286.3076 393.406061,286.097 C393.090909,285.9488 393.027879,285.941 392.799394,286.0346 L392.547273,286.136 L392.602424,286.604 C392.673333,287.2124 392.728485,287.3138 393.090909,287.4152 C393.382424,287.5088 393.390303,287.5088 393.847273,287.0798 L394.304242,286.643 L396.801818,286.6742 C399.425455,286.7054 399.740606,286.7444 399.740606,287.0408 C399.740606,287.1578 399.606667,287.267 399.283636,287.4308 C399.031515,287.5556 398.763636,287.7116 398.67697,287.774 C398.519394,287.891 398.519394,287.8988 398.692727,288.0704 C398.858182,288.2342 398.889697,288.242 399.204848,288.1484 C399.827273,287.9612 400.04,287.9612 400.504848,288.1328 C400.875152,288.2654 401.103636,288.2888 401.710303,288.2732 L402.458788,288.2576 L402.458788,288.6398 C402.458788,289.1312 402.600606,289.2404 402.978788,289.022 C403.238788,288.8738 403.246667,288.8582 403.254545,288.3278 C403.262424,287.5946 403.246667,287.6336 403.593333,287.4776 L403.900606,287.3372 L404.775152,287.8364 L405.649697,288.3278 L406.729091,289.9502 C407.32,290.8394 407.832121,291.5726 407.863636,291.5726 C407.887273,291.5726 407.973939,291.479 408.044848,291.3698 C408.170909,291.1826 408.170909,291.1592 408.044848,290.972 C407.950303,290.816 407.926667,290.6756 407.966061,290.3324 L408.021212,289.8878 L407.698182,289.6304 C407.32,289.334 407.296364,289.1546 407.611515,288.905 C407.84,288.7178 408.249697,288.008 408.249697,287.7896 C408.249697,287.7194 408.210303,287.6024 408.155152,287.5244 C408.092121,287.423 408.1,287.2826 408.202424,286.9472 C408.328485,286.5104 408.344242,286.4948 408.998182,286.097 C409.612727,285.7304 409.738788,285.6056 410.345455,284.8022 C410.707879,284.3186 411.054545,283.8974 411.109697,283.8818 C411.164848,283.8584 411.582424,283.9754 412.031515,284.1392 C412.606667,284.3498 412.858788,284.4824 412.882424,284.576 C412.898182,284.654 412.866667,284.9504 412.819394,285.239 C412.740606,285.7148 412.677576,285.8318 412.204848,286.4168 L411.684848,287.0642 L411.826667,287.6336 L411.976364,288.203 L411.763636,288.7568 C411.653333,289.0688 411.550909,289.412 411.550909,289.529 C411.550909,289.646 411.432727,290.0828 411.275152,290.5118 C411.125455,290.933 411.007273,291.3464 411.007273,291.4244 C411.007273,291.5024 411.093939,291.791 411.212121,292.064 L411.41697,292.5632 L411.109697,293.1716 C410.944242,293.4992 410.629091,293.9594 410.416364,294.1778 C410.195758,294.404 409.872727,294.755 409.699394,294.95 C409.4,295.2932 409.352727,295.3166 408.990303,295.3166 C408.777576,295.3166 408.407273,295.262 408.170909,295.1996 C407.934545,295.1372 407.729697,295.0982 407.713939,295.1138 C407.706061,295.1216 407.863636,295.2932 408.076364,295.4882 C408.612121,295.9796 408.998182,296.042 409.715152,295.7456 C410.077576,295.5896 410.306061,295.4336 410.510909,295.184 C410.668485,294.989 410.96,294.7238 411.15697,294.599 C411.708485,294.2324 411.716364,294.2168 411.716364,293.2028 L411.716364,292.2824 L412.149697,292.1186 C412.661818,291.9314 412.882424,291.9236 413.244848,292.0718 C413.520606,292.1888 413.630909,292.4228 413.804242,293.2652 C413.835758,293.4524 413.898788,293.5226 414.01697,293.5226 C414.158788,293.5226 414.174545,293.4914 414.127273,293.156 C414.095758,292.961 414.08,292.7348 414.08,292.6568 C414.08,292.5476 413.615152,292.142 413.142424,291.8534 C413.079394,291.8144 412.787879,291.7598 412.488485,291.7286 C412.189091,291.6896 411.897576,291.6194 411.834545,291.5726 C411.74,291.4946 411.716364,291.2996 411.716364,290.8082 C411.716364,290.153 411.716364,290.1296 412.070909,289.568 L412.433333,288.9908 L412.236364,288.1718 C412.094545,287.5868 412.055152,287.2904 412.110303,287.1578 C412.189091,286.9628 412.756364,286.37 413.244848,285.9956 C413.512727,285.785 413.552121,285.7148 413.583636,285.3326 C413.615152,285.0674 413.678182,284.8646 413.75697,284.81 C413.938182,284.6696 414.363636,284.6852 414.426667,284.8334 C414.544848,285.1532 414.458182,285.7928 414.190303,286.5416 C413.749091,287.7428 413.741212,287.657 414.395152,288.008 C414.702424,288.1718 414.978182,288.2888 415.001818,288.2576 C415.033333,288.2342 414.852121,288.008 414.615758,287.7662 C414.371515,287.5166 414.158788,287.2592 414.127273,287.1812 C414.056364,286.9706 414.355758,286.4324 414.584242,286.3778 C414.694545,286.3544 414.820606,286.3544 414.875758,286.3856 C414.946667,286.4324 414.954545,286.409 414.907273,286.2998 C414.710303,285.8474 414.749697,285.7694 415.246061,285.5354 C415.506061,285.4106 415.773939,285.3326 415.844848,285.356 C415.915758,285.3872 416.026061,285.5276 416.089091,285.668 C416.144242,285.8162 416.262424,285.9488 416.349091,285.9722 C416.427879,285.9956 416.68,286.2374 416.908485,286.5104 C417.696364,287.4542 417.712121,287.4698 417.790909,287.3372 C417.885455,287.1656 417.78303,286.9316 417.357576,286.37 C417.160606,286.1126 416.987273,285.8318 416.971515,285.746 C416.932121,285.434 417.089697,284.1626 417.184242,284.0378 C417.26303,283.9286 417.578182,283.874 418.846667,283.757 C419.705455,283.679 420.430303,283.5932 420.453939,283.5698 C420.469697,283.5464 420.430303,283.367 420.359394,283.172 C420.225455,282.821 420.225455,282.8054 420.38303,282.5402 C420.635152,282.1112 421.36,281.183 421.651515,280.91 C421.801212,280.7774 422.305455,280.4966 422.778182,280.286 C423.408485,280.013 423.676364,279.8492 423.76303,279.6932 C423.849697,279.5528 424.086061,279.3968 424.535152,279.194 C425.236364,278.8898 425.354545,278.8976 425.45697,279.2876 C425.52,279.5294 425.630303,279.5294 426.173939,279.2642 C426.607273,279.0536 426.607273,279.0536 426.56,278.7728 C426.504848,278.4452 426.591515,278.3516 427.024848,278.2736 L427.332121,278.219 L427.27697,277.7432 L427.229697,277.2596 L427.702424,276.542 C428.348485,275.5514 428.687273,275.411 429.538182,275.762 C429.87697,275.9024 429.916364,276.0818 429.68,276.3782 C429.459394,276.6512 429.475152,276.6746 429.821818,276.6746 C430.160606,276.6746 430.310303,276.7838 430.310303,277.0412 C430.310303,277.2674 430.341818,277.2674 430.704242,276.9866 C430.987879,276.7604 431.027273,276.7526 431.830909,276.7526 L432.658182,276.7526 L433.233333,277.2284 C433.556364,277.4858 433.863636,277.8134 433.918788,277.946 C433.989697,278.102 434.029091,278.4998 434.03697,279.0536 C434.03697,280.013 434.029091,280.052 433.351515,281.0426 C433.130909,281.3624 432.752727,281.9786 432.516364,282.4076 C432.272121,282.8366 431.972727,283.3514 431.854545,283.5542 L431.633939,283.9286 L431.815152,283.9286 C431.949091,283.9286 432.264242,283.6868 432.831515,283.1564 C433.706061,282.3296 434.407273,281.8226 434.643636,281.8226 C434.730303,281.8226 434.856364,281.9084 434.927273,282.0176 C435.084848,282.2594 435.171515,282.2594 435.281818,282.0176 C435.33697,281.9006 435.502424,281.7758 435.699394,281.7056 C436.329697,281.4872 437.54303,281.1986 437.669091,281.2454 C437.747879,281.2766 437.795152,281.3858 437.795152,281.5418 C437.795152,281.807 437.913333,281.9786 438.102424,281.9786 C438.252121,281.9786 439.914545,281.3078 440.01697,281.2064 C440.064242,281.1596 440.024848,280.988 439.930303,280.7696 C439.717576,280.3016 439.717576,280.1612 439.930303,279.7868 L440.103636,279.4826 L440.789091,279.4826 C441.450909,279.4826 441.474545,279.4748 441.797576,279.194 C442.057576,278.9756 442.167879,278.9288 442.286061,278.9834 C442.412121,279.038 443.2,279.7088 444.389697,280.7696 C444.657576,281.0036 444.689091,281.2766 444.444848,281.2766 C444.271515,281.2766 444.310909,281.4014 444.539394,281.5808 C444.815152,281.7992 446.461818,282.3218 446.453939,282.1892 C446.453939,282.1814 446.32,281.7524 446.146667,281.2376 C445.918182,280.5512 445.86303,280.2782 445.926061,280.2002 C445.989091,280.13 446.225455,280.1066 446.792727,280.1222 L447.580606,280.1456 L447.714545,279.7556 C447.864242,279.3188 448.069091,279.1706 448.518182,279.1706 C448.770303,279.1706 448.880606,279.1004 449.250909,278.7338 C449.495152,278.492 449.684242,278.2736 449.684242,278.2502 C449.684242,278.219 449.471515,278.0474 449.211515,277.8602 C448.951515,277.6808 448.738788,277.4702 448.738788,277.3922 C448.738788,277.322 448.707273,277.01 448.667879,276.7136 C448.636364,276.4094 448.636364,276.1052 448.675758,276.035 C448.715152,275.957 449.022424,275.7464 449.353333,275.5592 C451.228485,274.5062 451.874545,274.1006 452.23697,273.7808 C452.788485,273.2894 452.906667,273.2426 453.497576,273.2426 C454.104242,273.2426 454.261818,273.3518 454.12,273.7106 C454.072727,273.8432 454.05697,273.9524 454.088485,273.968 C454.135758,273.9992 455.947879,273.617 456.176364,273.5312 C456.239394,273.5078 456.593939,272.8916 456.964242,272.174 L457.633939,270.8558 L458.34303,270.4892 L459.052121,270.1148 L459.587879,270.2006 C460.044848,270.2708 460.170909,270.3254 460.42303,270.5672 L460.714545,270.8558 L461.053333,270.6218 C461.33697,270.419 461.415758,270.302 461.589091,269.8028 C461.825455,269.1164 461.778182,269.2022 462.534545,268.1726 C463.015152,267.5252 463.149091,267.2756 463.196364,266.987 C463.227879,266.7842 463.290909,266.5892 463.346061,266.5502 C463.393333,266.5034 463.810909,266.4488 464.275758,266.4176 C464.732727,266.3864 465.142424,266.3396 465.189697,266.3084 C465.307879,266.2304 465.36303,265.7078 465.268485,265.6064 C465.221212,265.5596 464.961212,265.5206 464.693333,265.5206 C464.244242,265.5206 464.173333,265.4972 463.858182,265.2398 C463.669091,265.0838 463.487879,264.8966 463.448485,264.8108 C463.393333,264.7016 463.574545,264.335 464.220606,263.204 C465.166061,261.5426 465.323636,261.371 467.135758,259.9592 C468.577576,258.8438 471.185455,257.0966 471.429697,257.0966 C471.532121,257.0966 471.847273,257.1668 472.130909,257.2604 C472.485455,257.3852 472.666667,257.4086 472.761212,257.354 C473.005455,257.2058 472.934545,257.12 472.532727,257.0654 C472.312121,257.042 472.075758,256.9796 472.020606,256.9328 C471.839394,256.7846 471.886667,256.4414 472.107273,256.2386 C472.217576,256.1372 472.335758,255.911 472.38303,255.7316 C472.548485,255.092 472.611515,255.014 473.407273,254.4914 C473.840606,254.2028 474.266061,253.9844 474.360606,253.9844 C474.455152,253.9844 474.72303,254.117 474.951515,254.2886 C475.424242,254.6396 475.447879,254.7098 475.258788,255.4274 C475.187879,255.6692 475.156364,255.8876 475.172121,255.911 C475.195758,255.9344 475.629091,256.0124 476.133333,256.0982 C477.354545,256.301 477.393939,256.3166 477.504242,256.7222 C477.590909,257.0186 477.58303,257.0888 477.409697,257.4008 C477.26,257.6972 477.173333,257.7674 476.897576,257.8298 C476.629697,257.9 476.511515,258.0014 476.188485,258.4226 C475.818182,258.914 475.794545,258.9296 475.392727,258.9686 C474.801818,259.0232 474.604848,259.2494 474.494545,259.9436 C474.447273,260.24 474.376364,260.5364 474.329091,260.591 C474.266061,260.669 474.092727,260.6768 473.635758,260.6378 C472.973939,260.5832 472.887273,260.6222 473.005455,260.942 C473.068485,261.1058 473.147273,261.1448 473.493939,261.1838 C474.825455,261.3476 474.778182,261.3086 475.061818,262.463 L475.24303,263.1806 L474.98303,263.5004 C474.778182,263.7578 474.746667,263.8358 474.833333,263.8904 C474.990909,263.9918 474.998788,263.984 475.518788,263.6408 C476.062424,263.282 476.101818,263.2742 476.755758,263.4068 C477.189091,263.5004 477.267879,263.4926 477.803636,263.3132 C478.126667,263.204 478.449697,263.1338 478.528485,263.1572 C478.693939,263.1962 479.473939,263.867 479.473939,263.9684 C479.473939,264.0074 479.206061,264.3194 478.88303,264.6626 C478.552121,265.0058 478.292121,265.3568 478.292121,265.4426 C478.292121,265.5986 478.851515,267.7904 479.229697,269.1476 C479.891515,271.4642 480.033333,271.8698 480.348485,272.3066 C480.529697,272.5718 480.64,272.798 480.608485,272.8682 C480.569091,272.9696 479.418788,273.3986 479.174545,273.3986 C479.001212,273.3986 478.922424,273.6326 478.835758,274.3346 L478.749091,275.0756 L478.993333,275.5982 C479.127273,275.8868 479.237576,276.1754 479.237576,276.2456 C479.237576,276.4484 479.001212,276.4718 478.678182,276.2846 C478.504848,276.191 478.331515,276.1286 478.292121,276.1364 C478.252727,276.152 478.284242,276.3158 478.370909,276.503 C478.583636,276.971 478.567879,277.127 478.244848,277.5248 C478.095152,277.712 477.97697,277.907 477.97697,277.9538 C477.97697,278.0084 478.166061,278.3438 478.402424,278.7026 C478.638788,279.0692 479.009091,279.6464 479.229697,279.9974 C479.450303,280.3484 479.678788,280.676 479.741818,280.7228 C479.899394,280.8554 480.033333,280.754 479.978182,280.5434 C479.92303,280.325 480.041212,280.2236 480.482424,280.1066 C480.96303,279.9818 481.128485,280.0442 481.388485,280.4576 C481.711515,280.9568 482.2,281.1986 482.932727,281.1986 C483.413333,281.1986 483.484242,281.2142 483.531515,281.3546 C483.594545,281.5496 483.5,282.1346 483.389697,282.275 C483.295152,282.3842 483.531515,283.25 483.681212,283.367 C483.728485,283.406 484.02,283.4996 484.34303,283.5776 C484.99697,283.7336 485.099394,283.835 485.178182,284.4434 C485.233333,284.8178 485.217576,284.8646 484.989091,285.122 C484.768485,285.3716 484.744848,285.4418 484.768485,285.8162 L484.792121,286.2218 L485.343636,286.5962 C485.64303,286.799 485.934545,287.0252 485.989697,287.0954 C486.052727,287.189 486.092121,287.5244 486.092121,288.0704 L486.092121,288.9128 L486.486061,289.3574 C486.706667,289.607 486.982424,289.9892 487.108485,290.1998 C487.352727,290.6366 487.778182,292.2824 487.699394,292.5164 C487.59697,292.8518 487.226667,292.7036 483.657576,290.933 L480.159394,289.1936 L479.324242,288.2888 L478.481212,287.3918 L478.331515,286.6664 C478.189697,285.9488 478.181818,285.9332 477.811515,285.6524 C477.378182,285.3248 477.354545,285.2468 477.559394,284.498 L477.693333,283.9988 L477.370303,283.0472 C477.189091,282.5246 476.818788,281.4794 476.550909,280.7306 C475.944242,279.0146 475.936364,279.0068 475.857576,277.8992 C475.778788,276.8306 475.810303,276.8696 474.786061,276.1598 C474.07697,275.6684 474.013939,275.567 474.234545,275.1926 C474.360606,274.9586 474.384242,274.7714 474.266061,274.8416 C474.147879,274.9118 473.793333,275.6294 473.801212,275.7932 C473.809091,275.8712 474.061212,276.1364 474.360606,276.386 L474.912121,276.8462 L474.864848,277.205 C474.825455,277.4546 474.872727,277.8836 475.014545,278.57 C475.235152,279.6776 475.258788,279.9116 475.132727,279.9896 C475.085455,280.0208 474.809697,280.0208 474.526061,279.9896 C474.045455,279.935 473.982424,279.9038 473.604242,279.5528 C473.123636,279.1082 473.202424,279.0692 472.548485,280.0442 C472.327879,280.3796 472.146667,280.7384 472.146667,280.8476 C472.146667,281.1596 473.170909,284.4044 473.352121,284.6852 C473.549091,284.9816 473.580606,284.9894 473.872121,284.7788 C474.147879,284.576 474.329091,284.6462 474.549697,285.0518 C474.715152,285.3638 474.754545,285.2858 474.092727,286.058 C473.856364,286.331 473.746061,286.565 473.596364,287.1344 C473.155152,288.7568 473.226061,288.671 472.453939,288.5306 C471.965455,288.437 471.894545,288.359 471.99697,288.0392 C472.028485,287.9066 472.044242,287.7818 472.028485,287.7662 C472.004848,287.7428 471.666061,287.9144 471.272121,288.1484 C470.775758,288.437 470.570909,288.6008 470.594545,288.6866 C470.618182,288.749 470.69697,288.9596 470.775758,289.1546 C470.949091,289.607 470.893939,289.7474 470.5,289.8644 C470.200606,289.9502 470.17697,289.9736 470.161212,290.2778 C470.137576,290.5898 470.129697,290.5976 469.680606,290.7536 C469.247273,290.894 469.231515,290.9174 469.215758,291.1826 L469.215758,291.5102 C469.223636,291.5336 469.034545,291.6116 468.806061,291.6818 C468.412121,291.791 468.341212,291.8612 467.584848,292.7582 C467.143636,293.2886 466.789091,293.7878 466.789091,293.8736 C466.789091,293.9594 466.844242,294.1154 466.907273,294.2246 C467.064848,294.5054 467.049091,294.7784 466.828485,295.3556 L466.631515,295.8626 L466.92303,296.3306 L467.206667,296.8064 L466.946667,297.797 L466.694545,298.7876 L466.820606,299.8952 L466.954545,301.0106 L466.678788,302.2742 C466.27697,304.0838 466.27697,304.1306 466.410909,304.1306 C466.473939,304.1306 466.773333,303.9512 467.088485,303.7406 C467.395758,303.5222 467.687273,303.3506 467.742424,303.3506 C467.797576,303.3506 467.915758,303.4208 468.010303,303.5066 C468.175758,303.6626 468.191515,303.6626 468.687879,303.53 C468.971515,303.4598 469.247273,303.4208 469.318182,303.4442 C469.381212,303.4676 469.475758,303.6392 469.530909,303.8186 C469.633333,304.1306 469.641212,304.1384 469.78303,304.0058 C469.987879,303.8264 469.98,303.686 469.743636,303.3116 C469.46,302.8592 469.491515,302.7188 469.924848,302.3132 C470.373939,301.8998 470.736364,301.7984 471.256364,301.931 C471.445455,301.9856 471.949697,302.0246 472.38303,302.0246 L473.170909,302.0246 L473.170909,301.7828 C473.170909,301.6502 473.218182,301.4474 473.289091,301.3226 C473.446667,301.0106 473.367879,300.878 472.926667,300.7298 C472.264848,300.5114 472.193939,300.059 472.753333,299.63 C472.942424,299.4896 473.139394,299.396 473.194545,299.4116 C473.249697,299.435 473.446667,299.6456 473.643636,299.8874 C473.832727,300.1292 474.376364,300.6596 474.833333,301.0574 C475.321818,301.4786 475.739394,301.9154 475.818182,302.0792 C475.975758,302.399 475.944242,302.3756 478.331515,303.6782 C480.758182,305.0042 480.978788,305.1446 480.955152,305.324 C480.931515,305.4332 480.766061,305.5424 480.340606,305.7218 C480.009697,305.8544 479.741818,306.0182 479.726061,306.0806 C479.718182,306.143 479.915152,306.6656 480.175152,307.2506 C480.521818,308.0306 480.695152,308.3426 480.868485,308.4596 C480.994545,308.5454 481.61697,308.7872 482.247273,308.99 C483.366061,309.3488 483.413333,309.38 483.720606,309.7388 C484.035758,310.1132 484.114545,310.316 483.964848,310.4096 C483.925455,310.433 483.586667,310.4096 483.208485,310.3628 C482.838182,310.316 482.515152,310.2926 482.483636,310.3238 C482.46,310.3472 482.554545,310.6046 482.688485,310.901 C482.948485,311.4548 482.995758,311.7278 482.853939,311.8136 C482.767273,311.8682 481.774545,311.3924 481.396364,311.1038 C481.065455,310.862 480.190909,309.6842 479.828485,308.9822 C479.576364,308.5064 479.481818,308.3972 479.198182,308.2724 C478.938182,308.1554 478.630909,307.8356 477.677576,306.6968 C475.967879,304.6298 476.046667,304.7 475.345455,304.4036 L474.72303,304.1384 L474.770303,304.4972 C474.85697,305.1212 475.447879,306.1976 476.149091,307.0166 C476.519394,307.4378 477.023636,308.1554 477.338788,308.6936 L477.874545,309.6296 L477.969091,311.1506 C478.032121,312.2972 478.10303,312.8588 478.252727,313.4516 C478.449697,314.2082 478.457576,314.333 478.504848,317.4686 L478.544242,320.7134 L478.213333,321.4466 C478.032121,321.8522 477.772121,322.4138 477.638182,322.6946 L477.386061,323.2016 L476.48,323.4746 C475.975758,323.6306 475.518788,323.771 475.463636,323.7866 C475.392727,323.8178 475.337576,324.0362 475.298182,324.4106 C475.219394,325.1126 474.896364,325.8926 474.675758,325.8926 C474.59697,325.8926 474.431515,325.8536 474.305455,325.8146 C474.179394,325.7756 473.927273,325.7054 473.746061,325.6586 C473.29697,325.5494 473.273333,325.4012 473.627879,325.0502 C473.793333,324.8942 474.006061,324.5978 474.100606,324.395 L474.281818,324.0284 L473.832727,323.3264 C473.517576,322.8194 473.249697,322.5074 472.887273,322.2188 C472.611515,321.9926 472.367273,321.7664 472.351515,321.7118 C472.327879,321.6572 472.414545,321.2906 472.548485,320.9006 C472.816364,320.105 472.847879,320.0816 473.596364,319.988 C474.195152,319.9256 474.234545,319.8866 474.132121,319.481 C474.084848,319.2938 474.021818,318.8258 474.006061,318.4436 C473.966667,317.8196 473.919394,317.6324 473.564848,316.8056 C473.210303,315.9788 473.170909,315.8228 473.210303,315.503 C473.257576,315.1832 473.226061,315.0974 472.958182,314.6684 C472.792727,314.4032 472.635152,314.1926 472.603636,314.1926 C472.548485,314.1926 471.713333,315.4718 471.500606,315.893 C471.421818,316.049 471.098788,316.4546 470.775758,316.7822 L470.208485,317.3906 L469.767273,317.3906 L469.333939,317.3906 L468.719394,316.7198 C468.230909,316.1894 468.073333,316.0646 467.947273,316.1036 C467.860606,316.1348 467.458788,316.1114 467.064848,316.0568 C466.347879,315.9632 466.324242,315.9632 465.827879,316.1582 C465.552121,316.2674 465.087273,316.4156 464.787879,316.4858 C464.291515,316.6106 464.236364,316.6106 464.055152,316.4936 C463.881818,316.3766 462.76303,315.386 460.651515,313.4672 C460.233939,313.085 459.808485,312.7418 459.706061,312.7028 C459.430303,312.5936 459.044242,312.617 458.839394,312.7574 C458.689697,312.8588 458.532121,312.8744 457.878182,312.8276 L457.098182,312.773 L456.562424,313.1006 C455.35697,313.8494 454.655758,314.5904 454.655758,315.0974 C454.655758,315.1676 454.884242,315.464 455.167879,315.7604 C455.443636,316.0568 455.68,316.3688 455.68,316.4546 C455.68,316.5404 455.585455,316.79 455.48303,317.0006 C455.293939,317.3516 455.286061,317.4686 455.286061,318.467 L455.286061,319.559 L455.553939,319.8788 C455.703636,320.0582 455.806061,320.2454 455.790303,320.3 C455.766667,320.3546 455.561818,320.495 455.333333,320.6042 C454.96303,320.7836 454.892121,320.8538 454.734545,321.236 C454.537576,321.7118 454.44303,321.7742 453.66303,321.9068 C453.27697,321.977 453.111515,321.9692 452.764848,321.8678 L452.339394,321.743 L452.016364,322.094 C451.653939,322.484 451.693333,322.4762 450.850303,322.2266 C450.684848,322.1798 450.401212,322.1486 450.22,322.1642 C449.857576,322.1876 449.826061,322.2266 449.187879,323.3108 C448.98303,323.654 448.754545,323.8646 447.919394,324.473 L446.895152,325.214 L445.47697,325.3934 C443.491515,325.643 443.444242,325.6352 443.026667,325.292 C442.301818,324.707 440.087879,324.5042 439.433939,324.9644 C439.284242,325.0658 439.016364,325.2608 438.827273,325.4012 C438.646061,325.5416 438.425455,325.6586 438.346667,325.6586 C438.267879,325.6586 437.80303,325.565 437.306667,325.4558 C436.692121,325.3232 436.369091,325.214 436.282424,325.1126 C436.211515,325.0268 436.077576,324.7148 435.98303,324.4106 C435.896364,324.1142 435.793939,323.849 435.754545,323.8334 C435.652121,323.7632 432.807879,323.1626 432.618788,323.1626 C432.492727,323.1626 432.303636,323.3576 431.909697,323.8802 C431.618182,324.278 431.381818,324.6524 431.389697,324.7226 C431.397576,324.785 431.539394,325.1984 431.712727,325.643 C431.886061,326.0798 432.012121,326.501 431.988485,326.5634 C431.964848,326.6258 431.69697,326.7974 431.405455,326.9456 L430.861818,327.2186 L429.207273,327.2186 C427.576364,327.2186 427.552727,327.2108 427.442424,327.0392 C427.379394,326.9456 427.308485,326.7506 427.27697,326.618 C427.245455,326.4776 427.182424,326.3294 427.119394,326.2826 C427.064242,326.2436 426.583636,326.1266 426.047879,326.0408 L425.070909,325.877 L423.668485,326.5634 C422.344848,327.2186 422.266061,327.2654 422.218788,327.5072 C422.195152,327.6476 422.14,327.7802 422.100606,327.8114 C422.061212,327.8348 421.690909,327.9362 421.265455,328.0376 C420.540606,328.2092 420.249091,328.373 420.130909,328.685 C420.083636,328.802 419.823636,328.8332 419.335152,328.7864 L419.335152,328.7864 Z M473.722424,302.9996 C473.722424,302.9762 473.627879,302.8124 473.509697,302.6408 C473.336364,302.3834 473.289091,302.3444 473.226061,302.4458 C473.131515,302.6252 473.218182,302.8436 473.42303,302.945 C473.627879,303.0386 473.722424,303.0542 473.722424,302.9996 L473.722424,302.9996 Z M416.475152,286.5806 C416.35697,286.448 416.215152,286.3466 416.175758,286.3466 C416.128485,286.3466 416.215152,286.4636 416.35697,286.6196 C416.506667,286.7678 416.640606,286.8692 416.664242,286.8458 C416.687879,286.8302 416.601212,286.7054 416.475152,286.5806 L416.475152,286.5806 Z M414.08,285.6056 C414.087879,285.5198 414.087879,285.3794 414.08,285.2936 C414.064242,285.1376 414.064242,285.1376 414.001212,285.2936 C413.906667,285.5042 413.898788,286.0346 413.993333,285.8786 C414.032727,285.8084 414.072121,285.6914 414.08,285.6056 L414.08,285.6056 Z M361.788485,288.0392 C361.402424,287.618 360,285.59 360,285.4496 C360,285.3092 360.055152,285.2858 360.622424,285.2312 C361.418182,285.1532 361.567879,285.1922 361.780606,285.5276 C361.993333,285.8474 362.01697,285.8474 362.308485,285.629 C362.434545,285.5432 362.592121,285.4808 362.647273,285.5042 C362.757576,285.551 362.986061,286.1984 363.309091,287.3372 C363.403636,287.6804 363.419394,287.8598 363.364242,287.9144 C363.269697,288.008 362.442424,288.2108 362.150909,288.2108 C362.032727,288.2186 361.875152,288.1406 361.788485,288.0392 L361.788485,288.0392 Z M401.647273,284.9426 C401.158788,284.576 400.922424,284.3342 400.88303,284.186 C400.851515,284.069 400.741212,283.562 400.638788,283.055 C400.465455,282.1892 400.457576,282.119 400.575758,281.729 C400.733333,281.1986 400.772727,281.1518 401.221818,281.0036 C401.505455,280.91 401.757576,280.715 402.301212,280.1846 C402.884242,279.5996 403.041818,279.4826 403.246667,279.4826 C403.443636,279.4826 403.538182,279.4124 403.735152,279.1472 C403.884848,278.9444 404.412727,278.492 405.050909,278.0318 C405.641818,277.6028 406.264242,277.1582 406.429697,277.0334 C406.807879,276.7604 407.847879,276.5654 409.864848,276.4016 C410.715758,276.3314 411.385455,276.2378 411.716364,276.1364 C412.330909,275.9414 412.567273,275.9336 412.803636,276.0974 C412.969091,276.2144 412.984848,276.269 412.953333,276.6512 C412.921818,277.0178 412.882424,277.1114 412.58303,277.4156 C412.393939,277.6028 412.149697,277.7744 412.031515,277.7978 C411.771515,277.8602 410.857576,277.9772 409.864848,278.0786 C409.053333,278.1644 408.635758,278.336 407.721818,278.9444 C407.540606,279.0692 407.130909,279.2798 406.815758,279.428 C406.492727,279.5762 405.941212,279.9272 405.570909,280.2314 C405.200606,280.5278 404.72,280.9022 404.507273,281.0582 C404.121212,281.3312 403.42,282.0722 403.065455,282.5714 C402.915758,282.782 402.892121,282.9224 402.892121,283.5386 C402.892121,283.9364 402.931515,284.4902 402.978788,284.7632 C403.081212,285.3482 403.010303,285.4886 402.608485,285.4886 C402.411515,285.4886 402.190909,285.3638 401.647273,284.9426 L401.647273,284.9426 Z M447.501818,275.762 C447.407273,275.5904 447.312727,274.5218 447.375758,274.3658 C447.399394,274.3034 447.454545,274.2566 447.486061,274.2566 C447.525455,274.2566 447.690909,274.163 447.856364,274.0538 C448.108485,273.8744 448.218788,273.851 448.628485,273.8822 C449.156364,273.9134 449.613333,274.1552 449.613333,274.4126 C449.613333,274.553 447.990303,275.801 447.706667,275.8712 C447.635758,275.8946 447.541212,275.8478 447.501818,275.762 L447.501818,275.762 Z M426.213333,275.6606 C426.126667,275.606 426.118788,275.4578 426.189697,274.826 C426.23697,274.4048 426.260606,274.046 426.244848,274.0304 C426.23697,274.0226 426.150303,274.046 426.063636,274.0928 C425.937576,274.163 425.709091,274.1396 425.06303,273.9914 C424.606061,273.8822 424.188485,273.7574 424.125455,273.7106 C423.928485,273.5546 423.668485,272.5796 423.723636,272.2364 C423.770909,271.979 423.755152,271.901 423.652727,271.8698 C423.589697,271.8386 423.534545,271.7762 423.534545,271.7216 C423.534545,271.6592 423.408485,271.472 423.258788,271.2926 C423.101212,271.1132 422.98303,270.9494 422.98303,270.926 C422.98303,270.7856 423.321818,269.5844 423.408485,269.4206 C423.581818,269.1086 424.125455,268.6172 424.28303,268.6484 C424.353939,268.664 424.606061,268.9838 424.834545,269.366 C425.204848,269.9666 425.26,270.1148 425.283636,270.5282 C425.307273,271.0274 425.346667,271.082 425.772121,271.1756 C425.898182,271.199 426.118788,271.3394 426.260606,271.4798 C426.49697,271.7138 426.528485,271.7918 426.528485,272.1818 C426.528485,272.4314 426.56,272.6186 426.607273,272.6186 C426.654545,272.6186 426.82,272.525 426.977576,272.4236 C427.355758,272.1662 427.426667,272.174 427.615758,272.4938 C427.733939,272.6966 427.812727,272.7512 427.938788,272.72 C428.025455,272.6966 428.151515,272.72 428.222424,272.7746 C428.372121,272.8994 428.970909,274.1474 428.970909,274.3424 C428.970909,274.5218 428.931515,274.5452 427.749697,275.0834 C426.331515,275.7308 426.331515,275.7308 426.213333,275.6606 L426.213333,275.6606 Z M444.539394,274.0226 C444.24,273.9446 443.964242,273.8432 443.91697,273.7964 C443.869697,273.7496 443.775152,273.4064 443.696364,273.032 C443.617576,272.6498 443.530909,272.2364 443.507273,272.1038 C443.467879,271.9244 443.483636,271.823 443.593939,271.7216 C443.712121,271.6046 443.822424,271.589 444.279394,271.628 L444.82303,271.6748 L444.767879,271.4252 C444.641818,270.8714 444.641818,270.8636 445.161818,270.8168 C445.421818,270.7856 445.855152,270.6764 446.12303,270.5594 C446.390909,270.4502 446.658788,270.3566 446.721818,270.3566 C447.1,270.3566 447.446667,271.433 447.265455,272.0414 C447.155152,272.4002 446.170303,273.695 445.8,273.9836 C445.492727,274.2098 445.28,274.2176 444.539394,274.0226 L444.539394,274.0226 Z M447.62,271.0352 C447.438788,270.887 447.076364,270.2786 447.107879,270.1538 C447.115758,270.0914 447.604242,269.8184 448.187273,269.5376 C449.313939,268.9994 449.770909,268.898 449.912727,269.1632 C449.999394,269.327 449.802424,270.5048 449.660606,270.6452 C449.605455,270.6998 449.227273,270.8168 448.817576,270.9026 C448.407879,270.9884 447.998182,271.0742 447.911515,271.0976 C447.81697,271.1132 447.690909,271.0898 447.62,271.0352 L447.62,271.0352 Z M412.165455,268.8434 C412.06303,268.7654 411.944848,268.7498 411.732121,268.8044 C411.566667,268.8356 411.338182,268.8668 411.22,268.8668 L410.999394,268.8746 L411.007273,268.3442 C411.015152,268.0556 410.975758,267.5486 410.920606,267.221 C410.833939,266.7296 410.833939,266.597 410.920606,266.4956 C410.975758,266.4332 411.062424,266.3786 411.109697,266.3786 C411.149091,266.3786 411.251515,266.3162 411.330303,266.246 C411.472121,266.129 412.409697,265.8326 412.669697,265.8326 C412.803636,265.8326 413.213333,266.3786 413.213333,266.5658 C413.213333,266.636 413.110909,266.7452 412.992727,266.8232 C412.874545,266.8934 412.756364,266.987 412.724848,267.026 C412.630303,267.1664 412.764242,267.3926 413.032121,267.5564 L413.307879,267.728 L413.898788,267.5798 C414.324242,267.4784 414.521212,267.4628 414.615758,267.5174 C414.789091,267.6266 415.05697,268.274 414.993939,268.4378 C414.930909,268.6094 414.095758,268.9682 413.88303,268.9214 C413.788485,268.898 413.615152,268.7888 413.504848,268.6874 L413.3,268.5002 L413.079394,268.7264 C412.84303,268.976 412.417576,269.0306 412.165455,268.8434 L412.165455,268.8434 Z M408.03697,267.3614 C407.556364,267.0338 407.509091,266.8232 407.863636,266.636 L408.131515,266.5034 L407.895152,266.4566 C407.761212,266.4332 407.64303,266.3552 407.635152,266.285 C407.587879,266.0744 407.918788,265.5206 408.155152,265.4192 C408.265455,265.3646 408.407273,265.271 408.454545,265.2086 C408.525455,265.115 408.651515,265.1462 409.313333,265.4036 C410.124848,265.7234 410.416364,265.9184 410.337576,266.1134 C410.313939,266.1836 410.298182,266.4332 410.290303,266.675 C410.290303,266.9168 410.266667,267.1586 410.227273,267.221 C410.172121,267.3068 408.824848,267.6266 408.525455,267.6266 C408.470303,267.6266 408.249697,267.5096 408.03697,267.3614 L408.03697,267.3614 Z M463.424848,259.5692 C462.904848,259.0154 462.849697,258.8984 462.849697,258.3758 C462.849697,257.7908 462.89697,257.6426 463.093939,257.6426 C463.172727,257.6426 463.440606,257.5022 463.692727,257.3306 C464.220606,256.964 464.393939,256.9406 464.504242,257.2136 C464.693333,257.705 464.488485,259.4366 464.212727,259.7096 C464.015758,259.9046 463.684848,259.85 463.424848,259.5692 L463.424848,259.5692 Z" id="img-russia" sketch:type="MSShapeGroup"></path>
        </g>
    </g>
</svg>