<?xml version="1.0" encoding="UTF-8" standalone="no"?>
<svg width="2560px" height="76px" viewBox="0 0 2560 76" version="1.1" xmlns="http://www.w3.org/2000/svg" xmlns:xlink="http://www.w3.org/1999/xlink">
    <!-- Generator: Sketch 44.1 (41455) - http://www.bohemiancoding.com/sketch -->
    <title>browser</title>
    <desc>Created with Sketch.</desc>
    <defs>
        <linearGradient x1="50%" y1="0%" x2="50%" y2="100%" id="linearGradient-1">
            <stop stop-color="#F2F1F2" offset="0%"></stop>
            <stop stop-color="#D6D4D6" offset="8.39633518%"></stop>
            <stop stop-color="#D6D4D6" offset="100%"></stop>
        </linearGradient>
        <rect id="path-2" x="0" y="0" width="2560" height="1440" rx="10"></rect>
        <filter x="-0.1%" y="-0.2%" width="100.2%" height="100.3%" filterUnits="objectBoundingBox" id="filter-4">
            <feGaussianBlur stdDeviation="1" in="SourceAlpha" result="shadowBlurInner1"></feGaussianBlur>
            <feOffset dx="0" dy="1" in="shadowBlurInner1" result="shadowOffsetInner1"></feOffset>
            <feComposite in="shadowOffsetInner1" in2="SourceAlpha" operator="arithmetic" k2="-1" k3="1" result="shadowInnerInner1"></feComposite>
            <feColorMatrix values="0 0 0 0 1   0 0 0 0 1   0 0 0 0 1  0 0 0 0.895833333 0" type="matrix" in="shadowInnerInner1"></feColorMatrix>
        </filter>
        <radialGradient cx="50%" cy="50%" fx="50%" fy="50%" r="50%" id="radialGradient-5">
            <stop stop-color="#28C93F" offset="0%"></stop>
            <stop stop-color="#2AD143" offset="80%"></stop>
            <stop stop-color="#26CE3F" offset="100%"></stop>
        </radialGradient>
        <circle id="path-6" cx="92" cy="12" r="12"></circle>
        <radialGradient cx="50%" cy="50%" fx="50%" fy="50%" r="50%" id="radialGradient-7">
            <stop stop-color="#FFBD2E" offset="0%"></stop>
            <stop stop-color="#FFC330" offset="80%"></stop>
            <stop stop-color="#FFBE29" offset="100%"></stop>
        </radialGradient>
        <path d="M52,24 C58.627417,24 64,18.627417 64,12 C64,5.372583 58.627417,0 52,0 C45.372583,0 40,5.372583 40,12 C40,18.627417 45.372583,24 52,24 Z" id="path-8"></path>
        <radialGradient cx="50%" cy="50%" fx="50%" fy="50%" r="50%" id="radialGradient-9">
            <stop stop-color="#FF5F56" offset="0%"></stop>
            <stop stop-color="#FF635B" offset="80%"></stop>
            <stop stop-color="#FF5F56" offset="100%"></stop>
        </radialGradient>
        <path d="M12,24 C18.627417,24 24,18.627417 24,12 C24,5.372583 18.627417,0 12,0 C5.372583,0 0,5.372583 0,12 C0,18.627417 5.372583,24 12,24 Z" id="path-10"></path>
        <linearGradient x1="50%" y1="4.16854467%" x2="50%" y2="95.9209736%" id="linearGradient-11">
            <stop stop-color="#C2C0C2" offset="0%"></stop>
            <stop stop-color="#BAB8BA" offset="100%"></stop>
        </linearGradient>
        <linearGradient x1="50%" y1="0%" x2="50%" y2="95.8714803%" id="linearGradient-12">
            <stop stop-color="#A7A5A7" offset="0%"></stop>
            <stop stop-color="#9E9C9E" offset="100%"></stop>
        </linearGradient>
        <polyline id="path-13" points="48 48 0 48 0 0 48 0"></polyline>
        <linearGradient x1="50%" y1="0%" x2="50%" y2="100%" id="linearGradient-14">
            <stop stop-color="#FEFEFE" offset="0%"></stop>
            <stop stop-color="#F2F2F2" offset="100%"></stop>
        </linearGradient>
        <linearGradient x1="50%" y1="0%" x2="50%" y2="100%" id="linearGradient-15">
            <stop stop-color="#D3D1D3" offset="0%"></stop>
            <stop stop-color="#CECCCE" offset="88.19527%"></stop>
            <stop stop-color="#ACAAAC" offset="100%"></stop>
        </linearGradient>
        <rect id="path-16" x="0" y="0" width="53" height="46" rx="8"></rect>
        <filter x="-0.9%" y="-1.1%" width="101.9%" height="104.3%" filterUnits="objectBoundingBox" id="filter-17">
            <feOffset dx="0" dy="1" in="SourceAlpha" result="shadowOffsetOuter1"></feOffset>
            <feComposite in="shadowOffsetOuter1" in2="SourceAlpha" operator="out" result="shadowOffsetOuter1"></feComposite>
            <feColorMatrix values="0 0 0 0 0   0 0 0 0 0   0 0 0 0 0  0 0 0 0.05 0" type="matrix" in="shadowOffsetOuter1"></feColorMatrix>
        </filter>
        <rect id="path-18" x="0" y="0" width="51" height="46" rx="8"></rect>
        <filter x="-1.0%" y="-1.1%" width="102.0%" height="104.3%" filterUnits="objectBoundingBox" id="filter-19">
            <feOffset dx="0" dy="1" in="SourceAlpha" result="shadowOffsetOuter1"></feOffset>
            <feComposite in="shadowOffsetOuter1" in2="SourceAlpha" operator="out" result="shadowOffsetOuter1"></feComposite>
            <feColorMatrix values="0 0 0 0 0   0 0 0 0 0   0 0 0 0 0  0 0 0 0.05 0" type="matrix" in="shadowOffsetOuter1"></feColorMatrix>
        </filter>
        <rect id="path-20" x="0" y="0" width="76" height="46" rx="8"></rect>
        <filter x="-0.7%" y="-1.1%" width="101.3%" height="104.3%" filterUnits="objectBoundingBox" id="filter-21">
            <feOffset dx="0" dy="1" in="SourceAlpha" result="shadowOffsetOuter1"></feOffset>
            <feComposite in="shadowOffsetOuter1" in2="SourceAlpha" operator="out" result="shadowOffsetOuter1"></feComposite>
            <feColorMatrix values="0 0 0 0 0   0 0 0 0 0   0 0 0 0 0  0 0 0 0.05 0" type="matrix" in="shadowOffsetOuter1"></feColorMatrix>
        </filter>
        <rect id="path-22" x="0" y="0" width="76" height="46" rx="8"></rect>
        <filter x="-0.7%" y="-1.1%" width="101.3%" height="104.3%" filterUnits="objectBoundingBox" id="filter-23">
            <feOffset dx="0" dy="1" in="SourceAlpha" result="shadowOffsetOuter1"></feOffset>
            <feComposite in="shadowOffsetOuter1" in2="SourceAlpha" operator="out" result="shadowOffsetOuter1"></feComposite>
            <feColorMatrix values="0 0 0 0 0   0 0 0 0 0   0 0 0 0 0  0 0 0 0.05 0" type="matrix" in="shadowOffsetOuter1"></feColorMatrix>
        </filter>
        <rect id="path-24" x="0" y="0" width="76" height="46" rx="8"></rect>
        <filter x="-0.7%" y="-1.1%" width="101.3%" height="104.3%" filterUnits="objectBoundingBox" id="filter-25">
            <feOffset dx="0" dy="1" in="SourceAlpha" result="shadowOffsetOuter1"></feOffset>
            <feComposite in="shadowOffsetOuter1" in2="SourceAlpha" operator="out" result="shadowOffsetOuter1"></feComposite>
            <feColorMatrix values="0 0 0 0 0   0 0 0 0 0   0 0 0 0 0  0 0 0 0.05 0" type="matrix" in="shadowOffsetOuter1"></feColorMatrix>
        </filter>
        <rect id="path-26" x="0" y="0" width="1048" height="46" rx="8"></rect>
        <filter x="-0.0%" y="-1.1%" width="100.1%" height="104.3%" filterUnits="objectBoundingBox" id="filter-27">
            <feOffset dx="0" dy="1" in="SourceAlpha" result="shadowOffsetOuter1"></feOffset>
            <feComposite in="shadowOffsetOuter1" in2="SourceAlpha" operator="out" result="shadowOffsetOuter1"></feComposite>
            <feColorMatrix values="0 0 0 0 0   0 0 0 0 0   0 0 0 0 0  0 0 0 0.05 0" type="matrix" in="shadowOffsetOuter1"></feColorMatrix>
        </filter>
    </defs>
    <g id="Page-1" stroke="none" stroke-width="1" fill="none" fill-rule="evenodd">
        <g id="Safari" transform="translate(1.000000, 1.000000)">
            <mask id="mask-3" fill="white">
                <use xlink:href="#path-2"></use>
            </mask>
            <g id="window">
                <use fill="url(#linearGradient-1)" fill-rule="evenodd" xlink:href="#path-2"></use>
                <use fill="black" fill-opacity="1" filter="url(#filter-4)" xlink:href="#path-2"></use>
                <rect stroke-opacity="0.218325408" stroke="#000000" stroke-width="1" x="-0.5" y="-0.5" width="2561" height="1441" rx="10"></rect>
            </g>
            <g id="traffic-light" mask="url(#mask-3)">
                <g transform="translate(26.000000, 25.000000)">
                    <g id="green">
                        <use fill="url(#radialGradient-5)" fill-rule="evenodd" xlink:href="#path-6"></use>
                        <circle stroke="#1BAC2B" stroke-width="1" cx="92" cy="12" r="11.5"></circle>
                    </g>
                    <g id="orange">
                        <use fill="url(#radialGradient-7)" fill-rule="evenodd" xlink:href="#path-8"></use>
                        <path stroke="#DFA023" stroke-width="1" d="M52,23.5 C58.3512746,23.5 63.5,18.3512746 63.5,12 C63.5,5.64872538 58.3512746,0.5 52,0.5 C45.6487254,0.5 40.5,5.64872538 40.5,12 C40.5,18.3512746 45.6487254,23.5 52,23.5 Z"></path>
                    </g>
                    <g id="red">
                        <use fill="url(#radialGradient-9)" fill-rule="evenodd" xlink:href="#path-10"></use>
                        <path stroke="#E1453F" stroke-width="1" d="M12,23.5 C18.3512746,23.5 23.5,18.3512746 23.5,12 C23.5,5.64872538 18.3512746,0.5 12,0.5 C5.64872538,0.5 0.5,5.64872538 0.5,12 C0.5,18.3512746 5.64872538,23.5 12,23.5 Z"></path>
                    </g>
                </g>
            </g>
            <g id="new-tab" mask="url(#mask-3)">
                <g transform="translate(2512.000000, 74.000000)" id="button">
                    <g>
                        <use fill="url(#linearGradient-11)" fill-rule="evenodd" xlink:href="#path-13"></use>
                        <path stroke="url(#linearGradient-12)" stroke-width="2" d="M47,47 L47,1 L1,1 L1,47 L47,47 Z"></path>
                    </g>
                </g>
            </g>
            <g id="line" mask="url(#mask-3)" stroke-linecap="square" stroke="#C0BEC0">
                <g transform="translate(-8.000000, 74.000000)" id="bottom">
                    <path d="M9,0.5 L2567,0.5"></path>
                </g>
            </g>
            <g id="controls" mask="url(#mask-3)">
                <g transform="translate(155.000000, 15.000000)">
                    <g id="backward">
                        <g id="button">
                            <use fill="black" fill-opacity="1" filter="url(#filter-17)" xlink:href="#path-16"></use>
                            <use fill="url(#linearGradient-14)" fill-rule="evenodd" xlink:href="#path-16"></use>
                            <rect stroke="url(#linearGradient-15)" stroke-width="1" x="0.5" y="0.5" width="52" height="45" rx="8"></rect>
                        </g>
                        <g id="backward-icon" transform="translate(19.000000, 13.000000)" stroke="#808080" stroke-width="3" stroke-linecap="round">
                            <path d="M0,10 L10,0" id="Line"></path>
                            <path d="M0,10 L10,20" id="Line-Copy-4"></path>
                        </g>
                    </g>
                    <g id="forward" transform="translate(53.000000, 0.000000)">
                        <g id="button">
                            <use fill="black" fill-opacity="1" filter="url(#filter-19)" xlink:href="#path-18"></use>
                            <use fill="url(#linearGradient-14)" fill-rule="evenodd" xlink:href="#path-18"></use>
                            <rect stroke="url(#linearGradient-15)" stroke-width="1" x="0.5" y="0.5" width="50" height="45" rx="8"></rect>
                        </g>
                        <g id="forward-icon" transform="translate(27.000000, 23.000000) scale(-1, 1) translate(-27.000000, -23.000000) translate(22.000000, 13.000000)" stroke="#C6C6C6" stroke-width="3" stroke-linecap="round">
                            <path d="M0,10 L10,0" id="Line"></path>
                            <path d="M0,10 L10,20" id="Line-Copy-4"></path>
                        </g>
                    </g>
                    <g id="sidebar" transform="translate(122.000000, 0.000000)">
                        <g id="button">
                            <use fill="black" fill-opacity="1" filter="url(#filter-21)" xlink:href="#path-20"></use>
                            <use fill="url(#linearGradient-14)" fill-rule="evenodd" xlink:href="#path-20"></use>
                            <rect stroke="url(#linearGradient-15)" stroke-width="1" x="0.5" y="0.5" width="75" height="45" rx="8"></rect>
                        </g>
                        <g id="sidebar-icon" transform="translate(25.000000, 12.000000)" stroke-width="2">
                            <rect id="Rectangle-9" stroke="#737373" x="-1" y="0" width="28" height="22" rx="0.5"></rect>
                            <path d="M9,0.5 L9,21.5" id="Line" stroke="#737373" stroke-linecap="square"></path>
                            <path d="M3,4 L5,4" id="Line" stroke="#A8A8A8" stroke-linecap="square"></path>
                            <path d="M3,8 L5,8" id="Line-Copy" stroke="#A8A8A8" stroke-linecap="square"></path>
                            <path d="M3,12 L5,12" id="Line-Copy-2" stroke="#A8A8A8" stroke-linecap="square"></path>
                        </g>
                    </g>
                    <g id="share" transform="translate(2224.000000, 0.000000)">
                        <g id="button">
                            <use fill="black" fill-opacity="1" filter="url(#filter-23)" xlink:href="#path-22"></use>
                            <use fill="url(#linearGradient-14)" fill-rule="evenodd" xlink:href="#path-22"></use>
                            <rect stroke="url(#linearGradient-15)" stroke-width="1" x="0.5" y="0.5" width="75" height="45" rx="8"></rect>
                        </g>
                        <g id="share-icon" transform="translate(29.000000, 8.000000)" stroke="#737373" stroke-width="2">
                            <path d="M0.491005182,10 L17.4967104,10 C18.3237262,10 19,10.6706623 19,11.4963932 L19,26.5036068 C19,27.3316574 18.3231383,28 17.4997903,28 L0.500209719,28 C-0.326479565,28 -1,27.3279556 -1,26.5036068 L-1,11.4963932 C-1,10.6726596 -0.327106766,10 0.491005182,10 Z" id="Rectangle-10-Copy-2"></path>
                            <path d="M9,18 L9,1" id="Line" stroke-linecap="square"></path>
                            <path d="M9,0 L14,6" id="Line" stroke-linecap="round"></path>
                            <path d="M9,0 L4,6" id="Line-Copy-3" stroke-linecap="round"></path>
                        </g>
                    </g>
                    <g id="show-all-tabs-+-Rectangle-10-+-Rectangle-10-Copy" transform="translate(2314.000000, 0.000000)">
                        <g id="button">
                            <use fill="black" fill-opacity="1" filter="url(#filter-25)" xlink:href="#path-24"></use>
                            <use fill="url(#linearGradient-14)" fill-rule="evenodd" xlink:href="#path-24"></use>
                            <rect stroke="url(#linearGradient-15)" stroke-width="1" x="0.5" y="0.5" width="75" height="45" rx="8"></rect>
                        </g>
                        <g id="tabs-icon" transform="translate(28.000000, 13.000000)" stroke="#737373" stroke-width="2">
                            <rect id="Rectangle-10" x="-1" y="5" width="16" height="16" rx="0.5"></rect>
                            <path d="M5,2.41421356 L5,0.504684448 C5,-0.323630424 5.66483008,-1 6.49826741,-1 L19.5017326,-1 C20.3293192,-1 21,-0.332271494 21,0.498267412 L21,13.5017326 C21,14.3325187 20.3349522,15 19.4953156,15 L17.5857864,15 L5,2.41421356 Z" id="Rectangle-10-Copy"></path>
                        </g>
                    </g>
                </g>
            </g>
            <g id="address-and-search-+-refresh" mask="url(#mask-3)">
                <g transform="translate(725.000000, 15.000000)">
                    <g id="address-and-search">
                        <use fill="black" fill-opacity="1" filter="url(#filter-27)" xlink:href="#path-26"></use>
                        <use fill="url(#linearGradient-14)" fill-rule="evenodd" xlink:href="#path-26"></use>
                        <rect stroke="url(#linearGradient-15)" stroke-width="1" x="0.5" y="0.5" width="1047" height="45" rx="8"></rect>
                    </g>
                    <g id="refresh" stroke-width="1" fill-rule="evenodd" transform="translate(1013.000000, 8.000000)">
                        <path d="M10,6 C4.4771525,6 0,10.4771525 0,16 C0,21.5228475 4.4771525,26 10,26 C15.5228475,26 20,21.5228475 20,16 L20,15" id="Oval-4" stroke="#808080" stroke-width="2"></path>
                        <polygon id="Triangle-1" fill="#808080" transform="translate(13.500000, 6.500000) rotate(-270.000000) translate(-13.500000, -6.500000) " points="13.5 2 19 11 8 11"></polygon>
                    </g>
                </g>
            </g>
        </g>
    </g>
</svg>