<?xml version="1.0" encoding="utf-8"?>
<svg viewBox="0 0 50 50" version="1.1" fill="#0023a0" xmlns="http://www.w3.org/2000/svg">
  <g id="surface1" fill="#0023a0">
    <path d="M 28.625 2 C 28.285 2.004 27.941 2.016 27.594 2.063 C 26.902 2.152 26.145 2.387 25.563 2.969 L 2.844 25.688 C 1.723 26.809 1.723 28.66 2.844 29.781 L 20.219 47.156 C 21.34 48.277 23.191 48.277 24.313 47.156 L 28.41 43.059 C 28.199 42.273 28.074 41.457 28.031 40.617 L 22.906 45.75 C 22.551 46.105 21.98 46.105 21.625 45.75 L 21.5 45.594 L 4.25 28.375 C 3.895 28.02 3.895 27.449 4.25 27.094 L 27 4.375 C 27.156 4.219 27.414 4.121 27.875 4.063 C 28.105 4.031 28.363 4.008 28.656 4 C 28.949 3.988 29.285 4 29.625 4 L 44.5 4 C 45.34 4 46 4.66 46 5.5 L 46 20.375 C 46 21.07 46.059 21.699 46 22.156 C 45.941 22.613 45.785 22.84 45.625 23 L 44.18 24.449 C 44.656 24.652 45.086 24.965 45.398 25.387 C 45.5 25.52 45.578 25.664 45.656 25.813 L 47.031 24.438 C 47.609 23.859 47.848 23.094 47.938 22.406 C 48.027 21.719 48 21.039 48 20.375 L 48 5.5 C 48 3.578 46.422 2 44.5 2 L 29.625 2 C 29.301 2 28.965 1.996 28.625 2 Z M 39 7 C 36.805 7 35 8.805 35 11 C 35 13.195 36.805 15 39 15 C 41.195 15 43 13.195 43 11 C 43 8.805 41.195 7 39 7 Z M 39 9 C 40.117 9 41 9.883 41 11 C 41 12.117 40.117 13 39 13 C 37.883 13 37 12.117 37 11 C 37 9.883 37.883 9 39 9 Z M 43.023 26.184 C 42.797 26.18 42.578 26.254 42.402 26.391 L 37.492 30.07 C 37.418 30.113 37.352 30.164 37.293 30.223 L 36.598 30.738 L 37.109 31.422 C 37.156 31.504 37.211 31.578 37.277 31.645 L 40.996 36.598 C 41.324 37.043 41.953 37.133 42.395 36.801 C 42.836 36.469 42.926 35.844 42.594 35.402 L 40.047 32 C 44.457 32.027 48 35.586 48 40 C 48 44.43 44.43 48 40 48 C 35.57 48 32 44.43 32 40 C 32 37.625 33.027 35.504 34.668 34.035 C 34.949 33.805 35.078 33.434 35.008 33.074 C 34.938 32.715 34.68 32.422 34.328 32.313 C 33.98 32.203 33.598 32.293 33.332 32.547 C 31.289 34.375 30 37.047 30 40 C 30 45.512 34.488 50 40 50 C 45.512 50 50 45.512 50 40 C 50 34.777 45.973 30.48 40.859 30.043 L 43.598 27.988 C 43.949 27.738 44.094 27.289 43.965 26.879 C 43.832 26.469 43.453 26.188 43.023 26.184 Z" fill="#0023a0"/>
    <path d="M 43.023 26.184 C 42.797 26.18 42.578 26.254 42.402 26.391 L 37.492 30.07 C 37.418 30.113 37.352 30.164 37.293 30.223 L 36.598 30.738 L 37.109 31.422 C 37.156 31.504 37.211 31.578 37.277 31.645 L 40.996 36.598 C 41.324 37.043 41.953 37.133 42.395 36.801 C 42.836 36.469 42.926 35.844 42.594 35.402 L 40.047 32 C 44.457 32.027 48 35.586 48 40 C 48 44.43 44.43 48 40 48 C 35.57 48 32 44.43 32 40 C 32 37.625 33.027 35.504 34.668 34.035 C 34.949 33.805 35.078 33.434 35.008 33.074 C 34.938 32.715 34.68 32.422 34.328 32.313 C 33.98 32.203 33.598 32.293 33.332 32.547 C 31.289 34.375 30 37.047 30 40 C 30 45.512 34.488 50 40 50 C 45.512 50 50 45.512 50 40 C 50 34.777 45.973 30.48 40.859 30.043 L 43.598 27.988 C 43.949 27.738 44.094 27.289 43.965 26.879 C 43.832 26.469 43.453 26.188 43.023 26.184 Z" style="fill: rgb(255, 149, 0);"/>
  </g>
</svg>