<?xml version="1.0" encoding="utf-8"?>
<svg viewBox="0 0 50 50" version="1.1" fill="#0023a0" xmlns="http://www.w3.org/2000/svg">
  <path d="M 48.438 31.906 L 47.813 32.688 L 40.063 42.563 L 34.656 37.844 L 33.906 37.188 L 32.594 38.688 L 33.344 39.344 L 39.531 44.75 L 40.344 45.438 L 41 44.625 L 49.375 33.906 L 50 33.125 L 48.438 31.906 Z" style="pointer-events: none; fill: rgb(255, 149, 0);"/>
  <path d="M 21.906 0.406 C 18.207 0.508 15.508 1.586 13.906 3.688 C 12.008 6.188 11.613 10.086 12.813 15.188 C 12.313 15.789 11.992 16.586 12.094 17.688 C 12.395 19.887 13.207 20.789 13.906 21.188 C 14.207 22.887 15.008 24.914 15.906 25.813 L 15.906 29.406 C 15.305 30.805 13.301 31.602 11 32.5 C 7.199 34 2.398 35.906 2 41.906 L 1.906 43 L 34.406 43 L 32.188 41 L 4.094 41 C 4.895 37 8.414 35.613 11.813 34.313 C 14.512 33.211 17.105 32.207 17.906 29.906 L 18 29.688 L 18 24.688 L 17.5 24.406 C 17.102 24.105 16.105 22.211 15.906 20.313 L 15.813 19.5 L 15 19.406 C 14.898 19.406 14.387 19 14.188 17.5 C 14.086 16.699 14.5 16.406 14.5 16.406 L 15.094 16 L 14.906 15.313 C 13.707 10.613 13.898 7.008 15.5 4.906 C 16.699 3.305 18.906 2.414 21.906 2.313 C 23.805 2.313 25.195 2.793 25.594 3.594 L 25.813 4 L 26.313 4.094 C 27.613 4.293 28.586 4.914 29.188 5.813 C 30.688 8.313 29.793 12.793 29.094 15.094 L 28.906 16 L 29.5 16.406 C 29.5 16.406 29.914 16.699 29.813 17.5 C 29.613 19.102 29.102 19.406 29 19.406 L 28.188 19.5 L 28.094 20.313 C 27.895 22.211 26.898 24.207 26.5 24.406 L 26 24.688 L 26 29.688 L 26.094 29.906 C 26.992 32.207 29.488 33.211 32.188 34.313 C 34.988 35.414 37.914 36.586 39.313 39.188 L 39.813 39.688 L 41 38.188 C 39.301 34.988 35.898 33.602 33 32.5 C 30.699 31.602 28.695 30.805 28.094 29.406 L 28.094 25.813 C 28.992 24.914 29.793 22.887 30.094 21.188 C 30.793 20.789 31.707 19.887 31.906 17.688 C 32.008 16.586 31.711 15.789 31.313 15.188 C 31.914 13.188 33.102 8.113 31 4.813 C 30.102 3.414 28.793 2.488 27.094 2.188 C 26.195 0.988 24.305 0.406 21.906 0.406 Z" fill="#0023a0"/>
</svg>