<?xml version="1.0" encoding="utf-8"?>
<svg viewBox="0 0 50 50" version="1.1" fill="#0023a0" xmlns="http://www.w3.org/2000/svg">
  <path d="M 25.105 25 C 24.758 24.988 24.434 25.152 24.238 25.441 C 24.047 25.727 24.016 26.094 24.156 26.41 L 33.156 46.41 C 33.316 46.762 33.66 46.992 34.047 47 C 34.434 47.008 34.789 46.793 34.965 46.449 L 37.387 41.598 L 43.348 46.754 C 43.551 46.93 43.816 47.016 44.082 46.996 C 44.348 46.977 44.594 46.848 44.766 46.645 L 47.863 42.977 C 48.039 42.773 48.121 42.508 48.098 42.242 C 48.074 41.977 47.945 41.73 47.738 41.563 L 41.719 36.566 L 45.641 33.816 C 45.949 33.602 46.109 33.234 46.059 32.863 C 46.008 32.492 45.75 32.18 45.398 32.059 L 25.398 25.059 C 25.305 25.023 25.207 25.004 25.105 25 Z M 26.938 27.715 L 42.898 33.297 L 39.496 35.684 C 39.242 35.859 39.082 36.148 39.07 36.461 C 39.059 36.77 39.191 37.07 39.43 37.27 L 45.688 42.457 L 43.891 44.582 L 37.723 39.246 C 37.488 39.043 37.176 38.961 36.871 39.02 C 36.57 39.078 36.313 39.277 36.172 39.551 L 34.113 43.668 L 26.938 27.715 Z" style="fill: rgb(255, 149, 0);"/>
  <path d="M 24.984 3 C 24.723 3.004 24.473 3.109 24.293 3.297 L 11.684 16 C 11.684 16 1.047 16.191 0.668 16.566 C 0.289 16.945 0.102 17.477 0.102 18 L 0.102 22 C 0.102 22.523 0.289 23.055 0.668 23.434 C 1.047 23.809 1.578 24 2.102 24 L 2.258 24 L 7.641 41.891 C 7.648 41.91 7.656 41.93 7.664 41.953 C 8.086 43.074 9.156 44 10.5 44 L 29.879 44 L 28.98 42 L 10.5 42 C 10.043 42 9.715 41.723 9.539 41.25 L 3.957 22.711 C 3.828 22.289 3.441 22 3 22 L 2.102 22 L 2.102 18 L 37.891 18 C 38.047 18.039 38.211 18.039 38.367 18 L 48.098 18 L 48.098 22 L 47.199 22 C 47.164 22 47.133 22 47.098 22.004 C 46.633 22.043 46.258 22.402 46.195 22.863 L 44.129 29.488 L 46.016 30.152 L 47.938 24 L 48.098 24 C 48.621 24 49.152 23.809 49.531 23.434 C 49.91 23.055 50.098 22.523 50.098 22 L 50.098 18 C 50.098 17.477 49.91 16.945 49.531 16.566 C 49.152 16.191 48.621 16 48.098 16 L 38.512 16 L 25.703 3.289 C 25.512 3.102 25.254 2.996 24.984 3 Z M 25.004 5.414 L 35.672 16 L 14.5 16 L 25.004 5.414 Z" fill="#0023a0"/>
</svg>