<?xml version="1.0" encoding="utf-8"?>
<svg viewBox="0 0 50 50" version="1.1" fill="#0023a0" xmlns="http://www.w3.org/2000/svg">
  <g id="surface1" fill="#0023a0" transform="matrix(1, 0, 0, 1, 0, 5)">
    <path d="M 25 6 C 23.355 6 22 7.355 22 9 L 22 10.406 C 20.055 10.863 18.355 11.766 17.047 13.082 C 15.094 15.055 14 17.848 14 21.063 L 14 28.863 C 14 30.699 12.996 33.027 11.961 34.754 L 10.168 37.445 C 9.965 37.754 9.945 38.148 10.117 38.473 C 10.293 38.797 10.633 39 11 39 L 20 39 C 20 41.746 22.254 44 25 44 C 27.746 44 30 41.746 30 39 L 39 39 C 39.367 39 39.707 38.797 39.883 38.473 C 40.055 38.148 40.035 37.754 39.832 37.445 L 38.047 34.766 L 38.043 34.762 C 36.996 33.016 36 30.836 36 29 L 36 21.199 C 36 15.832 32.805 11.676 28 10.441 L 28 9 C 28 7.355 26.645 6 25 6 Z M 25 8 C 25.555 8 26 8.445 26 9 L 26 10.113 C 25.777 10.094 25.559 10.07 25.332 10.063 C 25.227 10.023 25.113 10.004 25 10 C 24.891 10 24.785 10.02 24.684 10.059 C 24.449 10.063 24.227 10.086 24 10.102 L 24 9 C 24 8.445 24.445 8 25 8 Z M 3.48 9.477 C 1.25 13.102 0 17.418 0 22 C 0 26.582 1.25 30.898 3.48 34.523 L 5.188 33.477 C 3.152 30.168 2 26.219 2 22 C 2 17.781 3.152 13.832 5.188 10.523 Z M 46.52 9.477 L 44.813 10.523 C 46.848 13.832 48 17.781 48 22 C 48 26.219 46.848 30.168 44.813 33.477 L 46.52 34.523 C 48.75 30.898 50 26.582 50 22 C 50 17.418 48.75 13.102 46.52 9.477 Z M 25 12 C 30.512 12 34 15.668 34 21.199 L 34 29 C 34 31.512 35.203 33.918 36.328 35.797 C 36.34 35.809 36.348 35.824 36.355 35.836 L 37.129 37 L 12.871 37 L 13.645 35.836 C 13.652 35.824 13.66 35.809 13.672 35.797 C 14.809 33.902 16 31.375 16 28.863 L 16 21.063 C 16 18.297 16.914 16.059 18.469 14.492 C 20.02 12.926 22.238 12 25 12 Z M 7.816 12.141 C 5.996 15.082 5 18.355 5 22 C 5 25.672 6.129 29.047 7.809 31.848 L 9.523 30.816 C 8.008 28.285 7 25.262 7 22 C 7 18.711 7.871 15.852 9.516 13.191 Z M 42.184 12.141 L 40.484 13.191 C 42.129 15.852 43 18.711 43 22 C 43 25.262 41.992 28.285 40.473 30.816 L 42.191 31.848 C 43.871 29.047 45 25.672 45 22 C 45 18.355 44.004 15.082 42.184 12.141 Z M 22 39 L 28 39 C 28 40.656 26.656 42 25 42 C 23.344 42 22 40.656 22 39 Z" style="fill: rgb(255, 149, 0);"/>
    <path d="M 25 6 C 23.355 6 22 7.355 22 9 L 22 10.406 C 20.055 10.863 18.355 11.766 17.047 13.082 C 15.094 15.055 14 17.848 14 21.063 L 14 28.863 C 14 30.699 12.996 33.027 11.961 34.754 L 10.168 37.445 C 9.965 37.754 9.945 38.148 10.117 38.473 C 10.293 38.797 10.633 39 11 39 L 20 39 C 20 41.746 22.254 44 25 44 C 27.746 44 30 41.746 30 39 L 39 39 C 39.367 39 39.707 38.797 39.883 38.473 C 40.055 38.148 40.035 37.754 39.832 37.445 L 38.047 34.766 L 38.043 34.762 C 36.996 33.016 36 30.836 36 29 L 36 21.199 C 36 15.832 32.805 11.676 28 10.441 L 28 9 C 28 7.355 26.645 6 25 6 Z M 25 8 C 25.555 8 26 8.445 26 9 L 26 10.113 C 25.777 10.094 25.559 10.07 25.332 10.063 C 25.227 10.023 25.113 10.004 25 10 C 24.891 10 24.785 10.02 24.684 10.059 C 24.449 10.063 24.227 10.086 24 10.102 L 24 9 C 24 8.445 24.445 8 25 8 Z M 25 12 C 30.512 12 34 15.668 34 21.199 L 34 29 C 34 31.512 35.203 33.918 36.328 35.797 C 36.34 35.809 36.348 35.824 36.355 35.836 L 37.129 37 L 12.871 37 L 13.645 35.836 C 13.652 35.824 13.66 35.809 13.672 35.797 C 14.809 33.902 16 31.375 16 28.863 L 16 21.063 C 16 18.297 16.914 16.059 18.469 14.492 C 20.02 12.926 22.238 12 25 12 Z M 22 39 L 28 39 C 28 40.656 26.656 42 25 42 C 23.344 42 22 40.656 22 39 Z" fill="#0023a0"/>
  </g>
</svg>