<?xml version="1.0" encoding="utf-8"?>
<svg viewBox="0 0 50 50" fill="#0023a0" xmlns="http://www.w3.org/2000/svg">
  <path style="line-height: normal; text-indent: 0px; text-align: start; text-decoration: none solid rgb(0, 0, 0); text-transform: none; isolation: auto; mix-blend-mode: normal; fill: rgb(255, 149, 0);" d="M 25.99 15.99 C 25.22 15.99 24.739 16.824 25.125 17.491 C 25.17 17.57 25.227 17.643 25.293 17.707 L 31.586 24 L 3 24 C 2.23 23.989 1.737 24.816 2.113 25.488 C 2.292 25.809 2.633 26.005 3 26 L 31.586 26 L 25.293 32.293 C 24.738 32.826 24.968 33.761 25.707 33.975 C 26.064 34.078 26.449 33.975 26.707 33.707 L 34.707 25.707 C 35.097 25.317 35.097 24.683 34.707 24.293 L 26.707 16.293 C 26.519 16.099 26.26 15.99 25.99 15.99 Z" font-weight="400" font-family="sans-serif" white-space="normal" overflow="visible"/>
  <path style="line-height: normal; text-indent: 0px; text-align: start; text-decoration: none solid rgb(0, 0, 0); text-transform: none; isolation: auto; mix-blend-mode: normal;" d="M 25 2 C 15.258 2 6.924 8.069 3.576 16.637 C 3.264 17.34 3.83 18.118 4.596 18.037 C 4.984 17.996 5.312 17.733 5.438 17.363 C 8.492 9.545 16.088 4 25 4 C 36.61 4 46 13.39 46 25 C 46 36.61 36.61 46 25 46 C 16.088 46 8.492 40.455 5.438 32.637 C 5.191 31.907 4.247 31.719 3.739 32.297 C 3.481 32.591 3.418 33.007 3.576 33.363 C 6.924 41.931 15.258 48 25 48 C 37.69 48 48 37.69 48 25 C 48 12.31 37.69 2 25 2 Z" font-weight="400" font-family="sans-serif" white-space="normal" overflow="visible" fill="#0023a0"/>
</svg>