<svg version="1" xmlns="http://www.w3.org/2000/svg" width="986.667" height="986.667" viewBox="0 0 740 740"><path d="M125.5 254.2c-8.8.7-9.5.9-20.7 3.7-35.7 9.2-68.1 39.7-79.7 75.1-4.7 14.1-5.6 20.5-5.6 38 .1 13.4.4 16.2 4 32 .2.8 1.5 4.6 2.9 8.3 11.7 31 36.2 56 66.7 68 8.8 3.5 24.9 7.3 32.4 7.7 12.1.6 487.2.3 492.5-.3 38-4.5 73.3-29.2 90.4-63.3 4.5-9 7.8-18.1 10.2-27.9 3-12.4 3-34.1-.1-48.5-2.7-12.8-4.5-18.1-9.7-28.5-15.1-30.1-42.4-52.4-74.8-61-4.9-1.4-11.3-2.7-14.2-3.1-8.9-1.2-176.7-1.1-177.1.1-.1.5-.2 39.7-.2 87l.1 86h29.9V283.2H540c60.3-.1 74.4.3 84 2.3 9.7 2.1 26.7 10.2 33.6 16.1 4.8 4.2 9.7 8.9 12.4 12 6.9 7.9 13.9 20.6 17 30.7 3.2 10.6 4.1 17.1 4.1 27.2 0 26.2-13.2 52.4-34.6 68.6-6.1 4.6-19.2 11.4-26 13.5-13.5 4.2-9.8 4.1-261.1 4.1-255.1 0-247 .1-261.3-4.7-21.4-7.2-39.6-23.1-49.9-43.5-6.7-13.3-9.2-25.2-8.8-41.9.4-14.9 2.4-23.5 8.3-35.1 14.6-28.9 39.7-45.8 72.6-49 3.2-.3 5.7-.2 5.8.2.1.4.2 21.7.3 47.3.2 49.2.4 51.9 5.2 62.7 6.6 15 20.3 27.3 36.4 32.4 8.9 2.9 24.9 2.9 33.8.1 24.2-7.7 41.3-30.2 41.5-54.6.1-9.7-.5-13.4-3.6-21.8-6.4-17.8-21.9-31.6-40.7-36.4-13.1-3.4-28.6-1.7-38.4 4l-4.3 2.5-.1-30.2c0-16.6-.1-31.6-.1-33.2l-.1-3h-16.2c-9 0-19.9.3-24.3.7zm82 90.3c21.1 10.3 21.3 40 .3 50.9-12.4 6.4-26.9 3.1-35.5-8.2-18.1-23.8 8.4-55.9 35.2-42.7z"/><path d="M273.5 256.1c-7.4 3.7-11.7 10.2-12.1 18.7-.8 16.5 16.1 27.7 31.1 20.6 17-8 16.3-32.7-1.2-40.1-4.7-1.9-13.1-1.6-17.8.8zm90.5 55.6c-20.6 2.4-39.1 15.7-47.3 34-4.2 9.4-5.5 15.8-5.2 26.3.8 25 16 45.4 40 53.6 14 4.8 31.6 3.5 45-3.3 5.3-2.8 14-9.7 17.9-14.3 16-19.1 18.3-45.3 6-67.4-4.7-8.5-13.5-16.8-23.6-22.4-8.2-4.6-23.2-7.6-32.8-6.5zm14.7 31.2c7.3 2 14.9 9.3 17.7 17 5.2 14.5-1.4 30.2-15.2 36.3-24.3 10.8-49.3-15.9-36.6-39.1 7-12.9 19.7-18.2 34.1-14.2zm163-31.3c-.1.1-2.2.4-4.7.8-13.4 1.8-22.9 6.5-33 16.6-11.4 11.4-17 24.3-17.1 39.5 0 18.5 6.5 33.6 19.7 45.3 18.1 16.2 48.2 19.5 63.6 7.2l3.8-3.1V428h30l-.1-31.8c-.1-22-.5-33.6-1.4-37.9-4.7-21.9-21.5-39.4-42.9-44.8-5.9-1.4-17-2.7-17.9-1.9zm16 32.7c9.4 4.8 16.3 15.6 16.3 25.6 0 10.3-6.7 20.9-16.4 25.8-11.1 5.7-26.2 2.5-34.1-7.1-4.4-5.4-6.6-11.5-6.7-19.1-.4-20.3 22.5-34.5 40.9-25.2zm-290-29.6c-.2.5-.3 26-.3 56.8l.1 56 15 .3 15 .2-.2-55.7c-.1-30.7-.2-56.4-.2-57.1-.1-.9-3.7-1.2-14.5-1.2-8 0-14.7.3-14.9.7z"/></svg>